# Blender v2.74 (sub 0) OBJ File: 'Car remote.blend'
# www.blender.org
mtllib Car remote.mtl
o Cube
v 0.023864 -0.001210 -0.006217
v 0.023492 0.018783 -0.006215
v 0.022828 0.018404 -0.008654
v 0.023189 -0.001030 -0.008655
v 0.022372 -0.021346 0.006888
v 0.021355 -0.022466 0.006892
v 0.020463 -0.021294 0.008745
v 0.021436 -0.020221 0.008741
v 0.023913 -0.001210 0.006882
v 0.023542 0.018783 0.006884
v 0.017987 -0.023731 -0.006195
v 0.015934 -0.023939 -0.006187
v 0.015983 -0.023939 0.006912
v 0.018037 -0.023731 0.006904
v -0.023155 0.028808 -0.006040
v -0.022768 0.030830 -0.006041
v -0.022719 0.030830 0.007058
v -0.023106 0.028808 0.007059
v 0.022510 0.031289 -0.006212
v 0.022976 0.030034 -0.006213
v 0.023026 0.030034 0.006886
v 0.022560 0.031289 0.006887
v -0.023757 0.013737 -0.006037
v -0.023499 0.021695 -0.006038
v -0.023450 0.021695 0.007061
v -0.023708 0.013737 0.007062
v -0.015315 -0.024208 -0.006069
v -0.015265 -0.024208 0.007030
v -0.010839 -0.025385 0.005045
v -0.010874 -0.025385 -0.004118
v 0.020503 0.033619 -0.006204
v 0.021686 0.032543 -0.006209
v 0.021735 0.032543 0.006891
v 0.020552 0.033619 0.006895
v -0.023571 -0.015211 -0.006038
v -0.023522 -0.015211 0.007061
v -0.018283 -0.023907 -0.006058
v -0.019573 -0.023477 -0.006053
v -0.019524 -0.023477 0.007046
v -0.018233 -0.023907 0.007041
v 0.018138 0.034658 -0.006195
v 0.019535 0.034192 -0.006200
v 0.019585 0.034192 0.006899
v 0.018187 0.034658 0.006904
v -0.020562 -0.022961 -0.006049
v -0.021465 -0.022273 -0.006046
v -0.021416 -0.022273 0.007053
v -0.020513 -0.022961 0.007050
v 0.022322 -0.021346 -0.006211
v 0.021306 -0.022466 -0.006207
v -0.019585 0.034099 -0.006053
v -0.017606 0.034658 -0.006061
v -0.017557 0.034658 0.007039
v -0.019536 0.034099 0.007046
v 0.023606 -0.018603 -0.006216
v 0.023655 -0.018603 0.006883
v 0.020020 -0.023254 -0.006202
v 0.020069 -0.023254 0.006897
v -0.021435 0.032722 -0.006046
v -0.021385 0.032722 0.007053
v -0.022828 -0.020476 -0.006041
v -0.022779 -0.020476 0.007058
v 0.014191 -0.024208 -0.006180
v 0.014241 -0.024208 0.006919
v 0.023173 -0.020164 -0.006214
v 0.023222 -0.020164 0.006885
v -0.022116 0.027810 0.008905
v -0.021746 0.029746 0.008904
v -0.020469 0.031558 0.008899
v -0.018697 0.032877 0.008892
v -0.016803 0.033412 0.008885
v 0.017428 0.033412 0.008756
v 0.018767 0.032966 0.008751
v 0.019694 0.032417 0.008747
v 0.020827 0.031387 0.008743
v 0.021616 0.030186 0.008740
v 0.022062 0.028984 0.008739
v 0.022557 0.018209 0.008737
v 0.022912 -0.000937 0.008735
v 0.022665 -0.017594 0.008736
v 0.022251 -0.019089 0.008738
v 0.019231 -0.022049 0.008749
v 0.017284 -0.022506 0.008757
v 0.015318 -0.022704 0.008764
v 0.013649 -0.022963 0.008770
v -0.014608 -0.022963 0.008877
v -0.017450 -0.022674 0.008887
v -0.018686 -0.022262 0.008892
v -0.019633 -0.021768 0.008896
v -0.020498 -0.021109 0.008899
v -0.021803 -0.019389 0.008904
v -0.022515 -0.014347 0.008906
v -0.022693 0.013377 0.008907
v -0.022446 0.020998 0.008906
v -0.008833 -0.027697 0.004145
v -0.008861 -0.027697 -0.003233
v 0.009765 -0.025385 -0.004195
v 0.009800 -0.025385 0.004967
v -0.007053 -0.030779 0.003347
v -0.007075 -0.030779 -0.002448
v 0.007759 -0.027697 -0.003296
v 0.007787 -0.027697 0.004083
v -0.005506 -0.032577 0.002653
v -0.005523 -0.032577 -0.001766
v 0.005979 -0.030779 -0.002498
v 0.006001 -0.030779 0.003298
v -0.003610 -0.031638 -0.002049
v -0.004565 -0.030532 -0.002232
v 0.004449 -0.032577 0.002616
v 0.002536 -0.031638 0.002872
v 0.003491 -0.030532 0.003082
v -0.004880 -0.033245 0.002372
v -0.004895 -0.033245 -0.001490
v 0.004432 -0.032577 -0.001804
v -0.004544 -0.030532 0.003112
v -0.003591 -0.031638 0.002922
v 0.003470 -0.030532 -0.002262
v 0.002517 -0.031638 -0.002046
v -0.003406 -0.034658 0.001711
v -0.003415 -0.034658 -0.000840
v 0.003806 -0.033245 -0.001523
v 0.003821 -0.033245 0.002340
v 0.002332 -0.034658 -0.000862
v 0.002341 -0.034658 0.001690
v -0.022516 0.028149 -0.008483
v -0.022850 0.021235 -0.008482
v -0.023101 0.013500 -0.008481
v -0.022920 -0.014640 -0.008481
v -0.022198 -0.019758 -0.008484
v -0.020873 -0.021504 -0.008489
v -0.019995 -0.022173 -0.008492
v -0.019034 -0.022675 -0.008496
v -0.017779 -0.023093 -0.008501
v -0.014894 -0.023386 -0.008512
v 0.013787 -0.023386 -0.008620
v 0.015481 -0.023124 -0.008626
v 0.017477 -0.022922 -0.008633
v 0.019453 -0.022458 -0.008641
v 0.020703 -0.021692 -0.008646
v 0.021691 -0.020603 -0.008649
v 0.022518 -0.019454 -0.008652
v 0.022938 -0.017937 -0.008654
v 0.022326 0.029341 -0.008652
v 0.021873 0.030560 -0.008650
v 0.021072 0.031780 -0.008647
v 0.019922 0.032825 -0.008643
v 0.018982 0.033383 -0.008639
v 0.017623 0.033835 -0.008634
v -0.017122 0.033835 -0.008503
v -0.019045 0.033292 -0.008496
v -0.020843 0.031954 -0.008489
v -0.022139 0.030114 -0.008484
v 0.004565 -0.028635 -0.002996
v 0.004591 -0.028635 0.003807
v -0.005639 -0.028635 0.003846
v -0.005665 -0.028635 -0.002958
vt 0.968613 0.455450
vt 0.993843 0.444461
vt 0.993843 0.373818
vt 0.968613 0.367729
vt 1.000000 0.296591
vt 0.968613 0.305488
vt 0.968613 0.361363
vt 1.000000 0.367729
vt 0.839122 0.723100
vt 0.864658 0.703684
vt 0.864658 0.543046
vt 0.839122 0.523628
vt 0.439091 0.531490
vt 0.413554 0.550908
vt 0.413554 0.711546
vt 0.439091 0.730962
vt 0.970534 0.873808
vt 0.951036 0.882305
vt 0.951036 0.924615
vt 0.970534 0.929295
vt 0.186604 0.841833
vt 0.195004 0.875628
vt 0.254945 0.875628
vt 0.262918 0.841833
vt 0.380642 0.694313
vt 0.382452 0.670057
vt 0.370915 0.660835
vt 0.360797 0.679332
vt 0.897570 0.560278
vt 0.895761 0.584536
vt 0.907373 0.593757
vt 0.917416 0.575261
vt 0.943274 0.885666
vt 0.943274 0.922647
vt 0.202400 0.896961
vt 0.248106 0.896961
vt 0.917416 0.671470
vt 0.907298 0.652973
vt 0.895761 0.662195
vt 0.897570 0.686451
vt 0.360796 0.583123
vt 0.370839 0.601620
vt 0.382452 0.592399
vt 0.380642 0.568140
vt 0.925333 0.893373
vt 0.925333 0.917801
vt 0.205396 0.905056
vt 0.245346 0.905056
vt 0.924863 0.665411
vt 0.924863 0.581319
vt 0.353350 0.589182
vt 0.353350 0.673274
vt 0.950935 0.523628
vt 0.977078 0.522931
vt 0.977078 0.468531
vt 0.950935 0.469227
vt 0.212473 0.922639
vt 0.238861 0.922639
vt 0.940785 0.651140
vt 0.940785 0.595593
vt 0.337428 0.603455
vt 0.337428 0.659002
vt 0.403403 0.581791
vt 0.874810 0.573929
vt 0.874810 0.672800
vt 0.403403 0.680663
vt 0.813496 0.806040
vt 0.837352 0.806311
vt 0.835103 0.629330
vt 0.813534 0.624706
vt 0.318701 0.897492
vt 0.337428 0.893801
vt 0.330551 0.881698
vt 0.311520 0.884854
vt 0.678064 0.626116
vt 0.678026 0.807450
vt 0.944950 0.748087
vt 0.949753 0.873418
vt 0.970135 0.873560
vt 0.965331 0.748229
vt 0.395745 0.877198
vt 0.393176 0.750932
vt 0.372157 0.751078
vt 0.374726 0.877345
vt 0.479250 0.564980
vt 0.476290 0.672854
vt 0.485386 0.673288
vt 0.488345 0.565414
vt 0.503726 0.669387
vt 0.638933 0.669682
vt 0.639159 0.592733
vt 0.503952 0.592437
vt 0.965341 0.665960
vt 0.963616 0.540924
vt 0.950436 0.542537
vt 0.952161 0.667573
vt 0.503721 0.949027
vt 0.638929 0.949323
vt 0.892460 0.848498
vt 0.894645 0.723104
vt 0.880664 0.723100
vt 0.878479 0.848494
vt 0.990678 0.664417
vt 0.988953 0.539381
vt 0.974118 0.540068
vt 0.975843 0.665104
vt 0.867362 0.848727
vt 0.869548 0.723332
vt 0.858935 0.723818
vt 0.856750 0.849212
vt 0.440184 0.755273
vt 0.440452 0.881814
vt 0.454853 0.881612
vt 0.454585 0.755070
vt 0.970932 0.026867
vt 0.968652 0.151895
vt 0.988491 0.153323
vt 0.985861 0.027886
vt 0.678189 0.967050
vt 0.813660 0.965640
vt 0.925333 0.747577
vt 0.930137 0.872908
vt 0.352198 0.750562
vt 0.354767 0.876828
vt 0.813660 0.526628
vt 0.678190 0.527956
vt 0.678064 0.623115
vt 0.813534 0.621787
vt 0.968613 0.170302
vt 0.968613 0.296591
vt 0.986817 0.295633
vt 0.986817 0.169344
vt 0.987236 0.873808
vt 0.982432 0.748477
vt 0.940785 0.544427
vt 0.942510 0.669463
vt 0.504236 0.999704
vt 0.639444 1.000000
vt 0.923147 0.849376
vt 0.925333 0.723981
vt 0.639444 0.523923
vt 0.504236 0.523628
vt 0.425738 0.755423
vt 0.426006 0.881964
vt 0.026278 0.844490
vt 0.160142 0.843042
vt 0.160142 0.564339
vt 0.026278 0.565787
vt 0.409015 0.755423
vt 0.409282 0.881964
vt 0.466927 0.881306
vt 0.466660 0.754764
vt 0.956488 0.025078
vt 0.954617 0.149287
vt 0.978077 0.167976
vt 0.994885 0.167798
vt 0.659241 0.808359
vt 0.659398 0.961204
vt 0.308360 0.870735
vt 0.327525 0.868177
vt 0.329676 0.848995
vt 0.310607 0.850706
vt 0.382722 0.732384
vt 0.363608 0.731889
vt 0.678190 0.525038
vt 0.659398 0.537900
vt 0.659278 0.634700
vt 0.274153 0.833430
vt 0.293434 0.834596
vt 0.303054 0.816328
vt 0.284199 0.814355
vt 0.315463 0.831289
vt 0.334327 0.830400
vt 0.337428 0.814355
vt 0.318701 0.814535
vt 0.441341 0.682603
vt 0.453013 0.698924
vt 0.462058 0.699479
vt 0.448536 0.681445
vt 0.659241 0.989284
vt 0.658748 0.940752
vt 0.284199 0.894824
vt 0.303054 0.893392
vt 0.292973 0.867447
vt 0.273672 0.867733
vt 0.981294 0.525820
vt 0.971121 0.527489
vt 0.658969 0.599254
vt 0.659241 0.533357
vt 0.271781 0.854757
vt 0.291162 0.855020
vt 0.291375 0.844778
vt 0.272003 0.844062
vt 0.418867 0.899462
vt 0.432701 0.899319
vt 0.156869 0.865733
vt 0.172108 0.860080
vt 0.173022 0.538825
vt 0.159884 0.535098
vt 0.402851 0.899462
vt 0.349463 0.730962
vt 0.342067 0.748305
vt 0.402851 0.732243
vt 0.469824 0.699838
vt 0.459407 0.683999
vt 0.658752 0.672947
vt 0.957274 0.529228
vt 0.994638 0.525089
vt 0.970613 0.723734
vt 0.950800 0.723596
vt 0.382419 0.900298
vt 0.402851 0.900155
vt 0.462673 0.555453
vt 0.472273 0.531984
vt 0.461905 0.531490
vt 0.452007 0.554944
vt 0.479235 0.596661
vt 0.479015 0.671459
vt 0.958009 0.692036
vt 0.970821 0.690468
vt 0.479011 0.943286
vt 0.881913 0.873104
vt 0.895503 0.873108
vt 0.981029 0.689636
vt 0.995449 0.688968
vt 0.860791 0.873802
vt 0.871107 0.873330
vt 0.448991 0.731260
vt 0.434992 0.731457
vt 0.992985 0.005151
vt 0.977792 0.002534
vt 0.839122 0.961386
vt 0.931732 0.723100
vt 0.363019 0.899796
vt 0.835751 0.532762
vt 0.813660 0.526550
vt 0.839122 0.850902
vt 0.843656 0.875444
vt 0.987236 0.723975
vt 0.948627 0.693873
vt 0.479511 0.992546
vt 0.925333 0.873961
vt 0.480995 0.531768
vt 0.420950 0.731602
vt 0.026278 0.533277
vt 0.000000 0.537769
vt 0.000000 0.872215
vt 0.026278 0.877339
vt 0.404694 0.731602
vt 0.460728 0.730962
vt 0.963025 0.002864
vt 0.944989 0.471592
vt 0.948389 0.408321
vt 0.950935 0.337535
vt 0.948081 0.080028
vt 0.941682 0.033195
vt 0.928176 0.017217
vt 0.919224 0.011096
vt 0.909420 0.006504
vt 0.897607 0.005925
vt 0.871444 0.001948
vt 0.574829 0.001546
vt 0.557564 0.002398
vt 0.537215 0.004244
vt 0.517072 0.008487
vt 0.504329 0.015499
vt 0.494259 0.025462
vt 0.492379 0.040275
vt 0.491596 0.050376
vt 0.485830 0.205225
vt 0.486812 0.382414
vt 0.491532 0.482295
vt 0.497992 0.492840
vt 0.504526 0.502771
vt 0.517272 0.511313
vt 0.526249 0.516005
vt 0.538079 0.518782
vt 0.889122 0.518010
vt 0.908595 0.515381
vt 0.927330 0.505183
vt 0.940950 0.488552
vt 0.006036 0.478673
vt 0.009927 0.496926
vt 0.023336 0.514014
vt 0.041938 0.526441
vt 0.061838 0.531490
vt 0.421363 0.531490
vt 0.435424 0.527283
vt 0.445159 0.522105
vt 0.457057 0.512397
vt 0.465350 0.501071
vt 0.470039 0.489744
vt 0.475245 0.388157
vt 0.479011 0.207648
vt 0.476439 0.050609
vt 0.472086 0.036520
vt 0.463534 0.025845
vt 0.453312 0.015731
vt 0.440378 0.008615
vt 0.419933 0.004307
vt 0.399278 0.002435
vt 0.381753 0.000000
vt 0.084970 0.000000
vt 0.055118 0.002718
vt 0.042139 0.006602
vt 0.032188 0.011262
vt 0.023101 0.017476
vt 0.009392 0.033694
vt 0.001909 0.081230
vt 0.000000 0.342603
vt 0.002584 0.414452
vt 0.311231 0.810780
vt 0.289362 0.767073
vt 0.195483 0.769573
vt 0.177017 0.814355
vt 0.968613 0.169344
vt 0.950935 0.175121
vt 0.950935 0.448226
vt 0.968613 0.454520
vt 0.177017 0.535064
vt 0.195483 0.574218
vt 0.289362 0.571718
vt 0.311231 0.531490
vt 0.271781 0.814355
vt 0.337428 0.807640
vt 0.337428 0.536155
vn -0.248700 -0.896600 -0.366500
vn -0.507100 -0.597400 -0.621200
vn -0.502500 -0.597400 0.625000
vn -0.245900 -0.896600 0.368400
vn -0.530700 -0.558700 -0.637300
vn -0.525900 -0.558700 0.641300
vn 0.507100 -0.597400 0.621200
vn 0.248700 -0.896600 0.366500
vn 0.245900 -0.896600 -0.368400
vn 0.502400 -0.597400 -0.625000
vn -0.472300 -0.624900 -0.621700
vn -0.467600 -0.624900 0.625200
vn 0.529600 -0.559600 0.637500
vn 0.524800 -0.559600 -0.641400
vn 0.051000 -0.250800 -0.966700
vn 0.015600 -0.261400 -0.965100
vn -0.055300 -0.252600 0.966000
vn -0.015700 -0.262400 0.964800
vn 0.470300 -0.626300 0.621800
vn -0.451500 -0.685600 -0.571000
vn -0.447200 -0.685600 0.574400
vn 0.465600 -0.626300 -0.625300
vn 0.022900 -0.261400 0.965000
vn 0.058300 -0.250800 0.966300
vn -0.022900 -0.262400 -0.964700
vn -0.062600 -0.252600 -0.965500
vn -0.282500 -0.844400 -0.455200
vn -0.279000 -0.844400 0.457300
vn 0.451500 -0.685600 0.571100
vn 0.447200 -0.685600 -0.574400
vn 0.279000 -0.844400 -0.457300
vn 0.282500 -0.844400 0.455200
vn -0.028500 -0.279300 -0.959800
vn -0.021300 -0.279300 0.960000
vn 0.028500 -0.279300 0.959800
vn 0.021300 -0.279300 -0.960000
vn 0.990700 0.001500 -0.136200
vn 0.608200 0.001600 -0.793800
vn 0.606900 0.018900 -0.794600
vn 0.990100 0.032500 -0.136600
vn 0.736300 -0.596900 0.318700
vn 0.355900 -0.282700 0.890700
vn 0.300400 -0.356900 0.884500
vn 0.604700 -0.729600 0.319300
vn 0.969400 0.032200 0.243400
vn 0.970100 0.001200 0.242600
vn 0.164400 -0.971300 -0.172100
vn 0.162100 -0.938800 0.304000
vn 0.120300 -0.945100 0.303900
vn 0.123200 -0.977700 -0.170200
vn -0.982600 0.122000 -0.139800
vn -0.955900 0.121600 0.267300
vn -0.873000 0.385400 0.299000
vn -0.904500 0.393700 -0.164000
vn 0.876200 0.448900 -0.175600
vn 0.848000 0.436100 0.301400
vn 0.940400 0.205700 0.270900
vn 0.966100 0.206400 -0.154900
vn -0.991500 0.013400 -0.129400
vn -0.967900 0.013500 0.250900
vn -0.966500 0.039800 0.253700
vn -0.990600 0.040400 -0.131000
vn 0.583000 0.790100 -0.189300
vn 0.563100 0.760800 0.322600
vn 0.719400 0.618600 0.315900
vn 0.745000 0.640700 -0.185800
vn -0.987800 -0.076600 -0.135500
vn -0.962400 -0.077300 0.260600
vn -0.211200 -0.961800 -0.173900
vn -0.204200 -0.929000 0.308700
vn -0.371100 -0.871000 0.322000
vn -0.386200 -0.904300 -0.182000
vn 0.163400 0.971300 -0.172900
vn 0.162800 0.939000 0.302800
vn 0.397000 0.860400 0.319700
vn 0.409200 0.893300 -0.186100
vn -0.528000 -0.828900 -0.184800
vn -0.506700 -0.797800 0.326800
vn -0.667500 -0.670800 0.323300
vn -0.695100 -0.695400 -0.182300
vn 0.762800 -0.619200 -0.186400
vn 0.625800 -0.757000 -0.188100
vn -0.437300 0.880700 -0.182000
vn -0.421000 0.849100 0.319200
vn -0.137900 0.943100 0.302600
vn -0.141500 0.975200 -0.170300
vn 0.952300 -0.149300 0.266100
vn 0.977200 -0.148800 -0.151500
vn 0.376700 -0.908100 -0.182600
vn 0.366900 -0.875700 0.313800
vn -0.675400 0.663600 0.321500
vn -0.703100 0.687500 -0.181500
vn -0.875000 -0.381800 0.297500
vn -0.906500 -0.389200 -0.163600
vn 0.128000 -0.934200 0.333100
vn 0.125700 -0.970700 -0.204900
vn -0.100900 -0.973900 -0.203300
vn -0.099700 -0.937400 0.333600
vn 0.884700 -0.432100 -0.174800
vn 0.856500 -0.421000 0.298700
vn -0.201800 0.428500 0.880700
vn -0.052500 0.484600 0.873200
vn 0.518000 0.001700 0.855400
vn 0.523300 -0.057600 0.850200
vn 0.177300 -0.442100 0.879300
vn 0.076300 -0.465400 0.881800
vn -0.473400 0.180000 0.862300
vn -0.336400 0.324900 0.883900
vn 0.521100 0.084600 0.849300
vn 0.516700 0.015400 0.856000
vn -0.327900 -0.325900 0.886700
vn -0.485600 -0.175300 0.856400
vn 0.063400 -0.456700 0.887300
vn 0.034900 -0.480200 0.876500
vn 0.360700 0.299000 0.883500
vn 0.435800 0.209100 0.875400
vn -0.515000 -0.030000 0.856700
vn -0.016800 -0.476600 0.879000
vn -0.089100 -0.466800 0.879800
vn 0.191400 0.419900 0.887200
vn 0.274000 0.365900 0.889400
vn -0.506100 0.019800 0.862200
vn -0.508800 0.051800 0.859300
vn -0.172200 -0.421400 0.890300
vn -0.238400 -0.382600 0.892600
vn 0.455400 -0.200900 0.867300
vn 0.068900 0.486000 0.871200
vn -0.511300 0.005600 0.859400
vn 0.071700 -0.575300 -0.814800
vn 0.090900 -0.583000 -0.807400
vn -0.584200 0.231500 -0.777900
vn -0.615400 0.066800 -0.785400
vn 0.616100 0.112000 -0.779700
vn 0.535500 0.265500 -0.801700
vn -0.609900 0.024000 -0.792100
vn -0.614200 0.007300 -0.789100
vn 0.450100 0.382600 -0.806800
vn 0.344300 0.469800 -0.812900
vn -0.620000 -0.039900 -0.783600
vn -0.228800 -0.537600 -0.811600
vn -0.123100 -0.585400 -0.801300
vn 0.238800 0.535700 -0.809900
vn 0.085700 0.604100 -0.792300
vn -0.424600 -0.417300 -0.803400
vn -0.314000 -0.490900 -0.812600
vn 0.376300 -0.456700 -0.806100
vn 0.447200 -0.362400 -0.817700
vn -0.078400 0.602300 -0.794400
vn -0.266200 0.543200 -0.796300
vn 0.618200 -0.077700 -0.782200
vn 0.221000 -0.558400 -0.799600
vn -0.434000 0.415500 -0.799400
vn -0.595200 -0.227600 -0.770700
vn 0.039000 -0.596300 -0.801800
vn -0.030100 -0.592100 -0.805300
vn 0.555300 -0.256600 -0.791000
usemtl Car_remote
s 1
f 30/1/1 96/2/2 95/3/3 29/4/4
f 96/5/2 100/6/5 99/7/6 95/8/3
f 29/9/4 95/10/3 102/11/7 98/12/8
f 97/13/9 101/14/10 96/15/2 30/16/1
f 100/17/5 104/18/11 103/19/12 99/20/6
f 102/21/7 106/22/13 105/23/14 101/24/10
f 100/25/5 108/26/15 107/27/16 104/28/11
f 106/29/13 111/30/17 110/31/18 109/32/19
f 104/18/11 113/33/20 112/34/21 103/19/12
f 106/22/13 109/35/19 114/36/22 105/23/14
f 103/37/12 116/38/23 115/39/24 99/40/6
f 114/41/22 118/42/25 117/43/26 105/44/14
f 113/33/20 120/45/27 119/46/28 112/34/21
f 109/35/19 122/47/29 121/48/30 114/36/22
f 103/37/12 112/49/21 122/50/29 109/32/19
f 114/41/22 121/51/30 113/52/20 104/28/11
f 123/53/31 124/54/32 119/55/28 120/56/27
f 122/47/29 124/57/32 123/58/31 121/48/30
f 112/49/21 119/59/28 124/60/32 122/50/29
f 121/51/30 123/61/31 120/62/27 113/52/20
f 109/32/19 110/31/18 116/38/23 103/37/12
f 104/28/11 107/27/16 118/42/25 114/41/22
f 105/44/14 117/43/26 153/63/33 101/14/10
f 102/11/7 154/64/34 111/30/17 106/29/13
f 99/40/6 115/39/24 155/65/35 95/10/3
f 96/15/2 156/66/36 108/26/15 100/25/5
f 95/10/3 155/65/35 154/64/34 102/11/7
f 101/14/10 153/63/33 156/66/36 96/15/2
usemtl Material
f 1/67/37 4/68/38 3/69/39 2/70/40
f 5/71/41 8/72/42 7/73/43 6/74/44
f 2/70/40 10/75/45 9/76/46 1/67/37
f 11/77/47 14/78/48 13/79/49 12/80/50
f 15/81/51 18/82/52 17/83/53 16/84/54
f 19/85/55 22/86/56 21/87/57 20/88/58
f 23/89/59 26/90/60 25/91/61 24/92/62
f 31/93/63 34/94/64 33/95/65 32/96/66
f 35/97/67 36/98/68 26/90/60 23/89/59
f 37/99/69 40/100/70 39/101/71 38/102/72
f 41/103/73 44/104/74 43/105/75 42/106/76
f 45/107/77 48/108/78 47/109/79 46/110/80
f 49/111/81 5/112/41 6/113/44 50/114/82
f 51/115/83 54/116/84 53/117/85 52/118/86
f 1/67/37 9/76/46 56/119/87 55/120/88
f 57/121/89 58/122/90 14/78/48 11/77/47
f 16/84/54 17/83/53 60/123/91 59/124/92
f 20/125/58 21/126/57 10/127/45 2/128/40
f 46/129/80 47/130/79 62/131/93 61/132/94
f 12/80/50 13/79/49 64/133/95 63/134/96
f 32/96/66 33/95/65 22/135/56 19/136/55
f 61/137/94 62/138/93 36/98/68 35/97/67
f 27/139/97 28/140/98 40/100/70 37/99/69
f 42/106/76 43/105/75 34/94/64 31/93/63
f 24/92/62 25/91/61 18/141/52 15/142/51
f 38/102/72 39/101/71 48/108/78 45/107/77
f 65/143/99 66/144/100 5/112/41 49/111/81
f 52/145/86 53/146/85 44/147/74 41/148/73
f 55/149/88 56/150/87 66/144/100 65/143/99
f 50/114/82 6/113/44 58/151/90 57/152/89
f 59/153/92 60/154/91 54/116/84 51/115/83
f 54/116/84 70/155/101 71/156/102 53/117/85
f 9/76/46 79/157/103 80/158/104 56/119/87
f 58/159/90 82/160/105 83/161/106 14/162/48
f 17/83/53 68/163/107 69/164/108 60/123/91
f 21/165/57 77/166/109 78/167/110 10/75/45
f 47/168/79 90/169/111 91/170/112 62/171/93
f 13/172/49 84/173/113 85/174/114 64/175/95
f 33/176/65 75/177/115 76/178/116 22/179/56
f 62/138/93 91/180/112 92/181/117 36/98/68
f 28/182/98 86/183/118 87/184/119 40/185/70
f 43/105/75 73/186/120 74/187/121 34/94/64
f 25/91/61 94/188/122 67/189/123 18/141/52
f 39/190/71 88/191/124 89/192/125 48/193/78
f 66/144/100 81/194/126 8/195/42 5/112/41
f 53/196/85 71/197/102 72/198/127 44/199/74
f 56/150/87 80/200/104 81/194/126 66/144/100
f 6/74/44 7/73/43 82/160/105 58/159/90
f 60/123/91 69/164/108 70/201/101 54/202/84
f 10/75/45 78/167/110 79/157/103 9/76/46
f 14/162/48 83/161/106 84/173/113 13/172/49
f 18/82/52 67/203/123 68/163/107 17/83/53
f 22/179/56 76/178/116 77/204/109 21/205/57
f 26/90/60 93/206/128 94/188/122 25/91/61
f 34/94/64 74/187/121 75/207/115 33/95/65
f 36/98/68 92/181/117 93/206/128 26/90/60
f 40/185/70 87/184/119 88/191/124 39/190/71
f 44/104/74 72/208/127 73/186/120 43/105/75
f 48/193/78 89/192/125 90/169/111 47/168/79
f 12/80/50 136/209/129 137/210/130 11/77/47
f 16/84/54 152/211/131 125/212/132 15/81/51
f 20/213/58 143/214/133 144/215/134 19/216/55
f 24/92/62 126/217/135 127/218/136 23/89/59
f 32/96/66 145/219/137 146/220/138 31/93/63
f 23/89/59 127/218/136 128/221/139 35/97/67
f 38/102/72 132/222/140 133/223/141 37/99/69
f 42/106/76 147/224/142 148/225/143 41/103/73
f 46/110/80 130/226/144 131/227/145 45/107/77
f 50/114/82 139/228/146 140/229/147 49/111/81
f 52/118/86 149/230/148 150/231/149 51/115/83
f 55/120/88 142/232/150 4/68/38 1/67/37
f 11/77/47 137/210/130 138/233/151 57/121/89
f 59/124/92 151/234/152 152/211/131 16/84/54
f 2/70/40 3/69/39 143/235/133 20/236/58
f 61/237/94 129/238/153 130/226/144 46/110/80
f 63/134/96 135/239/154 136/209/129 12/80/50
f 19/136/55 144/240/134 145/219/137 32/96/66
f 35/97/67 128/221/139 129/241/153 61/137/94
f 37/99/69 133/223/141 134/242/155 27/139/97
f 31/93/63 146/220/138 147/224/142 42/106/76
f 15/142/51 125/243/132 126/217/135 24/92/62
f 45/107/77 131/227/145 132/222/140 38/102/72
f 49/111/81 140/229/147 141/244/156 65/143/99
f 41/245/73 148/246/143 149/247/148 52/248/86
f 65/143/99 141/244/156 142/249/150 55/149/88
f 57/152/89 138/250/151 139/228/146 50/114/82
f 51/115/83 150/231/149 151/251/152 59/153/92
usemtl Car_remote_front
f 67/252/123 94/253/122 93/254/128 92/255/117 91/256/112 90/257/111 89/258/125 88/259/124 87/260/119 86/261/118 85/262/114 84/263/113 83/264/106 82/265/105 7/266/43 8/267/42 81/268/126 80/269/104 79/270/103 78/271/110 77/272/109 76/273/116 75/274/115 74/275/121 73/276/120 72/277/127 71/278/102 70/279/101 69/280/108 68/281/107
usemtl Remote_car_back
f 125/282/132 152/283/131 151/284/152 150/285/149 149/286/148 148/287/143 147/288/142 146/289/138 145/290/137 144/291/134 143/292/133 3/293/39 4/294/38 142/295/150 141/296/156 140/297/147 139/298/146 138/299/151 137/300/130 136/301/129 135/302/154 134/303/155 133/304/141 132/305/140 131/306/145 130/307/144 129/308/153 128/309/139 127/310/136 126/311/135
usemtl Car_remote_bottom
f 27/312/97 30/313/1 29/314/4 28/315/98
f 64/316/95 85/317/114 86/318/118 28/319/98
f 64/320/95 98/321/8 97/322/9 63/323/96
f 28/315/98 29/314/4 98/321/8 64/320/95
f 63/323/96 97/322/9 30/313/1 27/312/97
f 98/315/8 102/21/7 101/24/10 97/324/9
f 27/312/97 134/325/155 135/326/154 63/323/96
