# This file uses centimeters as units for non-parametric coordinates.

mtllib houseTop.mtl
g default
v -26.110233 4.556159 -25.081085
v -22.291792 4.556159 -25.081085
v -26.110233 4.556159 -16.848267
v -22.291792 4.556159 -16.848267
v -24.279882 5.961600 -25.081085
v -24.122143 5.961600 -25.081085
v -24.279882 5.961600 -16.848267
v -24.122143 5.961600 -16.848267
v -24.244032 6.317399 -25.081085
v -24.157993 6.317399 -25.081085
v -24.244032 6.317399 -16.848267
v -24.157993 6.317399 -16.848267
v -26.328543 4.556159 -25.081085
v -22.073483 4.556159 -25.081085
v -26.328543 4.556159 -16.848267
v -22.073483 4.556159 -16.848267
v -24.140068 6.139500 -16.848267
v -24.261957 6.139500 -16.848267
v -26.219387 4.556159 -16.848267
v -26.219387 4.556159 -25.081085
v -24.261957 6.139500 -25.081085
v -24.140068 6.139500 -25.081085
v -22.182636 4.556159 -25.081085
v -22.182636 4.556159 -16.848267
v -24.140068 6.139500 -16.763166
v -24.261957 6.139500 -16.763166
v -24.157993 6.317399 -16.763166
v -24.244032 6.317399 -16.763166
v -26.219387 4.556159 -16.763166
v -26.328543 4.556159 -16.763166
v -22.182636 4.556159 -16.763166
v -22.073483 4.556159 -16.763166
v -31.866425 3.223822 -17.942141
v -23.130512 3.223822 -17.942141
v -31.866425 5.776723 -21.370848
v -23.130512 5.282978 -21.370848
v -31.866425 5.776723 -21.614647
v -23.130512 5.282978 -21.614647
v -31.866425 3.223822 -25.043354
v -23.130512 3.223822 -25.043354
v -31.866425 2.934496 -25.043354
v -23.130512 2.934496 -25.043354
v -23.130512 2.934496 -17.942141
v -31.866425 2.934496 -17.942141
v -32.024517 3.134962 -25.201447
v -22.972420 3.134962 -25.201447
v -22.972420 3.023356 -25.201447
v -32.024517 3.023356 -25.201447
v -22.972420 3.134962 -17.784048
v -22.972420 3.023356 -17.784048
v -32.024517 3.134962 -17.784048
v -32.024517 3.023356 -17.784048
v -23.130512 4.950219 -20.260801
v -31.866425 4.950219 -20.260801
v -31.866425 4.950219 -22.724693
v -23.130512 4.950219 -22.724693
v -23.767590 4.950219 -20.260803
v -23.767590 3.223822 -17.942141
v -23.632555 3.134962 -17.784048
v -23.632555 3.023356 -17.784048
v -23.767590 2.934496 -17.942141
v -23.767590 2.934496 -25.043354
v -23.632555 3.023356 -25.201447
v -23.632555 3.134962 -25.201447
v -23.767590 3.223822 -25.043354
v -23.767590 4.950219 -22.724693
v -23.767590 5.776723 -21.614647
v -23.767590 5.776723 -21.370848
vt 0.176204 0.670037
vt 0.169294 0.670037
vt 0.169294 0.008827
vt 0.176204 0.008827
vt 0.001878 0.670037
vt 0.001878 0.008827
vt 0.169294 0.001992
vt 0.176204 0.001992
vt 0.343619 0.008827
vt 0.343619 0.670037
vt 0.001878 0.001992
vt 0.343619 0.001992
vt 0.728968 0.166528
vt 0.728968 0.179197
vt 0.714681 0.177757
vt 0.714681 0.167968
vt 0.841845 0.326200
vt 0.841845 0.334966
vt 0.700393 0.176317
vt 0.700393 0.169408
vt 0.841845 0.019525
vt 0.841845 0.010759
vt 0.841845 0.343733
vt 0.841845 0.001992
vt 0.779520 0.842239
vt 0.779520 0.829570
vt 0.793808 0.831010
vt 0.793808 0.840799
vt 0.666643 0.682567
vt 0.666643 0.673801
vt 0.666643 0.989241
vt 0.666643 0.998008
vt 0.359994 0.001992
vt 0.368761 0.001992
vt 0.368761 0.663202
vt 0.359994 0.663202
vt 0.515763 0.663202
vt 0.515763 0.001992
vt 0.351228 0.001992
vt 0.351228 0.663202
vt 0.528432 0.663202
vt 0.528432 0.001992
vt 0.359994 0.670037
vt 0.351228 0.670037
vt 0.675435 0.663202
vt 0.675435 0.001992
vt 0.684202 0.001992
vt 0.684202 0.663202
vt 0.692968 0.001992
vt 0.692968 0.663202
vt 0.692968 0.670037
vt 0.684202 0.670037
vt 0.926757 0.523261
vt 0.926757 0.513472
vt 0.941045 0.514912
vt 0.941045 0.521822
vt 0.799593 0.356263
vt 0.799593 0.347496
vt 0.799593 0.680470
vt 0.799593 0.689237
vt 0.654023 0.840799
vt 0.654023 0.831010
vt 0.660858 0.831010
vt 0.660858 0.840799
vt 0.654023 0.673801
vt 0.660858 0.673801
vt 0.654023 0.998008
vt 0.660858 0.998008
vt 0.010966 0.506697
vt 0.010966 0.010816
vt 0.205591 0.010816
vt 0.205591 0.506697
vt 0.219430 0.010816
vt 0.219430 0.506697
vt 0.414056 0.010816
vt 0.414056 0.506697
vt 0.439930 0.506697
vt 0.439930 0.010816
vt 0.843020 0.010816
vt 0.843020 0.506697
vt 0.702049 0.922752
vt 0.702049 0.519662
vt 0.846961 0.714287
vt 0.846961 0.728126
vt 0.853096 0.922752
vt 0.853096 0.519662
vt 0.998008 0.714287
vt 0.998008 0.728126
vt 0.859726 0.515671
vt 0.859726 0.001842
vt 0.866061 0.001842
vt 0.866061 0.515671
vt 0.906989 0.001842
vt 0.906989 0.422879
vt 0.900654 0.422879
vt 0.900654 0.001842
vt 0.879704 0.001842
vt 0.879704 0.515671
vt 0.873369 0.515671
vt 0.873369 0.001842
vt 0.893346 0.001842
vt 0.893346 0.422879
vt 0.887011 0.422879
vt 0.887011 0.001842
vt 0.423029 0.001842
vt 0.423029 0.515670
vt 0.430956 0.515671
vt 0.430956 0.001842
vt 0.001992 0.001842
vt 0.851994 0.001842
vt 0.001992 0.515670
vt 0.851994 0.515671
vt 0.142581 0.010816
vt 0.800046 0.791136
vt 0.951093 0.651277
vt 0.142581 0.506697
vt 0.951093 0.791136
vt 0.282440 0.506697
vt 0.282440 0.010816
vt 0.800046 0.651277
vt 0.142581 0.046978
vt 0.010966 0.046978
vt 0.001992 0.039313
vt 0.879704 0.039313
vt 0.873369 0.039313
vt 0.851994 0.039313
vt 0.843020 0.046978
vt 0.439930 0.046978
vt 0.430956 0.039313
vt 0.866061 0.039313
vt 0.859726 0.039313
vt 0.423029 0.039313
vt 0.414056 0.046978
vt 0.282440 0.046978
vt 0.219430 0.046978
vt 0.205591 0.046978
vn 0.000000 1.000000 0.000000
vn 0.000000 1.000000 0.000000
vn 0.000000 1.000000 0.000000
vn 0.000000 1.000000 0.000000
vn -0.645392 0.763852 0.000000
vn -0.645392 0.763852 0.000000
vn -0.645392 0.763852 0.000000
vn -0.645392 0.763852 0.000000
vn 0.645392 0.763852 0.000000
vn 0.645392 0.763852 0.000000
vn 0.645392 0.763852 0.000000
vn 0.645392 0.763852 0.000000
vn 0.000000 0.000000 -1.000000
vn 0.000006 0.000000 -1.000000
vn -0.000005 0.000000 -1.000000
vn 0.000010 0.000000 -1.000000
vn -0.000008 0.000000 1.000000
vn 0.000006 0.000000 1.000000
vn 0.000005 0.000000 1.000000
vn -0.000007 0.000000 1.000000
vn 0.000000 -1.000000 0.000000
vn 0.000000 -1.000000 0.000000
vn 0.000000 -1.000000 0.000000
vn 0.000000 -1.000000 0.000000
vn 0.000006 0.000000 -1.000000
vn -0.000006 0.000000 -1.000000
vn 0.000000 0.000000 -1.000000
vn 0.000012 0.000000 -1.000000
vn -0.000008 0.000000 1.000000
vn -0.000008 0.000000 1.000000
vn 0.000000 -1.000000 0.000000
vn 0.000000 -1.000000 0.000000
vn 0.000000 -1.000000 0.000000
vn 0.000000 -1.000000 0.000000
vn 0.000006 0.000000 1.000000
vn 0.000006 0.000000 1.000000
vn 0.609024 -0.793152 0.000000
vn 0.609024 -0.793152 0.000000
vn 0.609024 -0.793152 0.000000
vn 0.609024 -0.793152 0.000000
vn -0.609024 -0.793152 0.000000
vn -0.609024 -0.793152 0.000000
vn -0.609024 -0.793152 0.000000
vn -0.609024 -0.793152 0.000000
vn 0.000000 -1.000000 0.000000
vn 0.000000 -1.000000 0.000000
vn 0.000000 -1.000000 0.000000
vn 0.000000 -1.000000 0.000000
vn 0.000000 0.000000 1.000000
vn 0.000001 0.000000 1.000000
vn 0.000001 0.000000 1.000000
vn 0.000000 0.000000 1.000000
vn 0.000000 0.000000 1.000000
vn 0.000000 0.000000 1.000000
vn 0.000000 -1.000000 0.000000
vn 0.000000 -1.000000 0.000000
vn -0.000009 0.000000 -1.000000
vn -0.000008 0.000000 -1.000000
vn 0.000013 0.000000 -1.000000
vn 0.000015 0.000000 -1.000000
vn 0.000000 -1.000000 0.000000
vn 0.000000 -1.000000 0.000000
vn 0.000001 0.000000 1.000000
vn 0.000001 0.000000 1.000000
vn 0.000000 -1.000000 0.000000
vn 0.000000 -1.000000 0.000000
vn 0.000000 -1.000000 0.000000
vn 0.000000 -1.000000 0.000000
vn 0.000000 1.000000 0.000000
vn 0.000000 1.000000 0.000000
vn 0.000000 1.000000 0.000000
vn 0.000000 1.000000 0.000000
vn 0.628900 -0.777486 0.000000
vn 0.628900 -0.777486 0.000000
vn 0.628900 -0.777486 0.000000
vn 0.628900 -0.777486 0.000000
vn -0.645391 0.763853 0.000000
vn -0.645391 0.763853 0.000000
vn -0.645391 0.763853 0.000000
vn -0.645391 0.763853 0.000000
vn 0.000000 -1.000000 0.000000
vn 0.000000 -1.000000 0.000000
vn 0.000000 -1.000000 0.000000
vn 0.000000 -1.000000 0.000000
vn -0.628900 -0.777487 0.000000
vn -0.628900 -0.777487 0.000000
vn -0.628900 -0.777487 0.000000
vn -0.628900 -0.777487 0.000000
vn 0.000000 -1.000000 0.000000
vn 0.000000 -1.000000 0.000000
vn 0.000000 -1.000000 0.000000
vn 0.000000 -1.000000 0.000000
vn 0.645390 0.763853 0.000000
vn 0.645390 0.763853 0.000000
vn 0.645390 0.763853 0.000000
vn 0.645390 0.763853 0.000000
vn 0.000000 0.808091 0.589058
vn 0.000000 0.808529 0.588456
vn 0.103541 0.825324 0.555085
vn 0.007357 0.804083 0.594471
vn 0.056429 0.998407 0.000000
vn 0.612580 0.790408 0.000000
vn 0.612580 0.790408 0.000000
vn 0.056429 0.998407 0.000000
vn 0.007357 0.804083 -0.594471
vn 0.103541 0.825325 -0.555084
vn 0.000000 0.808530 -0.588455
vn 0.000000 0.808091 -0.589058
vn 0.000000 -0.999861 -0.016662
vn 0.146462 -0.989130 -0.013086
vn 0.146462 -0.989130 0.013086
vn 0.000000 -0.999861 0.016662
vn 1.000000 0.000000 0.000000
vn 1.000000 0.000000 0.000000
vn 1.000000 -0.000000 0.000000
vn 1.000000 -0.000000 0.000000
vn -1.000000 0.000001 0.000000
vn -1.000000 0.000001 0.000000
vn -1.000000 0.000001 0.000000
vn -1.000000 0.000001 0.000000
vn 0.000000 0.000000 -1.000000
vn 0.000000 0.000000 -1.000000
vn 0.000000 0.000000 -1.000000
vn 0.000000 0.000000 -1.000000
vn 1.000000 0.000000 0.000000
vn 1.000000 0.000000 0.000000
vn 1.000000 0.000000 0.000000
vn 1.000000 0.000000 0.000000
vn 0.000000 0.000000 1.000000
vn 0.000000 0.000000 1.000000
vn 0.000000 0.000000 1.000000
vn 0.000000 0.000000 1.000000
vn -1.000000 0.000000 0.000000
vn -1.000000 0.000000 0.000000
vn -1.000000 0.000000 0.000000
vn -1.000000 0.000000 0.000000
vn 0.000000 0.871734 -0.489979
vn 0.000000 0.871735 -0.489978
vn 0.000000 -0.871734 -0.489979
vn 0.000000 -0.871735 -0.489977
vn 0.489981 0.871733 0.000000
vn 0.489981 0.871733 0.000000
vn 0.489981 0.871733 0.000000
vn 0.489981 0.871733 0.000000
vn 0.489981 -0.871733 0.000000
vn 0.489981 -0.871733 0.000000
vn 0.000000 0.871735 0.489978
vn 0.000000 0.871735 0.489978
vn 0.000000 -0.871735 0.489978
vn 0.000000 -0.871734 0.489979
vn -0.489978 0.871735 0.000000
vn -0.489978 0.871735 0.000000
vn -0.489978 0.871735 0.000000
vn -0.489978 0.871735 0.000000
vn -0.015377 -0.999729 -0.017466
vn -0.015377 -0.999729 0.017466
vn -0.489978 -0.871735 0.000000
vn -0.489978 -0.871735 0.000000
vn 0.017671 0.806793 0.590570
vn 0.324866 0.838349 0.437760
vn -1.000000 -0.000003 0.000000
vn -1.000000 -0.000003 0.000000
vn 0.017671 0.806793 -0.590570
vn 0.324865 0.838349 -0.437759
vn 1.000000 -0.000004 0.000000
vn 1.000000 -0.000004 0.000000
vn 0.000000 0.808529 0.588456
vn 0.000000 0.802087 0.597207
vn 0.000000 0.871735 0.489978
vn 0.000000 0.000000 1.000000
vn 0.000000 0.000000 1.000000
vn 0.000000 -0.871734 0.489979
vn 0.000000 -0.871734 -0.489979
vn 0.000000 0.000000 -1.000000
vn 0.000000 0.000000 -1.000000
vn 0.000000 0.808529 -0.588456
vn 0.000000 0.871735 -0.489978
vn 0.000000 0.802087 -0.597207
vn 0.000000 0.802087 -0.597207
vn 0.000000 1.000000 0.000000
vn 0.000000 1.000000 0.000000
vn 0.000000 0.802087 0.597208
s off
g pPlane7
usemtl initialShadingGroup
f 10/1/1 9/2/2 11/3/3 12/4/4
f 11/3/5 9/2/6 13/5/7 15/6/8
f 10/1/9 12/4/10 16/9/11 14/10/12
s 1
f 6/13/13 5/14/14 21/15/15 22/16/16
s 2
f 7/25/17 8/26/18 17/27/19 18/28/20
s 3
f 20/33/21 1/34/22 3/35/23 19/36/24
s 1
f 5/14/14 1/17/25 20/18/26 21/15/15
f 2/21/27 6/13/13 22/16/16 23/22/28
s 2
f 3/31/29 7/25/17 18/28/20 19/32/30
s 4
f 23/47/31 24/48/32 4/45/33 2/46/34
s 2
f 8/26/18 4/29/35 24/30/36 17/27/19
s off
f 7/37/37 3/35/38 1/34/39 5/38/40
f 4/45/41 8/41/42 6/42/43 2/46/44
f 8/41/45 7/37/46 5/38/47 6/42/48
s 5
f 26/53/49 25/54/50 27/55/51 28/56/52
f 29/59/53 26/53/49 28/56/52 30/60/54
s 3
f 13/39/55 20/33/21 19/36/24 15/40/56
s 1
f 21/15/15 20/18/26 13/23/57 9/19/58
f 22/16/16 21/15/15 9/19/58 10/20/59
f 23/22/28 22/16/16 10/20/59 14/24/60
s 4
f 14/49/61 16/50/62 24/48/32 23/47/31
s 5
f 25/54/50 31/57/63 32/58/64 27/55/51
s off
f 18/61/65 17/62/66 25/63/67 26/64/68
f 12/4/69 11/3/70 28/7/71 27/8/72
f 19/67/73 18/61/74 26/64/75 29/68/76
f 11/3/77 15/6/78 30/11/79 28/7/80
f 15/40/81 19/36/82 29/43/83 30/44/84
f 17/62/85 24/65/86 31/66/87 25/63/88
f 24/48/89 16/50/90 32/51/91 31/52/92
f 16/9/93 12/4/94 27/8/95 32/12/96
s 6
f 58/122/97 34/70/98 53/113/99 57/121/100
s 7
f 68/136/101 36/71/102 38/73/103 67/135/104
s 8
f 66/134/105 56/119/106 40/75/107 65/133/108
s 9
f 62/128/109 42/78/110 43/79/111 61/127/112
s 10
f 34/81/113 40/82/114 56/120/115 53/114/116
s 11
f 39/85/117 33/86/118 54/115/119 55/117/120
s 12
f 64/131/121 46/90/122 47/91/123 63/130/124
s off
f 46/93/125 49/94/126 50/95/127 47/96/128
s 13
f 49/97/129 59/124/130 60/125/131 50/100/132
s off
f 51/101/133 45/102/134 48/103/135 52/104/136
s 8
f 65/133/108 40/75/107 46/105/137 64/132/138
s 9
f 42/78/110 62/128/109 63/129/139 47/108/140
s off
f 40/75/141 34/70/142 49/109/143 46/105/144
s 9
f 43/79/111 42/78/110 47/108/145 50/110/146
s 6
f 34/70/98 58/122/97 59/123/147 49/109/148
s 9
f 61/127/112 43/79/111 50/110/149 60/126/150
s off
f 33/69/151 39/76/152 45/106/153 51/111/154
s 9
f 41/77/155 44/80/156 52/112/157 48/107/158
s 6
f 68/136/159 57/121/100 53/113/99 36/71/160
s 11
f 55/117/120 54/115/119 35/87/161 37/88/162
s 8
f 67/135/163 38/73/164 56/119/106 66/134/105
s 10
f 53/114/116 56/120/115 38/83/165 36/84/166
s 6
f 33/69/167 58/122/97 57/121/100 54/116/168
f 59/123/147 58/122/97 33/69/167 51/111/169
s 13
f 60/125/131 59/124/130 51/98/170 52/99/171
s 9
f 44/80/156 61/127/112 60/126/150 52/112/172
f 41/77/155 62/128/109 61/127/112 44/80/156
f 63/129/139 62/128/109 41/77/155 48/107/173
s 12
f 45/89/174 64/131/121 63/130/124 48/92/175
s 8
f 39/76/176 65/133/108 64/132/138 45/106/177
f 55/118/178 66/134/105 65/133/108 39/76/176
f 37/74/179 67/135/163 66/134/105 55/118/178
s 7
f 35/72/180 68/136/101 67/135/104 37/74/181
s 6
f 54/116/168 57/121/100 68/136/159 35/72/182
