# This file uses centimeters as units for non-parametric coordinates.

mtllib house_01.mtl
g default
v -31.708840 0.124784 -25.043354
v -22.291793 0.124784 -25.043354
v -31.708840 2.934496 -25.043354
v -22.291793 2.934496 -25.043354
v -31.708840 0.124784 -17.942141
v -22.291793 0.124784 -17.942141
v -22.291793 2.934496 -17.942141
v -31.708840 2.934496 -17.942141
v -26.110234 2.934496 -17.942141
v -26.110234 2.934496 -25.043354
v -26.110234 0.124784 -17.942141
v -26.110234 0.124784 -16.854048
v -26.110234 2.934496 -16.854048
v -22.291793 0.124784 -16.854048
v -22.291793 2.934496 -16.854048
v -26.110234 4.556159 -25.043354
v -22.291793 4.556159 -25.043354
v -26.110234 4.556159 -17.942141
v -22.291793 4.556159 -17.942141
v -26.110234 4.556159 -16.854048
v -22.291793 4.556159 -16.854048
v -24.279884 5.961601 -16.854048
v -24.122143 5.961601 -16.854048
v -23.862962 0.124784 -16.854048
v -23.862962 2.934496 -16.854048
v -23.862962 4.556159 -16.854048
v -24.187048 5.961601 -16.854048
v -24.539064 0.124784 -16.854048
v -24.539064 2.934496 -16.854048
v -24.539064 4.556159 -16.854048
v -24.214978 5.961601 -16.854048
v -24.539064 4.427257 -16.854048
v -26.110234 4.427257 -16.854048
v -26.110234 4.427257 -17.942141
v -26.110234 4.427257 -25.043354
v -22.291793 4.427257 -25.043354
v -22.291793 4.427257 -17.942141
v -22.291793 4.427257 -16.854048
v -23.862962 4.427257 -16.854048
v -23.862962 3.280094 -16.854048
v -24.539064 3.280094 -16.854048
v -26.110234 3.280094 -16.854048
v -26.110234 3.280094 -17.942141
v -26.110234 3.280094 -25.043354
v -22.291793 3.280094 -25.043354
v -22.291793 3.280094 -17.942141
v -22.291793 3.280094 -16.854048
v -23.862962 2.223534 -16.854048
v -24.539064 2.223534 -16.854048
v -26.110234 2.223534 -16.854048
v -26.110234 2.223534 -17.942141
v -31.708840 2.223534 -17.942141
v -31.708840 2.223534 -25.043354
v -22.291793 2.223534 -25.043354
v -22.291793 2.223534 -17.942141
v -22.291793 2.223534 -16.854048
v -23.862962 0.966546 -16.854048
v -24.539064 0.966546 -16.854048
v -26.110234 0.966546 -16.854048
v -26.110234 0.966546 -17.942141
v -31.708840 0.966546 -17.942141
v -31.708840 0.966546 -25.043354
v -22.291793 0.966546 -25.043354
v -22.291793 0.966546 -17.942141
v -22.291793 0.966546 -16.854048
v -27.277412 2.934496 -17.942141
v -27.277412 2.223534 -17.942141
v -27.277412 0.966546 -17.942141
v -27.277412 0.124784 -17.942141
v -26.621925 2.934496 -17.942141
v -26.621925 2.223534 -17.942141
v -26.621925 0.966546 -17.942141
v -26.621925 0.124784 -17.942141
v -30.266354 2.934496 -17.942141
v -30.266354 2.223534 -17.942141
v -30.266354 0.966546 -17.942141
v -30.266354 0.124784 -17.942141
v -29.544982 2.934496 -17.942141
v -29.544982 2.223534 -17.942141
v -29.544982 0.966546 -17.942141
v -29.544982 0.124784 -17.942141
vt 0.472603 0.381765
vt 0.492356 0.381765
vt 0.492356 0.415868
vt 0.472603 0.415868
vt 0.492356 0.466793
vt 0.472603 0.466793
vt 0.492356 0.495596
vt 0.472603 0.495596
vt 0.447298 0.466793
vt 0.447298 0.495596
vt 0.359760 0.466793
vt 0.359760 0.495596
vt 0.359760 0.415868
vt 0.447298 0.415868
vt 0.331912 0.466793
vt 0.331912 0.495596
vt 0.359760 0.381765
vt 0.447298 0.381765
vt 0.276226 0.466793
vt 0.276226 0.495596
vt 0.331912 0.381765
vt 0.331912 0.415868
vt 0.276226 0.415868
vt 0.276226 0.381765
vt 0.997912 0.381765
vt 0.997912 0.415867
vt 0.723775 0.415868
vt 0.723775 0.381765
vt 0.997912 0.466792
vt 0.723775 0.466793
vt 0.681769 0.415868
vt 0.681769 0.381765
vt 0.997912 0.495596
vt 0.723775 0.495596
vt 0.681769 0.466793
vt 0.997912 0.509597
vt 0.723775 0.509598
vt 0.681769 0.495596
vt 0.997912 0.556073
vt 0.723775 0.556073
vt 0.681769 0.509598
vt 0.997912 0.561296
vt 0.723775 0.561296
vt 0.681769 0.556074
vt 0.681769 0.561296
vt 0.002089 0.415869
vt 0.002089 0.381766
vt 0.218219 0.556073
vt 0.218219 0.561295
vt 0.002089 0.466794
vt 0.218219 0.495596
vt 0.002089 0.495598
vt 0.218219 0.509597
vt 0.534361 0.415868
vt 0.534361 0.381765
vt 0.595015 0.381765
vt 0.595015 0.415868
vt 0.621116 0.415868
vt 0.621116 0.381765
vt 0.534361 0.466793
vt 0.595015 0.466793
vt 0.492356 0.509598
vt 0.534361 0.509598
vt 0.534361 0.495596
vt 0.595015 0.495596
vt 0.534361 0.561296
vt 0.621116 0.466793
vt 0.621116 0.495596
vt 0.595015 0.509598
vt 0.534361 0.509598
vt 0.534361 0.556074
vt 0.621116 0.509598
vt 0.595015 0.556073
vt 0.534361 0.556073
vt 0.492356 0.561296
vt 0.595015 0.561296
vt 0.534361 0.561296
vt 0.621116 0.556073
vt 0.492356 0.556073
vt 0.621116 0.561296
vt 0.607526 0.618235
vt 0.605021 0.618235
vt 0.681769 0.561296
vt 0.608605 0.618235
vt 0.611110 0.618235
vn 0.000000 0.000000 1.000000
vn 0.000000 0.000000 1.000000
vn 0.000000 0.000000 1.000000
vn 0.000000 0.000000 1.000000
vn 1.000000 0.000000 0.000000
vn 1.000000 0.000000 0.000000
vn 1.000000 0.000000 0.000000
vn 1.000000 0.000000 0.000000
vn -1.000000 0.000000 0.000000
vn -1.000000 0.000000 0.000000
vn -1.000000 0.000000 0.000000
vn -1.000000 0.000000 0.000000
vn 0.000000 0.000000 1.000000
vn 0.000000 0.000000 1.000000
vn 0.000000 0.000000 1.000000
vn 0.000000 0.000000 1.000000
vn -1.000000 0.000000 0.000000
vn -1.000000 0.000000 0.000000
vn -1.000000 0.000000 0.000000
vn -1.000000 0.000000 0.000000
vn 1.000000 0.000000 0.000000
vn 1.000000 0.000000 0.000000
vn 1.000000 0.000000 0.000000
vn 1.000000 0.000000 0.000000
vn -1.000000 0.000000 0.000000
vn -1.000000 0.000000 0.000000
vn -1.000000 0.000000 0.000000
vn -1.000000 0.000000 0.000000
vn 1.000000 0.000000 0.000000
vn 1.000000 0.000000 0.000000
vn 1.000000 0.000000 0.000000
vn 1.000000 0.000000 0.000000
vn -1.000000 0.000000 0.000000
vn -1.000000 0.000000 0.000000
vn -1.000000 0.000000 0.000000
vn -1.000000 0.000000 0.000000
vn 0.000000 0.000000 1.000000
vn 0.000000 0.000000 1.000000
vn 0.000000 0.000000 1.000000
vn 0.000000 0.000000 1.000000
vn 1.000000 0.000000 0.000000
vn 1.000000 0.000000 0.000000
vn 1.000000 0.000000 0.000000
vn 1.000000 0.000000 0.000000
vn 0.000000 0.000000 1.000000
vn 0.000000 0.000000 1.000000
vn 0.000000 0.000000 1.000000
vn 0.000000 0.000000 1.000000
vn 0.000000 0.000000 1.000000
vn 0.000000 0.000000 1.000000
vn 0.000000 0.000000 1.000000
vn 0.000000 0.000000 1.000000
vn 0.000000 0.000000 1.000000
vn 0.000000 0.000000 1.000000
vn 0.000000 0.000000 1.000000
vn 0.000000 0.000000 1.000000
vn 0.000000 0.000000 1.000000
vn 0.000000 0.000000 1.000000
vn 0.000000 0.000000 1.000000
vn 0.000000 0.000000 1.000000
vn 0.000000 0.000000 1.000000
vn 0.000000 0.000000 1.000000
vn 0.000000 0.000000 1.000000
vn 0.000000 0.000000 1.000000
vn -1.000000 0.000000 0.000000
vn -1.000000 0.000000 0.000000
vn -1.000000 0.000000 0.000000
vn -1.000000 0.000000 0.000000
vn -1.000000 0.000000 0.000000
vn -1.000000 0.000000 0.000000
vn -1.000000 0.000000 0.000000
vn -1.000000 0.000000 0.000000
vn 1.000000 0.000000 0.000000
vn 1.000000 0.000000 0.000000
vn 1.000000 0.000000 0.000000
vn 1.000000 0.000000 0.000000
vn 1.000000 0.000000 0.000000
vn 1.000000 0.000000 0.000000
vn 1.000000 0.000000 0.000000
vn 1.000000 0.000000 0.000000
vn 0.000000 0.000000 1.000000
vn 0.000000 0.000000 1.000000
vn 0.000000 0.000000 1.000000
vn 0.000000 0.000000 1.000000
vn 0.000000 0.000000 1.000000
vn 0.000000 0.000000 1.000000
vn 0.000000 0.000000 1.000000
vn 0.000000 0.000000 1.000000
vn 0.000000 0.000000 1.000000
vn 0.000000 0.000000 1.000000
vn -1.000000 0.000000 0.000000
vn -1.000000 0.000000 0.000000
vn -1.000000 0.000000 0.000000
vn -1.000000 0.000000 0.000000
vn 0.000000 0.000000 1.000000
vn 0.000000 0.000000 1.000000
vn 0.000000 0.000000 1.000000
vn 0.000000 0.000000 1.000000
vn -1.000000 0.000000 0.000000
vn -1.000000 0.000000 0.000000
vn -1.000000 0.000000 0.000000
vn -1.000000 0.000000 0.000000
vn 1.000000 0.000000 0.000000
vn 1.000000 0.000000 0.000000
vn 1.000000 0.000000 0.000000
vn 1.000000 0.000000 0.000000
vn 1.000000 0.000000 0.000000
vn 1.000000 0.000000 0.000000
vn 1.000000 0.000000 0.000000
vn 1.000000 0.000000 0.000000
vn 0.000000 0.000000 1.000000
vn 0.000000 0.000000 1.000000
vn 0.000000 0.000000 1.000000
vn 0.000000 0.000000 1.000000
vn 0.000000 0.000000 1.000000
vn 0.000000 0.000000 1.000000
vn 0.000000 0.000000 1.000000
vn 0.000000 0.000000 1.000000
vn 0.000000 0.000000 1.000000
vn 0.000000 0.000000 1.000000
vn 0.000000 0.000000 1.000000
vn 0.000000 0.000000 1.000000
vn 0.000000 0.000000 1.000000
vn 0.000000 0.000000 1.000000
vn 0.000000 0.000000 1.000000
vn 0.000000 0.000000 1.000000
vn 0.000000 0.000000 1.000000
vn 0.000000 0.000000 1.000000
s 1
g pPlane6 group2
usemtl initialShadingGroup
f 73/1/1 11/2/2 60/3/3 72/4/4
s 2
f 2/25/5 63/26/6 64/27/7 6/28/8
s 3
f 62/46/9 1/47/10 5/24/11 61/23/12
s 4
f 59/54/13 12/55/14 28/56/15 58/57/16
s 5
f 60/3/17 11/2/18 12/55/19 59/54/20
s 6
f 6/28/21 64/27/22 65/31/23 14/32/24
s 7
f 10/51/25 9/7/26 43/62/27 44/53/28
s 8
f 7/34/29 4/33/30 45/36/31 46/37/32
s 9
f 9/7/33 13/64/34 42/63/35 43/62/36
s 10
f 13/64/37 29/65/38 41/69/39 42/70/40
s 11
f 15/38/41 7/34/42 46/37/43 47/41/44
s 12
f 20/77/45 30/76/46 31/81/47 22/82/48
s 4
f 65/31/49 57/58/50 24/59/51 14/32/52
s 10
f 47/41/53 40/72/54 25/68/55 15/38/56
s 12
f 27/84/57 26/80/58 21/83/59 23/85/60
s 4
f 57/58/50 58/57/16 28/56/15 24/59/51
s 10
f 40/72/54 41/69/39 29/65/38 25/68/55
s 12
f 27/84/57 31/81/47 30/76/46 26/80/58
s 10
f 33/74/61 32/73/62 30/76/63 20/77/64
s 9
f 34/79/65 33/71/66 20/66/67 18/75/68
s 7
f 35/48/69 34/79/70 18/75/71 16/49/72
s 8
f 37/40/73 36/39/74 17/42/75 19/43/76
s 11
f 38/44/77 37/40/78 19/43/79 21/45/80
s 10
f 26/80/81 39/78/82 38/44/83 21/83/84
f 26/80/81 30/76/63 32/73/62 39/78/82
f 42/70/40 41/69/39 32/73/62 33/74/61
s 9
f 43/62/36 42/63/35 33/71/66 34/79/65
s 7
f 44/53/28 43/62/27 34/79/70 35/48/69
s 8
f 46/37/32 45/36/31 36/39/74 37/40/73
s 11
f 47/41/44 46/37/43 37/40/78 38/44/77
s 10
f 39/78/82 40/72/54 47/41/53 38/44/83
s 4
f 25/68/85 29/65/86 49/61/87 48/67/88
f 13/64/89 50/60/90 49/61/87 29/65/86
s 5
f 9/7/91 51/5/92 50/60/93 13/64/94
s 1
f 71/6/95 51/5/96 9/7/97 70/8/98
s 3
f 3/52/99 53/50/100 52/19/101 8/20/102
s 2
f 55/30/103 54/29/104 4/33/105 7/34/106
s 6
f 56/35/107 55/30/108 7/34/109 15/38/110
s 4
f 25/68/85 48/67/88 56/35/111 15/38/112
f 50/60/90 59/54/13 58/57/16 49/61/87
s 5
f 51/5/92 60/3/17 59/54/20 50/60/93
s 1
f 72/4/4 60/3/3 51/5/96 71/6/95
s 3
f 53/50/100 62/46/9 61/23/12 52/19/101
s 2
f 64/27/7 63/26/6 54/29/104 55/30/103
s 6
f 65/31/23 64/27/22 55/30/108 56/35/107
s 4
f 56/35/111 48/67/88 57/58/50 65/31/49
s 1
f 79/11/113 67/9/114 66/10/115 78/12/116
f 80/13/117 68/14/118 67/9/114 79/11/113
f 81/17/119 69/18/120 68/14/118 80/13/117
f 67/9/114 71/6/95 70/8/98 66/10/115
f 52/19/121 75/15/122 74/16/123 8/20/124
f 61/23/125 76/22/126 75/15/122 52/19/121
f 5/24/127 77/21/128 76/22/126 61/23/125
f 75/15/122 79/11/113 78/12/116 74/16/123
f 77/21/128 81/17/119 80/13/117 76/22/126
