# Blender v2.74 (sub 0) OBJ File: 'Table.blend'
# www.blender.org
mtllib Table.mtl
o Table_Plane.003
v -0.974076 1.081049 0.543864
v 0.974076 1.081049 0.543864
v -0.974076 1.081049 -0.543864
v 0.974076 1.081049 -0.543864
v -0.986678 0.982855 -0.550900
v -0.986678 0.982855 0.550900
v 0.986678 0.982855 0.550900
v 0.986678 0.982855 -0.550900
v -0.861074 0.982855 -0.480770
v -0.861074 0.982855 0.480770
v 0.861074 0.982855 0.480770
v 0.861074 0.982855 -0.480770
v -0.993810 1.055174 -0.554881
v -0.993810 1.055174 0.554881
v 0.993810 1.055174 0.554881
v 0.993810 1.055174 -0.554881
v -0.864310 0.007889 0.461831
v -0.864310 1.017980 0.461831
v -0.864310 0.007889 0.524297
v -0.864310 1.017980 0.524297
v -0.948455 0.007889 0.461831
v -0.948455 1.017980 0.461831
v -0.948455 0.007889 0.524297
v -0.948455 1.017980 0.524297
v 0.968093 0.007889 0.461831
v 0.968093 1.017980 0.461831
v 0.968093 0.007889 0.524297
v 0.968093 1.017980 0.524297
v 0.883948 0.007889 0.461831
v 0.883948 1.017980 0.461831
v 0.883948 0.007889 0.524297
v 0.883948 1.017980 0.524297
v 0.968093 0.007889 -0.518114
v 0.968093 1.017980 -0.518114
v 0.968093 0.007889 -0.455648
v 0.968093 1.017980 -0.455648
v 0.883948 0.007889 -0.518114
v 0.883948 1.017980 -0.518114
v 0.883948 0.007889 -0.455648
v 0.883948 1.017980 -0.455648
v -0.866771 0.007889 -0.518114
v -0.866771 1.017980 -0.518114
v -0.866771 0.007889 -0.455648
v -0.866771 1.017980 -0.455648
v -0.950915 0.007889 -0.518114
v -0.950915 1.017980 -0.518114
v -0.950915 0.007889 -0.455648
v -0.950915 1.017980 -0.455648
v 1.000518 1.029298 -0.558627
v -1.000518 1.029298 -0.558627
v 1.000518 1.029298 0.558627
v -1.000518 1.029298 0.558627
v -1.003000 1.006076 -0.560013
v 1.003000 1.006076 -0.560013
v 1.003000 1.006076 0.560013
v -1.003000 1.006076 0.560013
v -0.919889 1.094561 -0.513609
v -0.919889 1.094561 0.513609
v 0.919889 1.094561 0.513609
v 0.919889 1.094561 -0.513609
v -0.869562 0.763192 0.477094
v -0.869562 0.981963 0.477094
v -0.869562 0.989820 -0.481353
v -0.869562 0.763549 -0.481353
v 0.887785 0.763192 0.477094
v 0.887785 0.981963 0.477094
v 0.887785 0.989820 -0.481353
v 0.887785 0.763549 -0.481353
v 0.896264 0.758800 0.458755
v 0.896264 0.986692 0.458755
v 0.895237 0.758800 -0.480449
v 0.895237 0.986692 -0.480449
v -0.917319 0.758800 0.458755
v -0.917319 0.986692 0.458755
v -0.918346 0.758800 -0.480449
v -0.918346 0.986692 -0.480449
vt 0.576932 -0.041551
vt 0.995365 -0.041551
vt 0.983726 -0.012935
vt 0.588570 -0.012935
vt 0.244044 0.554103
vt 0.000000 0.554103
vt 0.015533 0.518834
vt 0.228511 0.518834
vt 0.347397 0.547026
vt 0.347397 1.000000
vt 0.343246 0.996314
vt 0.343246 0.550712
vt 0.530729 0.000000
vt 0.530729 0.563269
vt 0.526563 0.558686
vt 0.526563 0.004583
vt 0.339120 1.000000
vt 0.339120 0.547026
vt 0.548717 0.000000
vt 0.548717 0.563269
vt 0.544535 0.558686
vt 0.544535 0.004584
vt 0.244044 0.000000
vt 0.228511 0.035269
vt 0.000000 0.000000
vt 0.015533 0.035269
vt 0.562500 0.008122
vt 0.562500 0.555148
vt 0.557709 0.560689
vt 0.557709 0.002581
vt 0.325251 0.993469
vt 0.325251 0.553558
vt 0.330103 0.549102
vt 0.330103 0.997925
vt 0.544535 0.008121
vt 0.544535 0.555148
vt 0.539728 0.560689
vt 0.539728 0.002581
vt 0.361231 0.553558
vt 0.361231 0.993469
vt 0.356404 0.997925
vt 0.356404 0.549102
vt 0.378436 0.883629
vt 0.361231 0.883629
vt 0.361231 0.547026
vt 0.378436 0.547026
vt 0.038017 0.554103
vt 0.048424 0.554103
vt 0.048424 0.890638
vt 0.038017 0.890638
vt 0.017205 0.554103
vt 0.017205 0.890629
vt 0.000000 0.890629
vt 0.090048 0.554103
vt 0.100454 0.554103
vt 0.100454 0.890520
vt 0.090048 0.890520
vt 0.142079 0.554103
vt 0.142079 0.585518
vt 0.131673 0.585518
vt 0.131673 0.554103
vt 0.173297 0.585518
vt 0.173297 0.554103
vt 0.183703 0.554103
vt 0.183703 0.585518
vt 0.412846 0.547026
vt 0.430051 0.547027
vt 0.430051 0.883629
vt 0.412846 0.883629
vt 0.027611 0.554103
vt 0.027611 0.890638
vt 0.464461 0.547026
vt 0.481666 0.547026
vt 0.481666 0.883553
vt 0.464461 0.883553
vt 0.069236 0.554103
vt 0.079642 0.554103
vt 0.079642 0.890520
vt 0.069236 0.890520
vt 0.162891 0.585518
vt 0.162891 0.554103
vt 0.121266 0.585518
vt 0.121266 0.554103
vt 0.395641 0.883629
vt 0.395641 0.547026
vt 0.058830 0.554103
vt 0.058830 0.890638
vt 0.447256 0.547026
vt 0.447256 0.883552
vt 0.152485 0.585518
vt 0.152485 0.554103
vt 0.110860 0.585518
vt 0.110860 0.554103
vt 0.058830 0.890520
vt 0.100454 0.585518
vt 0.552963 0.562572
vt 0.552963 0.000697
vt 0.334867 0.547587
vt 0.334867 0.999440
vt 0.534977 0.562572
vt 0.534977 0.000697
vt 0.351647 0.999440
vt 0.351647 0.547587
vt 0.588571 0.958622
vt 0.983727 0.958621
vt 0.995365 0.987237
vt 0.576932 0.987237
vt 0.285332 0.547026
vt 0.285332 0.943852
vt 0.244044 0.943852
vt 0.244044 0.547026
vt 0.325251 0.547026
vt 0.325251 0.943852
vt 0.484971 0.472333
vt 0.484971 0.000000
vt 0.526563 0.000001
vt 0.526563 0.472333
vt 0.526563 0.944667
vt 0.484971 0.944666
vn 0.388700 -0.780000 0.490500
vn -0.388700 -0.780000 0.490500
vn -0.082600 -0.981200 0.174500
vn 0.082600 -0.981200 0.174500
vn -0.360800 0.806000 0.469200
vn 0.360800 0.806000 0.469200
vn 0.000000 1.000000 0.000000
vn -0.707900 0.234400 0.666200
vn 0.707900 0.234400 0.666200
vn -0.707900 0.234400 -0.666200
vn -0.360800 0.806000 -0.469200
vn 0.707900 0.234400 -0.666200
vn 0.360800 0.806000 -0.469200
vn 0.388700 -0.780000 -0.490500
vn 0.631800 -0.434900 -0.641600
vn 0.631800 -0.434900 0.641600
vn -0.388700 -0.780000 -0.490500
vn -0.631800 -0.434900 -0.641600
vn -0.631800 -0.434900 0.641600
vn 0.577300 0.577300 -0.577300
vn 0.577300 0.577300 0.577300
vn 0.577300 -0.577300 0.577300
vn 0.577300 -0.577300 -0.577300
vn -0.577300 0.577300 0.577300
vn -0.577300 -0.577300 0.577300
vn -0.577300 0.577300 -0.577300
vn -0.577300 -0.577300 -0.577300
vn 0.697200 -0.190500 -0.691100
vn 0.697200 -0.190500 0.691100
vn -0.697200 -0.190500 -0.691100
vn -0.697200 -0.190500 0.691100
vn 0.082600 -0.981200 -0.174500
vn -0.082600 -0.981200 -0.174500
vn 0.000000 0.000000 1.000000
vn 1.000000 0.000000 -0.001100
usemtl Director_chair.001
s 1
f 3/1/1 4/2/2 60/3/3 57/4/4
f 8/5/5 5/6/6 9/7/7 12/8/7
f 54/9/8 53/10/9 5/11/6 8/12/5
f 55/13/10 54/14/8 8/15/5 7/16/11
f 56/17/12 55/18/10 7/12/11 6/11/13
f 53/19/9 56/20/12 6/21/13 5/22/6
f 7/23/11 8/5/5 12/8/7 11/24/7
f 6/25/13 7/23/11 11/24/7 10/26/7
f 5/6/6 6/25/13 10/26/7 9/7/7
f 3/27/1 1/28/14 14/29/15 13/30/16
f 1/31/14 2/32/17 15/33/18 14/34/15
f 2/35/17 4/36/2 16/37/19 15/38/18
f 4/39/2 3/40/1 13/41/16 16/42/19
f 18/43/20 20/44/21 19/45/22 17/46/23
f 20/47/21 24/48/24 23/49/25 19/50/22
f 24/6/24 22/51/26 21/52/27 23/53/25
f 22/54/26 18/55/20 17/56/23 21/57/27
f 17/58/23 19/59/22 23/60/25 21/61/27
f 22/62/26 24/63/24 20/64/21 18/65/20
f 26/66/20 28/67/21 27/68/22 25/69/23
f 28/70/21 32/47/24 31/50/25 27/71/22
f 32/72/24 30/73/26 29/74/27 31/75/25
f 30/76/26 26/77/20 25/78/23 29/79/27
f 25/63/23 27/62/22 31/80/25 29/81/27
f 30/82/26 32/83/24 28/61/21 26/60/20
f 34/69/20 36/84/21 35/85/22 33/66/23
f 36/48/21 40/86/24 39/87/25 35/49/22
f 40/67/24 38/88/26 37/89/27 39/68/25
f 38/77/26 34/54/20 33/57/23 37/78/27
f 33/81/23 35/80/22 39/90/25 37/91/27
f 38/92/26 40/93/24 36/83/21 34/82/20
f 42/84/20 44/43/21 43/46/22 41/85/23
f 44/51/21 48/70/24 47/71/25 43/52/22
f 48/88/24 46/72/26 45/75/27 47/89/25
f 46/86/26 42/76/20 41/79/23 45/94/27
f 41/91/23 43/90/22 47/59/25 45/58/27
f 46/95/26 48/55/24 44/93/21 42/92/20
f 13/30/16 14/29/15 52/96/28 50/97/29
f 14/34/15 15/33/18 51/98/30 52/99/28
f 15/38/18 16/37/19 49/100/31 51/101/30
f 16/42/19 13/41/16 50/102/29 49/103/31
f 50/97/29 52/96/28 56/20/12 53/19/9
f 52/99/28 51/98/30 55/18/10 56/17/12
f 51/101/30 49/100/31 54/14/8 55/13/10
f 49/103/31 50/102/29 53/10/9 54/9/8
f 58/104/32 57/4/4 60/3/3 59/105/33
f 4/2/2 2/106/17 59/105/33 60/3/3
f 2/106/17 1/107/14 58/104/32 59/105/33
f 1/107/14 3/1/1 57/4/4 58/104/32
f 67/108/34 63/109/34 64/110/34 68/111/34
f 66/112/34 62/113/34 61/109/34 65/108/34
f 72/114/35 70/115/35 69/116/35 71/117/35
f 76/117/35 74/118/35 73/119/35 75/114/35
