# This file uses centimeters as units for non-parametric coordinates.

mtllib mdl_screwDriver.mtl
g default
v 0.008500 0.008500 0.018613
v -0.000000 0.012020 0.018613
v -0.008500 0.008500 0.018613
v -0.012020 -0.000000 0.018613
v -0.008500 -0.008500 0.018613
v -0.000000 -0.012020 0.018613
v 0.008500 -0.008500 0.018613
v 0.012020 -0.000000 0.018613
v 0.007053 0.007053 0.151029
v -0.000000 0.009975 0.151029
v -0.007053 0.007053 0.151029
v -0.009975 -0.000000 0.151029
v -0.007053 -0.007053 0.151029
v -0.000000 -0.009975 0.151029
v 0.007053 -0.007053 0.151029
v 0.009975 -0.000000 0.151029
v -0.000000 -0.000000 0.151029
v -0.000000 0.015551 0.143535
v 0.010996 0.010996 0.143535
v 0.015551 -0.000000 0.143535
v 0.010996 -0.010996 0.143535
v -0.000000 -0.015551 0.143535
v -0.010996 -0.010996 0.143535
v -0.015551 -0.000000 0.143535
v -0.010996 0.010996 0.143535
v -0.000000 0.012967 0.031951
v 0.009169 0.009169 0.031951
v 0.012967 -0.000000 0.031951
v 0.009169 -0.009169 0.031951
v -0.000000 -0.012967 0.031951
v -0.009169 -0.009169 0.031951
v -0.012967 -0.000000 0.031951
v -0.009169 0.009169 0.031951
v 0.010786 0.011221 0.022028
v -0.000000 0.015527 0.022028
v -0.000000 0.015925 0.027415
v 0.011455 0.010967 0.027415
v -0.010786 0.011221 0.022028
v -0.011455 0.010967 0.027415
v -0.015254 -0.000000 0.022028
v -0.016200 -0.000000 0.027415
v -0.010786 -0.011221 0.022028
v -0.011455 -0.010967 0.027415
v -0.000000 -0.015527 0.022028
v -0.000000 -0.015925 0.027415
v 0.010786 -0.011221 0.022028
v 0.011455 -0.010967 0.027415
v 0.015254 -0.000000 0.022028
v 0.016200 0.000000 0.027415
v -0.000000 0.015150 0.065602
v 0.010712 0.010712 0.065602
v 0.015150 -0.000000 0.065602
v 0.010712 -0.010712 0.065602
v -0.000000 -0.015150 0.065602
v -0.010712 -0.010712 0.065602
v -0.015150 -0.000000 0.065602
v -0.010712 0.010712 0.065602
v -0.000000 0.012353 0.054942
v 0.008735 0.008735 0.054942
v 0.012353 -0.000000 0.054942
v 0.008735 -0.008735 0.054942
v -0.000000 -0.012353 0.054942
v -0.008735 -0.008735 0.054942
v -0.012353 -0.000000 0.054942
v -0.008735 0.008735 0.054942
v -0.000000 0.012143 0.035120
v 0.008586 0.008586 0.035120
v 0.012143 -0.000000 0.035120
v 0.008586 -0.008586 0.035120
v -0.000000 -0.012143 0.035120
v -0.008586 -0.008586 0.035120
v -0.012143 -0.000000 0.035120
v -0.008586 0.008586 0.035120
v -0.000000 0.013078 0.060379
v 0.009247 0.009247 0.060379
v 0.013078 -0.000000 0.060379
v 0.009247 -0.009247 0.060379
v -0.000000 -0.013078 0.060379
v -0.009247 -0.009247 0.060379
v -0.013078 -0.000000 0.060379
v -0.009247 0.009247 0.060379
v 0.003299 0.003299 0.018613
v 0.000000 0.004665 0.018613
v -0.003299 0.003299 0.018613
v -0.004665 -0.000000 0.018613
v -0.003299 -0.003299 0.018613
v 0.000000 -0.004665 0.018613
v 0.003299 -0.003299 0.018613
v 0.004665 -0.000000 0.018613
v 0.003299 0.003299 -0.099916
v 0.000000 0.003988 -0.099916
v -0.003299 0.003299 -0.099916
v -0.004665 -0.000000 -0.099916
v -0.003299 -0.003299 -0.099916
v 0.000000 -0.003988 -0.099916
v 0.003299 -0.003299 -0.099916
v 0.004665 -0.000000 -0.099916
v 0.006042 0.000560 -0.151029
v -0.000000 0.000560 -0.151029
v -0.000000 -0.000000 -0.151029
v -0.006042 0.000560 -0.151029
v -0.006363 -0.000000 -0.151029
v -0.006042 -0.000560 -0.151029
v -0.000000 -0.000560 -0.151029
v 0.006042 -0.000560 -0.151029
v 0.006363 -0.000000 -0.151029
v -0.005246 0.002304 -0.126080
v -0.006332 -0.000000 -0.126080
v -0.005246 -0.002304 -0.126080
v 0.000000 -0.002304 -0.126080
v 0.005246 -0.002304 -0.126080
v 0.006332 -0.000000 -0.126080
v 0.005246 0.002304 -0.126080
v 0.000000 0.002304 -0.126080
vt 0.005429 0.230906
vt 0.099164 0.230380
vt 0.099552 0.262125
vt 0.000000 0.262683
vt 0.025053 0.210675
vt 0.098919 0.210260
vt 0.182359 0.229896
vt 0.186660 0.261621
vt 0.099878 0.288857
vt 0.020196 0.289304
vt 0.184065 0.209798
vt 0.184784 0.288388
vt 0.100106 0.307531
vt 0.025488 0.307950
vt 0.184955 0.307069
vt 0.101532 0.424331
vt 0.025622 0.424757
vt 0.186025 0.423869
vt 0.101923 0.456372
vt 0.021560 0.456824
vt 0.186318 0.455904
vt 0.102299 0.487148
vt 0.009204 0.487670
vt 0.186599 0.486662
vt 0.107906 0.946376
vt 0.012346 0.946913
vt 0.190804 0.945893
vt 0.108445 0.990531
vt 0.047151 0.990875
vt 0.191209 0.990097
vt 0.851559 0.698787
vt 0.269335 0.229664
vt 0.269529 0.261409
vt 0.908591 0.000246
vt 0.967165 0.999782
vt 0.269212 0.209543
vt 0.356311 0.229407
vt 0.352397 0.261156
vt 0.269692 0.288142
vt 0.955245 0.852798
vt 0.354360 0.209320
vt 0.354600 0.287911
vt 0.269806 0.306817
vt 0.973601 0.999751
vt 0.354657 0.306593
vt 0.270519 0.423620
vt 0.978465 0.999734
vt 0.355013 0.423395
vt 0.270714 0.455662
vt 0.941530 0.698652
vt 0.355111 0.455431
vt 0.270902 0.486438
vt 0.937328 0.000193
vt 0.355205 0.486189
vt 0.273705 0.945678
vt 0.972493 0.852733
vt 0.356606 0.945428
vt 0.273975 0.989834
vt 0.992512 0.852664
vt 0.356741 0.989632
vt 0.858497 1.000000
vt 0.439508 0.229425
vt 0.439508 0.261171
vt 0.869202 0.852974
vt 0.913082 0.999905
vt 0.439508 0.209304
vt 0.522705 0.229407
vt 0.526619 0.261156
vt 0.439508 0.287904
vt 0.851559 0.000321
vt 0.524657 0.209320
vt 0.524417 0.287911
vt 0.439508 0.306579
vt 0.881644 0.698777
vt 0.524360 0.306593
vt 0.439508 0.423383
vt 0.880075 0.000313
vt 0.524003 0.423395
vt 0.439508 0.455425
vt 0.912421 0.852887
vt 0.523905 0.455431
vt 0.439508 0.486201
vt 0.851559 0.999986
vt 0.523812 0.486189
vt 0.439508 0.945446
vt 0.911729 0.698708
vt 0.522410 0.945428
vt 0.439508 0.989602
vt 0.851559 0.852967
vt 0.522275 0.989632
vt 0.971330 0.698556
vt 0.609682 0.229664
vt 0.609488 0.261409
vt 1.000000 0.698456
vt 0.994734 0.000000
vt 0.609804 0.209543
vt 0.707200 0.229937
vt 0.704800 0.261676
vt 0.609325 0.288142
vt 0.966065 0.000099
vt 0.683672 0.209750
vt 0.689009 0.288366
vt 0.609211 0.306817
vt 0.737525 0.999797
vt 0.683831 0.307026
vt 0.608498 0.423620
vt 0.745101 0.852793
vt 0.684410 0.423833
vt 0.608302 0.455662
vt 0.790036 0.999906
vt 0.688668 0.455887
vt 0.608114 0.486438
vt 0.844620 1.000000
vt 0.701212 0.486699
vt 0.605311 0.945678
vt 0.762719 0.698649
vt 0.700873 0.945947
vt 0.605041 0.989834
vt 0.765856 0.000186
vt 0.666337 0.990006
vt 0.189304 0.085322
vt 0.189304 0.049717
vt 0.194168 0.085322
vt 0.194168 0.047829
vt 0.189304 0.120927
vt 0.199031 0.049717
vt 0.194168 0.122815
vt 0.199031 0.085322
vt 0.199031 0.120927
vt 0.355662 0.148169
vt 0.294365 0.165385
vt 0.294365 0.106607
vt 0.233069 0.148169
vt 0.381051 0.106607
vt 0.207679 0.106607
vt 0.355662 0.065045
vt 0.233069 0.065045
vt 0.294365 0.047829
vt 0.494166 0.047829
vt 0.568034 0.068576
vt 0.522836 0.099223
vt 0.494166 0.091171
vt 0.598632 0.118663
vt 0.534711 0.118663
vt 0.420297 0.068576
vt 0.465496 0.099223
vt 0.568034 0.168751
vt 0.522836 0.138103
vt 0.389699 0.118663
vt 0.453620 0.118663
vt 0.494166 0.189498
vt 0.494166 0.146155
vt 0.420297 0.168751
vt 0.465496 0.138103
vt 0.794526 0.000245
vt 0.823042 0.000313
vt 0.821474 0.698777
vt 0.791389 0.698708
vt 0.833915 0.852974
vt 0.790696 0.852887
vn 0.646292 0.678652 -0.348910
vn 0.000000 0.943512 -0.331338
vn 0.000000 0.973850 0.227192
vn 0.707342 0.675546 0.208098
vn -0.646292 0.678652 -0.348910
vn -0.707342 0.675546 0.208098
vn -0.928903 0.000000 -0.370322
vn -0.981126 0.000000 0.193371
vn -0.646292 -0.678652 -0.348910
vn -0.707342 -0.675546 0.208098
vn -0.000000 -0.943512 -0.331338
vn -0.000000 -0.973850 0.227192
vn 0.646292 -0.678652 -0.348910
vn 0.707342 -0.675546 0.208098
vn 0.928903 0.000000 -0.370322
vn 0.981126 0.000000 0.193371
vn 0.000000 0.000000 -1.000000
vn 0.000000 0.000000 -1.000000
vn -0.000000 0.000000 -1.000000
vn -0.000001 0.000000 -1.000000
vn -0.000001 0.000000 -1.000000
vn -0.000000 0.000000 -1.000000
vn -0.000000 0.000000 -1.000000
vn 0.000000 0.000000 -1.000000
vn 0.000000 0.000000 -1.000000
vn 0.000000 0.000000 1.000000
vn 0.000000 0.000000 1.000000
vn 0.000000 0.000000 1.000000
vn 0.000000 0.000000 1.000000
vn 0.000000 0.000000 1.000000
vn 0.000000 0.000000 1.000000
vn 0.000002 0.000000 1.000000
vn 0.000002 0.000000 1.000000
vn 0.000000 0.000000 1.000000
vn 0.706461 0.706461 0.042718
vn -0.000000 0.999087 0.042718
vn -0.000000 0.802244 0.596996
vn 0.567272 0.567272 0.596996
vn 0.999087 0.000000 0.042718
vn 0.802244 0.000000 0.596996
vn 0.706461 -0.706461 0.042718
vn 0.567272 -0.567272 0.596996
vn 0.000000 -0.999087 0.042718
vn 0.000000 -0.802244 0.596996
vn -0.706461 -0.706461 0.042718
vn -0.567272 -0.567272 0.596996
vn -0.999087 0.000000 0.042718
vn -0.802244 0.000000 0.596996
vn -0.706461 0.706461 0.042718
vn -0.567272 0.567272 0.596996
vn 0.618668 0.634099 0.463862
vn 0.000000 0.891612 0.452799
vn 0.000000 0.999568 0.029401
vn 0.706801 0.706801 0.029401
vn 0.877266 -0.000000 0.480004
vn 0.999568 0.000000 0.029401
vn 0.618668 -0.634099 0.463862
vn 0.706801 -0.706801 0.029401
vn -0.000000 -0.891612 0.452799
vn -0.000000 -0.999568 0.029401
vn -0.618668 -0.634099 0.463862
vn -0.706801 -0.706801 0.029401
vn -0.877266 0.000000 0.480005
vn -0.999568 0.000000 0.029401
vn -0.618668 0.634099 0.463862
vn -0.706801 0.706801 0.029401
vn 0.505909 0.487332 -0.711733
vn 0.000000 0.690378 -0.723448
vn -0.505909 0.487332 -0.711733
vn -0.717893 0.000000 -0.696154
vn -0.505909 -0.487332 -0.711733
vn 0.000000 -0.690378 -0.723449
vn 0.505909 -0.487332 -0.711733
vn 0.717893 0.000000 -0.696154
vn 0.706869 0.706870 -0.025900
vn 0.000000 0.999665 -0.025900
vn 0.999665 0.000000 -0.025900
vn 0.706869 -0.706870 -0.025900
vn 0.000000 -0.999665 -0.025900
vn -0.706870 -0.706870 -0.025900
vn -0.999665 -0.000000 -0.025900
vn -0.706870 0.706870 -0.025900
vn 0.706583 0.706583 -0.038500
vn 0.000000 0.999259 -0.038500
vn -0.000000 0.963707 -0.266961
vn 0.681444 0.681444 -0.266961
vn 0.999259 -0.000000 -0.038500
vn 0.963707 0.000000 -0.266961
vn 0.706583 -0.706583 -0.038500
vn 0.681444 -0.681444 -0.266961
vn -0.000000 -0.999259 -0.038500
vn 0.000000 -0.963707 -0.266961
vn -0.706583 -0.706583 -0.038500
vn -0.681444 -0.681444 -0.266961
vn -0.999259 -0.000000 -0.038500
vn -0.963707 -0.000000 -0.266961
vn -0.706583 0.706582 -0.038500
vn -0.681444 0.681444 -0.266961
vn 0.000000 0.000000 -1.000000
vn 0.000000 0.000000 -1.000000
vn 0.000000 0.000000 -1.000000
vn 0.000000 0.000000 -1.000000
vn 0.000000 0.000000 -1.000000
vn 0.000000 0.000000 -1.000000
vn -0.000000 0.000000 -1.000000
vn -0.000000 0.000000 -1.000000
vn 0.000000 0.000000 -1.000000
vn 0.000000 0.000000 -1.000000
vn 0.000000 0.000000 -1.000000
vn 0.000000 0.000000 -1.000000
vn 0.000000 0.000000 -1.000000
vn 0.000000 0.000000 -1.000000
vn 0.000000 0.000000 -1.000000
vn 0.000000 0.000000 -1.000000
vn -0.000000 0.999996 -0.002859
vn 0.679975 0.733234 -0.001482
vn 0.645449 0.763798 -0.002735
vn -0.000000 0.999917 -0.012868
vn -0.679975 0.733234 -0.001482
vn -0.645449 0.763798 -0.002735
vn -1.000000 0.000000 0.000000
vn -0.999953 0.000000 0.009713
vn -0.679974 -0.733234 -0.001482
vn -0.645449 -0.763799 -0.002735
vn 0.000000 -0.999996 -0.002859
vn 0.000000 -0.999917 -0.012868
vn 0.679974 -0.733234 -0.001482
vn 0.645449 -0.763799 -0.002735
vn 1.000000 0.000000 0.000000
vn 0.999953 0.000000 0.009713
vn 0.034228 0.997580 -0.060517
vn 0.000000 0.998187 -0.060190
vn -0.034228 0.997580 -0.060517
vn -0.909858 0.413170 0.038082
vn -0.999185 0.000000 0.040369
vn -0.909858 -0.413170 0.038082
vn -0.034227 -0.997580 -0.060517
vn -0.000000 -0.998187 -0.060190
vn 0.034227 -0.997580 -0.060517
vn 0.909857 -0.413170 0.038082
vn 0.999185 0.000000 0.040369
vn 0.909857 0.413170 0.038082
vn -0.897616 0.440778 -0.000542
vn -1.000000 0.000000 -0.000603
vn -0.897616 -0.440778 -0.000542
vn 0.000000 -0.997566 -0.069730
vn 0.000000 -0.997566 -0.069730
vn 0.000000 -0.997566 -0.069730
vn 0.897616 -0.440778 -0.000542
vn 1.000000 0.000000 -0.000603
vn 0.897615 0.440779 -0.000542
vn 0.000000 0.997566 -0.069730
vn 0.000000 0.997566 -0.069730
vn 0.000000 0.997566 -0.069730
s 1
g pCylinder19
usemtl lambert29SG
f 34/1/1 35/2/2 36/3/3 37/4/4
f 35/2/2 38/7/5 39/8/6 36/3/3
f 38/7/5 40/32/7 41/33/8 39/8/6
f 40/32/7 42/37/9 43/38/10 41/33/8
f 42/37/9 44/62/11 45/63/12 43/38/10
f 44/62/11 46/67/13 47/68/14 45/63/12
f 46/67/13 48/92/15 49/93/16 47/68/14
f 48/92/15 34/97/1 37/98/4 49/93/16
s 2
f 99/121/17 98/122/18 100/123/19
f 101/125/20 99/121/17 100/123/19
f 102/127/21 101/125/20 100/123/19
f 103/129/22 102/127/21 100/123/19
f 104/128/23 103/129/22 100/123/19
f 105/126/24 104/128/23 100/123/19
f 106/124/25 105/126/24 100/123/19
f 98/122/18 106/124/25 100/123/19
s 3
f 9/130/26 10/131/27 17/132/28
f 10/131/27 11/133/29 17/132/28
f 11/133/29 12/135/30 17/132/28
f 12/135/30 13/137/31 17/132/28
f 13/137/31 14/138/32 17/132/28
f 14/138/32 15/136/33 17/132/28
f 15/136/33 16/134/34 17/132/28
f 16/134/34 9/130/26 17/132/28
s 1
f 19/26/35 18/25/36 10/28/37 9/29/38
f 20/115/39 19/117/35 9/120/38 16/118/40
f 21/87/41 20/115/39 16/118/40 15/90/42
f 22/85/43 21/87/41 15/90/42 14/88/44
f 23/57/45 22/85/43 14/88/44 13/60/46
f 24/55/47 23/57/45 13/60/46 12/58/48
f 25/27/49 24/55/47 12/58/48 11/30/50
f 18/25/36 25/27/49 11/30/50 10/28/37
f 27/10/51 26/9/52 66/13/53 67/14/54
f 28/99/55 27/102/51 67/105/54 68/103/56
f 29/72/57 28/99/55 68/103/56 69/75/58
f 30/69/59 29/72/57 69/75/58 70/73/60
f 31/42/61 30/69/59 70/73/60 71/45/62
f 32/39/63 31/42/61 71/45/62 72/43/64
f 33/12/65 32/39/63 72/43/64 73/15/66
f 26/9/52 33/12/65 73/15/66 66/13/53
f 1/5/67 2/6/68 35/2/2 34/1/1
f 26/9/52 27/10/51 37/4/4 36/3/3
f 2/6/68 3/11/69 38/7/5 35/2/2
f 33/12/65 26/9/52 36/3/3 39/8/6
f 3/11/69 4/36/70 40/32/7 38/7/5
f 32/39/63 33/12/65 39/8/6 41/33/8
f 4/36/70 5/41/71 42/37/9 40/32/7
f 31/42/61 32/39/63 41/33/8 43/38/10
f 5/41/71 6/66/72 44/62/11 42/37/9
f 30/69/59 31/42/61 43/38/10 45/63/12
f 6/66/72 7/71/73 46/67/13 44/62/11
f 29/72/57 30/69/59 45/63/12 47/68/14
f 7/71/73 8/96/74 48/92/15 46/67/13
f 28/99/55 29/72/57 47/68/14 49/93/16
f 8/96/74 1/101/67 34/97/1 48/92/15
f 27/102/51 28/99/55 49/93/16 37/98/4
f 51/23/75 50/22/76 18/25/36 19/26/35
f 52/112/77 51/114/75 19/117/35 20/115/39
f 53/84/78 52/112/77 20/115/39 21/87/41
f 54/82/79 53/84/78 21/87/41 22/85/43
f 55/54/80 54/82/79 22/85/43 23/57/45
f 56/52/81 55/54/80 23/57/45 24/55/47
f 57/24/82 56/52/81 24/55/47 25/27/49
f 50/22/76 57/24/82 25/27/49 18/25/36
f 59/17/83 58/16/84 74/19/85 75/20/86
f 60/106/87 59/108/83 75/111/86 76/109/88
f 61/78/89 60/106/87 76/109/88 77/81/90
f 62/76/91 61/78/89 77/81/90 78/79/92
f 63/48/93 62/76/91 78/79/92 79/51/94
f 64/46/95 63/48/93 79/51/94 80/49/96
f 65/18/97 64/46/95 80/49/96 81/21/98
f 58/16/84 65/18/97 81/21/98 74/19/85
f 67/14/54 66/13/53 58/16/84 59/17/83
f 68/103/56 67/105/54 59/108/83 60/106/87
f 69/75/58 68/103/56 60/106/87 61/78/89
f 70/73/60 69/75/58 61/78/89 62/76/91
f 71/45/62 70/73/60 62/76/91 63/48/93
f 72/43/64 71/45/62 63/48/93 64/46/95
f 73/15/66 72/43/64 64/46/95 65/18/97
f 66/13/53 73/15/66 65/18/97 58/16/84
f 75/20/86 74/19/85 50/22/76 51/23/75
f 76/109/88 75/111/86 51/114/75 52/112/77
f 77/81/90 76/109/88 52/112/77 53/84/78
f 78/79/92 77/81/90 53/84/78 54/82/79
f 79/51/94 78/79/92 54/82/79 55/54/80
f 80/49/96 79/51/94 55/54/80 56/52/81
f 81/21/98 80/49/96 56/52/81 57/24/82
f 74/19/85 81/21/98 57/24/82 50/22/76
s 5
f 2/139/99 1/140/100 82/141/101 83/142/102
f 3/145/103 2/139/99 83/142/102 84/146/104
f 4/149/105 3/145/103 84/146/104 85/150/106
f 5/153/107 4/149/105 85/150/106 86/154/108
f 6/151/109 5/153/107 86/154/108 87/152/110
f 7/147/111 6/151/109 87/152/110 88/148/112
f 8/143/113 7/147/111 88/148/112 89/144/114
f 1/140/100 8/143/113 89/144/114 82/141/101
s 6
f 83/155/115 82/156/116 90/157/117 91/158/118
f 84/119/119 83/155/115 91/158/118 92/116/120
f 85/100/121 84/95/119 92/94/120 93/91/122
f 86/53/123 85/100/121 93/91/122 94/50/124
f 87/34/125 86/53/123 94/50/124 95/86/126
f 88/77/127 87/34/125 95/86/126 96/74/128
f 89/70/129 88/77/127 96/74/128 97/31/130
f 82/156/116 89/70/129 97/31/130 90/157/117
f 91/158/118 90/157/117 113/159/131 114/160/132
f 92/116/120 91/158/118 114/160/132 107/107/133
f 93/91/122 92/94/120 107/59/134 108/56/135
f 94/50/124 93/91/122 108/56/135 109/40/136
f 95/86/126 94/50/124 109/40/137 110/80/138
f 96/74/128 95/86/126 110/80/138 111/64/139
f 97/31/130 96/74/128 111/64/140 112/89/141
f 90/157/117 97/31/130 112/89/141 113/159/142
f 108/56/135 107/59/134 101/47/143 102/44/144
f 109/40/136 108/56/135 102/44/144 103/35/145
f 110/80/138 109/40/137 103/35/146 104/65/147
f 111/64/139 110/80/138 104/65/147 105/61/148
f 112/89/141 111/64/140 105/61/149 106/83/150
f 113/159/142 112/89/141 106/83/150 98/113/151
f 114/160/132 113/159/131 98/113/152 99/110/153
f 107/107/133 114/160/132 99/110/153 101/104/154
