# This file uses centimeters as units for non-parametric coordinates.

mtllib beakerTop.mtl
g default
v 0.375643 5.327538 -0.375643
v 0.531240 5.327538 0.000000
v 0.375643 5.327538 0.375643
v 0.000000 5.327538 0.531240
v -0.375643 5.327538 0.375643
v -0.531240 5.327538 0.000000
v -0.375643 5.327538 -0.375643
v -0.000000 5.327538 -0.531240
v 0.338899 5.018055 -0.338899
v 0.479275 5.018055 0.000000
v 0.338899 5.018055 0.338899
v 0.000000 5.018055 0.479275
v -0.338899 5.018055 0.338899
v -0.479275 5.018055 0.000000
v -0.338899 5.018055 -0.338899
v -0.000000 5.018055 -0.479275
v 0.314381 4.780295 -0.314381
v 0.444602 4.780295 0.000000
v 0.314381 4.780295 0.314381
v 0.000000 4.780295 0.444602
v -0.314381 4.780295 0.314381
v -0.444602 4.780295 0.000000
v -0.314381 4.780295 -0.314381
v -0.000000 4.780295 -0.444602
v -0.000000 4.780295 0.000000
v 0.392255 5.814842 -0.392255
v 0.438462 5.735514 -0.438462
v 0.520641 5.814842 0.000000
v 0.620078 5.735514 0.000000
v 0.438462 5.735514 0.438462
v 0.392255 5.814842 0.392255
v -0.000000 5.814842 0.520641
v 0.000000 5.735514 0.620078
v -0.438462 5.735514 0.438462
v -0.392255 5.814842 0.392255
v -0.520641 5.814842 0.000000
v -0.620078 5.735514 0.000000
v -0.438462 5.735514 -0.438462
v -0.392255 5.814842 -0.392255
v -0.000000 5.814842 -0.520641
v -0.000000 5.735514 -0.620078
v -0.000000 5.814842 0.000000
vt 0.134592 0.001992
vt 0.215716 0.001992
vt 0.222042 0.224893
vt 0.134592 0.224893
vt 0.231524 0.304753
vt 0.134592 0.304753
vt 0.053468 0.001992
vt 0.047142 0.224893
vt 0.267372 0.474162
vt 0.134592 0.474162
vt 0.037660 0.304753
vt 0.253380 0.498185
vt 0.134592 0.498185
vt 0.001811 0.474162
vt 0.015804 0.498185
vt 0.405909 0.001992
vt 0.487033 0.001992
vt 0.493359 0.224893
vt 0.405909 0.224893
vt 0.502841 0.304753
vt 0.405909 0.304753
vt 0.324785 0.001992
vt 0.318459 0.224893
vt 0.538690 0.474162
vt 0.405909 0.474162
vt 0.308977 0.304753
vt 0.524697 0.498185
vt 0.405909 0.498185
vt 0.273128 0.474162
vt 0.287121 0.498185
vt 0.678821 0.001992
vt 0.759945 0.001992
vt 0.766271 0.224893
vt 0.678821 0.224893
vt 0.775753 0.304753
vt 0.678821 0.304753
vt 0.597697 0.001992
vt 0.591371 0.224893
vt 0.811601 0.474162
vt 0.678821 0.474162
vt 0.581889 0.304753
vt 0.797609 0.498185
vt 0.678821 0.498185
vt 0.546040 0.474162
vt 0.560033 0.498185
vt 0.774694 0.998008
vt 0.693571 0.998008
vt 0.687244 0.775107
vt 0.774694 0.775107
vt 0.774694 0.695247
vt 0.677762 0.695247
vt 0.855818 0.998008
vt 0.862145 0.775107
vt 0.871626 0.695247
vt 0.641914 0.525838
vt 0.774694 0.525838
vt 0.907475 0.525838
vt 0.655907 0.501815
vt 0.774694 0.501815
vt 0.893482 0.501815
vt 0.200695 0.731268
vt 0.200695 0.616541
vt 0.315422 0.616541
vt 0.281819 0.697665
vt 0.119571 0.697665
vt 0.085969 0.616541
vt 0.200695 0.501815
vt 0.281819 0.535417
vt 0.119571 0.535417
vt 0.636335 0.659482
vt 0.478668 0.659482
vt 0.597456 0.778270
vt 0.478668 0.817149
vt 0.597456 0.540694
vt 0.478668 0.501815
vt 0.321000 0.659482
vt 0.359880 0.778270
vt 0.359880 0.540694
vn 0.567786 -0.823177 0.000000
vn 0.401485 -0.823177 -0.401485
vn 0.698313 -0.157220 -0.698313
vn 0.987564 -0.157220 -0.000000
vn 0.401485 -0.823176 0.401485
vn 0.698313 -0.157220 0.698313
vn 0.000000 -0.823177 0.567786
vn 0.000000 -0.157220 0.987564
vn -0.401485 -0.823177 0.401485
vn -0.698313 -0.157220 0.698313
vn -0.567786 -0.823177 -0.000000
vn -0.987564 -0.157220 -0.000000
vn -0.401485 -0.823176 -0.401485
vn -0.698313 -0.157220 -0.698313
vn -0.000000 -0.823177 -0.567786
vn -0.000000 -0.157220 -0.987564
vn 0.000000 -1.000000 0.000000
vn 0.980784 -0.195096 -0.000000
vn 0.693519 -0.195096 0.693519
vn -0.980784 -0.195096 -0.000000
vn -0.693519 -0.195096 -0.693519
vn 0.000000 -0.195096 0.980784
vn -0.693519 -0.195096 0.693519
vn 0.000000 -0.195096 -0.980784
vn 0.693519 -0.195096 -0.693519
vn 0.143257 0.979262 -0.143258
vn 0.706763 -0.031162 -0.706763
vn 0.000000 -0.038010 -0.999277
vn 0.000000 0.982708 -0.185163
vn 0.185163 0.982708 -0.000000
vn 0.999277 -0.038010 0.000000
vn 0.143258 0.979262 0.143258
vn 0.706763 -0.031162 0.706763
vn 0.000000 0.982708 0.185163
vn 0.000000 -0.038010 0.999277
vn -0.143257 0.979262 0.143258
vn -0.706763 -0.031162 0.706763
vn -0.185163 0.982708 0.000000
vn -0.999277 -0.038010 -0.000000
vn -0.143258 0.979262 -0.143258
vn -0.706764 -0.031162 -0.706763
vn 0.000000 1.000000 0.000000
s 1
g polySurface4 polySurface1 nurbsToPoly1
usemtl initialShadingGroup
f 18/1/1 17/2/2 9/3/3 10/4/4
f 19/7/5 18/1/1 10/4/4 11/8/6
f 20/16/7 19/17/5 11/18/6 12/19/8
f 21/22/9 20/16/7 12/19/8 13/23/10
f 22/31/11 21/32/9 13/33/10 14/34/12
f 23/37/13 22/31/11 14/34/12 15/38/14
f 24/46/15 23/47/13 15/48/14 16/49/16
f 17/52/2 24/46/15 16/49/16 9/53/3
f 20/61/7 25/62/17 18/63/1 19/64/5
f 25/62/17 24/67/15 17/68/2 18/63/1
f 25/62/17 20/61/7 21/65/9 22/66/11
f 24/67/15 25/62/17 22/66/11 23/69/13
f 10/4/4 2/6/18 3/11/19 11/8/6
f 15/38/14 14/34/12 6/36/20 7/41/21
f 12/19/8 4/21/22 5/26/23 13/23/10
f 9/53/3 16/49/16 8/50/24 1/54/25
f 10/4/4 9/3/3 1/5/25 2/6/18
f 12/19/8 11/18/6 3/20/19 4/21/22
f 14/34/12 13/33/10 5/35/23 6/36/20
f 8/50/24 16/49/16 15/48/14 7/51/21
f 26/60/26 27/57/27 41/56/28 40/59/29
f 27/9/27 26/12/26 28/13/30 29/10/31
f 29/10/31 28/13/30 31/15/32 30/14/33
f 30/24/33 31/27/32 32/28/34 33/25/35
f 33/25/35 32/28/34 35/30/36 34/29/37
f 34/39/37 35/42/36 36/43/38 37/40/39
f 37/40/39 36/43/38 39/45/40 38/44/41
f 38/55/41 39/58/40 40/59/29 41/56/28
f 27/9/27 29/10/31 2/6/18 1/5/25
f 29/10/31 30/14/33 3/11/19 2/6/18
f 30/24/33 33/25/35 4/21/22 3/20/19
f 33/25/35 34/29/37 5/26/23 4/21/22
f 34/39/37 37/40/39 6/36/20 5/35/23
f 37/40/39 38/44/41 7/41/21 6/36/20
f 38/55/41 41/56/28 8/50/24 7/51/21
f 41/56/28 27/57/27 1/54/25 8/50/24
f 26/72/26 40/73/29 42/71/42 28/70/30
f 31/74/32 28/70/30 42/71/42 32/75/34
f 35/78/36 32/75/34 42/71/42 36/76/38
f 39/77/40 36/76/38 42/71/42 40/73/29
