# This file uses centimeters as units for non-parametric coordinates.

mtllib beakerContents.mtl
g default
v 1.024868 1.211268 -1.024868
v 1.449382 1.211268 0.000000
v 1.024868 1.211268 1.024868
v 0.000000 1.211268 1.449382
v -1.024868 1.211268 1.024868
v -1.449382 1.211268 0.000000
v -1.024868 1.211268 -1.024868
v 0.000000 1.211268 -1.449382
v 1.196240 0.512517 -1.196240
v 1.691739 0.512517 0.000000
v 1.196240 0.512517 1.196240
v 0.000000 0.512517 1.691739
v -1.196240 0.512517 1.196240
v -1.691738 0.512517 0.000000
v -1.196240 0.512517 -1.196240
v 0.000000 0.512517 -1.691739
v 1.202483 0.320270 -1.202483
v 1.700568 0.320270 0.000000
v 1.202483 0.320270 1.202483
v 0.000000 0.320270 1.700568
v -1.202483 0.320270 1.202483
v -1.700567 0.320270 0.000000
v -1.202483 0.320270 -1.202483
v 0.000000 0.320270 -1.700568
v 1.166962 0.183783 -1.166962
v 1.650334 0.183783 0.000000
v 1.166962 0.183783 1.166962
v 0.000000 0.183783 1.650334
v -1.166962 0.183783 1.166962
v -1.650334 0.183783 0.000000
v -1.166962 0.183783 -1.166962
v 0.000000 0.183783 -1.650334
v 0.000000 0.183783 0.000000
v 0.000000 0.183783 0.000000
v 0.000000 0.183783 0.000000
v 0.000000 0.183783 0.000000
v 0.000000 0.183783 0.000000
v 0.000000 0.183783 0.000000
v 0.000000 0.183783 0.000000
v 0.000000 0.183783 0.000000
v 0.131143 2.341219 -0.131143
v 0.185465 2.341219 0.000000
v 0.131143 2.341219 0.131143
v 0.000000 2.341219 0.185465
v -0.131143 2.341219 0.131143
v -0.185465 2.341219 -0.000000
v -0.131143 2.341219 -0.131143
v 0.000000 2.341219 -0.185465
v 0.000000 0.643226 -0.000000
v 0.000000 0.643226 -0.000000
v 0.000000 0.643226 -0.000000
v 0.000000 0.643226 -0.000000
v 0.000000 0.643226 -0.000000
v 0.000000 0.643226 -0.000000
v 0.000000 0.643226 -0.000000
v 0.000000 0.643226 -0.000000
v 0.000000 2.341219 0.000000
v 0.000000 2.274902 1.093346
v 0.000000 2.341219 0.919909
v -0.773112 2.274902 0.773112
v -0.650474 2.341219 0.650474
v 0.773112 2.274902 -0.773112
v 0.650474 2.341219 -0.650474
v 0.000000 2.274902 -1.093346
v 0.000000 2.341219 -0.919909
v 1.093346 2.274902 0.000000
v 0.919909 2.341219 0.000000
v 0.773112 2.274902 0.773112
v 0.650474 2.341219 0.650474
v -1.093346 2.274902 0.000000
v -0.919909 2.341219 0.000000
v -0.773112 2.274902 -0.773112
v -0.650474 2.341219 -0.650474
vt 0.001853 0.001992
vt 0.001853 0.144280
vt 0.001853 0.286568
vt 0.001853 0.428856
vt 0.001853 0.571144
vt 0.001853 0.713432
vt 0.001853 0.855720
vt 0.001853 0.998008
vt 0.001853 0.001992
vt 0.001853 0.144280
vt 0.001853 0.286568
vt 0.001853 0.428856
vt 0.001853 0.571144
vt 0.001853 0.713432
vt 0.001853 0.855720
vt 0.001853 0.998008
vt 0.052273 0.009423
vt 0.052273 0.052298
vt 0.023040 0.052298
vt 0.023040 0.002253
vt 0.096770 0.019955
vt 0.096770 0.052298
vt 0.052273 0.095174
vt 0.023040 0.102344
vt 0.014998 0.052298
vt 0.014998 0.001992
vt 0.096770 0.084642
vt 0.014998 0.102605
vt 0.009288 0.052298
vt 0.009288 0.003478
vt 0.009288 0.101119
vt 0.240845 0.009423
vt 0.240845 0.052298
vt 0.211613 0.052298
vt 0.211613 0.002253
vt 0.285343 0.019955
vt 0.285343 0.052298
vt 0.240845 0.095174
vt 0.211613 0.102344
vt 0.203570 0.052298
vt 0.203570 0.001992
vt 0.285343 0.084642
vt 0.203570 0.102605
vt 0.197860 0.052298
vt 0.197860 0.003478
vt 0.197860 0.101119
vt 0.146559 0.009423
vt 0.146559 0.052298
vt 0.117326 0.052298
vt 0.117326 0.002253
vt 0.191057 0.019955
vt 0.191057 0.052298
vt 0.146559 0.095174
vt 0.117326 0.102344
vt 0.109284 0.052298
vt 0.109284 0.001992
vt 0.191057 0.084642
vt 0.109284 0.102605
vt 0.103574 0.052298
vt 0.103574 0.003478
vt 0.103574 0.101119
vt 0.336644 0.095174
vt 0.336644 0.052298
vt 0.365876 0.052298
vt 0.365876 0.102344
vt 0.292146 0.084642
vt 0.292146 0.052298
vt 0.336644 0.009423
vt 0.365876 0.002253
vt 0.373919 0.052298
vt 0.373919 0.102605
vt 0.292146 0.019955
vt 0.373919 0.001992
vt 0.379629 0.052298
vt 0.379629 0.101119
vt 0.379629 0.003478
vt 0.879671 0.022214
vt 0.928491 0.001992
vt 0.928491 0.071034
vt 0.928491 0.071034
vt 0.765390 0.001992
vt 0.814211 0.022214
vt 0.765390 0.071034
vt 0.765390 0.071034
vt 0.645583 0.050812
vt 0.596763 0.071034
vt 0.596763 0.001992
vt 0.596763 0.001992
vt 0.701793 0.071034
vt 0.652972 0.050812
vt 0.701793 0.001992
vt 0.701793 0.001992
vt 0.758002 0.050812
vt 0.709181 0.071034
vt 0.709181 0.001992
vt 0.709181 0.001992
vt 0.870420 0.071034
vt 0.821600 0.050812
vt 0.870420 0.001992
vt 0.870420 0.001992
vt 0.484345 0.022214
vt 0.533165 0.001992
vt 0.533165 0.071034
vt 0.533165 0.071034
vt 0.540554 0.001992
vt 0.589374 0.022214
vt 0.540554 0.071034
vt 0.540554 0.071034
vt 0.432173 0.047733
vt 0.439932 0.047733
vt 0.437659 0.053219
vt 0.432173 0.055492
vt 0.432173 0.039974
vt 0.437659 0.042246
vt 0.470658 0.047733
vt 0.459386 0.074945
vt 0.432173 0.086217
vt 0.424414 0.047733
vt 0.426687 0.053219
vt 0.426687 0.042246
vt 0.432173 0.009248
vt 0.459386 0.020520
vt 0.464516 0.080076
vt 0.477914 0.047733
vt 0.432173 0.093473
vt 0.404960 0.074945
vt 0.393688 0.047733
vt 0.404960 0.020520
vt 0.432173 0.001992
vt 0.464516 0.015389
vt 0.399830 0.080076
vt 0.386432 0.047733
vt 0.399830 0.015389
vn 0.669340 0.322441 -0.669340
vn 0.946590 0.322441 0.000000
vn 0.964756 0.263147 0.000000
vn 0.682185 0.263147 -0.682185
vn 0.669340 0.322441 0.669340
vn 0.682185 0.263147 0.682185
vn 0.000000 0.322441 0.946590
vn 0.000000 0.263147 0.964756
vn -0.669340 0.322441 0.669340
vn -0.682185 0.263147 0.682185
vn -0.946590 0.322441 -0.000000
vn -0.964756 0.263146 -0.000000
vn -0.669340 0.322441 -0.669340
vn -0.682185 0.263147 -0.682185
vn 0.000000 0.322441 -0.946590
vn -0.000000 0.263147 -0.964756
vn 0.993218 -0.116265 0.000000
vn 0.702311 -0.116265 -0.702311
vn 0.702311 -0.116265 0.702311
vn 0.000000 -0.116265 0.993218
vn -0.702312 -0.116264 0.702311
vn -0.993218 -0.116264 -0.000000
vn -0.702312 -0.116264 -0.702311
vn -0.000000 -0.116265 -0.993218
vn 0.217540 -0.976052 0.000000
vn 0.153824 -0.976052 -0.153824
vn 0.153824 -0.976052 0.153824
vn 0.000000 -0.976052 0.217540
vn -0.153824 -0.976052 0.153824
vn -0.217540 -0.976052 0.000000
vn -0.153824 -0.976052 -0.153824
vn 0.000000 -0.976052 -0.217540
vn 0.000000 -0.000000 0.000000
vn 0.000000 -0.000000 0.000000
vn 0.000000 -0.000000 0.000000
vn 0.000000 -0.000000 0.000000
vn 0.000000 -0.000000 0.000000
vn 0.000000 -0.000000 0.000000
vn 0.000000 -0.000000 0.000000
vn 0.000000 -0.000000 0.000000
vn 0.000000 0.000000 0.000000
vn 0.000000 0.000000 0.000000
vn 0.000000 0.000000 0.000000
vn -0.000000 0.000000 0.000000
vn 0.000000 0.000000 0.000000
vn -0.000000 0.000000 0.000000
vn -0.000000 0.000000 0.000000
vn -0.000000 0.000000 0.000000
vn 0.000000 1.000000 -0.000000
vn 0.000000 1.000000 0.000000
vn 0.000000 1.000000 0.000000
vn 0.000000 1.000000 0.000000
vn 0.000000 1.000000 -0.000000
vn 0.000000 1.000000 0.000000
vn 0.000000 1.000000 -0.000000
vn 0.000000 1.000000 -0.000000
vn 0.000000 1.000000 -0.000000
vn 0.000000 0.381079 0.924542
vn 0.000000 0.987692 0.156409
vn -0.110598 0.987692 0.110598
vn -0.653750 0.381080 0.653750
vn 0.653750 0.381079 0.653750
vn 0.110598 0.987692 0.110598
vn -0.156409 0.987692 -0.000000
vn -0.924542 0.381080 -0.000000
vn 0.653750 0.381080 -0.653750
vn 0.110598 0.987692 -0.110598
vn 0.156409 0.987692 0.000000
vn 0.924542 0.381080 0.000000
vn 0.000000 0.381079 -0.924542
vn 0.000000 0.987692 -0.156409
vn -0.653750 0.381079 -0.653750
vn -0.110598 0.987692 -0.110598
s 1
g nurbsToPoly2
usemtl initialShadingGroup
f 1/17/1 2/18/2 10/19/3 9/20/4
f 2/18/2 3/23/5 11/24/6 10/19/3
f 3/32/5 4/33/7 12/34/8 11/35/6
f 4/33/7 5/38/9 13/39/10 12/34/8
f 5/47/9 6/48/11 14/49/12 13/50/10
f 6/48/11 7/53/13 15/54/14 14/49/12
f 7/62/13 8/63/15 16/64/16 15/65/14
f 8/63/15 1/68/1 9/69/4 16/64/16
f 9/20/4 10/19/3 18/25/17 17/26/18
f 10/19/3 11/24/6 19/28/19 18/25/17
f 11/35/6 12/34/8 20/40/20 19/41/19
f 12/34/8 13/39/10 21/43/21 20/40/20
f 13/50/10 14/49/12 22/55/22 21/56/21
f 14/49/12 15/54/14 23/58/23 22/55/22
f 15/65/14 16/64/16 24/70/24 23/71/23
f 16/64/16 9/69/4 17/73/18 24/70/24
f 17/26/18 18/25/17 26/29/25 25/30/26
f 18/25/17 19/28/19 27/31/27 26/29/25
f 19/41/19 20/40/20 28/44/28 27/45/27
f 20/40/20 21/43/21 29/46/29 28/44/28
f 21/56/21 22/55/22 30/59/30 29/60/29
f 22/55/22 23/58/23 31/61/31 30/59/30
f 23/71/23 24/70/24 32/74/32 31/75/31
f 24/70/24 17/73/18 25/76/26 32/74/32
f 25/77/26 26/78/25 34/79/33 33/80/34
f 26/81/25 27/82/27 35/83/35 34/84/33
f 27/85/27 28/86/28 36/87/36 35/88/35
f 28/89/28 29/90/29 37/91/37 36/92/36
f 29/93/29 30/94/30 38/95/38 37/96/37
f 30/97/30 31/98/31 39/99/39 38/100/38
f 31/101/31 32/102/32 40/103/40 39/104/39
f 32/105/32 25/106/26 33/107/34 40/108/40
f 33/1/34 34/2/33 50/10/41 49/9/42
f 34/2/33 35/3/35 51/11/43 50/10/41
f 35/3/35 36/4/36 52/12/44 51/11/43
f 36/4/36 37/5/37 53/13/45 52/12/44
f 37/5/37 38/6/38 54/14/46 53/13/45
f 38/6/38 39/7/39 55/15/47 54/14/46
f 39/7/39 40/8/40 56/16/48 55/15/47
f 40/8/40 33/1/34 49/9/42 56/16/48
f 57/109/49 42/110/50 41/111/51 48/112/52
f 46/118/53 57/109/49 48/112/52 47/119/54
f 57/109/49 46/118/53 45/120/55 44/113/56
f 42/110/50 57/109/49 44/113/56 43/114/57
f 58/129/58 59/121/59 61/128/60 60/133/61
f 59/121/59 58/129/58 68/130/62 69/122/63
f 60/133/61 61/128/60 71/127/64 70/132/65
f 62/123/66 63/116/67 67/115/68 66/124/69
f 63/116/67 62/123/66 64/125/70 65/117/71
f 65/117/71 64/125/70 72/131/72 73/126/73
f 66/124/69 67/115/68 69/122/63 68/130/62
f 70/132/65 71/127/64 73/126/73 72/131/72
f 4/33/7 58/37/58 60/42/61 5/38/9
f 8/63/15 64/67/70 62/72/66 1/68/1
f 2/18/2 66/22/69 68/27/62 3/23/5
f 6/48/11 70/52/65 72/57/72 7/53/13
f 2/18/2 1/17/1 62/21/66 66/22/69
f 4/33/7 3/32/5 68/36/62 58/37/58
f 6/48/11 5/47/9 60/51/61 70/52/65
f 8/63/15 7/62/13 72/66/72 64/67/70
f 41/111/51 42/110/50 67/115/68 63/116/67
f 42/110/50 43/114/57 69/122/63 67/115/68
f 43/114/57 44/113/56 59/121/59 69/122/63
f 44/113/56 45/120/55 61/128/60 59/121/59
f 45/120/55 46/118/53 71/127/64 61/128/60
f 46/118/53 47/119/54 73/126/73 71/127/64
f 47/119/54 48/112/52 65/117/71 73/126/73
f 48/112/52 41/111/51 63/116/67 65/117/71
