# This file uses centimeters as units for non-parametric coordinates.

mtllib rangerFloor.mtl
g default
v -3.554024 0.064959 -7.536660
v 3.564091 0.064959 -7.536660
v -3.554024 0.064959 7.510722
v 3.564091 0.064959 7.510722
v -3.554024 0.064959 -0.012969
v 3.564091 0.064959 -0.012969
vt 1.000000 1.000000
vt 0.000000 1.000000
vt 0.000000 0.000000
vt 1.000000 1.000000
vt 0.000000 0.000000
vt 1.000000 0.000000
vt 0.000000 1.000000
vt 1.000000 0.000000
vn 0.000000 1.000000 0.000000
vn 0.000000 1.000000 0.000000
vn 0.000000 1.000000 0.000000
vn 0.000000 1.000000 0.000000
vn 0.000000 1.000000 0.000000
vn 0.000000 1.000000 0.000000
s 1
g unityexport:Floor polySurface1499 unityexport:polySurface1
usemtl lambert5SG
f 2/1/1 1/2/2 5/3/3 6/8/4
f 6/4/4 5/7/3 3/5/5 4/6/6
