# Blender v2.74 (sub 0) OBJ File: 'Third pass stuff.blend'
# www.blender.org
mtllib Third pass stuff.mtl
o Table_Drawer_Table_Plane.000
v 0.873769 0.982061 0.436144
v 0.873769 0.743981 0.436145
v 0.873769 0.982061 1.347160
v 0.873769 0.743981 1.347160
v -0.861624 0.982061 0.436144
v -0.861624 0.743981 0.436145
v -0.861624 0.982061 1.347160
v -0.861624 0.743981 1.347160
v -0.097791 0.867363 1.394329
v -0.097791 0.886162 1.394329
v -0.097791 0.867363 1.346079
v -0.097791 0.886162 1.346079
v -0.080824 0.867363 1.394329
v -0.080824 0.886162 1.394329
v -0.080824 0.867363 1.346079
v -0.080824 0.886162 1.346079
v -0.076530 0.867363 1.426695
v -0.076530 0.886162 1.426695
v -0.047962 0.886162 1.426695
v -0.047962 0.867363 1.426695
v -0.087161 0.867363 1.410512
v -0.063865 0.867363 1.419059
v -0.063865 0.886162 1.419059
v -0.087161 0.886162 1.410512
v 0.096975 0.867363 1.394329
v 0.096975 0.886162 1.394329
v 0.096975 0.867363 1.346079
v 0.096975 0.886162 1.346079
v 0.080007 0.867363 1.394329
v 0.080007 0.886162 1.394329
v 0.080007 0.867363 1.346079
v 0.080007 0.886162 1.346079
v 0.075713 0.867363 1.426695
v 0.075713 0.886162 1.426695
v 0.047145 0.886162 1.426695
v 0.047145 0.867363 1.426695
v 0.086344 0.867363 1.410512
v 0.063049 0.867363 1.419059
v 0.063049 0.886162 1.419059
v 0.086344 0.886162 1.410512
v -0.000408 0.886162 1.426695
v -0.000408 0.867363 1.426695
v -0.000408 0.867363 1.419059
v -0.000408 0.886162 1.419059
v 0.865991 0.982061 0.428366
v 0.867418 0.737630 0.429794
v 0.865991 0.982061 1.339382
v 0.867418 0.737630 1.340809
v -0.869402 0.982061 0.428366
v -0.867974 0.737630 0.429794
v -0.869402 0.982061 1.339382
v -0.867974 0.737630 1.340809
v -0.089764 0.874490 1.391928
v -0.089764 0.879034 1.391928
v -0.091441 0.873714 1.352430
v -0.091441 0.879811 1.352430
v -0.087396 0.875945 1.396365
v -0.087396 0.877580 1.396365
v -0.087175 0.873714 1.352430
v -0.087175 0.879811 1.352430
v -0.072408 0.874119 1.419056
v -0.072408 0.879405 1.419056
v -0.047962 0.878384 1.418917
v -0.047962 0.875141 1.418917
v -0.080660 0.875141 1.406242
v -0.066737 0.876475 1.424510
v -0.066737 0.877049 1.424510
v -0.080660 0.878384 1.406242
v 0.088948 0.874490 1.391928
v 0.088948 0.879034 1.391928
v 0.090624 0.873714 1.352430
v 0.090624 0.879811 1.352430
v 0.086579 0.875945 1.396365
v 0.086579 0.877580 1.396365
v 0.086358 0.873714 1.352430
v 0.086358 0.879811 1.352430
v 0.071591 0.874119 1.419056
v 0.071591 0.879405 1.419056
v 0.047145 0.878384 1.418917
v 0.047145 0.875141 1.418917
v 0.079843 0.875141 1.406242
v 0.065920 0.876475 1.424510
v 0.065920 0.877049 1.424510
v 0.079843 0.878384 1.406242
v 0.003258 0.878829 1.419362
v 0.003258 0.874696 1.419362
v 0.003258 0.874696 1.426392
v 0.003258 0.878829 1.426392
vt 0.000000 0.000000
vt 0.790318 0.825538
vt 0.790318 0.853190
vt 0.780635 0.853190
vt 0.780635 0.825538
vt 0.770952 0.880499
vt 0.779785 0.880499
vt 0.779785 0.891272
vt 0.770952 0.891272
vt 0.780635 0.895014
vt 0.780635 0.867362
vt 0.790318 0.867362
vt 0.790318 0.895014
vt 0.794457 0.800832
vt 0.798860 0.787340
vt 0.802793 0.778128
vt 0.802793 0.794675
vt 0.786121 0.806990
vt 0.761269 0.806990
vt 0.761269 0.797162
vt 0.786121 0.797162
vt 0.777940 0.684353
vt 0.802793 0.684353
vt 0.802793 0.694181
vt 0.777940 0.694181
vt 0.761269 0.823537
vt 0.770952 0.806990
vt 0.770952 0.823537
vt 0.765202 0.674531
vt 0.769604 0.688023
vt 0.761269 0.681866
vt 0.761269 0.665319
vt 0.780635 0.806990
vt 0.780635 0.843744
vt 0.770952 0.843744
vt 0.790318 0.816264
vt 0.780635 0.816264
vt 0.790318 0.806990
vt 0.761269 0.637776
vt 0.765202 0.637776
vt 0.798860 0.750585
vt 0.802793 0.750585
vt 0.770952 0.851080
vt 0.761269 0.851080
vt 0.800001 0.825538
vt 0.800001 0.853190
vt 0.814078 0.799124
vt 0.814078 0.809898
vt 0.805245 0.809898
vt 0.805245 0.799124
vt 0.800001 0.895014
vt 0.800001 0.867362
vt 0.794457 0.700338
vt 0.802793 0.706495
vt 0.802793 0.723042
vt 0.798860 0.713831
vt 0.786121 0.694181
vt 0.786121 0.704008
vt 0.761269 0.704008
vt 0.761269 0.694181
vt 0.777940 0.591199
vt 0.777940 0.581371
vt 0.802793 0.581371
vt 0.802793 0.591199
vt 0.761269 0.878623
vt 0.770952 0.878623
vt 0.770952 0.895170
vt 0.761269 0.895170
vt 0.765202 0.601022
vt 0.761269 0.610233
vt 0.761269 0.593686
vt 0.769604 0.587529
vt 0.780635 0.880499
vt 0.800001 0.806990
vt 0.800001 0.816264
vt 0.810161 0.796780
vt 0.806228 0.796780
vt 0.806228 0.786006
vt 0.810161 0.786006
vn 0.000000 1.000000 0.000000
vn 0.000000 -0.000000 1.000000
vn 1.000000 -0.000000 0.000000
vn 0.000000 -1.000000 0.000000
vn 0.000000 -0.005800 -1.000000
vn -1.000000 -0.005800 0.000000
vn -0.729800 0.647900 0.218200
vn -0.577400 0.577400 -0.577400
vn -0.577400 -0.577400 -0.577400
vn -0.729800 -0.647900 0.218200
vn 0.577400 0.577400 -0.577400
vn 0.577400 -0.577400 -0.577400
vn 0.597500 0.780200 -0.185200
vn 0.597500 -0.780200 -0.185200
vn -0.591000 -0.707100 0.388200
vn 0.261000 -0.828400 -0.495500
vn 0.000000 -0.707100 0.707100
vn -0.374700 -0.614200 0.694500
vn 0.000000 0.707100 0.707100
vn -0.374700 0.614200 0.694500
vn 0.261000 0.828400 -0.495500
vn -0.591000 0.707100 0.388200
vn 0.000000 0.707100 -0.707100
vn 0.000000 -0.707100 -0.707100
vn 0.729800 0.647900 0.218200
vn 0.729800 -0.647900 0.218200
vn -0.597500 -0.780200 -0.185200
vn -0.597500 0.780200 -0.185200
vn 0.591000 -0.707100 0.388200
vn 0.374700 -0.614200 0.694500
vn -0.261000 -0.828400 -0.495500
vn 0.374700 0.614200 0.694500
vn -0.261000 0.828400 -0.495500
vn 0.591000 0.707100 0.388200
vn -1.000000 0.000000 0.000000
vn 0.620000 0.747800 -0.237500
vn 0.514500 0.615000 0.597500
vn 0.514500 -0.615000 0.597500
vn 0.620000 -0.747800 -0.237500
vn -0.645800 0.543800 0.535900
vn -0.645800 -0.543800 0.535900
vn -0.892800 0.156800 0.422400
vn -0.892700 -0.156800 0.422400
vn 0.360700 -0.775700 -0.517800
vn -0.028600 -0.738200 -0.674000
vn -0.399200 -0.408300 0.820900
vn 0.566500 0.808400 0.160000
vn 0.360800 0.775700 -0.517800
vn -0.028600 0.738200 -0.674000
vn 0.566700 -0.808200 0.160500
vn -0.399200 0.408300 0.820900
vn -0.031800 -0.679100 0.733400
vn -0.031800 0.679100 0.733400
vn -0.008300 0.737500 -0.675300
vn -0.008300 -0.737500 -0.675300
vn -0.514500 -0.615000 0.597500
vn -0.514500 0.615000 0.597500
vn -0.620000 0.747800 -0.237500
vn -0.620000 -0.747800 -0.237500
vn 0.645800 -0.543800 0.535900
vn 0.645800 0.543800 0.535900
vn 0.892700 -0.156800 0.422400
vn 0.892800 0.156800 0.422400
vn 0.400100 -0.408400 0.820400
vn 0.029800 -0.736600 -0.675700
vn -0.360700 -0.775700 -0.517800
vn -0.566400 0.808400 0.159900
vn -0.360700 0.775700 -0.517800
vn 0.029800 0.736600 -0.675600
vn -0.566600 -0.808300 0.160200
vn 0.400100 0.408400 0.820400
vn 0.035800 0.680400 0.732000
vn 0.035800 -0.680400 0.732000
vn 0.009200 0.736800 -0.676100
vn 0.009200 -0.736800 -0.676100
usemtl Desk
s off
f 8/1/1 4/1/1 2/1/1 6/1/1
f 3/1/2 7/1/2 8/1/2 4/1/2
f 1/1/3 3/1/3 4/1/3 2/1/3
f 5/1/2 6/1/2 2/1/2 1/1/2
f 7/1/3 8/1/3 6/1/3 5/1/3
f 50/1/4 46/1/4 48/1/4 52/1/4
f 48/1/5 52/1/5 51/1/5 47/1/5
f 46/1/6 48/1/6 47/1/6 45/1/6
f 45/1/5 46/1/5 50/1/5 49/1/5
f 49/1/6 50/1/6 52/1/6 51/1/6
f 7/1/1 3/1/1 47/1/1 51/1/1
f 3/1/1 1/1/1 45/1/1 47/1/1
f 5/1/1 1/1/1 45/1/1 49/1/1
f 7/1/1 5/1/1 49/1/1 51/1/1
usemtl Material
s 1
f 10/2/7 12/3/8 11/4/9 9/5/10
f 12/6/8 16/7/11 15/8/12 11/9/9
f 16/10/11 14/11/13 13/12/14 15/13/12
f 21/14/15 22/15/16 20/16/17 17/17/18
f 9/18/10 11/19/9 15/20/12 13/21/14
f 14/22/13 16/23/11 12/24/8 10/25/7
f 19/26/19 18/19/20 17/27/18 20/28/17
f 23/29/21 24/30/22 18/31/20 19/32/19
f 22/27/16 23/33/21 44/34/23 43/35/24
f 24/36/22 21/37/15 17/33/18 18/38/20
f 10/2/7 9/5/10 21/37/15 24/36/22
f 13/12/14 14/11/13 23/4/21 22/3/16
f 14/22/13 10/25/7 24/30/22 23/29/21
f 9/18/10 13/21/14 22/15/16 21/14/15
f 23/29/21 19/32/19 41/39/19 44/40/23
f 20/16/17 22/15/16 43/41/24 42/42/17
f 19/26/19 20/28/17 42/43/17 41/44/19
f 26/2/25 25/45/26 27/46/12 28/3/11
f 28/47/11 27/48/12 31/49/9 32/50/8
f 32/51/8 31/13/9 29/12/27 30/52/28
f 37/53/29 33/54/30 36/55/17 38/56/31
f 25/57/26 29/58/27 31/59/9 27/60/12
f 30/61/28 26/62/25 28/63/11 32/64/8
f 35/65/19 36/66/17 33/67/30 34/68/32
f 39/69/33 35/70/19 34/71/32 40/72/34
f 38/6/31 43/35/24 44/34/23 39/73/33
f 40/36/34 34/38/32 33/74/30 37/75/29
f 26/2/25 40/36/34 37/75/29 25/45/26
f 29/12/27 38/3/31 39/46/33 30/52/28
f 30/61/28 39/69/33 40/72/34 26/62/25
f 25/57/26 37/53/29 38/56/31 29/58/27
f 43/76/35 42/77/35 41/78/35 44/79/35
f 39/69/33 44/40/23 41/39/19 35/70/19
f 36/55/17 42/42/17 43/41/24 38/56/31
f 35/65/19 41/44/19 42/43/17 36/66/17
f 53/5/36 55/4/37 56/3/38 54/2/39
f 55/9/37 59/8/40 60/7/41 56/6/38
f 59/13/40 57/12/42 58/11/43 60/10/41
f 61/17/44 64/16/45 66/15/46 65/14/47
f 57/21/42 59/20/40 55/19/37 53/18/36
f 54/25/39 56/24/38 60/23/41 58/22/43
f 64/28/45 61/27/44 62/19/48 63/26/49
f 63/32/49 62/31/48 68/30/50 67/29/51
f 87/35/52 88/34/53 67/33/51 66/27/46
f 62/38/48 61/33/44 65/37/47 68/36/50
f 68/36/50 65/37/47 53/5/36 54/2/39
f 66/3/46 67/4/51 58/11/43 57/12/42
f 67/29/51 68/30/50 54/25/39 58/22/43
f 65/14/47 66/15/46 57/21/42 53/18/36
f 88/40/53 85/39/54 63/32/49 67/29/51
f 86/42/55 87/41/52 66/15/46 64/16/45
f 85/44/54 86/43/55 64/28/45 63/26/49
f 72/3/56 71/46/57 69/45/58 70/2/59
f 76/50/60 75/49/61 71/48/57 72/47/56
f 74/52/62 73/12/63 75/13/61 76/51/60
f 82/56/64 80/55/65 77/54/66 81/53/67
f 71/60/57 75/59/61 73/58/63 69/57/58
f 76/64/60 72/63/56 70/62/59 74/61/62
f 78/68/68 77/67/66 80/66/65 79/65/69
f 84/72/70 78/71/68 79/70/69 83/69/71
f 83/73/71 88/34/72 87/35/73 82/6/64
f 81/75/67 77/74/66 78/38/68 84/36/70
f 69/45/58 81/75/67 84/36/70 70/2/59
f 74/52/62 83/46/71 82/3/64 73/12/63
f 70/62/59 84/72/70 83/69/71 74/61/62
f 73/58/63 82/56/64 81/53/67 69/57/58
f 88/79/35 85/78/35 86/77/35 87/76/35
f 79/70/69 85/39/74 88/40/72 83/69/71
f 82/56/64 87/41/73 86/42/75 80/55/65
f 80/66/65 86/43/75 85/44/74 79/65/69
