# Blender v2.74 (sub 0) OBJ File: 'Garage Lock-Low Poly.blend'
# www.blender.org
mtllib Garage Lock-Low Poly.mtl
o Lock_Cube
v -0.052107 0.000361 0.058092
v -0.049445 0.027756 0.055430
v -0.052107 0.000361 -0.058092
v -0.049445 0.027756 -0.055430
v 0.064077 0.000361 0.058092
v 0.061415 0.027756 0.055430
v 0.064077 0.000361 -0.058092
v 0.061415 0.027756 -0.055430
v -0.049445 0.000537 0.061774
v -0.049445 0.027756 0.061774
v 0.061415 0.027756 0.061774
v 0.061415 0.000537 0.061774
v -0.052107 0.008034 0.058092
v -0.052107 0.008034 -0.058092
v 0.064077 0.008034 -0.058092
v 0.064077 0.008034 0.058092
v -0.049445 0.007858 0.061774
v 0.061415 0.007858 0.061774
v 0.061415 0.007858 0.078605
v 0.061415 0.000537 0.078605
v -0.049445 0.000537 0.078605
v -0.049445 0.007858 0.078605
v 0.061415 0.031199 0.055430
v -0.049445 0.031199 0.055430
v 0.061415 0.031199 0.061774
v -0.049445 0.031199 0.061774
v -0.049445 0.007858 -0.060575
v -0.049445 0.000537 -0.060575
v -0.049445 0.027756 -0.060575
v 0.061415 0.027756 -0.060575
v 0.061415 0.007858 -0.060575
v 0.061415 0.000537 -0.060575
v -0.049445 0.031872 -0.055430
v 0.061415 0.031872 -0.055430
v 0.061415 0.031872 -0.060575
v -0.049445 0.031872 -0.060575
v -0.049445 0.007858 -0.076103
v -0.049445 0.000537 -0.076103
v 0.061415 0.007858 -0.076103
v 0.061415 0.000537 -0.076103
v -0.041215 0.031418 -0.055430
v -0.041215 0.000537 -0.055430
v -0.041215 0.031418 0.055430
v -0.041215 0.000537 0.055430
v -0.041215 0.027756 0.061774
v -0.041215 0.000537 0.061774
v -0.041215 0.007858 0.061774
v -0.041215 0.000537 0.078605
v -0.041215 0.007858 0.078605
v -0.041215 0.031199 0.055430
v -0.041215 0.031199 0.061774
v -0.041215 0.027756 -0.060575
v -0.041215 0.000537 -0.060575
v -0.041215 0.007858 -0.060575
v -0.041215 0.031872 -0.055430
v -0.041215 0.031872 -0.060575
v -0.041215 0.000537 -0.076103
v -0.041215 0.007858 -0.076103
v 0.053958 0.031418 -0.055430
v 0.053958 0.000537 0.055430
v 0.053958 0.000537 0.061774
v 0.053958 0.007858 0.061774
v 0.053958 0.000537 0.078605
v 0.053958 0.007858 0.078605
v 0.053958 0.027756 -0.060575
v 0.053958 0.031872 -0.055430
v 0.053958 0.031872 -0.060575
v 0.053958 0.000537 -0.055430
v 0.053958 0.031418 0.055430
v 0.053958 0.027756 0.061774
v 0.053958 0.031199 0.055430
v 0.053958 0.031199 0.061774
v 0.053958 0.000537 -0.060575
v 0.053958 0.007858 -0.060575
v 0.053958 0.000537 -0.076103
v 0.053958 0.007858 -0.076103
vt 0.685484 0.637747
vt 0.992329 0.637748
vt 0.992329 0.720282
vt 0.685484 0.720282
vt 0.046540 0.690863
vt 0.005210 0.430900
vt 0.021921 0.428808
vt 0.057851 0.691809
vt 0.992113 0.506077
vt 0.685267 0.506077
vt 0.685267 0.423543
vt 0.992113 0.423543
vt 0.643483 0.472778
vt 0.669025 0.494992
vt 0.655276 0.500134
vt 0.637290 0.489035
vt 0.935326 0.950270
vt 0.935326 0.739080
vt 0.954652 0.734010
vt 0.954652 0.955340
vt 0.625638 0.963226
vt 0.625634 0.670439
vt 0.670620 0.670438
vt 0.670624 0.963225
vt 0.026443 0.114147
vt -0.015394 0.114133
vt -0.015365 0.028573
vt 0.026473 0.028587
vt 0.614961 0.957946
vt 0.600427 0.966694
vt 0.586375 0.939610
vt 0.595623 0.925816
vt 0.675539 0.597054
vt 0.712945 0.853597
vt 0.692620 0.855876
vt 0.661324 0.595868
vt 0.366898 0.588622
vt 0.372069 0.487603
vt 0.385385 0.493572
vt 0.382121 0.587896
vt 0.311533 0.849802
vt 0.332270 0.853485
vt 0.358868 0.858462
vt 0.407676 0.601893
vt 0.985083 0.718337
vt 0.692296 0.718337
vt 0.389660 0.430725
vt 0.349822 0.684897
vt 0.337876 0.687136
vt 0.373323 0.428715
vt 0.692513 0.425488
vt 0.985300 0.425488
vt 0.428070 0.565272
vt 0.415238 0.560060
vt 0.419179 0.520431
vt 0.434792 0.516221
vt 0.627304 0.527451
vt 0.616771 0.521874
vt 0.622490 0.569660
vt 0.572317 0.919701
vt 0.569385 0.936654
vt 0.292673 0.969481
vt 0.273886 0.961677
vt 0.292122 0.927134
vt 0.301100 0.938639
vt 0.312067 0.973107
vt 0.316816 0.937817
vt 0.044926 0.951414
vt 0.012007 0.989235
vt 0.020691 0.948877
vt 0.044917 0.948795
vt 0.510476 0.032959
vt 0.548478 0.032959
vt 0.548478 0.112083
vt 0.510476 0.112083
vt 0.349859 0.425488
vt 0.315390 0.677212
vt 0.089655 0.809750
vt 0.059646 0.790952
vt 0.070663 0.786584
vt 0.092909 0.796468
vt 0.358819 0.785339
vt 0.347376 0.782177
vt 0.019047 0.905217
vt 0.003630 0.900195
vt 0.019843 0.859318
vt 0.027806 0.868385
vt 0.301570 0.851796
vt 0.323346 0.857901
vt 0.314863 0.869298
vt 0.298969 0.865808
vt 0.040251 0.908763
vt 0.045141 0.866683
vt 0.341658 0.898293
vt 0.329261 0.903914
vt 0.654754 0.421174
vt 0.674450 0.381786
vt 0.674450 0.426057
vt 0.654754 0.426057
vt 0.296468 0.713361
vt 0.310910 0.712805
vt 0.311800 0.757896
vt 0.297129 0.763516
vt 0.096125 0.758230
vt 0.108663 0.763470
vt 0.096425 0.718149
vt 0.323995 0.798239
vt 0.112393 0.712658
vt 0.726967 0.705841
vt 0.748703 0.745228
vt 0.748703 0.750112
vt 0.726967 0.750112
vt 0.305958 0.910537
vt 0.042579 0.851796
vt 0.329428 0.811995
vt 0.043563 0.425488
vt 0.086754 0.674273
vt -0.016443 0.032959
vt 0.025495 0.032959
vt 0.025495 0.112083
vt -0.016443 0.112083
vt 0.194954 0.951838
vt 0.194945 0.949220
vt 0.575461 0.974624
vt 0.313518 0.919701
vt 0.410156 0.478088
vt 0.607711 0.568617
vt 0.673291 0.858462
vt 0.636297 0.609653
vt 0.510263 0.114314
vt 0.510292 0.028754
vt 1.006942 -0.041783
vt 1.006942 0.372352
vt 0.651410 0.372351
vt 0.651411 -0.041784
vt 0.733228 0.955340
vt 0.733228 0.734010
vt 0.754021 0.739080
vt 0.754021 0.950270
vt 0.403876 0.460908
vt 0.568598 0.873003
vt 0.568598 0.580217
vt 0.612635 0.580217
vt 0.612635 0.873003
vt 0.548174 0.114327
vt 0.548204 0.028767
vt 0.226743 0.989235
vt 0.216897 0.949145
vt 0.541110 0.906783
vt 0.541110 0.655419
vt 0.545994 0.655419
vt 0.545994 0.906783
vn -0.973800 0.054700 0.220800
vn -0.957200 0.056900 -0.283700
vn -0.706300 -0.636300 -0.310300
vn -0.720100 -0.652000 0.237100
vn -0.939700 0.319700 0.121300
vn -0.639600 0.028100 -0.768200
vn -0.745200 0.308600 -0.591000
vn 0.957200 0.056900 -0.283700
vn 0.973800 0.054700 0.220800
vn 0.719800 -0.652300 0.237300
vn 0.705900 -0.636600 -0.310400
vn -0.007600 -0.999900 0.003000
vn 0.590700 -0.781100 0.202000
vn -0.003000 -1.000000 0.003600
vn -0.007700 -0.999900 -0.003900
vn -0.205900 0.969200 0.135000
vn -0.135700 0.639100 0.757000
vn -0.938400 0.316400 -0.139000
vn 0.000000 0.707100 0.707100
vn -0.790900 0.308400 0.528600
vn -0.577300 0.577300 0.577300
vn -0.656000 0.027400 0.754300
vn -0.577300 0.577300 -0.577300
vn 0.941600 0.309800 -0.131400
vn 0.656000 0.027400 0.754300
vn 0.790900 0.308400 0.528600
vn -0.591000 -0.780900 0.202100
vn 0.000000 0.000000 1.000000
vn 0.942900 0.313000 0.113800
vn 0.745200 0.308600 -0.591000
vn 0.639600 0.028100 -0.768200
vn -0.577300 -0.577300 0.577300
vn 0.000000 -0.707100 0.707100
vn 0.577300 -0.577300 0.577300
vn 0.577300 0.577300 0.577300
vn 0.000000 1.000000 0.000000
vn 0.577300 0.577300 -0.577300
vn 0.000000 0.707100 -0.707100
vn 0.000000 0.000000 -1.000000
vn 0.007100 -0.999900 -0.004000
vn -0.538100 -0.805000 -0.249800
vn 0.002900 -1.000000 -0.004700
vn 0.537800 -0.805200 -0.249700
vn 0.146500 0.631100 0.761700
vn 0.577300 -0.577300 -0.577300
vn 0.000000 -0.707100 -0.707100
vn -0.577300 -0.577300 -0.577300
vn -0.003200 -1.000000 -0.004600
vn 0.223700 0.963400 0.147500
vn 0.002800 -1.000000 0.003600
vn 0.007000 -1.000000 0.003100
usemtl Garage_Lock
s 1
f 13/1/1 14/2/2 3/3/3 1/4/4
f 14/5/2 4/6/5 29/7/6 27/8/7
f 15/9/8 16/10/9 5/11/10 7/12/11
f 60/13/12 5/14/10 12/15/13 61/16/14
f 60/17/12 68/18/15 7/19/11 5/20/10
f 43/21/16 41/22/17 4/23/5 2/24/18
f 47/25/19 17/26/20 22/27/21 49/28/19
f 2/29/18 10/30/22 26/31/21 24/32/23
f 16/33/9 6/34/24 11/35/25 18/36/26
f 13/37/1 1/38/4 9/39/27 17/40/20
f 2/41/18 13/37/1 17/40/20 10/42/22
f 5/14/10 16/33/9 18/36/26 12/15/13
f 45/43/28 10/42/22 17/40/20 47/44/19
f 8/45/29 6/46/24 16/10/9 15/9/8
f 8/47/29 15/48/8 31/49/30 30/50/31
f 2/51/18 4/52/5 14/2/2 13/1/1
f 49/53/19 22/54/21 21/55/32 48/56/33
f 17/40/20 9/39/27 21/55/32 22/54/21
f 61/16/14 12/15/13 20/57/34 63/58/33
f 12/15/13 18/36/26 19/59/35 20/57/34
f 50/60/36 24/32/23 26/31/21 51/61/19
f 11/62/25 6/63/24 23/64/37 25/65/35
f 70/66/28 11/62/25 25/65/35 72/67/19
f 43/68/16 2/69/18 24/70/23 50/71/36
f 74/72/38 31/73/30 39/74/37 76/75/38
f 65/76/39 30/50/31 31/49/30 74/77/38
f 42/78/40 3/79/3 28/80/41 53/81/42
f 15/48/8 7/82/11 32/83/43 31/49/30
f 29/84/6 4/85/5 33/86/21 36/87/23
f 3/79/3 14/5/2 27/8/7 28/80/41
f 66/88/19 34/89/35 35/90/37 67/91/38
f 52/92/39 29/84/6 36/87/23 56/93/38
f 8/94/29 30/95/31 35/90/37 34/89/35
f 59/96/44 8/97/29 34/98/35 66/99/19
f 76/100/38 39/101/37 40/102/45 75/103/46
f 53/81/42 28/80/41 38/104/47 57/105/46
f 31/49/30 32/83/43 40/102/45 39/101/37
f 28/80/41 27/8/7 37/106/23 38/104/47
f 73/107/48 53/81/42 57/105/46 75/103/46
f 37/106/23 58/108/38 57/105/46 38/104/47
f 4/109/5 41/110/17 55/111/19 33/112/21
f 65/113/39 52/92/39 56/93/38 67/91/38
f 33/86/21 55/114/19 56/93/38 36/87/23
f 68/115/15 42/78/40 53/81/42 73/107/48
f 29/7/6 52/116/39 54/117/38 27/8/7
f 27/118/7 54/119/38 58/120/38 37/121/23
f 69/122/49 43/68/16 50/71/36 71/123/36
f 10/30/22 45/124/28 51/61/19 26/31/21
f 71/125/36 50/60/36 51/61/19 72/67/19
f 9/39/27 46/126/50 48/56/33 21/55/32
f 64/127/19 49/53/19 48/56/33 63/58/33
f 70/128/28 45/43/28 47/44/19 62/129/19
f 62/130/19 47/25/19 49/28/19 64/131/19
f 69/132/49 59/133/44 41/134/17 43/135/16
f 1/136/4 3/137/3 42/138/40 44/139/51
f 1/38/4 44/140/51 46/126/50 9/39/27
f 6/141/24 8/142/29 59/143/44 69/144/49
f 18/145/26 62/130/19 64/131/19 19/146/35
f 11/35/25 70/128/28 62/129/19 18/36/26
f 19/59/35 64/127/19 63/58/33 20/57/34
f 23/64/37 71/125/36 72/67/19 25/65/35
f 6/147/24 69/122/49 71/123/36 23/148/37
f 7/82/11 68/115/15 73/107/48 32/83/43
f 30/95/31 65/113/39 67/91/38 35/90/37
f 32/83/43 73/107/48 75/103/46 40/102/45
f 58/108/38 76/100/38 75/103/46 57/105/46
f 41/149/17 59/150/44 66/151/19 55/152/19
f 55/114/19 66/88/19 67/91/38 56/93/38
f 52/116/39 65/76/39 74/77/38 54/117/38
f 54/119/38 74/72/38 76/75/38 58/120/38
f 45/124/28 70/66/28 72/67/19 51/61/19
f 46/126/50 61/16/14 63/58/33 48/56/33
f 44/139/51 42/138/40 68/18/15 60/17/12
f 44/140/51 60/13/12 61/16/14 46/126/50
