# Blender v2.74 (sub 0) OBJ File: 'Spirit 4.blend'
# www.blender.org
mtllib TNT Lever Top.mtl
o Circle
v 0.075746 0.325236 0.038801
v 0.075746 0.295450 -0.051720
v 0.075746 0.295450 0.038801
v 0.075746 0.325236 -0.051720
v 0.109758 0.296470 0.049481
v 0.109758 0.325557 0.049481
v 0.109758 0.296470 -0.062400
v 0.109758 0.325557 -0.062400
v 0.041734 0.325737 -0.041040
v 0.041734 0.307930 -0.041040
v 0.041734 0.325737 0.028121
v 0.041734 0.307930 0.028121
v 0.000000 0.321990 -0.212830
v -0.041521 0.321990 -0.208741
v -0.081447 0.321990 -0.196630
v -0.118242 0.321990 -0.176962
v -0.150494 0.321990 -0.150494
v -0.176962 0.321990 -0.118242
v -0.196630 0.321990 -0.081447
v -0.208741 0.321990 -0.041521
v -0.212830 0.321990 -0.000000
v -0.208741 0.321990 0.041521
v -0.196630 0.321990 0.081447
v -0.176962 0.321990 0.118242
v -0.150494 0.321990 0.150494
v -0.118242 0.321990 0.176962
v -0.081447 0.321990 0.196630
v -0.041521 0.321990 0.208741
v 0.000000 0.321990 0.212830
v 0.041521 0.321990 0.208741
v 0.081447 0.321990 0.196630
v 0.118242 0.321990 0.176962
v 0.150494 0.321990 0.150494
v 0.176962 0.321990 0.118242
v 0.196630 0.321990 0.081446
v 0.208741 0.321990 0.041521
v 0.212830 0.321990 -0.000000
v 0.208741 0.321990 -0.041521
v 0.196629 0.321990 -0.081447
v 0.176962 0.321990 -0.118242
v 0.150494 0.321990 -0.150494
v 0.118242 0.321990 -0.176962
v 0.081446 0.321990 -0.196630
v 0.041521 0.321990 -0.208741
v -0.041521 0.348355 -0.208741
v 0.000000 0.348355 -0.212830
v -0.081447 0.348355 -0.196630
v -0.118242 0.348355 -0.176962
v -0.150494 0.348355 -0.150494
v -0.176962 0.348355 -0.118242
v -0.196630 0.348355 -0.081447
v -0.208741 0.348355 -0.041521
v -0.212830 0.348355 -0.000000
v -0.208741 0.348355 0.041521
v -0.196630 0.348355 0.081447
v -0.176962 0.348355 0.118242
v -0.150494 0.348355 0.150494
v -0.118242 0.348355 0.176962
v -0.081447 0.348355 0.196630
v -0.041521 0.348355 0.208741
v 0.000000 0.348355 0.212830
v 0.041521 0.348355 0.208741
v 0.081447 0.348355 0.196630
v 0.118242 0.348355 0.176962
v 0.150494 0.348355 0.150494
v 0.176962 0.348355 0.118242
v 0.196630 0.348355 0.081446
v 0.208741 0.348355 0.041521
v 0.212830 0.348355 -0.000000
v 0.208741 0.348355 -0.041521
v 0.196629 0.348355 -0.081447
v 0.176962 0.348355 -0.118242
v 0.150494 0.348355 -0.150494
v 0.118242 0.348355 -0.176962
v 0.081446 0.348355 -0.196630
v 0.041521 0.348355 -0.208741
v -0.038811 0.348355 -0.195118
v 0.000000 0.348355 -0.198940
v -0.076131 0.348355 -0.183797
v -0.110525 0.348355 -0.165413
v -0.140672 0.348355 -0.140672
v -0.165413 0.348355 -0.110525
v -0.183797 0.348355 -0.076131
v -0.195118 0.348355 -0.038811
v -0.198940 0.348355 -0.000000
v -0.195118 0.348355 0.038811
v -0.183797 0.348355 0.076131
v -0.165413 0.348355 0.110525
v -0.140672 0.348355 0.140672
v -0.110525 0.348355 0.165413
v -0.076131 0.348355 0.183797
v -0.038811 0.348355 0.195118
v 0.000000 0.348355 0.198940
v 0.038811 0.348355 0.195118
v 0.076131 0.348355 0.183797
v 0.110526 0.348355 0.165413
v 0.140672 0.348355 0.140672
v 0.165413 0.348355 0.110525
v 0.183797 0.348355 0.076131
v 0.195118 0.348355 0.038811
v 0.198940 0.348355 -0.000000
v 0.195118 0.348355 -0.038812
v 0.183797 0.348355 -0.076131
v 0.165413 0.348355 -0.110526
v 0.140672 0.348355 -0.140672
v 0.110525 0.348355 -0.165413
v 0.076131 0.348355 -0.183797
v 0.038811 0.348355 -0.195118
v -0.038811 0.332519 -0.195118
v 0.000000 0.332519 -0.198940
v -0.076131 0.332519 -0.183797
v -0.110525 0.332519 -0.165413
v -0.140672 0.332519 -0.140672
v -0.165413 0.332519 -0.110525
v -0.183797 0.332519 -0.076131
v -0.195118 0.332519 -0.038811
v -0.198940 0.332519 -0.000000
v -0.195118 0.332519 0.038811
v -0.183797 0.332519 0.076131
v -0.165413 0.332519 0.110525
v -0.140672 0.332519 0.140672
v -0.110525 0.332519 0.165413
v -0.076131 0.332519 0.183797
v -0.038811 0.332519 0.195118
v 0.000000 0.332519 0.198940
v 0.038811 0.332519 0.195118
v 0.076131 0.332519 0.183797
v 0.110526 0.332519 0.165413
v 0.140672 0.332519 0.140672
v 0.165413 0.332519 0.110525
v 0.183797 0.332519 0.076131
v 0.195118 0.332519 0.038811
v 0.198940 0.332519 -0.000000
v 0.195118 0.332519 -0.038812
v 0.183797 0.332519 -0.076131
v 0.165413 0.332519 -0.110526
v 0.140672 0.332519 -0.140672
v 0.110525 0.332519 -0.165413
v 0.076131 0.332519 -0.183797
v 0.038811 0.332519 -0.195118
v -0.038811 0.332519 -0.195118
v 0.000000 0.332519 -0.198940
v -0.076131 0.332519 -0.183797
v -0.110525 0.332519 -0.165413
v -0.140672 0.332519 -0.140672
v -0.165413 0.332519 -0.110525
v -0.183797 0.332519 -0.076131
v -0.195118 0.332519 -0.038811
v -0.198940 0.332519 -0.000000
v -0.195118 0.332519 0.038811
v -0.183797 0.332519 0.076131
v -0.165413 0.332519 0.110525
v -0.140672 0.332519 0.140672
v -0.110525 0.332519 0.165413
v -0.076131 0.332519 0.183797
v -0.038811 0.332519 0.195118
v 0.000000 0.332519 0.198940
v 0.038811 0.332519 0.195118
v 0.076131 0.332519 0.183797
v 0.110526 0.332519 0.165413
v 0.140672 0.332519 0.140672
v 0.165413 0.332519 0.110525
v 0.183797 0.332519 0.076131
v 0.195118 0.332519 0.038811
v 0.198940 0.332519 -0.000000
v 0.195118 0.332519 -0.038812
v 0.183797 0.332519 -0.076131
v 0.165413 0.332519 -0.110526
v 0.140672 0.332519 -0.140672
v 0.110525 0.332519 -0.165413
v 0.076131 0.332519 -0.183797
v 0.038811 0.332519 -0.195118
vt 0.665204 0.653405
vt 0.664717 0.694498
vt 0.629461 0.694595
vt 0.644128 0.653463
vt 0.665204 0.735589
vt 0.630775 0.735683
vt 0.629461 0.653405
vt 0.629461 0.789917
vt 0.595032 0.789917
vt 0.595032 0.653405
vt 0.634934 0.529926
vt 0.634934 0.640374
vt 0.595032 0.516894
vt 0.676536 0.542957
vt 0.676536 0.627343
vt 0.716795 0.529926
vt 0.716795 0.640374
vt 0.700948 0.653500
vt 0.700461 0.694590
vt 0.665204 0.694493
vt 0.666518 0.653405
vt 0.700948 0.735683
vt 0.679871 0.735625
vt 0.757054 0.516894
vt 0.757054 0.653405
vt 0.700948 0.737458
vt 0.700948 0.653405
vt 0.722024 0.653405
vt 0.722024 0.737458
vt 0.677989 0.009876
vt 0.726152 0.000000
vt 0.775258 0.000056
vt 0.823422 0.010042
vt 0.868790 0.029574
vt 0.909621 0.057902
vt 0.944345 0.093936
vt 0.971627 0.136293
vt 0.990420 0.183344
vt 1.000000 0.233281
vt 1.000000 0.284185
vt 0.990420 0.334100
vt 0.971627 0.381108
vt 0.944345 0.423402
vt 0.909621 0.459356
vt 0.868790 0.487590
vt 0.823422 0.507019
vt 0.775258 0.516894
vt 0.726152 0.516838
vt 0.677988 0.506852
vt 0.632620 0.487320
vt 0.591789 0.458992
vt 0.557065 0.422958
vt 0.529783 0.380601
vt 0.510990 0.333550
vt 0.501410 0.283613
vt 0.501410 0.232709
vt 0.510990 0.182794
vt 0.529783 0.135787
vt 0.557065 0.093493
vt 0.591789 0.057538
vt 0.632620 0.029304
vt 0.028533 0.136019
vt 0.055970 0.093691
vt 0.068679 0.104443
vt 0.043033 0.144008
vt 0.563825 0.651923
vt 0.563825 0.702711
vt 0.532617 0.702711
vt 0.532617 0.651923
vt 0.499894 0.516866
vt 0.499894 0.556218
vt 0.468687 0.556218
vt 0.468687 0.516866
vt 0.595032 0.743941
vt 0.595032 0.793776
vt 0.563825 0.793776
vt 0.563825 0.743941
vt 0.563825 0.557194
vt 0.563825 0.602788
vt 0.532617 0.602788
vt 0.532617 0.557194
vt 0.532617 0.798084
vt 0.532617 0.843678
vt 0.501410 0.843678
vt 0.501410 0.798084
vt 0.595032 0.643018
vt 0.595032 0.693037
vt 0.563825 0.693037
vt 0.563825 0.643018
vt 0.499894 0.844762
vt 0.499894 0.884114
vt 0.468687 0.884114
vt 0.468687 0.844762
vt 0.532617 0.698161
vt 0.532617 0.748949
vt 0.501410 0.748949
vt 0.501410 0.698161
vt 0.595032 0.553222
vt 0.595032 0.595809
vt 0.563825 0.595809
vt 0.563825 0.553222
vt 0.499894 0.751152
vt 0.499894 0.799867
vt 0.468687 0.799867
vt 0.468687 0.751152
vt 0.563825 0.845610
vt 0.563825 0.883978
vt 0.532617 0.883978
vt 0.532617 0.845610
vt 0.532617 0.599420
vt 0.532617 0.647671
vt 0.501410 0.647671
vt 0.501410 0.599420
vt 0.499894 0.649828
vt 0.499894 0.700490
vt 0.468687 0.700490
vt 0.468687 0.649828
vt 0.563825 0.753201
vt 0.563825 0.801452
vt 0.532617 0.801452
vt 0.532617 0.753201
vt 0.532617 0.516894
vt 0.532617 0.555262
vt 0.501410 0.555262
vt 0.501410 0.516894
vt 0.499894 0.601113
vt 0.468687 0.601113
vt 0.595032 0.840626
vt 0.563825 0.840626
vt 0.501410 0.883978
vt 0.563825 0.516894
vt 0.595032 0.882691
vt 0.563825 0.882691
vt 0.275397 0.516866
vt 0.226013 0.516866
vt 0.227624 0.500000
vt 0.273786 0.500000
vt 0.410520 0.057695
vt 0.445441 0.093692
vt 0.432732 0.104443
vt 0.400091 0.070796
vt 0.000000 0.232979
vt 0.009634 0.183051
vt 0.025367 0.187970
vt 0.016362 0.234641
vt 0.369458 0.487453
vt 0.323833 0.506935
vt 0.319061 0.490717
vt 0.361708 0.472507
vt 0.323833 0.009932
vt 0.369459 0.029413
vt 0.361709 0.044359
vt 0.319061 0.026149
vt 0.009634 0.333815
vt 0.000000 0.283886
vt 0.016362 0.282225
vt 0.025367 0.328895
vt 0.445440 0.423174
vt 0.410520 0.459171
vt 0.400090 0.446070
vt 0.432732 0.412423
vt 0.226013 0.000000
vt 0.275398 0.000000
vt 0.273786 0.016866
vt 0.227624 0.016866
vt 0.491776 0.333815
vt 0.472877 0.380847
vt 0.458378 0.372858
vt 0.476043 0.328895
vt 0.055970 0.423174
vt 0.028533 0.380847
vt 0.043033 0.372858
vt 0.068679 0.412423
vt 0.131952 0.029413
vt 0.177577 0.009931
vt 0.182350 0.026149
vt 0.139702 0.044359
vt 0.501410 0.232980
vt 0.501410 0.283886
vt 0.485049 0.282225
vt 0.485049 0.234641
vt 0.131952 0.487453
vt 0.090890 0.459171
vt 0.101320 0.446070
vt 0.139702 0.472507
vt 0.090890 0.057695
vt 0.101320 0.070796
vt 0.472877 0.136019
vt 0.491776 0.183051
vt 0.476043 0.187970
vt 0.458378 0.144008
vt 0.177577 0.506935
vt 0.182350 0.490717
vt 0.813287 0.740925
vt 0.813287 0.694171
vt 0.832032 0.694171
vt 0.832032 0.740925
vt 0.813287 0.733804
vt 0.813287 0.779733
vt 0.794543 0.779733
vt 0.794543 0.733804
vt 0.794543 0.516894
vt 0.794543 0.554564
vt 0.775798 0.554564
vt 0.775798 0.516894
vt 0.813287 0.824861
vt 0.813287 0.785054
vt 0.832032 0.785054
vt 0.832032 0.824861
vt 0.757054 0.595644
vt 0.757054 0.553678
vt 0.775798 0.553678
vt 0.775798 0.595644
vt 0.813287 0.594034
vt 0.813287 0.639136
vt 0.794543 0.639136
vt 0.794543 0.594034
vt 0.794543 0.824157
vt 0.794543 0.860021
vt 0.775798 0.860021
vt 0.775798 0.824157
vt 0.757054 0.688535
vt 0.757054 0.641179
vt 0.775798 0.641179
vt 0.775798 0.688535
vt 0.813287 0.516894
vt 0.813287 0.552758
vt 0.794543 0.552758
vt 0.794543 0.737779
vt 0.794543 0.782881
vt 0.775798 0.782881
vt 0.775798 0.737779
vt 0.757054 0.781426
vt 0.757054 0.735890
vt 0.775798 0.735890
vt 0.775798 0.781426
vt 0.813287 0.600006
vt 0.813287 0.556214
vt 0.832032 0.556214
vt 0.832032 0.600006
vt 0.757054 0.860175
vt 0.757054 0.823391
vt 0.775798 0.823391
vt 0.775798 0.860175
vt 0.794543 0.643111
vt 0.794543 0.690585
vt 0.775798 0.690585
vt 0.775798 0.643111
vt 0.813287 0.646589
vt 0.832032 0.646589
vt 0.813287 0.822351
vt 0.794543 0.822351
vt 0.794543 0.597182
vt 0.775798 0.597182
vt 0.813287 0.686330
vt 0.794543 0.686330
vt 0.813287 0.858818
vt 0.832032 0.858818
vt 0.832032 0.516894
vt 0.813287 0.860021
vt 0.000000 0.000000
vt 0.468687 0.782225
vt 0.459681 0.828896
vt 0.442016 0.872858
vt 0.416370 0.912423
vt 0.383729 0.946070
vt 0.345347 0.972507
vt 0.302699 0.990717
vt 0.257424 1.000000
vt 0.211263 1.000000
vt 0.165988 0.990717
vt 0.123340 0.972507
vt 0.084958 0.946070
vt 0.052317 0.912423
vt 0.026671 0.872858
vt 0.009006 0.828895
vt 0.000000 0.782225
vt 0.000000 0.734641
vt 0.009006 0.687970
vt 0.026671 0.644008
vt 0.052317 0.604443
vt 0.084958 0.570796
vt 0.123340 0.544359
vt 0.165988 0.526149
vt 0.211263 0.516866
vt 0.257425 0.516866
vt 0.302699 0.526149
vt 0.345347 0.544359
vt 0.383729 0.570796
vt 0.416370 0.604443
vt 0.442016 0.644008
vt 0.459681 0.687971
vt 0.468687 0.734641
vn -0.643300 0.600100 -0.475400
vn -0.212400 0.704500 -0.677100
vn -0.287200 -0.726200 -0.624600
vn -0.741100 -0.464500 -0.484800
vn 0.487200 0.565600 -0.665400
vn 0.495000 -0.554800 -0.668700
vn 0.487200 0.565600 0.665400
vn 0.495000 -0.554800 0.668700
vn -0.287200 -0.726200 0.624600
vn -0.741100 -0.464500 0.484800
vn -0.212400 0.704500 0.677100
vn -0.643300 0.600100 0.475400
vn -0.142000 -0.685700 -0.713900
vn 0.000000 -0.685700 -0.727900
vn 0.142000 -0.685700 -0.713900
vn 0.278500 -0.685700 -0.672500
vn 0.404400 -0.685700 -0.605200
vn 0.514700 -0.685700 -0.514700
vn 0.605200 -0.685700 -0.404400
vn 0.672500 -0.685700 -0.278500
vn 0.713900 -0.685700 -0.142000
vn 0.727900 -0.685700 0.000000
vn 0.713900 -0.685700 0.142000
vn 0.672500 -0.685700 0.278500
vn 0.605200 -0.685700 0.404400
vn 0.514700 -0.685700 0.514700
vn 0.404400 -0.685700 0.605200
vn 0.278500 -0.685700 0.672500
vn 0.142000 -0.685700 0.713900
vn 0.000000 -0.685700 0.727900
vn -0.142000 -0.685700 0.713900
vn -0.278500 -0.685700 0.672500
vn -0.404400 -0.685700 0.605200
vn -0.514700 -0.685700 0.514700
vn -0.605200 -0.685700 0.404400
vn -0.672500 -0.685700 0.278500
vn -0.713900 -0.685700 0.142000
vn -0.727900 -0.685700 0.000000
vn -0.713900 -0.685700 -0.142000
vn -0.672500 -0.685700 -0.278500
vn -0.605200 -0.685700 -0.404400
vn -0.514700 -0.685700 -0.514700
vn -0.404400 -0.685700 -0.605200
vn -0.278500 -0.685700 -0.672500
vn 0.605200 0.685700 0.404400
vn 0.672500 0.685700 0.278500
vn -0.631600 0.729800 -0.261600
vn -0.568400 0.729800 -0.379800
vn 0.000000 0.685700 -0.727900
vn 0.142000 0.685700 -0.713900
vn 0.514700 0.685700 0.514700
vn -0.672500 0.685700 0.278500
vn -0.713900 0.685700 0.142000
vn 0.278500 0.685700 -0.672500
vn 0.404400 0.685700 -0.605200
vn 0.404400 0.685700 0.605200
vn 0.278500 0.685700 0.672500
vn -0.727900 0.685700 0.000000
vn -0.713900 0.685700 -0.142000
vn 0.514700 0.685700 -0.514700
vn 0.605200 0.685700 -0.404400
vn 0.142000 0.685700 0.713900
vn 0.000000 0.685700 0.727900
vn -0.672500 0.685700 -0.278500
vn -0.605200 0.685700 -0.404400
vn 0.672500 0.685700 -0.278500
vn 0.713900 0.685700 -0.142000
vn -0.514700 0.685700 -0.514700
vn -0.404400 0.685700 -0.605200
vn -0.142000 0.685700 0.713900
vn -0.278500 0.685700 0.672500
vn 0.727900 0.685700 0.000000
vn 0.713900 0.685700 0.142000
vn -0.278500 0.685700 -0.672500
vn -0.142000 0.685700 -0.713900
vn -0.404400 0.685700 0.605200
vn -0.514700 0.685700 0.514700
vn -0.605200 0.685700 0.404400
vn 0.568400 0.729800 -0.379800
vn 0.631600 0.729800 -0.261600
vn -0.133300 0.729800 0.670500
vn -0.261600 0.729800 0.631600
vn -0.483400 0.729800 -0.483400
vn -0.379800 0.729800 -0.568400
vn 0.670500 0.729800 -0.133300
vn 0.683600 0.729800 0.000000
vn -0.379800 0.729800 0.568400
vn -0.483400 0.729800 0.483400
vn -0.261600 0.729800 -0.631600
vn -0.133300 0.729800 -0.670500
vn 0.670500 0.729800 0.133300
vn 0.631600 0.729800 0.261600
vn -0.568400 0.729800 0.379800
vn -0.631600 0.729800 0.261600
vn 0.568400 0.729800 0.379800
vn 0.483400 0.729800 0.483400
vn 0.000000 0.729800 -0.683600
vn 0.133300 0.729800 -0.670500
vn -0.670500 0.729800 0.133400
vn -0.683600 0.729800 0.000000
vn 0.379800 0.729800 0.568400
vn 0.261600 0.729800 0.631600
vn 0.261600 0.729800 -0.631600
vn 0.379800 0.729800 -0.568400
vn -0.670500 0.729800 -0.133300
vn 0.133300 0.729800 0.670500
vn 0.000000 0.729800 0.683600
vn 0.483400 0.729800 -0.483400
vn -0.705400 0.000000 0.708800
vn -0.771100 0.000000 0.636600
vn 0.194600 0.000000 0.980900
vn 0.097800 0.000000 0.995200
vn 0.954600 0.000000 0.297900
vn 0.921600 0.000000 0.388000
vn -0.829400 0.000000 0.558500
vn -0.879800 0.000000 0.475400
vn 0.879800 0.000000 0.475400
vn 0.829400 0.000000 0.558500
vn -0.097800 0.000000 0.995200
vn -0.194600 0.000000 0.980900
vn -0.921600 0.000000 0.388000
vn -0.954600 0.000000 0.297900
vn 0.771100 0.000000 0.636600
vn 0.705400 0.000000 0.708800
vn -0.289600 0.000000 0.957200
vn -0.381800 0.000000 0.924300
vn -0.978300 0.000000 0.206900
vn -0.992500 0.000000 0.122300
vn 0.632800 0.000000 0.774300
vn 0.554200 0.000000 0.832400
vn -0.470200 0.000000 0.882500
vn -0.554200 0.000000 0.832400
vn 0.470200 0.000000 0.882500
vn 0.381800 0.000000 0.924300
vn -0.000100 0.000000 1.000000
vn 0.992500 0.000000 0.122300
vn -0.632800 0.000000 0.774300
vn 0.289600 0.000000 0.957200
vn 0.978300 0.000000 0.206900
vn 0.000000 0.000000 1.000000
vn 0.000000 0.683900 0.729500
usemtl Material.002
s 1
f 9/1/1 4/2/2 2/3/3 10/4/4
f 4/2/2 8/5/5 7/6/6 2/3/3
f 8/7/5 6/8/7 5/9/8 7/10/6
f 3/11/9 2/12/3 7/10/6 5/13/8
f 12/14/10 10/15/4 2/12/3 3/11/9
f 1/16/11 4/17/2 9/15/1 11/14/12
f 6/18/7 1/19/11 3/20/9 5/21/8
f 1/19/11 11/22/12 12/23/10 3/20/9
f 6/24/7 8/25/5 4/17/2 1/16/11
f 11/26/12 9/27/1 10/28/4 12/29/10
f 14/30/13 13/31/14 44/32/15 43/33/16 42/34/17 41/35/18 40/36/19 39/37/20 38/38/21 37/39/22 36/40/23 35/41/24 34/42/25 33/43/26 32/44/27 31/45/28 30/46/29 29/47/30 28/48/31 27/49/32 26/50/33 25/51/34 24/52/35 23/53/36 22/54/37 21/55/38 20/56/39 19/57/40 18/58/41 17/59/42 16/60/43 15/61/44
f 66/62/45 67/63/46 99/64/47 98/65/48
f 44/66/15 13/67/14 46/68/49 76/69/50
f 33/70/26 34/71/25 66/72/45 65/73/51
f 22/74/37 23/75/36 55/76/52 54/77/53
f 42/78/17 43/79/16 75/80/54 74/81/55
f 31/82/28 32/83/27 64/84/56 63/85/57
f 20/86/39 21/87/38 53/88/58 52/89/59
f 40/90/19 41/91/18 73/92/60 72/93/61
f 29/94/30 30/95/29 62/96/62 61/97/63
f 18/98/41 19/99/40 51/100/64 50/101/65
f 38/102/21 39/103/20 71/104/66 70/105/67
f 16/106/43 17/107/42 49/108/68 48/109/69
f 27/110/32 28/111/31 60/112/70 59/113/71
f 36/114/23 37/115/22 69/116/72 68/117/73
f 14/118/13 15/119/44 47/120/74 45/121/75
f 25/122/34 26/123/33 58/124/76 57/125/77
f 34/71/25 35/126/24 67/127/46 66/72/45
f 23/75/36 24/128/35 56/129/78 55/76/52
f 43/79/16 44/66/15 76/69/50 75/80/54
f 32/83/27 33/108/26 65/130/51 64/84/56
f 21/87/38 22/74/37 54/77/53 53/88/58
f 41/131/18 42/78/17 74/81/55 73/122/60
f 30/95/29 31/82/28 63/85/57 62/96/62
f 19/99/40 20/86/39 52/89/59 51/100/64
f 39/103/20 40/90/19 72/93/61 71/104/66
f 17/13/42 18/98/41 50/101/65 49/131/68
f 28/111/31 29/94/30 61/97/63 60/112/70
f 37/115/22 38/102/21 70/105/67 69/116/72
f 15/119/44 16/106/43 48/109/69 47/120/74
f 26/123/33 27/110/32 59/113/71 58/124/76
f 35/126/24 36/114/23 68/117/73 67/127/46
f 13/67/14 14/118/13 45/121/75 46/68/49
f 24/128/35 25/132/34 57/133/77 56/129/78
f 55/134/52 56/135/78 88/136/79 87/137/80
f 75/138/54 76/139/50 108/140/81 107/141/82
f 64/142/56 65/143/51 97/144/83 96/145/84
f 53/146/58 54/147/53 86/148/85 85/149/86
f 73/150/60 74/151/55 106/152/87 105/153/88
f 62/154/62 63/155/57 95/156/89 94/157/90
f 51/158/64 52/159/59 84/160/91 83/161/92
f 71/162/66 72/163/61 104/164/93 103/165/94
f 49/166/68 50/167/65 82/168/95 81/169/96
f 60/170/70 61/171/63 93/172/97 92/173/98
f 69/174/72 70/175/67 102/176/99 101/177/100
f 47/178/74 48/179/69 80/180/101 79/181/102
f 58/182/76 59/183/71 91/184/103 90/185/104
f 67/63/46 68/186/73 100/187/105 99/64/47
f 46/188/49 45/189/75 77/190/106 78/191/107
f 56/135/78 57/192/77 89/193/108 88/136/79
f 76/139/50 46/188/49 78/191/107 108/140/81
f 65/143/51 66/62/45 98/65/48 97/144/83
f 54/147/53 55/134/52 87/137/80 86/148/85
f 74/151/55 75/138/54 107/141/82 106/152/87
f 63/155/57 64/142/56 96/145/84 95/156/89
f 52/159/59 53/146/58 85/149/86 84/160/91
f 72/163/61 73/150/60 105/153/88 104/164/93
f 61/171/63 62/154/62 94/157/90 93/172/97
f 50/167/65 51/158/64 83/161/92 82/168/95
f 70/175/67 71/162/66 103/165/94 102/176/99
f 48/179/69 49/166/68 81/169/96 80/180/101
f 59/183/71 60/170/70 92/173/98 91/184/103
f 68/186/73 69/174/72 101/177/100 100/187/105
f 45/189/75 47/178/74 79/181/102 77/190/106
f 57/192/77 58/182/76 90/185/104 89/193/108
f 100/194/105 101/195/100 133/196/109 132/197/110
f 77/198/106 79/199/102 111/200/111 109/201/112
f 89/202/108 90/203/104 122/204/113 121/205/114
f 98/206/48 99/207/47 131/208/115 130/209/116
f 87/210/80 88/211/79 120/212/117 119/213/118
f 107/214/82 108/215/81 140/216/119 139/217/120
f 96/218/84 97/219/83 129/220/121 128/221/122
f 85/222/86 86/223/85 118/224/123 117/225/124
f 105/226/88 106/227/87 138/228/125 137/202/126
f 94/229/90 95/230/89 127/231/127 126/232/128
f 83/233/92 84/234/91 116/235/129 115/236/130
f 103/237/94 104/238/93 136/239/131 135/240/132
f 81/241/96 82/242/95 114/243/133 113/244/134
f 92/245/98 93/246/97 125/247/135 124/248/136
f 101/195/100 102/249/99 134/250/137 133/196/109
f 79/199/102 80/251/101 112/252/138 111/200/111
f 90/203/104 91/253/103 123/254/139 122/204/113
f 99/207/47 100/194/105 132/197/110 131/208/115
f 78/255/107 77/198/106 109/201/112 110/256/140
f 88/211/79 89/24/108 121/205/114 120/212/117
f 108/215/81 78/255/107 110/256/140 140/216/119
f 97/257/83 98/206/48 130/209/116 129/258/121
f 86/223/85 87/210/80 119/213/118 118/224/123
f 106/227/87 107/214/82 139/217/120 138/228/125
f 95/230/89 96/218/84 128/221/122 127/231/127
f 84/234/91 85/222/86 117/225/124 116/235/129
f 104/238/93 105/226/88 137/259/126 136/239/131
f 93/246/97 94/229/90 126/232/128 125/247/135
f 82/242/95 83/233/92 115/236/130 114/243/133
f 102/249/99 103/237/94 135/240/132 134/250/137
f 80/251/101 81/260/96 113/219/134 112/252/138
f 91/253/103 92/245/98 124/248/136 123/254/139
f 134/261/137 135/261/132 167/261/141 166/261/141
f 112/261/138 113/261/134 145/261/141 144/261/141
f 123/261/139 124/261/136 156/261/141 155/261/141
f 132/261/110 133/261/109 165/261/141 164/261/141
f 109/261/112 111/261/111 143/261/141 141/261/141
f 121/261/114 122/261/113 154/261/141 153/261/141
f 130/261/116 131/261/115 163/261/141 162/261/141
f 119/261/118 120/261/117 152/261/141 151/261/141
f 139/261/120 140/261/119 172/261/141 171/261/141
f 128/261/122 129/261/121 161/261/141 160/261/141
f 117/261/124 118/261/123 150/261/141 149/261/141
f 137/261/126 138/261/125 170/261/141 169/261/141
f 126/261/128 127/261/127 159/261/141 158/261/141
f 115/261/130 116/261/129 148/261/141 147/261/141
f 135/261/132 136/261/131 168/261/141 167/261/141
f 113/261/134 114/261/133 146/261/141 145/261/141
f 124/261/136 125/261/135 157/261/141 156/261/141
f 133/261/109 134/261/137 166/261/141 165/261/141
f 111/261/111 112/261/138 144/261/141 143/261/141
f 122/261/113 123/261/139 155/261/141 154/261/141
f 131/261/115 132/261/110 164/261/141 163/261/141
f 110/261/140 109/261/112 141/261/141 142/261/141
f 120/261/117 121/261/114 153/261/141 152/261/141
f 140/261/119 110/261/140 142/261/141 172/261/141
f 129/261/121 130/261/116 162/261/141 161/261/141
f 118/261/123 119/261/118 151/261/141 150/261/141
f 138/261/125 139/261/120 171/261/141 170/261/141
f 127/261/127 128/261/122 160/261/141 159/261/141
f 116/261/129 117/261/124 149/261/141 148/261/141
f 136/261/131 137/261/126 169/261/141 168/261/141
f 125/261/135 126/261/128 158/261/141 157/261/141
f 114/261/133 115/261/130 147/261/141 146/261/141
f 141/262/141 143/263/141 144/264/141 145/265/141 146/266/141 147/267/141 148/268/141 149/269/141 150/270/141 151/271/141 152/272/141 153/273/141 154/274/141 155/275/141 156/276/141 157/277/141 158/278/141 159/279/141 160/280/141 161/281/141 162/282/141 163/283/141 164/284/141 165/285/141 166/286/141 167/287/141 168/288/141 169/289/141 170/290/141 171/291/141 172/292/141 142/293/141
