# Blender v2.74 (sub 0) OBJ File: 'Third pass stuff.blend'
# www.blender.org
mtllib drawerhandle.mtl
o Table_Drawer.001_Table_Plane.001
v -0.149294 0.862392 1.388562
v -0.149294 0.891133 1.388562
v -0.149294 0.862392 1.314794
v -0.149294 0.891133 1.314794
v -0.123353 0.862392 1.388562
v -0.123353 0.891133 1.388562
v -0.123353 0.862392 1.314794
v -0.123353 0.891133 1.314794
v -0.116788 0.862392 1.438046
v -0.116788 0.891133 1.438046
v -0.073111 0.891133 1.438046
v -0.073111 0.862392 1.438046
v -0.133041 0.862392 1.413304
v -0.097426 0.862392 1.426371
v -0.097426 0.891133 1.426371
v -0.133041 0.891133 1.413304
v 0.148477 0.862392 1.388562
v 0.148477 0.891133 1.388562
v 0.148477 0.862392 1.314794
v 0.148477 0.891133 1.314794
v 0.122536 0.862392 1.388562
v 0.122536 0.891133 1.388562
v 0.122536 0.862392 1.314794
v 0.122536 0.891133 1.314794
v 0.115971 0.862392 1.438046
v 0.115971 0.891133 1.438046
v 0.072294 0.891133 1.438046
v 0.072294 0.862392 1.438046
v 0.132224 0.862392 1.413304
v 0.096609 0.862392 1.426371
v 0.096609 0.891133 1.426371
v 0.132224 0.891133 1.413304
v -0.000408 0.891133 1.438046
v -0.000408 0.862392 1.438046
v -0.000408 0.862392 1.426371
v -0.000408 0.891133 1.426371
v -0.137022 0.873288 1.384892
v -0.137022 0.880236 1.384892
v -0.139584 0.872101 1.324504
v -0.139584 0.881423 1.324504
v -0.133401 0.875512 1.391676
v -0.133401 0.878012 1.391676
v -0.133062 0.872101 1.324504
v -0.133062 0.881423 1.324504
v -0.110487 0.872721 1.426366
v -0.110487 0.880803 1.426366
v -0.073111 0.879241 1.426154
v -0.073111 0.874283 1.426154
v -0.123102 0.874283 1.406775
v -0.101815 0.876324 1.434705
v -0.101815 0.877201 1.434705
v -0.123102 0.879242 1.406775
v 0.136205 0.873288 1.384892
v 0.136205 0.880236 1.384892
v 0.138767 0.872101 1.324504
v 0.138767 0.881423 1.324504
v 0.132584 0.875512 1.391676
v 0.132584 0.878012 1.391676
v 0.132245 0.872101 1.324504
v 0.132245 0.881423 1.324504
v 0.109670 0.872721 1.426366
v 0.109670 0.880803 1.426366
v 0.072294 0.879241 1.426154
v 0.072294 0.874283 1.426154
v 0.122285 0.874283 1.406775
v 0.100999 0.876324 1.434705
v 0.100999 0.877201 1.434705
v 0.122285 0.879242 1.406775
v 0.005197 0.879922 1.426834
v 0.005197 0.873603 1.426834
v 0.005197 0.873603 1.437583
v 0.005197 0.879922 1.437583
vt 0.239704 0.448963
vt 0.239707 0.441855
vt 0.242497 0.441856
vt 0.242495 0.448964
vt 0.258409 0.441855
vt 0.260928 0.441855
vt 0.260928 0.444643
vt 0.258409 0.444643
vt 0.248079 0.441855
vt 0.248079 0.448935
vt 0.245288 0.448935
vt 0.245288 0.441855
vt 0.271561 0.454338
vt 0.270689 0.456713
vt 0.269910 0.458334
vt 0.269910 0.455422
vt 0.273212 0.453255
vt 0.278134 0.453255
vt 0.278134 0.454984
vt 0.273212 0.454984
vt 0.264987 0.471378
vt 0.269910 0.471378
vt 0.269910 0.473108
vt 0.264987 0.473108
vt 0.236914 0.460198
vt 0.236914 0.464435
vt 0.234123 0.464435
vt 0.234123 0.460198
vt 0.262464 0.469650
vt 0.263336 0.472024
vt 0.261685 0.470941
vt 0.261685 0.468029
vt 0.236914 0.441855
vt 0.239704 0.451266
vt 0.236914 0.451266
vt 0.239706 0.451165
vt 0.242496 0.451167
vt 0.242497 0.453369
vt 0.239707 0.453367
vt 0.248079 0.452929
vt 0.245288 0.452929
vt 0.261685 0.463181
vt 0.262464 0.463181
vt 0.270689 0.463181
vt 0.269910 0.463181
vt 0.234123 0.453145
vt 0.236914 0.453145
vt 0.242497 0.448935
vt 0.255890 0.444643
vt 0.255890 0.441855
vt 0.250871 0.452897
vt 0.248079 0.445789
vt 0.250870 0.445789
vt 0.271561 0.472024
vt 0.269910 0.470941
vt 0.269910 0.468029
vt 0.270689 0.469650
vt 0.273212 0.473108
vt 0.273212 0.471378
vt 0.278134 0.471378
vt 0.278134 0.473108
vt 0.264987 0.454984
vt 0.264987 0.453255
vt 0.269910 0.453255
vt 0.269910 0.454984
vt 0.236914 0.446092
vt 0.234123 0.446092
vt 0.234123 0.441855
vt 0.262464 0.456713
vt 0.261685 0.458334
vt 0.261685 0.455422
vt 0.263336 0.454338
vt 0.236914 0.460678
vt 0.239704 0.460678
vt 0.245288 0.451082
vt 0.245288 0.453228
vt 0.242497 0.453228
vt 0.242497 0.451082
vt 0.250871 0.441855
vt 0.264587 0.444643
vt 0.263461 0.444643
vt 0.263461 0.441855
vt 0.264587 0.441855
vt 0.253965 0.446209
vt 0.254080 0.452041
vt 0.253175 0.452041
vt 0.253290 0.446209
vt 0.265834 0.441855
vt 0.266467 0.441855
vt 0.266467 0.442759
vt 0.265834 0.442759
vt 0.252270 0.452124
vt 0.252600 0.445647
vt 0.252843 0.445647
vt 0.253175 0.452124
vt 0.232222 0.443078
vt 0.232241 0.446704
vt 0.231410 0.443920
vt 0.261528 0.441855
vt 0.261561 0.448369
vt 0.260928 0.448369
vt 0.261177 0.442512
vt 0.262579 0.442511
vt 0.262828 0.448369
vt 0.262194 0.448369
vt 0.262227 0.441855
vt 0.251505 0.459586
vt 0.251656 0.463212
vt 0.250871 0.463212
vt 0.251023 0.459586
vt 0.278897 0.466282
vt 0.278883 0.468774
vt 0.280190 0.469615
vt 0.278325 0.468196
vt 0.252270 0.452241
vt 0.251656 0.452226
vt 0.252184 0.441855
vt 0.252270 0.441857
vt 0.253235 0.441855
vt 0.254020 0.441855
vt 0.253868 0.443913
vt 0.253387 0.443913
vt 0.252674 0.441855
vt 0.252760 0.441855
vt 0.252961 0.444308
vt 0.253059 0.446260
vt 0.252479 0.444308
vt 0.252384 0.446260
vt 0.278134 0.461061
vt 0.278851 0.461061
vt 0.232176 0.454301
vt 0.231132 0.454301
vt 0.250957 0.451990
vt 0.251571 0.451990
vt 0.254985 0.451996
vt 0.254195 0.446148
vt 0.254869 0.446148
vt 0.265200 0.442759
vt 0.265200 0.441855
vt 0.255316 0.445541
vt 0.255559 0.445541
vt 0.255890 0.451993
vt 0.231410 0.463595
vt 0.232241 0.460810
vt 0.232222 0.464436
vt 0.234123 0.465660
vt 0.261594 0.441855
vt 0.261945 0.442512
vt 0.263461 0.448369
vt 0.263076 0.442511
vt 0.263428 0.441855
vt 0.251656 0.441855
vt 0.251505 0.445480
vt 0.251023 0.445480
vt 0.280190 0.453255
vt 0.278883 0.454096
vt 0.278897 0.456588
vt 0.278325 0.454674
vt 0.251684 0.461524
vt 0.251769 0.461526
vt 0.254292 0.443884
vt 0.254142 0.441855
vt 0.254927 0.441855
vt 0.254774 0.443884
vt 0.255395 0.441855
vt 0.255480 0.441855
vt 0.255100 0.446141
vt 0.255197 0.444236
vt 0.255678 0.444236
vt 0.255775 0.446141
vt 0.264587 0.442890
vt 0.265200 0.442890
vn -0.729800 0.647900 0.218200
vn -0.577400 0.577400 -0.577400
vn -0.577400 -0.577400 -0.577400
vn -0.729800 -0.647900 0.218200
vn 0.577400 0.577400 -0.577400
vn 0.577400 -0.577400 -0.577400
vn 0.597500 0.780200 -0.185200
vn 0.597500 -0.780200 -0.185200
vn -0.591000 -0.707100 0.388200
vn 0.261000 -0.828400 -0.495500
vn 0.000000 -0.707100 0.707100
vn -0.374700 -0.614200 0.694500
vn 0.000000 0.707100 0.707100
vn -0.374700 0.614200 0.694500
vn 0.261000 0.828400 -0.495500
vn -0.591000 0.707100 0.388200
vn 0.000000 0.707100 -0.707100
vn 0.000000 -0.707100 -0.707100
vn 0.729800 0.647900 0.218200
vn 0.729800 -0.647900 0.218200
vn -0.597500 -0.780200 -0.185200
vn -0.597500 0.780200 -0.185200
vn 0.591000 -0.707100 0.388200
vn 0.374700 -0.614200 0.694500
vn -0.261000 -0.828400 -0.495500
vn 0.374700 0.614200 0.694500
vn -0.261000 0.828400 -0.495500
vn 0.591000 0.707100 0.388200
vn -1.000000 0.000000 0.000000
vn 0.620000 0.747800 -0.237500
vn 0.514500 0.615000 0.597500
vn 0.514500 -0.615000 0.597500
vn 0.620000 -0.747800 -0.237500
vn -0.645800 0.543800 0.535900
vn -0.645800 -0.543800 0.535900
vn -0.892700 0.156800 0.422400
vn -0.892700 -0.156800 0.422400
vn 0.360700 -0.775700 -0.517800
vn -0.028600 -0.738200 -0.674000
vn -0.399200 -0.408300 0.820900
vn 0.566500 0.808400 0.160100
vn 0.360800 0.775700 -0.517800
vn -0.028600 0.738200 -0.674000
vn 0.566500 -0.808300 0.160200
vn -0.399200 0.408300 0.820900
vn -0.031800 -0.679100 0.733400
vn -0.031800 0.679100 0.733400
vn -0.008300 0.737500 -0.675300
vn -0.008300 -0.737500 -0.675300
vn -0.514500 -0.615000 0.597500
vn -0.514500 0.615000 0.597500
vn -0.620000 0.747800 -0.237500
vn -0.620000 -0.747800 -0.237500
vn 0.645800 -0.543800 0.535900
vn 0.645800 0.543800 0.535900
vn 0.892700 -0.156800 0.422400
vn 0.892800 0.156800 0.422400
vn 0.400100 -0.408500 0.820400
vn 0.029800 -0.736600 -0.675600
vn -0.360700 -0.775700 -0.517800
vn -0.566500 0.808400 0.160000
vn -0.360800 0.775700 -0.517800
vn 0.029800 0.736600 -0.675700
vn -0.566500 -0.808300 0.160200
vn 0.400100 0.408400 0.820400
vn 0.035800 0.680400 0.732000
vn 0.035800 -0.680400 0.732000
vn 0.009200 0.736800 -0.676100
vn 0.009200 -0.736800 -0.676100
usemtl Material
s 1
f 2/1/1 4/2/2 3/3/3 1/4/4
f 4/5/2 8/6/5 7/7/6 3/8/3
f 8/9/5 6/10/7 5/11/8 7/12/6
f 13/13/9 14/14/10 12/15/11 9/16/12
f 1/17/4 3/18/3 7/19/6 5/20/8
f 6/21/7 8/22/5 4/23/2 2/24/1
f 11/25/13 10/26/14 9/27/12 12/28/11
f 15/29/15 16/30/16 10/31/14 11/32/13
f 14/33/10 15/2/15 36/34/17 35/35/18
f 16/36/16 13/37/9 9/38/12 10/39/14
f 2/1/1 1/4/4 13/37/9 16/36/16
f 5/11/8 6/10/7 15/40/15 14/41/10
f 6/21/7 2/24/1 16/30/16 15/29/15
f 1/17/4 5/20/8 14/14/10 13/13/9
f 15/29/15 11/32/13 33/42/13 36/43/17
f 12/15/11 14/14/10 35/44/18 34/45/11
f 11/25/13 12/28/11 34/46/11 33/47/13
f 18/11/19 17/48/20 19/3/6 20/12/5
f 20/49/5 19/50/6 23/5/3 24/8/2
f 24/51/2 23/40/3 21/52/21 22/53/22
f 29/54/23 25/55/24 28/56/11 30/57/25
f 17/58/20 21/59/21 23/60/3 19/61/6
f 22/62/22 18/63/19 20/64/5 24/65/2
f 27/66/13 28/67/11 25/68/24 26/33/26
f 31/69/27 27/70/13 26/71/26 32/72/28
f 30/73/25 35/35/18 36/34/17 31/74/27
f 32/75/28 26/76/26 25/77/24 29/78/23
f 18/11/19 32/75/28 29/78/23 17/48/20
f 21/52/21 30/9/25 31/79/27 22/53/22
f 22/62/22 31/69/27 32/72/28 18/63/19
f 17/58/20 29/54/23 30/57/25 21/59/21
f 35/80/29 34/81/29 33/82/29 36/83/29
f 31/69/27 36/43/17 33/42/13 27/70/13
f 28/56/11 34/45/11 35/44/18 30/57/25
f 27/66/13 33/47/13 34/46/11 28/67/11
f 37/84/30 39/85/31 40/86/32 38/87/33
f 39/88/31 43/89/34 44/90/35 40/91/32
f 43/92/34 41/93/36 42/94/37 44/95/35
f 45/96/38 48/97/39 50/98/40 49/68/41
f 41/99/36 43/100/34 39/101/31 37/102/30
f 38/103/33 40/104/32 44/105/35 42/106/37
f 48/107/39 45/108/38 46/109/42 47/110/43
f 47/111/43 46/112/42 52/113/44 51/114/45
f 71/115/46 72/116/47 51/117/45 50/118/40
f 46/119/42 45/120/38 49/121/41 52/122/44
f 52/122/44 49/121/41 37/84/30 38/87/33
f 50/123/40 51/124/45 42/94/37 41/93/36
f 51/124/45 52/125/44 38/126/33 42/94/37
f 49/127/41 50/123/40 41/93/36 37/128/30
f 72/129/47 69/130/48 47/111/43 51/114/45
f 70/131/49 71/132/46 50/98/40 48/97/39
f 69/133/48 70/134/49 48/107/39 47/110/43
f 56/135/50 55/85/51 53/136/52 54/137/53
f 60/138/54 59/139/55 55/88/51 56/91/50
f 58/140/56 57/141/57 59/142/55 60/135/54
f 66/143/58 64/144/59 61/145/60 65/146/61
f 55/105/51 59/100/55 57/147/57 53/148/52
f 60/149/54 56/104/50 54/150/53 58/151/56
f 62/79/62 61/152/60 64/153/59 63/154/63
f 68/155/64 62/156/62 63/157/63 67/158/65
f 67/159/65 72/116/66 71/115/67 66/160/58
f 65/161/61 61/162/60 62/163/62 68/164/64
f 53/136/52 65/161/61 68/164/64 54/137/53
f 58/140/56 67/165/65 66/166/58 57/141/57
f 54/167/53 68/168/64 67/165/65 58/140/56
f 57/141/57 66/166/58 65/169/61 53/170/52
f 72/171/29 69/83/29 70/139/29 71/172/29
f 63/157/63 69/130/68 72/129/66 67/158/65
f 66/143/58 71/132/67 70/131/69 64/144/59
f 64/153/59 70/134/69 69/133/68 63/154/63
