# Blender v2.74 (sub 0) OBJ File: 'remotecontrol.blend'
# www.blender.org
mtllib remotecontrol1.mtl
o remote_control.002_Cube.001
v -0.023713 0.042468 -0.040057
v -0.025258 0.042468 -0.039868
v -0.031009 0.042468 -0.034258
v -0.031453 0.042468 -0.032508
v -0.031597 0.042468 -0.030690
v -0.031437 0.042468 -0.028874
v -0.030239 0.042468 -0.025525
v -0.029247 0.042468 -0.024120
v -0.026667 0.042468 -0.022119
v -0.025178 0.042468 -0.021599
v -0.022085 0.042468 -0.021621
v -0.019235 0.042468 -0.023031
v -0.018039 0.042468 -0.024197
v -0.017059 0.042468 -0.025615
v -0.016334 0.042468 -0.027230
v -0.015891 0.042468 -0.028981
v -0.016365 0.042468 -0.034359
v -0.025258 0.043323 -0.039868
v -0.028109 0.043323 -0.038458
v -0.031009 0.043323 -0.034258
v -0.031597 0.043323 -0.030690
v -0.031437 0.043323 -0.028874
v -0.029247 0.043323 -0.024120
v -0.025178 0.043323 -0.021599
v -0.019235 0.043323 -0.023031
v -0.018039 0.043323 -0.024197
v -0.017059 0.043323 -0.025615
v -0.016334 0.043323 -0.027230
v -0.016365 0.043323 -0.034359
v -0.017105 0.043323 -0.035964
v -0.018096 0.043323 -0.037368
v -0.019303 0.043323 -0.038518
v -0.020677 0.043323 -0.039369
v -0.022166 0.043323 -0.039889
v -0.026742 0.042468 -0.039328
v -0.028109 0.042468 -0.038458
v -0.029305 0.042468 -0.037291
v -0.030284 0.042468 -0.035873
v -0.030978 0.042468 -0.027130
v -0.028041 0.042468 -0.022970
v -0.023631 0.042468 -0.021431
v -0.020601 0.042468 -0.022161
v -0.015746 0.042468 -0.030799
v -0.015907 0.042468 -0.032614
v -0.017105 0.042468 -0.035964
v -0.018096 0.042468 -0.037368
v -0.019303 0.042468 -0.038518
v -0.020677 0.042468 -0.039369
v -0.022166 0.042468 -0.039889
v -0.023713 0.043323 -0.040057
v -0.026742 0.043323 -0.039328
v -0.029305 0.043323 -0.037291
v -0.030284 0.043323 -0.035873
v -0.031453 0.043323 -0.032508
v -0.030978 0.043323 -0.027130
v -0.030239 0.043323 -0.025525
v -0.028041 0.043323 -0.022970
v -0.026667 0.043323 -0.022119
v -0.023631 0.043323 -0.021431
v -0.022085 0.043323 -0.021621
v -0.020601 0.043323 -0.022161
v -0.015891 0.043323 -0.028981
v -0.015746 0.043323 -0.030799
v -0.015907 0.043323 -0.032614
vt 0.736346 0.170935
vt 0.736351 0.176308
vt 0.736361 0.181647
vt 0.736375 0.186746
vt 0.736393 0.191410
vt 0.834374 0.058660
vt 0.857610 0.192647
vt 0.855220 0.192670
vt 0.884175 0.190342
vt 0.884187 0.214579
vt 0.884176 0.185598
vt 0.884143 0.183319
vt 0.385499 0.843138
vt 0.385480 0.846539
vt 0.385465 0.850693
vt 0.385454 0.855441
vt 0.385447 0.860601
vt 0.385445 0.865974
vt 0.385447 0.871354
vt 0.385454 0.876533
vt 0.385465 0.881314
vt 0.385480 0.885511
vt 0.385499 0.888965
vt 0.385520 0.891541
vt 0.898675 0.185816
vt 0.898670 0.188237
vt 0.898684 0.190536
vt 0.898715 0.192625
vt 0.736375 0.153086
vt 0.834374 0.030688
vt 0.736351 0.160906
vt 0.736346 0.165734
vt 0.392696 0.843138
vt 0.392678 0.846539
vt 0.385520 0.840621
vt 0.392717 0.840621
vt 0.392662 0.850693
vt 0.905872 0.185816
vt 0.905866 0.188237
vt 0.834388 0.028131
vt 0.839574 0.028135
vt 0.839560 0.030692
vt 0.884175 0.216952
vt 0.876979 0.216952
vt 0.876991 0.214579
vt 0.144765 0.954941
vt 0.123295 0.949589
vt 0.103330 0.941297
vt 0.085637 0.930385
vt 0.070895 0.917270
vt 0.059671 0.902459
vt 0.052397 0.886518
vt 0.049352 0.870062
vt 0.050653 0.853723
vt 0.056249 0.838127
vt 0.065927 0.823876
vt 0.079314 0.811516
vt 0.095895 0.801522
vt 0.115034 0.794279
vt 0.135995 0.790065
vt 0.157972 0.789042
vt 0.180121 0.791248
vt 0.201590 0.796600
vt 0.221555 0.804892
vt 0.239249 0.815804
vt 0.253990 0.828918
vt 0.265214 0.843730
vt 0.272488 0.859671
vt 0.275534 0.876127
vt 0.274233 0.892467
vt 0.268636 0.908062
vt 0.258958 0.922313
vt 0.245571 0.934673
vt 0.228990 0.944667
vt 0.209851 0.951910
vt 0.188891 0.956124
vt 0.166913 0.957147
vt 0.743548 0.176305
vt 0.743558 0.181643
vt 0.898699 0.183366
vt 0.905895 0.183366
vt 0.743572 0.186743
vt 0.743590 0.191407
vt 0.392651 0.855441
vt 0.905880 0.190536
vt 0.860900 0.192625
vt 0.860900 0.199800
vt 0.857610 0.199822
vt 0.392645 0.860601
vt 0.392642 0.865974
vt 0.736393 0.150395
vt 0.743590 0.150392
vt 0.743572 0.153083
vt 0.884141 0.192625
vt 0.876945 0.192625
vt 0.876979 0.190342
vt 0.736361 0.156635
vt 0.743558 0.156632
vt 0.743548 0.160903
vt 0.392644 0.871354
vt 0.392651 0.876533
vt 0.884187 0.187969
vt 0.876991 0.187969
vt 0.876980 0.185598
vt 0.743543 0.165731
vt 0.743543 0.170931
vt 0.392663 0.881314
vt 0.392678 0.885511
vt 0.392696 0.888965
vt 0.392717 0.891541
vt 0.834363 0.055743
vt 0.839549 0.055747
vt 0.839560 0.058665
vt 0.905912 0.192625
vt 0.855220 0.199846
vt 0.876947 0.183319
vn 0.000000 -1.000000 -0.000000
vn 0.822800 0.000000 0.568300
vn 0.912200 0.000000 0.409700
vn 0.698200 0.000000 0.715900
vn -0.996100 0.000000 0.087900
vn -0.822800 0.000000 -0.568300
vn 0.996100 0.000000 -0.087900
vn 0.000000 1.000000 0.000000
vn 0.108200 0.000000 -0.994100
vn -0.967100 0.000000 0.254300
vn 0.526700 0.000000 -0.850100
vn 0.537100 0.000000 0.843500
vn -0.996900 0.000000 -0.079100
vn 0.816900 0.000000 -0.576800
vn 0.121700 0.000000 0.992600
vn -0.912200 0.000000 -0.409700
vn 0.967100 0.000000 -0.254300
vn -0.698200 0.000000 -0.715900
vn -0.329600 0.000000 0.944100
vn 0.996900 0.000000 0.079100
vn -0.342000 0.000000 -0.939700
vn -0.690100 0.000000 0.723700
vn -0.908300 0.000000 0.418400
vn 0.329600 0.000000 -0.944100
vn 0.690100 0.000000 -0.723700
vn 0.342000 0.000000 0.939700
vn -0.969400 0.000000 -0.245600
vn 0.908300 0.000000 -0.418400
vn -0.108200 0.000000 0.994100
vn -0.537100 0.000000 -0.843500
vn -0.526700 0.000000 0.850100
vn 0.969400 0.000000 0.245600
vn -0.121700 0.000000 -0.992600
vn -0.816900 0.000000 0.576800
usemtl buttons
s off
f 2/1/1 1/2/1 49/3/1 48/4/1 47/5/1 46/6/1 45/7/1 17/8/1 44/9/1 43/10/1 16/11/1 15/12/1 14/13/1 13/14/1 12/15/1 42/16/1 11/17/1 41/18/1 10/19/1 9/20/1 40/21/1 8/22/1 7/23/1 39/24/1 6/25/1 5/26/1 4/27/1 3/28/1 38/29/1 37/30/1 36/31/1 35/32/1
usemtl buttons_Numberpad.png
f 13/14/2 14/13/2 27/33/2 26/34/2
f 14/13/3 15/35/3 28/36/3 27/33/3
f 12/15/4 13/14/4 26/34/4 25/37/4
f 5/26/5 6/25/5 22/38/5 21/39/5
f 37/30/6 38/40/6 53/41/6 52/42/6
f 43/10/7 44/43/7 64/44/7 63/45/7
f 18/46/8 51/47/8 19/48/8 52/49/8 53/50/8 20/51/8 54/52/8 21/53/8 22/54/8 55/55/8 56/56/8 23/57/8 57/58/8 58/59/8 24/60/8 59/61/8 60/62/8 61/63/8 25/64/8 26/65/8 27/66/8 28/67/8 62/68/8 63/69/8 64/70/8 29/71/8 30/72/8 31/73/8 32/74/8 33/75/8 34/76/8 50/77/8
f 49/3/9 1/2/9 50/78/9 34/79/9
f 6/25/10 39/80/10 55/81/10 22/38/10
f 47/5/11 48/4/11 33/82/11 32/83/11
f 42/16/12 12/15/12 25/37/12 61/84/12
f 4/27/13 5/26/13 21/39/13 54/85/13
f 45/7/14 46/86/14 31/87/14 30/88/14
f 41/18/15 11/17/15 60/89/15 59/90/15
f 38/29/16 3/91/16 20/92/16 53/93/16
f 44/9/17 17/94/17 29/95/17 64/96/17
f 36/31/18 37/97/18 52/98/18 19/99/18
f 9/20/19 10/19/19 24/100/19 58/101/19
f 16/11/20 43/102/20 63/103/20 62/104/20
f 2/1/21 35/32/21 51/105/21 18/106/21
f 8/22/22 40/21/22 57/107/22 23/108/22
f 39/24/23 7/23/23 56/109/23 55/110/23
f 48/4/24 49/3/24 34/79/24 33/82/24
f 46/6/25 47/111/25 32/112/25 31/113/25
f 11/17/26 42/16/26 61/84/26 60/89/26
f 3/28/27 4/27/27 54/85/27 20/114/27
f 17/8/28 45/7/28 30/88/28 29/115/28
f 10/19/29 41/18/29 59/90/29 24/100/29
f 35/32/30 36/31/30 19/99/30 51/105/30
f 40/21/31 9/20/31 58/101/31 57/107/31
f 15/12/32 16/11/32 62/104/32 28/116/32
f 1/2/33 2/1/33 18/106/33 50/78/33
f 7/23/34 8/22/34 23/108/34 56/109/34
