# Blender v2.74 (sub 0) OBJ File: 'remotecontrol.blend'
# www.blender.org
mtllib powerremotecontrol.mtl
o remote_control.001_Cube.000
v 0.001758 0.042068 -0.087349
v -0.001232 0.042068 -0.086982
v -0.004104 0.042068 -0.085937
v -0.006747 0.042068 -0.084254
v -0.009061 0.042068 -0.081997
v -0.010956 0.042068 -0.079253
v -0.012360 0.042068 -0.076128
v -0.013217 0.042068 -0.072742
v -0.013496 0.042068 -0.069225
v -0.013186 0.042068 -0.065712
v -0.012299 0.042068 -0.062338
v -0.010868 0.042068 -0.059232
v -0.008949 0.042068 -0.056515
v -0.006616 0.042068 -0.054290
v -0.003958 0.042068 -0.052643
v -0.001077 0.042068 -0.051637
v 0.001916 0.042068 -0.051312
v 0.004906 0.042068 -0.051678
v 0.007778 0.042068 -0.052723
v 0.010422 0.042068 -0.054407
v 0.012736 0.042068 -0.056663
v 0.014630 0.042068 -0.059407
v 0.016034 0.042068 -0.062532
v 0.016892 0.042068 -0.065918
v 0.017171 0.042068 -0.069435
v 0.016861 0.042068 -0.072949
v 0.015973 0.042068 -0.076323
v 0.014543 0.042068 -0.079428
v 0.012624 0.042068 -0.082146
v 0.010290 0.042068 -0.084371
v 0.007632 0.042068 -0.086018
v 0.004751 0.042068 -0.087023
v -0.001232 0.043722 -0.086982
v 0.001758 0.043722 -0.087349
v -0.004104 0.043722 -0.085937
v -0.006747 0.043722 -0.084254
v -0.009061 0.043722 -0.081997
v -0.010956 0.043722 -0.079253
v -0.012360 0.043722 -0.076128
v -0.013217 0.043722 -0.072742
v -0.013496 0.043722 -0.069225
v -0.013186 0.043722 -0.065712
v -0.012299 0.043722 -0.062338
v -0.010868 0.043722 -0.059232
v -0.008949 0.043722 -0.056515
v -0.006616 0.043722 -0.054290
v -0.003958 0.043722 -0.052643
v -0.001077 0.043722 -0.051637
v 0.001916 0.043722 -0.051312
v 0.004906 0.043722 -0.051678
v 0.007778 0.043722 -0.052723
v 0.010422 0.043722 -0.054407
v 0.012736 0.043722 -0.056663
v 0.014630 0.043722 -0.059407
v 0.016034 0.043722 -0.062532
v 0.016892 0.043722 -0.065918
v 0.017171 0.043722 -0.069435
v 0.016861 0.043722 -0.072949
v 0.015973 0.043722 -0.076323
v 0.014543 0.043722 -0.079428
v 0.012624 0.043722 -0.082146
v 0.010290 0.043722 -0.084371
v 0.007632 0.043722 -0.086018
v 0.004751 0.043722 -0.087023
vt 0.095206 0.740685
vt 0.096111 0.751051
vt 0.096111 0.761468
vt 0.095206 0.771537
vt 0.093430 0.780871
vt 0.090852 0.789111
vt 0.087571 0.795939
vt 0.083713 0.801095
vt 0.079425 0.804379
vt 0.074874 0.805665
vt 0.070234 0.804905
vt 0.065683 0.802126
vt 0.061396 0.797437
vt 0.057537 0.791017
vt 0.054256 0.783112
vt 0.051678 0.774028
vt 0.049903 0.764112
vt 0.048997 0.753746
vt 0.048997 0.743328
vt 0.049903 0.733259
vt 0.051678 0.723925
vt 0.054256 0.715686
vt 0.057538 0.708857
vt 0.061396 0.703702
vt 0.065683 0.700418
vt 0.070234 0.699131
vt 0.074874 0.699892
vt 0.079425 0.702670
vt 0.083713 0.707360
vt 0.087571 0.713780
vt 0.090852 0.721684
vt 0.093430 0.730769
vt 0.408251 0.901226
vt 0.341468 0.883385
vt 0.262878 0.840640
vt 0.200179 0.785309
vt 0.151727 0.718159
vt 0.121155 0.647886
vt 0.100273 0.574618
vt 0.099298 0.484768
vt 0.113389 0.405181
vt 0.140939 0.336779
vt 0.179164 0.277169
vt 0.228562 0.224323
vt 0.283497 0.180270
vt 0.349308 0.151655
vt 0.419680 0.132007
vt 0.495039 0.126302
vt 0.566884 0.133280
vt 0.634928 0.154275
vt 0.706578 0.189450
vt 0.771170 0.245412
vt 0.826562 0.310039
vt 0.862181 0.389144
vt 0.882431 0.475660
vt 0.881514 0.557308
vt 0.869315 0.631849
vt 0.834720 0.712919
vt 0.794971 0.764802
vt 0.748981 0.813199
vt 0.692481 0.854728
vt 0.633585 0.886333
vt 0.561131 0.904392
vt 0.483249 0.907573
vt 0.833159 0.600415
vt 0.833154 0.590086
vt 0.847079 0.590098
vt 0.847084 0.600427
vt 0.774792 0.634904
vt 0.774828 0.628325
vt 0.788752 0.628325
vt 0.788717 0.634904
vt 0.813429 0.336783
vt 0.813475 0.332043
vt 0.827398 0.332043
vt 0.827352 0.336783
vt 0.833195 0.619304
vt 0.833173 0.610281
vt 0.847097 0.610293
vt 0.847120 0.619317
vt 0.774742 0.652129
vt 0.774763 0.642942
vt 0.788688 0.642942
vt 0.788666 0.652129
vt 0.813446 0.345914
vt 0.813420 0.341466
vt 0.827343 0.341466
vt 0.827369 0.345914
vt 0.833262 0.633484
vt 0.833225 0.627139
vt 0.847150 0.627152
vt 0.847187 0.633496
vt 0.774724 0.672507
vt 0.774729 0.662112
vt 0.788653 0.662112
vt 0.788649 0.672507
vt 0.833262 0.545157
vt 0.833304 0.539952
vt 0.847228 0.539964
vt 0.847187 0.545170
vt 0.750814 0.289752
vt 0.750880 0.285335
vt 0.764802 0.285335
vt 0.764736 0.289752
vt 0.833195 0.560287
vt 0.833225 0.552024
vt 0.847150 0.552036
vt 0.847120 0.560299
vt 0.774742 0.692936
vt 0.774729 0.682915
vt 0.788653 0.682915
vt 0.788666 0.692936
vt 0.750812 0.298930
vt 0.750791 0.294343
vt 0.764714 0.294343
vt 0.764734 0.298930
vt 0.833159 0.579690
vt 0.833173 0.569628
vt 0.847097 0.569641
vt 0.847084 0.579703
vt 0.774792 0.710306
vt 0.774763 0.702185
vt 0.788688 0.702185
vt 0.788717 0.710306
vt 0.774868 0.623456
vt 0.788793 0.623456
vt 0.774868 0.721973
vt 0.774828 0.716988
vt 0.788752 0.716988
vt 0.788793 0.721973
vt 0.813507 0.349955
vt 0.827430 0.349955
vt 0.833304 0.638095
vt 0.847228 0.638107
vt 0.750875 0.303339
vt 0.764797 0.303339
vn 0.000000 -1.000000 -0.000000
vn 0.000000 1.000000 0.000000
vn 0.108200 0.000000 -0.994100
vn 0.822800 0.000000 0.568300
vn -0.967100 0.000000 0.254300
vn 0.526700 0.000000 -0.850100
vn 0.537100 0.000000 0.843500
vn -0.996900 0.000000 -0.079100
vn 0.816900 0.000000 -0.576800
vn 0.121700 0.000000 0.992600
vn -0.912200 0.000000 -0.409700
vn 0.967100 0.000000 -0.254300
vn -0.698200 0.000000 -0.715900
vn -0.329600 0.000000 0.944100
vn 0.996900 0.000000 0.079100
vn -0.342000 0.000000 -0.939700
vn -0.690100 0.000000 0.723700
vn 0.912200 0.000000 0.409700
vn -0.908300 0.000000 0.418400
vn 0.329600 0.000000 -0.944100
vn 0.698200 0.000000 0.715900
vn -0.996100 0.000000 0.087900
vn 0.690100 0.000000 -0.723700
vn 0.342000 0.000000 0.939700
vn -0.969400 0.000000 -0.245600
vn 0.908300 0.000000 -0.418400
vn -0.822800 0.000000 -0.568300
vn -0.108200 0.000000 0.994100
vn 0.996100 0.000000 -0.087900
vn -0.537100 0.000000 -0.843500
vn -0.526700 0.000000 0.850100
vn 0.969400 0.000000 0.245600
vn -0.121700 0.000000 -0.992600
vn -0.816900 0.000000 0.576800
usemtl buttons
s off
f 2/1/1 1/2/1 32/3/1 31/4/1 30/5/1 29/6/1 28/7/1 27/8/1 26/9/1 25/10/1 24/11/1 23/12/1 22/13/1 21/14/1 20/15/1 19/16/1 18/17/1 17/18/1 16/19/1 15/20/1 14/21/1 13/22/1 12/23/1 11/24/1 10/25/1 9/26/1 8/27/1 7/28/1 6/29/1 5/30/1 4/31/1 3/32/1
usemtl power_button.001
f 33/33/2 35/34/2 36/35/2 37/36/2 38/37/2 39/38/2 40/39/2 41/40/2 42/41/2 43/42/2 44/43/2 45/44/2 46/45/2 47/46/2 48/47/2 49/48/2 50/49/2 51/50/2 52/51/2 53/52/2 54/53/2 55/54/2 56/55/2 57/56/2 58/57/2 59/58/2 60/59/2 61/60/2 62/61/2 63/62/2 64/63/2 34/64/2
f 32/65/3 1/66/3 34/67/3 64/68/3
f 21/69/4 22/70/4 54/71/4 53/72/4
f 10/73/5 11/74/5 43/75/5 42/76/5
f 30/77/6 31/78/6 63/79/6 62/80/6
f 19/81/7 20/82/7 52/83/7 51/84/7
f 8/85/8 9/86/8 41/87/8 40/88/8
f 28/89/9 29/90/9 61/91/9 60/92/9
f 17/93/10 18/94/10 50/95/10 49/96/10
f 6/97/11 7/98/11 39/99/11 38/100/11
f 26/101/12 27/102/12 59/103/12 58/104/12
f 4/105/13 5/106/13 37/107/13 36/108/13
f 15/109/14 16/110/14 48/111/14 47/112/14
f 24/113/15 25/114/15 57/115/15 56/116/15
f 2/117/16 3/118/16 35/119/16 33/120/16
f 13/121/17 14/122/17 46/123/17 45/124/17
f 22/70/18 23/125/18 55/126/18 54/71/18
f 11/127/19 12/128/19 44/129/19 43/130/19
f 31/78/20 32/65/20 64/68/20 63/79/20
f 20/82/21 21/69/21 53/72/21 52/83/21
f 9/86/22 10/73/22 42/76/22 41/87/22
f 29/90/23 30/77/23 62/80/23 61/91/23
f 18/94/24 19/81/24 51/84/24 50/95/24
f 7/131/25 8/85/25 40/88/25 39/132/25
f 27/133/26 28/89/26 60/92/26 59/134/26
f 5/106/27 6/97/27 38/100/27 37/107/27
f 16/110/28 17/93/28 49/96/28 48/111/28
f 25/114/29 26/101/29 58/104/29 57/115/29
f 3/118/30 4/105/30 36/108/30 35/119/30
f 14/122/31 15/109/31 47/112/31 46/123/31
f 23/135/32 24/113/32 56/116/32 55/136/32
f 1/66/33 2/117/33 33/120/33 34/67/33
f 12/128/34 13/121/34 45/124/34 44/129/34
