# Blender v2.74 (sub 0) OBJ File: 'remotecontrol.blend'
# www.blender.org
mtllib remotecontrol2.mtl
o remote_control.003_Cube.002
v 0.001830 0.042468 -0.040233
v 0.000285 0.042468 -0.040043
v -0.001199 0.042468 -0.039503
v -0.002566 0.042468 -0.038633
v -0.005894 0.042468 -0.029049
v -0.005435 0.042468 -0.027305
v -0.001124 0.042468 -0.022294
v 0.003457 0.042468 -0.021796
v 0.006308 0.042468 -0.023206
v 0.007504 0.042468 -0.024372
v 0.008484 0.042468 -0.025791
v 0.009652 0.042468 -0.029156
v 0.009636 0.042468 -0.032790
v 0.009178 0.042468 -0.034534
v 0.003377 0.042468 -0.040064
v 0.000285 0.043323 -0.040043
v 0.001830 0.043323 -0.040233
v -0.001199 0.043323 -0.039503
v -0.002566 0.043323 -0.038633
v -0.005435 0.043323 -0.027305
v -0.004696 0.043323 -0.025700
v -0.002498 0.043323 -0.023146
v 0.001912 0.043323 -0.021606
v 0.003457 0.043323 -0.021796
v 0.004942 0.043323 -0.022336
v 0.007504 0.043323 -0.024372
v 0.009797 0.043323 -0.030974
v 0.009636 0.043323 -0.032790
v 0.009178 0.043323 -0.034534
v 0.008438 0.043323 -0.036139
v 0.004866 0.043323 -0.039545
v -0.003762 0.042468 -0.037466
v -0.004741 0.042468 -0.036048
v -0.005467 0.042468 -0.034433
v -0.005910 0.042468 -0.032683
v -0.006054 0.042468 -0.030865
v -0.004696 0.042468 -0.025700
v -0.003704 0.042468 -0.024296
v -0.002498 0.042468 -0.023146
v 0.000365 0.042468 -0.021775
v 0.001912 0.042468 -0.021606
v 0.004942 0.042468 -0.022336
v 0.009209 0.042468 -0.027406
v 0.009797 0.042468 -0.030974
v 0.008438 0.042468 -0.036139
v 0.007446 0.042468 -0.037543
v 0.006240 0.042468 -0.038693
v 0.004866 0.042468 -0.039545
v -0.003762 0.043323 -0.037466
v -0.004741 0.043323 -0.036048
v -0.005467 0.043323 -0.034433
v -0.005910 0.043323 -0.032683
v -0.006054 0.043323 -0.030865
v -0.005894 0.043323 -0.029049
v -0.003704 0.043323 -0.024296
v -0.001124 0.043323 -0.022294
v 0.000365 0.043323 -0.021775
v 0.006308 0.043323 -0.023206
v 0.008484 0.043323 -0.025791
v 0.009209 0.043323 -0.027406
v 0.009652 0.043323 -0.029156
v 0.007446 0.043323 -0.037543
v 0.006240 0.043323 -0.038693
v 0.003377 0.043323 -0.040064
vt 0.839591 0.040991
vt 0.839589 0.044862
vt 0.839591 0.048708
vt 0.839596 0.052382
vt 0.839604 0.055743
vt 0.865821 0.058660
vt 0.839629 0.061023
vt 0.839645 0.062740
vt 0.862450 0.207647
vt 0.862462 0.205274
vt 0.862451 0.202903
vt 0.862418 0.200624
vt 0.392770 0.843138
vt 0.392752 0.846539
vt 0.392737 0.850693
vt 0.392726 0.855441
vt 0.392719 0.860601
vt 0.392717 0.865974
vt 0.392719 0.871354
vt 0.392726 0.876533
vt 0.392737 0.881314
vt 0.392752 0.885511
vt 0.392770 0.888965
vt 0.392791 0.891541
vt 0.905917 0.195074
vt 0.905912 0.197495
vt 0.898684 0.217099
vt 0.898715 0.219188
vt 0.865835 0.028131
vt 0.865821 0.030688
vt 0.839604 0.033765
vt 0.839596 0.037244
vt 0.862416 0.209930
vt 0.855220 0.209930
vt 0.855254 0.207647
vt 0.844781 0.037248
vt 0.844776 0.040995
vt 0.844790 0.033769
vt 0.844775 0.044866
vt 0.865850 0.026192
vt 0.871036 0.026197
vt 0.871020 0.028135
vt 0.865810 0.055743
vt 0.870995 0.055747
vt 0.871006 0.058665
vt 0.905880 0.217099
vt 0.905912 0.219188
vt 0.871006 0.030692
vt 0.481498 0.932311
vt 0.460018 0.927494
vt 0.440020 0.919900
vt 0.422271 0.909822
vt 0.407456 0.897648
vt 0.396141 0.883844
vt 0.388763 0.868941
vt 0.385605 0.853513
vt 0.386788 0.838151
vt 0.392266 0.823447
vt 0.401830 0.809966
vt 0.415112 0.798224
vt 0.431601 0.788675
vt 0.450663 0.781684
vt 0.471566 0.777521
vt 0.493507 0.776344
vt 0.515644 0.778201
vt 0.537123 0.783018
vt 0.557121 0.790612
vt 0.574870 0.800690
vt 0.589685 0.812865
vt 0.601000 0.826668
vt 0.608378 0.841571
vt 0.611536 0.856999
vt 0.610354 0.872360
vt 0.604875 0.887064
vt 0.595311 0.900546
vt 0.582029 0.912287
vt 0.565540 0.921837
vt 0.546477 0.928827
vt 0.525574 0.932991
vt 0.503633 0.934167
vt 0.844776 0.048713
vt 0.399968 0.843138
vt 0.399949 0.846539
vt 0.844781 0.052387
vt 0.844790 0.055747
vt 0.399934 0.850693
vt 0.399923 0.855441
vt 0.839616 0.058660
vt 0.844801 0.058665
vt 0.844815 0.061028
vt 0.399916 0.860601
vt 0.399914 0.865974
vt 0.839616 0.030688
vt 0.844801 0.030692
vt 0.399916 0.871354
vt 0.399923 0.876533
vt 0.855266 0.205274
vt 0.855255 0.202903
vt 0.399934 0.881314
vt 0.399949 0.885511
vt 0.392791 0.840621
vt 0.399988 0.840621
vt 0.844830 0.062745
vt 0.855223 0.200624
vn 0.000000 -1.000000 -0.000000
vn 0.967100 0.000000 -0.254300
vn -0.342000 0.000000 -0.939700
vn -0.537100 0.000000 -0.843500
vn -0.121700 0.000000 -0.992600
vn -0.912200 0.000000 -0.409700
vn 0.690100 0.000000 -0.723700
vn -0.969400 0.000000 -0.245600
vn -0.822800 0.000000 -0.568300
vn 0.000000 1.000000 -0.000000
vn 0.108200 0.000000 -0.994100
vn 0.822800 0.000000 0.568300
vn 0.526700 0.000000 -0.850100
vn 0.537100 0.000000 0.843500
vn 0.816900 0.000000 -0.576800
vn 0.121700 0.000000 0.992600
vn -0.698200 0.000000 -0.715900
vn -0.329600 0.000000 0.944100
vn 0.996900 0.000000 0.079100
vn -0.690100 0.000000 0.723700
vn 0.912200 0.000000 0.409700
vn 0.329600 0.000000 -0.944100
vn 0.698200 0.000000 0.715900
vn 0.342000 0.000000 0.939700
vn 0.908300 0.000000 -0.418400
vn -0.108200 0.000000 0.994100
vn 0.996100 0.000000 -0.087900
vn -0.526700 0.000000 0.850100
vn 0.969400 0.000000 0.245600
usemtl buttons
s off
f 2/1/1 1/2/1 15/3/1 48/4/1 47/5/1 46/6/1 45/7/1 14/8/1 13/9/1 44/10/1 12/11/1 43/12/1 11/13/1 10/14/1 9/15/1 42/16/1 8/17/1 41/18/1 40/19/1 7/20/1 39/21/1 38/22/1 37/23/1 6/24/1 5/25/1 36/26/1 35/27/1 34/28/1 33/29/1 32/30/1 4/31/1 3/32/1
usemtl buttons_Numberpad.png
f 13/9/2 14/33/2 29/34/2 28/35/2
f 2/1/3 3/32/3 18/36/3 16/37/3
f 3/32/4 4/31/4 19/38/4 18/36/4
f 1/2/5 2/1/5 16/37/5 17/39/5
f 33/29/6 34/40/6 51/41/6 50/42/6
f 46/6/7 47/43/7 63/44/7 62/45/7
f 34/28/8 35/27/8 52/46/8 51/47/8
f 32/30/9 33/29/9 50/42/9 49/48/9
f 16/49/10 18/50/10 19/51/10 49/52/10 50/53/10 51/54/10 52/55/10 53/56/10 54/57/10 20/58/10 21/59/10 55/60/10 22/61/10 56/62/10 57/63/10 23/64/10 24/65/10 25/66/10 58/67/10 26/68/10 59/69/10 60/70/10 61/71/10 27/72/10 28/73/10 29/74/10 30/75/10 62/76/10 63/77/10 31/78/10 64/79/10 17/80/10
f 15/3/11 1/2/11 17/39/11 64/81/11
f 10/14/12 11/13/12 59/82/12 26/83/12
f 47/5/13 48/4/13 31/84/13 63/85/13
f 42/16/14 9/15/14 58/86/14 25/87/14
f 45/7/15 46/88/15 62/89/15 30/90/15
f 41/18/16 8/17/16 24/91/16 23/92/16
f 4/31/17 32/93/17 49/94/17 19/38/17
f 7/20/18 40/19/18 57/95/18 56/96/18
f 12/11/19 44/10/19 27/97/19 61/98/19
f 38/22/20 39/21/20 22/99/20 55/100/20
f 11/13/21 43/101/21 60/102/21 59/82/21
f 48/4/22 15/3/22 64/81/22 31/84/22
f 9/15/23 10/14/23 26/83/23 58/86/23
f 8/17/24 42/16/24 25/87/24 24/91/24
f 14/8/25 45/7/25 30/90/25 29/103/25
f 40/19/26 41/18/26 23/92/26 57/95/26
f 44/10/27 13/9/27 28/35/27 27/97/27
f 39/21/28 7/20/28 56/96/28 22/99/28
f 43/12/29 12/11/29 61/98/29 60/104/29
