# This file uses centimeters as units for non-parametric coordinates.

mtllib mesh_keyCabinet_lock.mtl
g default
v -0.395616 -0.102395 -0.044243
v 0.395616 -0.102395 0.038610
v -0.395616 0.102395 0.038610
v 0.395616 0.102395 0.038610
v -0.395616 0.102395 -0.204644
v 0.395616 0.102395 -0.072590
v -0.395616 -0.102395 -0.204644
v 0.395616 -0.102395 -0.072590
v -0.045567 0.102395 0.038610
v -0.045567 0.102395 -0.072590
v -0.045567 -0.102395 -0.072590
v -0.045567 -0.102395 0.038610
v -0.162250 0.102395 -0.204644
v -0.162250 -0.102395 -0.204644
v -0.162250 -0.102395 -0.044243
v -0.395616 0.000000 -0.044243
v -0.395616 0.000000 -0.204644
v -0.162250 0.000000 -0.204644
v -0.045567 0.000000 -0.072590
v 0.395616 0.000000 -0.072590
v 0.395616 0.000000 0.038610
v -0.045567 0.000000 0.038610
v -0.162250 0.000000 -0.044243
v -0.167090 0.000000 0.204644
v -0.167090 0.102395 0.204644
v -0.079800 0.000000 0.141225
v -0.079800 0.102395 0.141225
v -0.362275 0.102395 0.141225
v -0.362275 0.000000 0.141225
v -0.274985 0.102395 0.204644
v -0.278933 0.102395 -0.204644
v -0.278933 0.000000 -0.204644
v -0.278933 -0.102395 -0.204644
v -0.278933 -0.102395 -0.044243
v -0.278933 0.000000 -0.044243
v -0.274985 0.000000 0.204644
v -0.395616 0.102395 -0.058416
v -0.278933 0.102395 -0.058416
v -0.162250 0.102395 -0.058416
v -0.395616 0.000000 0.038610
v -0.103908 -0.102395 -0.126081
v -0.103908 0.000000 -0.126081
v -0.103908 0.102395 -0.126081
v -0.061858 0.102395 0.040554
v -0.059685 0.102395 -0.057858
v -0.162017 0.102395 -0.046758
v -0.089707 0.102395 0.132526
v -0.167847 0.102395 0.181827
v -0.352248 0.102395 0.132528
v -0.274111 0.102395 0.181828
v -0.379142 0.102395 0.041024
v -0.278933 0.102395 -0.046288
v -0.381031 0.102395 -0.046288
v -0.379142 0.000000 0.041910
v -0.381031 0.000000 -0.033886
v -0.278933 0.000000 -0.033886
v -0.161770 0.000000 -0.034878
v -0.167847 0.000000 0.181827
v -0.274111 0.000000 0.181828
v -0.352248 0.000000 0.132528
v -0.059193 0.000000 -0.057131
v -0.061612 0.000000 0.040917
v -0.089707 0.000000 0.132526
vt 0.670081 0.631885
vt 0.543136 0.631885
vt 0.543136 0.539540
vt 0.670081 0.539540
vt 0.001845 0.816117
vt 0.089851 0.816117
vt 0.089851 0.897154
vt 0.001845 0.897154
vt 0.494510 0.351152
vt 0.413473 0.351152
vt 0.413473 0.001992
vt 0.494510 0.001992
vt 0.588355 0.351152
vt 0.500349 0.351152
vt 0.500349 0.001992
vt 0.588355 0.001992
vt 0.675273 0.351152
vt 0.594236 0.351152
vt 0.594236 0.001992
vt 0.675273 0.001992
vt 0.494510 0.397324
vt 0.413473 0.397324
vt 0.089851 0.978191
vt 0.001845 0.978191
vt 0.176950 0.956675
vt 0.095913 0.956675
vt 0.095913 0.906484
vt 0.176950 0.906484
vt 0.494510 0.535842
vt 0.413473 0.535842
vt 0.413473 0.443497
vt 0.494510 0.443497
vt 0.543136 0.447195
vt 0.670081 0.447195
vt 0.675764 0.539540
vt 0.756801 0.539540
vt 0.756801 0.631885
vt 0.675764 0.631885
vt 0.210036 0.628187
vt 0.210036 0.535842
vt 0.325763 0.535842
vt 0.325763 0.628187
vt 0.494510 0.628187
vt 0.413473 0.628187
vt 0.843522 0.325910
vt 0.762485 0.325910
vt 0.762485 0.198965
vt 0.843522 0.198965
vt 0.221253 0.351152
vt 0.133248 0.351152
vt 0.133248 0.001992
vt 0.221253 0.001992
vt 0.924560 0.210183
vt 0.924560 0.325910
vt 0.332436 0.535842
vt 0.332436 0.628187
vt 0.332436 0.351152
vt 0.332436 0.397324
vt 0.332436 0.001992
vt 0.756311 0.001992
vt 0.756311 0.351152
vt 0.095913 0.825273
vt 0.176950 0.825273
vt 0.210036 0.443497
vt 0.325763 0.443497
vt 0.332436 0.443497
vt 0.675764 0.447195
vt 0.756801 0.447195
vt 0.263587 0.397324
vt 0.924560 0.052183
vt 0.843522 0.052183
vt 0.843522 0.001992
vt 0.924560 0.001992
vt 0.272854 0.998008
vt 0.272854 0.912618
vt 0.353891 0.912618
vt 0.353891 0.998008
vt 0.924560 0.133394
vt 0.843522 0.133394
vt 0.605312 0.401022
vt 0.647646 0.354849
vt 0.756801 0.354849
vt 0.675764 0.354849
vt 0.265421 0.890291
vt 0.265421 0.978297
vt 0.184383 0.978297
vt 0.184383 0.890291
vt 0.209594 0.362325
vt 0.131710 0.364045
vt 0.200809 0.443312
vt 0.052037 0.378245
vt 0.058921 0.386085
vt 0.001845 0.447327
vt 0.019904 0.447926
vt 0.052037 0.601800
vt 0.001845 0.532718
vt 0.019903 0.532025
vt 0.058919 0.593864
vt 0.133248 0.628187
vt 0.131337 0.615149
vt 0.200438 0.616644
vt 0.200438 0.535842
vt 0.406050 0.908920
vt 0.340479 0.908920
vt 0.348675 0.897377
vt 0.408662 0.895882
vt 0.340479 0.816575
vt 0.348675 0.816575
vt 0.340479 0.724230
vt 0.347890 0.723850
vt 0.537452 0.728060
vt 0.537452 0.813451
vt 0.519395 0.812758
vt 0.519394 0.728659
vt 0.487261 0.882533
vt 0.480378 0.874597
vt 0.318044 0.631885
vt 0.330279 0.642668
vt 0.406050 0.631885
vt 0.407876 0.644583
vt 0.487261 0.658978
vt 0.480376 0.666818
vt 0.225639 0.743691
vt 0.225639 0.821575
vt 0.144602 0.821000
vt 0.144602 0.743403
vt 0.312360 0.632275
vt 0.312360 0.713261
vt 0.231323 0.713067
vt 0.231323 0.631885
vt 0.225639 0.670902
vt 0.144602 0.670902
vt 0.225639 0.631885
vt 0.144602 0.631885
vt 0.138918 0.773403
vt 0.138918 0.812419
vt 0.057881 0.812419
vt 0.057881 0.773403
vt 0.138918 0.700985
vt 0.057881 0.701686
vt 0.361324 0.996717
vt 0.361324 0.912618
vt 0.442361 0.912618
vt 0.442361 0.996717
vt 0.312360 0.805791
vt 0.312360 0.886593
vt 0.231323 0.886593
vt 0.231323 0.805791
vt 0.138918 0.631885
vt 0.057881 0.641700
vn 0.000000 -1.000000 0.000000
vn 0.000000 -1.000000 0.000000
vn 0.000000 -1.000000 0.000000
vn 0.000000 -1.000000 0.000000
vn 1.000000 0.000000 0.000000
vn 1.000000 0.000000 0.000000
vn 1.000000 0.000000 0.000000
vn 1.000000 0.000000 0.000000
vn 0.000000 0.000000 -1.000000
vn 0.000000 0.000000 -1.000000
vn 0.000000 0.000000 -1.000000
vn 0.000000 0.000000 -1.000000
vn 0.000000 -1.000000 0.000000
vn 0.000000 -1.000000 0.000000
vn 0.000000 -1.000000 0.000000
vn 0.000000 -1.000000 0.000000
vn 0.000000 0.000001 1.000000
vn 0.000000 0.000001 1.000000
vn 0.000000 0.000001 1.000000
vn 0.000000 0.000001 1.000000
vn 0.675803 0.000000 -0.737082
vn 0.675803 0.000000 -0.737082
vn 0.675803 0.000000 -0.737082
vn 0.675803 0.000000 -0.737082
vn 1.000000 0.000000 0.000000
vn 1.000000 0.000000 0.000000
vn 0.309018 0.000000 0.951056
vn 0.309018 0.000000 0.951056
vn 0.806951 0.000000 0.590618
vn 0.806951 0.000000 0.590618
vn 0.000000 0.000000 -1.000000
vn 0.000000 0.000000 -1.000000
vn 0.409506 0.000000 -0.912307
vn 0.409507 0.000000 -0.912307
vn 0.000000 -1.000000 0.000000
vn 0.000000 -1.000000 0.000000
vn 0.000000 0.000000 1.000000
vn 0.000000 0.000000 1.000000
vn 0.000000 0.000000 1.000000
vn 0.000000 0.000000 1.000000
vn 0.000000 1.000000 0.000000
vn 0.000000 1.000000 0.000001
vn 0.000000 1.000000 0.000000
vn 0.000000 1.000000 0.000000
vn 0.000000 0.000000 -1.000000
vn 0.000000 0.000000 -1.000000
vn -1.000000 0.000000 0.000000
vn -1.000000 0.000000 0.000000
vn -1.000000 0.000000 0.000000
vn -1.000000 0.000000 0.000000
vn 0.000000 1.000000 -0.000000
vn 0.000000 1.000000 0.000000
vn 0.000000 1.000000 0.000000
vn 0.000000 1.000000 0.000000
vn -1.000000 0.000000 0.000000
vn -1.000000 0.000000 0.000000
vn 0.000000 0.000000 -1.000000
vn 0.000000 0.000000 -1.000000
vn 0.675803 0.000000 -0.737082
vn 0.675803 0.000000 -0.737082
vn 0.000000 0.000000 -1.000000
vn 0.000000 0.000000 -1.000000
vn 0.000000 0.000000 1.000000
vn 0.000000 0.000000 1.000000
vn 0.948604 0.000000 0.316467
vn 0.948604 0.000000 0.316467
vn 0.000000 1.000000 0.000001
vn 0.000000 1.000000 -0.000001
vn 0.409506 0.000000 -0.912308
vn 0.120587 0.000000 0.992703
vn 0.120587 0.000000 0.992703
vn 0.000000 1.000000 -0.000004
vn -0.809017 0.000000 0.587785
vn -0.809017 0.000000 0.587785
vn -0.309017 0.000000 0.951057
vn -0.309017 0.000000 0.951057
vn -0.985338 0.000000 0.170614
vn -1.000000 0.000000 0.000000
vn -1.000000 0.000000 0.000000
vn -0.985338 0.000000 0.170614
vn 0.000000 -1.000000 0.000000
vn 0.000000 -1.000000 0.000000
vn 0.236079 0.000000 0.971734
vn 0.236079 0.000000 0.971734
vn -1.000000 0.000000 0.000000
vn -1.000000 0.000000 0.000000
vn -1.000000 0.000000 0.000000
vn -1.000000 0.000000 0.000000
vn 0.802839 0.000000 -0.596196
vn 0.802839 0.000000 -0.596196
vn 0.802839 0.000000 -0.596196
vn 0.000000 1.000000 0.000010
vn 0.000000 1.000000 0.000000
vn 0.000000 1.000000 0.000021
vn 0.000000 1.000000 0.000003
vn 0.000000 1.000000 0.000003
vn 0.000000 1.000000 -0.000008
vn 0.000000 1.000000 -0.000005
vn 0.000000 1.000000 0.000006
vn 0.000000 1.000000 -0.000006
vn 0.000000 1.000000 -0.000001
vn 0.000000 1.000000 0.000005
vn 0.000000 1.000000 -0.000002
vn 0.000000 1.000000 -0.000003
vn 0.000000 1.000000 0.000000
vn 0.000000 1.000000 0.000010
vn 0.000000 -1.000000 0.000002
vn 0.000000 -1.000000 0.000007
vn 0.000000 -1.000000 0.000010
vn 0.000000 -1.000000 0.000003
vn 0.000000 -1.000000 0.000010
vn 0.000000 -1.000000 0.000010
vn 0.000000 -1.000000 0.000023
vn 0.000000 -1.000000 0.000021
vn 0.000000 -1.000000 0.000023
vn 0.000000 -1.000000 0.000025
vn 0.000000 -1.000000 0.000025
vn 0.000000 -1.000000 0.000021
vn 0.000000 -1.000000 0.000015
vn 0.000000 -1.000000 0.000014
vn 0.000000 -1.000000 0.000017
vn 0.000000 -1.000000 0.000019
vn 0.000000 -1.000000 -0.000004
vn 0.000000 -1.000000 -0.000006
vn 0.000000 -1.000000 0.000003
vn 0.000000 -1.000000 0.000002
vn -0.987589 -0.002739 -0.157037
vn -0.999720 -0.003731 -0.023371
vn -0.999720 -0.003731 -0.023371
vn -0.987504 -0.002735 -0.157570
vn 0.160351 0.061227 0.985159
vn 0.078923 0.091491 0.992674
vn 0.078214 0.091750 0.992706
vn 0.160351 0.061227 0.985159
vn -0.799202 -0.000907 -0.601061
vn -0.799202 -0.000907 -0.601061
vn -0.258285 0.000000 -0.966069
vn -0.258285 0.000000 -0.966069
vn 0.800653 -0.000664 -0.599128
vn 0.258273 0.000000 -0.966072
vn 0.258273 0.000000 -0.966072
vn 0.800653 -0.000664 -0.599128
vn 0.986497 -0.001366 -0.163776
vn 0.986262 -0.001365 -0.165181
vn 0.003312 0.118911 0.992899
vn 0.000000 0.120241 0.992745
vn 0.000000 0.120241 0.992745
vn 0.003310 0.118912 0.992899
vn 0.999731 -0.001503 -0.023153
vn 0.999731 -0.001503 -0.023153
s 1
g polySurface29 polySurface6
usemtl initialShadingGroup
f 1/1/1 7/2/2 33/3/3 34/4/4
s 2
f 2/5/5 8/6/6 20/7/7 21/8/8
s 3
f 11/9/9 19/10/10 20/11/11 8/12/12
s off
f 12/13/13 11/14/14 8/15/15 2/16/16
s 4
f 22/17/17 12/18/18 2/19/19 21/20/20
s 5
f 41/21/21 42/22/22 19/10/23 11/9/24
s 2
f 21/8/8 20/7/7 6/23/25 4/24/26
s 6
f 25/25/27 24/26/28 26/27/29 27/28/30
s 7
f 33/29/31 32/30/32 18/31/33 14/32/34
s 1
f 34/4/4 33/3/3 14/33/35 15/34/36
s 8
f 34/35/37 35/36/38 16/37/39 1/38/40
s 9
f 37/39/41 38/40/42 31/41/43 5/42/44
s 7
f 33/29/31 7/43/45 17/44/46 32/30/32
s 10
f 17/45/47 7/46/48 1/47/49 16/48/50
s 9
f 10/49/51 9/50/52 4/51/53 6/52/54
s 10
f 16/48/50 37/53/55 5/54/56 17/45/47
s 7
f 31/55/57 32/30/32 17/44/46 5/56/58
s 5
f 10/57/59 19/10/23 42/22/22 43/58/60
s 3
f 6/59/61 20/11/11 19/10/10 10/57/62
s 4
f 4/60/63 9/61/64 22/17/17 21/20/20
s 6
f 26/27/29 22/62/65 9/63/66 27/28/30
s 9
f 38/40/42 39/64/67 13/65/68 31/41/43
s 7
f 13/66/69 18/31/33 32/30/32 31/55/57
s 8
f 15/67/70 23/68/71 35/36/38 34/35/37
s 9
f 39/64/67 10/49/51 43/69/72 13/65/68
s 6
f 28/70/73 29/71/74 36/72/75 30/73/76
f 36/74/75 24/75/28 25/76/27 30/77/76
f 3/78/77 37/53/78 16/48/79 40/79/80
f 3/78/77 40/79/80 29/71/74 28/70/73
s 1
f 15/34/36 14/33/35 41/80/81 11/81/82
s 8
f 19/82/83 23/68/71 15/67/70 11/83/84
s off
f 22/84/85 19/85/86 11/86/87 12/87/88
s 7
f 14/32/34 18/31/33 42/22/89 41/21/90
f 43/58/91 42/22/89 18/31/33 13/66/69
s 9
f 9/50/52 10/49/51 45/88/92 44/89/93
f 10/49/51 39/64/67 46/90/94 45/88/92
f 27/91/95 9/50/52 44/89/93 47/92/96
f 25/93/97 27/91/95 47/92/96 48/94/98
f 28/95/99 30/96/100 50/97/101 49/98/102
f 3/99/103 28/95/99 49/98/102 51/100/104
f 30/96/100 25/93/97 48/94/98 50/97/101
f 38/40/42 37/39/41 53/101/105 52/102/106
f 37/39/41 3/99/103 51/100/104 53/101/105
f 39/64/67 38/40/42 52/102/106 46/90/94
s 13
f 40/103/107 16/104/108 55/105/109 54/106/110
f 16/104/108 35/107/111 56/108/112 55/105/109
f 35/107/111 23/109/113 57/110/114 56/108/112
f 24/111/115 36/112/116 59/113/117 58/114/118
f 36/112/116 29/115/119 60/116/120 59/113/117
f 29/115/119 40/103/107 54/106/110 60/116/120
f 23/109/113 19/117/121 61/118/122 57/110/114
f 19/117/121 22/119/123 62/120/124 61/118/122
f 22/119/123 26/121/125 63/122/126 62/120/124
f 26/121/125 24/111/115 58/114/118 63/122/126
s 15
f 44/123/127 45/124/128 61/125/129 62/126/130
s 16
f 45/127/131 46/128/132 57/129/133 61/130/134
s 15
f 47/131/135 44/123/127 62/126/130 63/132/136
f 48/133/137 47/131/135 63/132/136 58/134/138
f 49/135/139 50/136/140 59/137/141 60/138/142
f 51/139/143 49/135/139 60/138/142 54/140/144
f 50/141/140 48/142/137 58/143/138 59/144/141
s 16
f 52/145/145 53/146/146 55/147/147 56/148/148
s 15
f 53/149/149 51/139/143 54/140/144 55/150/150
s 16
f 46/128/132 52/145/145 56/148/148 57/129/133
