# This file uses centimeters as units for non-parametric coordinates.

mtllib mesh_keyCabinet_door.mtl
g default
v -6.554674 -4.435641 0.066027
v 0.000000 -4.435641 0.066027
v -6.554674 4.435641 0.066027
v 0.000000 4.435641 0.066027
v -6.554674 4.435641 -0.066027
v 0.000000 4.435641 -0.066027
v -6.554674 -4.435641 -0.066027
v 0.000000 -4.435641 -0.066027
v -0.538472 4.435641 0.066027
v -0.538472 4.435641 -0.066027
v -0.538472 -4.435641 -0.066027
v -0.538472 -4.435641 0.066027
v -6.016203 4.435641 0.066027
v -6.016203 4.435641 -0.066027
v -6.016203 -4.435641 -0.066027
v -6.016203 -4.435641 0.066027
v -6.016203 3.560469 0.066027
v -6.554674 3.560469 0.066027
v -6.554674 3.560469 -0.066027
v -6.016203 3.560469 -0.066027
v -0.538472 3.560469 -0.066027
v 0.000000 3.560469 -0.066027
v 0.000000 3.560469 0.066027
v -0.538472 3.560469 0.066027
v -6.016203 -2.348447 0.066027
v -6.554674 -2.348447 0.066027
v -6.554674 -2.348447 -0.066027
v -6.016203 -2.348447 -0.066027
v -0.538472 -2.348447 -0.066027
v 0.000000 -2.348447 -0.066027
v 0.000000 -2.348447 0.066027
v -0.538472 -2.348447 0.066027
vt 0.510443 0.014455
vt 0.562071 0.014455
vt 0.562071 0.242929
vt 0.510443 0.242929
vt 0.510443 0.985545
vt 0.562071 0.985545
vt 0.562071 1.000000
vt 0.510443 1.000000
vt 0.500000 0.242929
vt 0.448372 0.242929
vt 0.448372 0.014455
vt 0.500000 0.014455
vt 0.510443 0.000000
vt 0.562071 0.000000
vt 0.000000 0.014455
vt 0.010443 0.014455
vt 0.010443 0.242928
vt 0.000000 0.242929
vt 0.948372 0.985545
vt 1.000000 0.985545
vt 1.000000 1.000000
vt 0.948372 1.000000
vt 0.062071 0.014455
vt 0.062071 0.242928
vt 0.948372 0.014455
vt 0.948372 0.000000
vt 1.000000 0.000000
vt 1.000000 0.014455
vt 0.948372 0.242929
vt 1.000000 0.242929
vt 0.510443 0.889745
vt 0.562071 0.889745
vt 0.500000 0.889745
vt 0.500000 0.985545
vt 0.448372 0.985545
vt 0.448372 0.889745
vt 0.062071 0.889745
vt 0.062071 0.985545
vt 0.010443 0.889745
vt 0.010443 0.985545
vt 0.000000 0.889745
vt 0.000000 0.985545
vt 0.948372 0.889745
vt 1.000000 0.889745
vn 0.000000 0.000000 1.000000
vn 0.000000 0.000000 1.000000
vn 0.000000 0.000000 1.000000
vn 0.000000 0.000000 1.000000
vn 0.000000 1.000000 0.000000
vn 0.000000 1.000000 0.000000
vn 0.000000 1.000000 0.000000
vn 0.000000 1.000000 0.000000
vn 0.000000 0.000000 -1.000000
vn 0.000000 0.000000 -1.000000
vn 0.000000 0.000000 -1.000000
vn 0.000000 0.000000 -1.000000
vn 0.000000 -1.000000 0.000000
vn 0.000000 -1.000000 0.000000
vn 0.000000 -1.000000 0.000000
vn 0.000000 -1.000000 0.000000
vn 1.000000 0.000000 0.000000
vn 1.000000 0.000000 0.000000
vn 1.000000 0.000000 0.000000
vn 1.000000 0.000000 0.000000
vn -1.000000 0.000000 0.000000
vn -1.000000 0.000000 0.000000
vn -1.000000 0.000000 0.000000
vn -1.000000 0.000000 0.000000
vn 0.000000 1.000000 0.000000
vn 0.000000 1.000000 0.000000
vn 0.000000 1.000000 0.000000
vn 0.000000 1.000000 0.000000
vn 0.000000 0.000000 -1.000000
vn 0.000000 0.000000 -1.000000
vn 0.000000 0.000000 -1.000000
vn 0.000000 0.000000 -1.000000
vn 0.000000 -1.000000 0.000000
vn 0.000000 -1.000000 0.000000
vn 0.000000 -1.000000 0.000000
vn 0.000000 -1.000000 0.000000
vn 0.000000 0.000000 1.000000
vn 0.000000 0.000000 1.000000
vn 0.000000 0.000000 1.000000
vn 0.000000 0.000000 1.000000
vn 0.000000 0.000000 1.000000
vn 0.000000 0.000000 1.000000
vn 0.000000 0.000000 1.000000
vn 0.000000 0.000000 1.000000
vn -1.000000 0.000000 0.000000
vn -1.000000 0.000000 0.000000
vn -1.000000 0.000000 0.000000
vn -1.000000 0.000000 0.000000
vn 0.000000 0.000000 -1.000000
vn 0.000000 0.000000 -1.000000
vn 0.000000 0.000000 -1.000000
vn 0.000000 0.000000 -1.000000
vn 0.000000 0.000000 -1.000000
vn 0.000000 0.000000 -1.000000
vn 0.000000 0.000000 -1.000000
vn 0.000000 0.000000 -1.000000
vn 1.000000 0.000000 0.000000
vn 1.000000 0.000000 0.000000
vn 1.000000 0.000000 0.000000
vn 1.000000 0.000000 0.000000
vn 0.000000 0.000000 1.000000
vn 0.000000 0.000000 1.000000
vn 0.000000 0.000000 1.000000
vn 0.000000 0.000000 1.000000
s 1
g polySurface28 polySurface6
usemtl lambert2SG
f 1/1/1 16/2/2 25/3/3 26/4/4
s 2
f 3/5/5 13/6/6 14/7/7 5/8/8
s 3
f 27/9/9 28/10/10 15/11/11 7/12/12
s 4
f 7/13/13 15/14/14 16/2/15 1/1/16
s 5
f 2/15/17 8/16/18 30/17/19 31/18/20
s 6
f 7/12/21 1/1/22 26/4/23 27/9/24
s 2
f 9/19/25 4/20/26 6/21/27 10/22/28
s 3
f 11/23/29 29/24/30 30/17/31 8/16/32
s 4
f 12/25/33 11/26/34 8/27/35 2/28/36
s 1
f 32/29/37 12/25/38 2/28/39 31/30/40
s 2
f 13/6/6 9/19/25 10/22/28 14/7/7
s 3
f 15/11/11 28/10/10 29/24/30 11/23/29
s 4
f 16/2/15 15/14/14 11/26/34 12/25/33
s 1
f 32/29/37 25/3/3 16/2/2 12/25/38
f 18/31/41 17/32/42 13/6/43 3/5/44
s 6
f 19/33/45 18/31/46 3/5/47 5/34/48
s 3
f 5/34/49 14/35/50 20/36/51 19/33/52
f 21/37/53 20/36/51 14/35/50 10/38/54
f 22/39/55 21/37/53 10/38/54 6/40/56
s 5
f 23/41/57 22/39/58 6/40/59 4/42/60
s 1
f 9/19/61 24/43/62 23/44/63 4/20/64
f 13/6/43 17/32/42 24/43/62 9/19/61
f 26/4/4 25/3/3 17/32/42 18/31/41
s 6
f 27/9/24 26/4/23 18/31/46 19/33/45
s 3
f 19/33/52 20/36/51 28/10/10 27/9/9
f 29/24/30 28/10/10 20/36/51 21/37/53
f 30/17/31 29/24/30 21/37/53 22/39/55
s 5
f 31/18/20 30/17/19 22/39/58 23/41/57
s 1
f 24/43/62 32/29/37 31/30/40 23/44/63
f 24/43/62 17/32/42 25/3/3 32/29/37
