# This file uses centimeters as units for non-parametric coordinates.

mtllib mesh_keyCabinet_base.mtl
g default
v -3.595623 9.959046 -1.299713
v 3.595623 9.959046 -1.299713
v -3.595623 0.000000 -1.299713
v 3.595623 0.000000 -1.299713
v -3.530644 0.064979 1.299713
v -3.595623 0.000000 1.234734
v 3.530644 0.064979 1.299713
v 3.595623 0.000000 1.234734
v -3.530644 9.894067 1.299713
v -3.595623 9.959046 1.234734
v 3.530644 9.894067 1.299713
v 3.595623 9.959046 1.234734
v 2.945455 9.894067 1.299713
v 2.999663 9.959045 1.234734
v 2.999663 9.959045 -1.299713
v 2.999663 0.000000 -1.299713
v 2.999663 0.000000 1.234734
v 2.945455 0.064979 1.299713
v -2.945457 9.894067 1.299713
v -2.999664 9.959045 1.234734
v -2.999664 9.959045 -1.299713
v -2.999664 0.000000 -1.299713
v -2.999664 0.000000 1.234734
v -2.945457 0.064979 1.299713
v 3.530644 9.203320 1.299713
v 3.595623 9.259166 1.234734
v 3.595623 9.259166 -1.299713
v 2.999663 9.259165 -1.299713
v -2.999664 9.259165 -1.299713
v -3.595623 9.259166 -1.299713
v -3.595623 9.259166 1.234734
v -3.530644 9.203320 1.299713
v -2.945457 9.203320 1.299713
v 2.945455 9.203320 1.299713
v 3.530644 1.862805 1.299713
v 3.595623 1.821597 1.234734
v 3.595623 1.821597 -1.299713
v 2.999663 1.821597 -1.299713
v -2.999664 1.821597 -1.299713
v -3.595623 1.821597 -1.299713
v -3.595623 1.821597 1.234734
v -3.530644 1.862805 1.299713
v -2.945457 1.862805 1.299713
v 2.945455 1.862805 1.299713
v -2.945457 9.203320 -0.127001
v 2.945455 9.203320 -0.127001
v -2.945457 1.862805 -0.127001
v 2.945455 1.862805 -0.127001
v -0.102396 5.461973 0.429718
v 0.102394 5.461973 0.429718
v -0.102396 5.604150 0.429718
v 0.102394 5.604150 0.429718
v -0.102396 5.604150 -0.127001
v 0.102394 5.604150 -0.127001
v -0.102396 5.461973 -0.127001
v 0.102394 5.461973 -0.127001
v -0.102396 5.166151 0.710700
v 0.102394 5.166151 0.710700
v 0.102394 5.310476 0.710700
v -0.102396 5.310476 0.710700
v -0.102396 5.166151 0.932462
v 0.102394 5.166151 0.932462
v 0.102394 5.310476 0.932462
v -0.102396 5.310476 0.932462
v -0.102396 5.578002 1.289861
v 0.102394 5.578002 1.289861
v 0.102394 5.613614 1.220386
v -0.102396 5.613614 1.220386
v 1.370332 5.461973 0.429718
v 1.575122 5.461973 0.429718
v 1.370332 5.604150 0.429718
v 1.575122 5.604150 0.429718
v 1.370332 5.604150 -0.127001
v 1.575122 5.604150 -0.127001
v 1.370332 5.461973 -0.127001
v 1.575122 5.461973 -0.127001
v 1.370332 5.166151 0.710700
v 1.575122 5.166151 0.710700
v 1.575122 5.310476 0.710700
v 1.370332 5.310476 0.710700
v 1.370332 5.166151 0.932462
v 1.575122 5.166151 0.932462
v 1.575122 5.310476 0.932462
v 1.370332 5.310476 0.932462
v 1.370332 5.578002 1.289861
v 1.575122 5.578002 1.289861
v 1.575122 5.613614 1.220386
v 1.370332 5.613614 1.220386
v -1.575124 5.461973 0.429718
v -1.370334 5.461973 0.429718
v -1.575124 5.604150 0.429718
v -1.370334 5.604150 0.429718
v -1.575124 5.604150 -0.127001
v -1.370334 5.604150 -0.127001
v -1.575124 5.461973 -0.127001
v -1.370334 5.461973 -0.127001
v -1.575124 5.166151 0.710700
v -1.370334 5.166151 0.710700
v -1.370334 5.310476 0.710700
v -1.575124 5.310476 0.710700
v -1.575124 5.166151 0.932462
v -1.370334 5.166151 0.932462
v -1.370334 5.310476 0.932462
v -1.575124 5.310476 0.932462
v -1.575124 5.578002 1.289861
v -1.370334 5.578002 1.289861
v -1.370334 5.613614 1.220386
v -1.575124 5.613614 1.220386
vt 0.500000 0.831351
vt 0.469362 0.831351
vt 0.469362 0.784779
vt 0.500000 0.784779
vt 0.633637 0.172973
vt 0.630296 0.168649
vt 0.660935 0.168649
vt 0.663722 0.172973
vt 0.630296 0.784779
vt 0.633637 0.781063
vt 0.633637 0.827027
vt 0.630296 0.831351
vt 0.996659 0.781063
vt 1.000000 0.784779
vt 1.000000 0.831351
vt 0.996659 0.827027
vt 0.663722 0.827027
vt 0.660935 0.831351
vt 0.663722 0.781063
vt 0.660935 1.000000
vt 0.630296 1.000000
vt 0.630296 0.000000
vt 0.660935 0.000000
vt 0.000000 0.784779
vt 0.130297 0.784779
vt 0.130296 0.831351
vt 0.000000 0.831351
vt 0.969362 0.831351
vt 0.966575 0.827027
vt 0.969362 1.000000
vt 1.000000 1.000000
vt 0.160935 0.784779
vt 0.160935 0.831351
vt 0.969362 0.168649
vt 0.969361 0.000000
vt 1.000000 -0.000000
vt 1.000000 0.168649
vt 0.966575 0.172973
vt 0.996659 0.172973
vt 0.966575 0.781063
vt 0.996659 0.292605
vt 1.000000 0.289863
vt 0.000000 0.289863
vt 0.130297 0.289863
vt 0.160935 0.289863
vt 0.469362 0.289863
vt 0.500000 0.289863
vt 0.630296 0.289863
vt 0.633637 0.292605
vt 0.663722 0.292605
vt 0.682058 0.316340
vt 0.948238 0.316339
vt 0.948238 0.757329
vt 0.682059 0.757329
vt 0.966575 0.292605
vt 0.000000 0.168649
vt 0.130297 0.168649
vt 0.160935 0.168649
vt 0.469362 0.168649
vt 0.500000 0.168649
vt 0.145838 0.050831
vt 0.001876 0.050831
vt 0.001876 0.001992
vt 0.145838 0.001992
vt 0.001876 0.606649
vt 0.145838 0.606649
vt 0.145838 0.998008
vt 0.001876 0.998008
vt 0.153259 0.001992
vt 0.297221 0.001992
vt 0.297221 0.393351
vt 0.153259 0.393351
vt 0.512411 0.001992
vt 0.612358 0.001992
vt 0.612358 0.393351
vt 0.512411 0.393351
vt 0.933416 0.606649
vt 0.933416 0.998008
vt 0.833469 0.998008
vt 0.833469 0.606649
vt 0.297221 0.590873
vt 0.153259 0.590873
vt 0.405912 0.590873
vt 0.304455 0.590873
vt 0.001876 0.409127
vt 0.145838 0.409127
vt 0.726971 0.409127
vt 0.625514 0.409127
vt 0.297221 0.746766
vt 0.153259 0.746766
vt 0.405912 0.746765
vt 0.304455 0.746766
vt 0.001876 0.253235
vt 0.145838 0.253235
vt 0.726971 0.253234
vt 0.625514 0.253234
vt 0.297221 0.998008
vt 0.153259 0.998008
vt 0.619010 0.949169
vt 0.593976 0.998008
vt 0.940069 0.050831
vt 0.915035 0.001992
vt 0.145838 0.050831
vt 0.001876 0.050831
vt 0.001876 0.001992
vt 0.145838 0.001992
vt 0.001876 0.606649
vt 0.145838 0.606649
vt 0.145838 0.998008
vt 0.001876 0.998008
vt 0.153259 0.001992
vt 0.297221 0.001992
vt 0.297221 0.393351
vt 0.153259 0.393351
vt 0.512411 0.001992
vt 0.612358 0.001992
vt 0.612358 0.393351
vt 0.512411 0.393351
vt 0.933416 0.606649
vt 0.933416 0.998008
vt 0.833469 0.998008
vt 0.833469 0.606649
vt 0.297221 0.590873
vt 0.153259 0.590873
vt 0.405912 0.590873
vt 0.304455 0.590873
vt 0.001876 0.409127
vt 0.145838 0.409127
vt 0.726971 0.409127
vt 0.625514 0.409127
vt 0.297221 0.746766
vt 0.153259 0.746766
vt 0.405912 0.746765
vt 0.304455 0.746766
vt 0.001876 0.253235
vt 0.145838 0.253235
vt 0.726971 0.253234
vt 0.625514 0.253234
vt 0.297221 0.998008
vt 0.153259 0.998008
vt 0.619010 0.949169
vt 0.593976 0.998008
vt 0.940069 0.050831
vt 0.915035 0.001992
vt 0.145838 0.050831
vt 0.001876 0.050831
vt 0.001876 0.001992
vt 0.145838 0.001992
vt 0.001876 0.606649
vt 0.145838 0.606649
vt 0.145838 0.998008
vt 0.001876 0.998008
vt 0.153259 0.001992
vt 0.297221 0.001992
vt 0.297221 0.393351
vt 0.153259 0.393351
vt 0.512411 0.001992
vt 0.612358 0.001992
vt 0.612358 0.393351
vt 0.512411 0.393351
vt 0.933416 0.606649
vt 0.933416 0.998008
vt 0.833469 0.998008
vt 0.833469 0.606649
vt 0.297221 0.590873
vt 0.153259 0.590873
vt 0.405912 0.590873
vt 0.304455 0.590873
vt 0.001876 0.409127
vt 0.145838 0.409127
vt 0.726971 0.409127
vt 0.625514 0.409127
vt 0.297221 0.746766
vt 0.153259 0.746766
vt 0.405912 0.746765
vt 0.304455 0.746766
vt 0.001876 0.253235
vt 0.145838 0.253235
vt 0.726971 0.253234
vt 0.625514 0.253234
vt 0.297221 0.998008
vt 0.153259 0.998008
vt 0.619010 0.949169
vt 0.593976 0.998008
vt 0.940069 0.050831
vt 0.915035 0.001992
vn 0.000000 0.000000 -1.000000
vn 0.000000 0.000000 -1.000000
vn 0.000000 0.000000 -1.000000
vn 0.000000 0.000000 -1.000000
vn 0.000000 -0.707106 0.707107
vn 0.000000 -0.707106 0.707107
vn 0.000000 -0.707106 0.707107
vn 0.000000 -0.707106 0.707107
vn -0.707106 0.000000 0.707107
vn -0.707106 0.000000 0.707108
vn -0.707107 0.000000 0.707107
vn -0.707107 0.000000 0.707107
vn 0.707109 0.000000 0.707105
vn 0.707109 0.000000 0.707105
vn 0.707110 0.000000 0.707104
vn 0.707110 0.000000 0.707104
vn 0.000001 0.707111 0.707103
vn 0.000001 0.707111 0.707103
vn 0.000000 0.707112 0.707102
vn 0.000000 0.707112 0.707102
vn 0.000000 0.000000 1.000000
vn 0.000000 0.000000 1.000000
vn 0.000000 0.000000 1.000000
vn 0.000000 0.000000 1.000000
vn 0.000002 1.000000 0.000000
vn 0.000000 1.000000 0.000000
vn 0.000000 1.000000 0.000000
vn 0.000002 1.000000 0.000000
vn 0.000000 -1.000000 0.000000
vn 0.000000 -1.000000 0.000000
vn 0.000000 -1.000000 0.000000
vn 0.000000 -1.000000 0.000000
vn 1.000000 0.000000 0.000000
vn 1.000000 0.000000 0.000000
vn 1.000000 0.000000 0.000000
vn 1.000000 0.000000 0.000000
vn -1.000000 0.000000 0.000000
vn -1.000000 0.000000 0.000000
vn -1.000000 0.000000 0.000000
vn -1.000000 0.000000 0.000000
vn -0.000000 0.707111 0.707103
vn -0.000000 0.707112 0.707102
vn -0.000001 0.707108 0.707106
vn -0.000001 0.707108 0.707106
vn -0.000000 1.000000 0.000000
vn -0.000000 1.000000 0.000000
vn -0.000002 1.000000 0.000000
vn -0.000002 1.000000 0.000000
vn 0.000000 0.000000 -1.000000
vn 0.000000 0.000000 -1.000000
vn 0.000000 0.000000 -1.000000
vn 0.000000 0.000000 -1.000000
vn 0.000000 -1.000000 0.000000
vn 0.000000 -1.000000 0.000000
vn 0.000000 -1.000000 0.000000
vn 0.000000 -1.000000 0.000000
vn 0.000000 -0.707106 0.707107
vn 0.000000 -0.707106 0.707107
vn 0.000000 -0.707106 0.707107
vn 0.000000 -0.707106 0.707107
vn 0.000000 0.000000 1.000000
vn 0.000000 0.000000 1.000000
vn 0.000000 0.000000 1.000000
vn 0.000000 0.000000 1.000000
vn 0.707109 0.000000 0.707105
vn 0.707109 0.000000 0.707105
vn 1.000000 0.000000 0.000000
vn 1.000000 0.000000 0.000000
vn 0.000000 0.000000 -1.000000
vn 0.000000 0.000000 -1.000000
vn 0.000000 0.000000 -1.000000
vn 0.000000 0.000000 -1.000000
vn -1.000000 0.000000 0.000000
vn -1.000000 0.000000 0.000000
vn -0.707106 0.000000 0.707107
vn -0.707106 0.000000 0.707108
vn 0.000000 0.000000 1.000000
vn 0.000000 0.000000 1.000000
vn 0.000000 0.000000 1.000000
vn 0.000000 0.000000 1.000000
vn 0.000000 0.000000 1.000000
vn 0.000000 0.000000 1.000000
vn 0.000000 0.000000 1.000000
vn 0.000000 0.000000 1.000000
vn 0.707109 0.000000 0.707105
vn 0.707109 0.000000 0.707105
vn 1.000000 0.000000 0.000000
vn 1.000000 0.000000 0.000000
vn 0.000000 0.000000 -1.000000
vn 0.000000 0.000000 -1.000000
vn 0.000000 0.000000 -1.000000
vn 0.000000 0.000000 -1.000000
vn -1.000000 0.000000 0.000000
vn -1.000000 0.000000 0.000000
vn -0.707106 0.000000 0.707107
vn -0.707106 0.000000 0.707107
vn 0.000000 0.000000 1.000000
vn 0.000000 0.000000 1.000000
vn 0.000000 0.000000 1.000000
vn 0.000000 0.000000 1.000000
vn 0.000000 -1.000000 0.000000
vn 0.000000 -1.000000 0.000000
vn 0.000000 -1.000000 0.000000
vn 0.000000 -1.000000 0.000000
vn 1.000000 0.000000 0.000000
vn 1.000000 0.000000 0.000000
vn 1.000000 0.000000 0.000000
vn 1.000000 0.000000 0.000000
vn 0.000000 1.000000 0.000000
vn 0.000000 1.000000 0.000000
vn 0.000000 1.000000 0.000000
vn 0.000000 1.000000 0.000000
vn -1.000000 0.000000 0.000000
vn -1.000000 0.000000 0.000000
vn -1.000000 0.000000 0.000000
vn -1.000000 0.000000 0.000000
vn 0.000000 0.889907 0.456143
vn 0.000000 0.889907 0.456143
vn 0.000000 0.889907 0.456143
vn 0.000000 0.889907 0.456143
vn 0.000000 1.000000 0.000000
vn 0.000000 1.000000 0.000000
vn 0.000000 1.000000 0.000000
vn 0.000000 1.000000 0.000000
vn 0.000000 -1.000000 0.000000
vn 0.000000 -1.000000 0.000000
vn 0.000000 -1.000000 0.000000
vn 0.000000 -1.000000 0.000000
vn 1.000000 0.000000 0.000000
vn 1.000000 0.000000 0.000000
vn 1.000000 0.000000 0.000000
vn 1.000000 0.000000 0.000000
vn -1.000000 0.000000 0.000000
vn -1.000000 0.000000 0.000000
vn -1.000000 0.000000 0.000000
vn -1.000000 0.000000 0.000000
vn 0.000000 -0.688685 -0.725061
vn 0.000000 -0.688685 -0.725061
vn 0.000000 -0.688685 -0.725061
vn 0.000000 -0.688685 -0.725061
vn 1.000000 0.000000 0.000000
vn 1.000000 0.000000 0.000000
vn 1.000000 0.000000 0.000000
vn 1.000000 0.000000 0.000000
vn 0.000000 0.691320 0.722549
vn 0.000000 0.691320 0.722549
vn 0.000000 0.691320 0.722549
vn 0.000000 0.691320 0.722549
vn -1.000000 -0.000000 0.000000
vn -1.000000 -0.000000 0.000000
vn -1.000000 -0.000000 0.000000
vn -1.000000 -0.000000 0.000000
vn 0.000000 -1.000000 0.000000
vn 0.000000 -1.000000 0.000000
vn 0.000000 -1.000000 0.000000
vn 0.000000 -1.000000 0.000000
vn 1.000000 0.000000 0.000000
vn 1.000000 0.000000 0.000000
vn 1.000000 0.000000 0.000000
vn 1.000000 0.000000 0.000000
vn 0.000000 1.000000 0.000000
vn 0.000000 1.000000 0.000000
vn 0.000000 1.000000 0.000000
vn 0.000000 1.000000 0.000000
vn -1.000000 -0.000000 0.000000
vn -1.000000 -0.000000 0.000000
vn -1.000000 -0.000000 0.000000
vn -1.000000 -0.000000 0.000000
vn 0.000000 -0.655414 0.755270
vn 0.000000 -0.655414 0.755270
vn 0.000000 -0.655414 0.755270
vn 0.000000 -0.655414 0.755270
vn 1.000000 0.000000 0.000000
vn 1.000000 0.000000 0.000000
vn 1.000000 0.000000 0.000000
vn 1.000000 0.000000 0.000000
vn 0.000000 0.688678 -0.725068
vn 0.000000 0.688678 -0.725068
vn 0.000000 0.688678 -0.725068
vn 0.000000 0.688678 -0.725068
vn -1.000000 -0.000000 0.000000
vn -1.000000 -0.000000 0.000000
vn -1.000000 -0.000000 0.000000
vn -1.000000 -0.000000 0.000000
vn 0.000000 0.889904 0.456148
vn 0.000000 0.889904 0.456148
vn 0.000000 0.889904 0.456148
vn 0.000000 0.889904 0.456148
vn 0.000000 1.000000 0.000000
vn 0.000000 1.000000 0.000000
vn 0.000000 1.000000 0.000000
vn 0.000000 1.000000 0.000000
vn 0.000000 -1.000000 0.000000
vn 0.000000 -1.000000 0.000000
vn 0.000000 -1.000000 0.000000
vn 0.000000 -1.000000 0.000000
vn 1.000000 0.000000 0.000000
vn 1.000000 0.000000 0.000000
vn 1.000000 0.000000 0.000000
vn 1.000000 0.000000 0.000000
vn -1.000000 0.000000 0.000000
vn -1.000000 0.000000 0.000000
vn -1.000000 0.000000 0.000000
vn -1.000000 0.000000 0.000000
vn 0.000000 -0.688685 -0.725061
vn 0.000000 -0.688685 -0.725061
vn 0.000000 -0.688685 -0.725061
vn 0.000000 -0.688685 -0.725061
vn 1.000000 0.000000 0.000000
vn 1.000000 0.000000 0.000000
vn 1.000000 0.000000 0.000000
vn 1.000000 0.000000 0.000000
vn 0.000000 0.691319 0.722550
vn 0.000000 0.691319 0.722550
vn 0.000000 0.691319 0.722550
vn 0.000000 0.691319 0.722550
vn -1.000000 -0.000000 0.000000
vn -1.000000 -0.000000 0.000000
vn -1.000000 -0.000000 0.000000
vn -1.000000 -0.000000 0.000000
vn 0.000000 -1.000000 0.000000
vn 0.000000 -1.000000 0.000000
vn 0.000000 -1.000000 0.000000
vn 0.000000 -1.000000 0.000000
vn 1.000000 -0.000000 0.000000
vn 1.000000 -0.000000 0.000000
vn 1.000000 -0.000000 0.000000
vn 1.000000 -0.000000 0.000000
vn 0.000000 1.000000 0.000000
vn 0.000000 1.000000 0.000000
vn 0.000000 1.000000 0.000000
vn 0.000000 1.000000 0.000000
vn -1.000000 -0.000000 0.000000
vn -1.000000 -0.000000 0.000000
vn -1.000000 -0.000000 0.000000
vn -1.000000 -0.000000 0.000000
vn 0.000000 -0.655413 0.755270
vn 0.000000 -0.655413 0.755270
vn 0.000000 -0.655413 0.755270
vn 0.000000 -0.655413 0.755270
vn 1.000000 -0.000001 0.000000
vn 1.000000 -0.000001 0.000000
vn 1.000000 -0.000001 0.000000
vn 1.000000 -0.000001 0.000000
vn 0.000000 0.688678 -0.725068
vn 0.000000 0.688678 -0.725068
vn 0.000000 0.688678 -0.725068
vn 0.000000 0.688678 -0.725068
vn -1.000000 -0.000000 0.000000
vn -1.000000 -0.000000 0.000000
vn -1.000000 -0.000000 0.000000
vn -1.000000 -0.000000 0.000000
vn 0.000000 0.889907 0.456143
vn 0.000000 0.889907 0.456143
vn 0.000000 0.889907 0.456143
vn 0.000000 0.889907 0.456143
vn 0.000000 1.000000 0.000000
vn 0.000000 1.000000 0.000000
vn 0.000000 1.000000 0.000000
vn 0.000000 1.000000 0.000000
vn 0.000000 -1.000000 0.000000
vn 0.000000 -1.000000 0.000000
vn 0.000000 -1.000000 0.000000
vn 0.000000 -1.000000 0.000000
vn 1.000000 0.000000 0.000000
vn 1.000000 0.000000 0.000000
vn 1.000000 0.000000 0.000000
vn 1.000000 0.000000 0.000000
vn -1.000000 0.000000 0.000000
vn -1.000000 0.000000 0.000000
vn -1.000000 0.000000 0.000000
vn -1.000000 0.000000 0.000000
vn 0.000000 -0.688685 -0.725061
vn 0.000000 -0.688685 -0.725061
vn 0.000000 -0.688685 -0.725061
vn 0.000000 -0.688685 -0.725061
vn 1.000000 0.000000 0.000000
vn 1.000000 0.000000 0.000000
vn 1.000000 0.000000 0.000000
vn 1.000000 0.000000 0.000000
vn 0.000000 0.691320 0.722549
vn 0.000000 0.691320 0.722549
vn 0.000000 0.691320 0.722549
vn 0.000000 0.691320 0.722549
vn -1.000000 0.000000 0.000000
vn -1.000000 0.000000 0.000000
vn -1.000000 0.000000 0.000000
vn -1.000000 0.000000 0.000000
vn 0.000000 -1.000000 0.000000
vn 0.000000 -1.000000 0.000000
vn 0.000000 -1.000000 0.000000
vn 0.000000 -1.000000 0.000000
vn 1.000000 0.000000 0.000000
vn 1.000000 0.000000 0.000000
vn 1.000000 0.000000 0.000000
vn 1.000000 0.000000 0.000000
vn 0.000000 1.000000 0.000000
vn 0.000000 1.000000 0.000000
vn 0.000000 1.000000 0.000000
vn 0.000000 1.000000 0.000000
vn -1.000000 0.000000 0.000000
vn -1.000000 0.000000 0.000000
vn -1.000000 0.000000 0.000000
vn -1.000000 0.000000 0.000000
vn 0.000000 -0.655414 0.755270
vn 0.000000 -0.655414 0.755270
vn 0.000000 -0.655414 0.755270
vn 0.000000 -0.655414 0.755270
vn 1.000000 -0.000001 0.000000
vn 1.000000 -0.000001 0.000000
vn 1.000000 -0.000001 0.000000
vn 1.000000 -0.000001 0.000000
vn 0.000000 0.688678 -0.725067
vn 0.000000 0.688678 -0.725067
vn 0.000000 0.688678 -0.725067
vn 0.000000 0.688678 -0.725067
vn -1.000000 0.000001 0.000000
vn -1.000000 0.000001 0.000000
vn -1.000000 0.000001 0.000000
vn -1.000000 0.000001 0.000000
s 1
g polySurface30
usemtl initialShadingGroup
f 1/1/1 21/2/2 29/3/3 30/4/4
s 2
f 5/5/5 6/6/6 23/7/7 24/8/8
s 3
f 31/9/9 32/10/10 9/11/11 10/12/12
s 4
f 25/13/13 26/14/14 12/15/15 11/16/16
s 5
f 10/12/17 9/11/18 19/17/19 20/18/20
s 6
f 32/10/21 33/19/22 19/17/23 9/11/24
s 7
f 10/12/25 20/18/26 21/20/27 1/21/28
s 8
f 3/22/29 22/23/30 23/7/31 6/6/32
s 9
f 26/24/33 27/25/34 2/26/35 12/27/36
s 10
f 30/4/37 31/9/38 10/12/39 1/1/40
s 5
f 14/28/41 13/29/42 11/16/43 12/15/44
s 7
f 15/30/45 14/28/46 12/15/47 2/31/48
s 1
f 28/32/49 15/33/50 2/26/51 27/25/52
s 8
f 17/34/53 16/35/54 4/36/55 8/37/56
s 2
f 18/38/57 17/34/58 8/37/59 7/39/60
s 6
f 13/29/61 34/40/62 25/13/63 11/16/64
s 5
f 20/18/20 19/17/19 13/29/42 14/28/41
s 7
f 21/20/27 20/18/26 14/28/46 15/30/45
s 1
f 29/3/3 21/2/2 15/33/50 28/32/49
s 8
f 23/7/31 22/23/30 16/35/54 17/34/53
s 2
f 24/8/8 23/7/7 17/34/58 18/38/57
s 6
f 19/17/23 33/19/22 34/40/62 13/29/61
s 4
f 35/41/65 36/42/66 26/14/14 25/13/13
s 9
f 36/43/67 37/44/68 27/25/34 26/24/33
s 1
f 37/44/69 38/45/70 28/32/49 27/25/52
f 39/46/71 29/3/3 28/32/49 38/45/70
f 39/46/71 40/47/72 30/4/4 29/3/3
s 10
f 40/47/73 41/48/74 31/9/38 30/4/37
s 3
f 41/48/75 42/49/76 32/10/10 31/9/9
s 6
f 42/49/77 43/50/78 33/19/22 32/10/21
s off
f 45/54/79 47/51/80 48/52/81 46/53/82
s 6
f 44/55/83 35/41/84 25/13/63 34/40/62
s 4
f 7/39/85 8/37/86 36/42/66 35/41/65
s 9
f 8/56/87 4/57/88 37/44/68 36/43/67
s 1
f 16/58/89 38/45/70 37/44/69 4/57/90
f 22/59/91 39/46/71 38/45/70 16/58/89
f 40/47/72 39/46/71 22/59/91 3/60/92
s 10
f 3/60/93 6/6/94 41/48/74 40/47/73
s 3
f 6/6/95 5/5/96 42/49/76 41/48/75
s 6
f 5/5/97 24/8/98 43/50/78 42/49/77
f 44/55/83 43/50/78 24/8/98 18/38/99
f 35/41/84 44/55/83 18/38/99 7/39/100
s off
f 33/19/101 45/54/102 46/53/103 34/40/104
f 43/50/105 47/51/106 45/54/107 33/19/108
f 47/51/109 43/50/110 44/55/111 48/52/112
f 48/52/113 44/55/114 34/40/115 46/53/116
f 67/61/117 68/62/118 65/63/119 66/64/120
f 51/65/121 52/66/122 54/67/123 53/68/124
f 55/69/125 56/70/126 50/71/127 49/72/128
f 56/73/129 54/74/130 52/75/131 50/76/132
f 51/77/133 53/78/134 55/79/135 49/80/136
f 49/72/137 50/71/138 58/81/139 57/82/140
f 52/75/141 59/83/142 58/84/143 50/76/144
f 52/66/145 51/65/146 60/85/147 59/86/148
f 60/87/149 51/77/150 49/80/151 57/88/152
f 57/82/153 58/81/154 62/89/155 61/90/156
f 59/83/157 63/91/158 62/92/159 58/84/160
f 59/86/161 60/85/162 64/93/163 63/94/164
f 64/95/165 60/87/166 57/88/167 61/96/168
f 61/90/169 62/89/170 66/97/171 65/98/172
f 63/91/173 67/99/174 66/100/175 62/92/176
f 63/94/177 64/93/178 68/62/179 67/61/180
f 68/101/181 64/95/182 61/96/183 65/102/184
f 87/103/185 88/104/186 85/105/187 86/106/188
f 71/107/189 72/108/190 74/109/191 73/110/192
f 75/111/193 76/112/194 70/113/195 69/114/196
f 76/115/197 74/116/198 72/117/199 70/118/200
f 71/119/201 73/120/202 75/121/203 69/122/204
f 69/114/205 70/113/206 78/123/207 77/124/208
f 72/117/209 79/125/210 78/126/211 70/118/212
f 72/108/213 71/107/214 80/127/215 79/128/216
f 80/129/217 71/119/218 69/122/219 77/130/220
f 77/124/221 78/123/222 82/131/223 81/132/224
f 79/125/225 83/133/226 82/134/227 78/126/228
f 79/128/229 80/127/230 84/135/231 83/136/232
f 84/137/233 80/129/234 77/130/235 81/138/236
f 81/132/237 82/131/238 86/139/239 85/140/240
f 83/133/241 87/141/242 86/142/243 82/134/244
f 83/136/245 84/135/246 88/104/247 87/103/248
f 88/143/249 84/137/250 81/138/251 85/144/252
f 107/145/253 108/146/254 105/147/255 106/148/256
f 91/149/257 92/150/258 94/151/259 93/152/260
f 95/153/261 96/154/262 90/155/263 89/156/264
f 96/157/265 94/158/266 92/159/267 90/160/268
f 91/161/269 93/162/270 95/163/271 89/164/272
f 89/156/273 90/155/274 98/165/275 97/166/276
f 92/159/277 99/167/278 98/168/279 90/160/280
f 92/150/281 91/149/282 100/169/283 99/170/284
f 100/171/285 91/161/286 89/164/287 97/172/288
f 97/166/289 98/165/290 102/173/291 101/174/292
f 99/167/293 103/175/294 102/176/295 98/168/296
f 99/170/297 100/169/298 104/177/299 103/178/300
f 104/179/301 100/171/302 97/172/303 101/180/304
f 101/174/305 102/173/306 106/181/307 105/182/308
f 103/175/309 107/183/310 106/184/311 102/176/312
f 103/178/313 104/177/314 108/146/315 107/145/316
f 108/185/317 104/179/318 101/180/319 105/186/320
