# Blender v2.74 (sub 0) OBJ File: 'Third pass stuff.blend'
# www.blender.org
mtllib desk2.0.mtl
o table_Table_Plane.003
v -0.864310 0.007889 0.461831
v -0.948455 0.007889 0.461831
v -0.948455 0.007889 0.524297
v -0.864310 0.007889 0.524297
v -0.948455 1.017980 0.461831
v -0.864310 1.017980 0.461831
v -0.864310 1.017980 0.524297
v -0.948455 1.017980 0.524297
v 0.883948 1.017980 0.524297
v 0.883948 0.007889 0.524297
v 0.883948 0.007889 0.461831
v 0.883948 1.017980 0.461831
v 0.968093 0.007889 0.461831
v 0.968093 0.007889 0.524297
v 0.968093 1.017980 0.461831
v 0.968093 1.017980 0.524297
v 0.968093 0.007889 -0.518114
v 0.883948 0.007889 -0.518114
v 0.883948 0.007889 -0.455648
v 0.968093 0.007889 -0.455648
v 0.883948 1.017980 -0.518114
v 0.968093 1.017980 -0.518114
v 0.968093 1.017980 -0.455648
v 0.883948 1.017980 -0.455648
v -0.950915 1.017980 -0.455648
v -0.950915 0.007889 -0.455648
v -0.950915 0.007889 -0.518114
v -0.950915 1.017980 -0.518114
v -0.866771 0.007889 -0.518114
v -0.866771 0.007889 -0.455648
v -0.866771 1.017980 -0.518114
v -0.866771 1.017980 -0.455648
v 0.885857 0.986645 -0.429458
v 1.073673 0.986645 -0.429458
v 1.073673 0.986645 -0.545173
v 0.885857 0.986645 -0.545173
v -1.036544 0.986645 0.469138
v -0.863791 0.986645 0.515335
v -0.863791 0.986645 -0.429458
v -1.036544 0.986645 -0.429458
v -0.863791 0.986645 -0.545173
v -1.036544 0.986645 -0.545173
v 0.100579 0.986645 0.515366
v 0.100580 0.986645 0.584853
v 0.198409 0.986645 0.584853
v 0.198409 0.986645 0.514231
v 0.885857 0.986645 0.584853
v 0.885857 0.986645 0.514231
v 1.073673 0.986645 0.584853
v 1.073673 0.986645 0.469138
v 0.100579 0.986645 0.515335
v 0.100579 0.986645 -0.429458
v 0.198409 0.986645 -0.429458
v 0.198409 0.986645 -0.545173
v 0.100579 0.986645 -0.545173
v -0.863791 0.986645 0.584853
v -1.036544 0.986645 0.584853
v -0.873311 0.980183 -0.520157
v 1.073673 1.095151 -0.429458
v 1.073673 1.095151 -0.545173
v 0.885857 1.095151 -0.545173
v 0.198409 1.095151 -0.545173
v 0.100579 1.095151 -0.545173
v -0.863791 1.095151 -0.545173
v -1.036544 1.095151 -0.545173
v -1.036544 1.095151 -0.429458
v -1.036544 1.095151 0.469138
v -1.036544 1.095151 0.584853
v -0.863791 1.095151 0.584853
v 0.100580 1.095151 0.584853
v 0.198409 1.095151 0.584853
v 0.885857 1.095151 0.584853
v 1.073673 1.095151 0.584853
v 1.073673 1.095151 0.469138
v 0.895237 1.061353 -0.480449
v 0.895237 0.337744 -0.480449
v 0.896264 0.337743 0.458755
v 0.896264 1.061353 0.458755
v -0.918346 1.061353 -0.480449
v -0.918346 0.337744 -0.480449
v -0.917319 0.337743 0.458755
v -0.917319 1.061353 0.458755
v -0.863791 0.986645 -0.457144
v -0.873311 0.350085 -0.520157
vt 0.364104 0.675339
vt 0.354041 0.675339
vt 0.354041 0.998601
vt 0.364104 0.998601
vt 0.218357 0.998601
vt 0.218357 0.675339
vt 0.231913 0.675339
vt 0.231913 0.998601
vt 0.343977 0.675339
vt 0.343977 0.998601
vt 0.333913 0.998601
vt 0.333913 0.675339
vt 0.245469 0.675339
vt 0.245469 0.998601
vt 0.204801 0.675339
vt 0.204801 0.998601
vt 0.191245 0.998601
vt 0.191245 0.675339
vt 0.259025 0.675339
vt 0.259025 0.998601
vt 0.309757 0.675339
vt 0.299693 0.675339
vt 0.299693 0.998601
vt 0.309757 0.998601
vt 0.496573 0.092493
vt 0.496573 0.415756
vt 0.486510 0.415756
vt 0.486510 0.092493
vt 0.272581 0.675339
vt 0.272581 0.998601
vt 0.319821 0.675339
vt 0.319821 0.998601
vt 0.286137 0.675339
vt 0.286137 0.998601
vt 0.364104 0.892627
vt 0.364104 0.865698
vt 0.374168 0.865698
vt 0.374168 0.892627
vt 0.384231 0.892627
vt 0.384231 0.865698
vt 0.394295 0.865698
vt 0.394295 0.892627
vt 0.508469 0.202710
vt 0.508469 0.525972
vt 0.498405 0.525972
vt 0.498405 0.202710
vt 0.404358 0.892627
vt 0.404358 0.865698
vt 0.414422 0.865698
vt 0.414422 0.892627
vt 0.424485 0.865698
vt 0.424485 0.892627
vt 0.323850 0.998601
vt 0.323850 0.675339
vt 0.434549 0.892627
vt 0.434549 0.865698
vt 0.444612 0.865698
vt 0.444612 0.892627
vt 0.018642 0.615232
vt 0.000000 0.615232
vt 0.000000 0.675339
vt 0.018642 0.675339
vt 0.163410 0.000000
vt 0.018642 0.000000
vt 0.018642 0.055287
vt 0.170852 0.055287
vt 0.000000 0.000000
vt 0.000000 0.055287
vt 0.170857 0.363917
vt 0.170674 0.395226
vt 0.182052 0.395226
vt 0.182052 0.363917
vt 0.170675 0.615232
vt 0.182052 0.615232
vt 0.163410 0.675339
vt 0.182052 0.675339
vt 0.000000 0.363917
vt 0.000000 0.395226
vt 0.018642 0.395226
vt 0.018642 0.363917
vt 0.182052 0.055287
vt 0.182052 0.000000
vt 0.116455 0.975915
vt 0.116455 0.675339
vt 0.000121 0.675339
vt 0.000121 0.975915
vt 0.364104 0.565122
vt 0.480681 0.865698
vt 0.480681 0.565122
vt 0.200694 0.000000
vt 0.182052 0.060107
vt 0.182052 0.280113
vt 0.182052 0.311422
vt 0.182052 0.620052
vt 0.200694 0.675339
vt 0.345462 0.675339
vt 0.364104 0.620052
vt 0.364104 0.311422
vt 0.364104 0.280113
vt 0.364104 0.060107
vt 0.364104 0.000000
vt 0.345462 0.000000
vt 0.496081 0.601894
vt 0.513562 0.601894
vt 0.513562 0.564862
vt 0.496081 0.564862
vt 0.498162 0.565122
vt 0.498162 0.602155
vt 0.480681 0.602155
vt 0.498162 0.889735
vt 0.480681 0.889735
vt 0.562500 0.000000
vt 0.545019 0.000000
vt 0.545019 0.060107
vt 0.545019 0.280113
vt 0.545019 0.311422
vt 0.545019 0.620052
vt 0.545019 0.675339
vt 0.562500 0.675339
vt 0.562500 0.620052
vt 0.562500 0.311422
vt 0.562500 0.280113
vt 0.562500 0.060107
vt 0.527538 0.000000
vt 0.527538 0.055287
vt 0.527538 0.363917
vt 0.527538 0.395226
vt 0.527538 0.615232
vt 0.527538 0.675339
vt 0.545019 0.615232
vt 0.545019 0.395226
vt 0.545019 0.363917
vt 0.545019 0.055287
vt 0.496081 0.926507
vt 0.513562 0.926507
vt 0.513562 0.889475
vt 0.496081 0.889475
vt 0.498162 0.926767
vt 0.480681 0.926767
vn 1.000000 0.000000 0.000000
vn 0.000000 -0.707100 -0.707100
vn 0.000000 0.707100 -0.707100
vn 0.577400 0.577400 -0.577400
vn 0.577400 -0.577400 -0.577400
vn 0.577400 0.577400 0.577400
vn 0.577400 -0.577400 0.577400
vn 0.000000 0.707100 0.707100
vn 0.000000 -0.707100 0.707100
vn -0.000000 -1.000000 -0.000000
vn 0.707100 -0.707100 -0.000000
vn 0.000000 1.000000 0.000000
vn -0.000400 0.000000 -1.000000
vn 1.000000 0.000000 -0.001100
vn 0.707100 0.707100 0.000000
usemtl desk_legs
s 1
f 6/1/1 7/2/1 4/3/1 1/4/1
f 7/5/2 4/6/3 3/7/4 8/8/5
f 8/9/5 3/10/4 2/11/6 5/12/7
f 5/13/7 2/14/6 1/8/8 6/7/9
f 15/2/1 16/9/1 14/10/1 13/3/1
f 16/15/2 14/16/3 10/17/4 9/18/5
f 12/14/7 11/13/6 13/19/8 15/20/9
f 22/21/1 23/22/1 20/23/1 17/24/1
f 23/6/2 20/5/3 19/16/4 24/15/5
f 24/25/5 19/26/4 18/27/6 21/28/7
f 21/20/7 18/19/6 17/29/8 22/30/9
f 31/31/1 32/21/1 30/24/1 29/32/1
f 32/33/2 30/34/3 26/30/4 25/29/5
f 28/22/7 27/23/6 29/34/8 31/33/9
usemtl Desk.001
f 1/35/8 2/36/6 3/37/4 4/38/3
f 5/39/7 6/40/9 7/41/2 8/42/5
f 9/43/5 10/44/4 11/45/6 12/46/7
f 13/47/8 11/48/6 10/49/4 14/50/3
f 12/42/7 15/41/9 16/48/2 9/47/5
f 17/38/8 18/37/6 19/40/4 20/39/3
f 21/50/7 22/49/9 23/51/2 24/52/5
f 25/12/5 26/11/4 27/53/6 28/54/7
f 29/55/8 27/56/6 26/57/4 30/58/3
f 28/52/7 31/51/9 32/56/2 25/55/5
f 33/59/10 36/60/2 35/61/5 34/62/11
f 37/63/10 40/64/10 39/65/10 38/66/10
f 40/64/10 42/67/2 41/68/2 39/65/10
f 43/69/10 46/70/10 45/71/9 44/72/9
f 45/71/9 46/70/10 48/73/10 47/74/9
f 47/74/9 48/73/10 50/75/11 49/76/7
f 38/66/12 43/69/13 51/69/10
f 48/73/10 33/59/10 34/62/11 50/75/11
f 41/68/2 55/77/2 54/78/2 36/60/2 33/59/10 53/79/10 52/80/10 39/65/10
f 56/81/9 38/66/10 43/69/10 44/72/9
f 57/82/9 37/63/10 38/66/10 56/81/9
f 46/70/10 51/69/10 43/69/13 38/66/10 39/65/10 52/80/10 53/79/10 33/59/10 48/73/10
usemtl desk_side_view
f 75/83/14 78/84/14 77/85/14 76/86/14
f 79/87/14 82/36/14 81/88/14 80/89/14
usemtl desk_top
f 59/90/15 60/82/4 61/91/3 62/92/3 63/93/3 64/94/3 65/76/3 66/95/12 67/96/12 68/1/8 69/97/8 70/98/8 71/99/8 72/100/8 73/101/6 74/102/15
usemtl side_of_desk's_top
f 59/103/15 34/104/11 35/105/5 60/106/4
f 65/107/1 66/108/1 40/109/1 42/89/1
f 66/108/1 67/110/1 37/111/1 40/109/1
f 49/112/7 73/113/6 72/114/8 71/115/8 70/116/8 69/117/8 68/118/8 57/119/9 56/120/9 44/121/9 45/122/9 47/123/9
f 42/113/2 65/124/3 64/125/3 63/126/3 62/127/3 61/128/3 60/129/4 35/118/5 36/130/2 54/131/2 55/132/2 41/133/2
f 73/134/6 49/135/7 50/136/11 74/137/15
f 67/110/1 68/138/1 57/139/1 37/111/1
f 74/137/15 50/136/11 34/104/11 59/103/15
l 84 58
l 38 83
