# Blender v2.74 (sub 0) OBJ File: 'Third pass stuff.blend'
# www.blender.org
mtllib desk.mtl
o table_Table_Plane.003
v -0.864310 0.007889 0.461831
v -0.948455 0.007889 0.461831
v -0.948455 0.007889 0.524297
v -0.864310 0.007889 0.524297
v -0.948455 1.017980 0.461831
v -0.864310 1.017980 0.461831
v -0.864310 1.017980 0.524297
v -0.948455 1.017980 0.524297
v 0.883948 1.017980 0.524297
v 0.883948 0.007889 0.524297
v 0.883948 0.007889 0.461831
v 0.883948 1.017980 0.461831
v 0.968093 0.007889 0.461831
v 0.968093 0.007889 0.524297
v 0.968093 1.017980 0.461831
v 0.968093 1.017980 0.524297
v 0.968093 0.007889 -0.518114
v 0.883948 0.007889 -0.518114
v 0.883948 0.007889 -0.455648
v 0.968093 0.007889 -0.455648
v 0.883948 1.017980 -0.518114
v 0.968093 1.017980 -0.518114
v 0.968093 1.017980 -0.455648
v 0.883948 1.017980 -0.455648
v -0.950915 1.017980 -0.455648
v -0.950915 0.007889 -0.455648
v -0.950915 0.007889 -0.518114
v -0.950915 1.017980 -0.518114
v -0.866771 0.007889 -0.518114
v -0.866771 0.007889 -0.455648
v -0.866771 1.017980 -0.518114
v -0.866771 1.017980 -0.455648
v 0.885857 0.986645 -0.429458
v 1.073673 0.986645 -0.429458
v 1.073673 0.986645 -0.545173
v 0.885857 0.986645 -0.545173
v -1.036544 0.986645 0.469138
v -0.863791 0.986645 0.515335
v -0.863791 0.986645 -0.429458
v -1.036544 0.986645 -0.429458
v -0.863791 0.986645 -0.545173
v -1.036544 0.986645 -0.545173
v 0.100579 0.986645 0.515366
v 0.100580 0.986645 0.584853
v 0.198409 0.986645 0.584853
v 0.198409 0.986645 0.514231
v 0.885857 0.986645 0.584853
v 0.885857 0.986645 0.514231
v 1.073673 0.986645 0.584853
v 1.073673 0.986645 0.469138
v 0.100579 0.986645 0.515335
v 0.100579 0.986645 -0.429458
v 0.198409 0.986645 -0.429458
v 0.198409 0.986645 -0.545173
v 0.100579 0.986645 -0.545173
v -0.863791 0.986645 0.584853
v -1.036544 0.986645 0.584853
v -0.873311 0.980183 -0.520157
v 1.073673 1.095151 -0.429458
v 1.073673 1.095151 -0.545173
v 0.885857 1.095151 -0.545173
v 0.198409 1.095151 -0.545173
v 0.100579 1.095151 -0.545173
v -0.863791 1.095151 -0.545173
v -1.036544 1.095151 -0.545173
v -1.036544 1.095151 -0.429458
v -1.036544 1.095151 0.469138
v -1.036544 1.095151 0.584853
v -0.863791 1.095151 0.584853
v 0.100580 1.095151 0.584853
v 0.198409 1.095151 0.584853
v 0.885857 1.095151 0.584853
v 1.073673 1.095151 0.584853
v 1.073673 1.095151 0.469138
v 0.895237 1.061353 -0.480449
v 0.895237 0.337744 -0.480449
v 0.896264 0.337743 0.458755
v 0.896264 1.061353 0.458755
v -0.918346 1.061353 -0.480449
v -0.918346 0.337744 -0.480449
v -0.917319 0.337743 0.458755
v -0.917319 1.061353 0.458755
v -0.863791 0.986645 -0.457144
v -0.873311 0.350085 -0.520157
v -0.870661 0.001538 0.455480
v -0.954806 0.001538 0.455480
v -0.954806 0.001538 0.530648
v -0.870661 0.001538 0.530648
v -0.954806 1.024331 0.455480
v -0.870661 1.024331 0.455480
v -0.870661 1.024331 0.530648
v -0.954806 1.024331 0.530648
v 0.877597 1.024331 0.530648
v 0.877597 0.001538 0.530648
v 0.877597 0.001538 0.455480
v 0.877597 1.024331 0.455480
v 0.974444 0.001538 0.455480
v 0.974444 0.001538 0.530648
v 0.974444 1.024331 0.455480
v 0.974444 1.024331 0.530648
v 0.974444 0.001538 -0.524465
v 0.877597 0.001538 -0.524465
v 0.877597 0.001538 -0.449297
v 0.974444 0.001538 -0.449297
v 0.877597 1.024331 -0.524465
v 0.974444 1.024331 -0.524465
v 0.974444 1.024331 -0.449297
v 0.877597 1.024331 -0.449297
v -0.957266 1.024331 -0.449297
v -0.957266 0.001538 -0.449297
v -0.957266 0.001538 -0.524465
v -0.957266 1.024331 -0.524465
v -0.873122 0.001538 -0.524465
v -0.873122 0.001538 -0.449297
v -0.873122 1.024331 -0.524465
v -0.873122 1.024331 -0.449297
v 0.885857 0.997645 -0.429458
v 1.065895 0.994423 -0.429458
v 1.067322 0.992996 -0.538822
v 0.885857 0.994423 -0.537395
v -1.028766 0.994423 0.469138
v -0.863791 0.997645 0.515335
v -0.863791 0.997645 -0.429458
v -1.028766 0.994423 -0.429458
v -0.863791 0.994423 -0.537395
v -1.030193 0.992996 -0.538822
v 0.100579 0.997645 0.515366
v 0.100580 0.994423 0.577075
v 0.198409 0.994423 0.577075
v 0.198409 0.997645 0.514231
v 0.885857 0.994423 0.577075
v 0.885857 0.997645 0.514231
v 1.067322 0.992996 0.578502
v 1.065895 0.994423 0.469138
v 0.100579 0.997645 0.515335
v 0.100579 0.997645 -0.429458
v 0.198409 0.997645 -0.429458
v 0.198409 0.994423 -0.537395
v 0.100579 0.994423 -0.537395
v -0.863791 0.994423 0.577075
v -1.030193 0.992996 0.578502
v -0.866508 0.972548 -0.516105
v 1.065895 1.087373 -0.429458
v 1.067322 1.088800 -0.538822
v 0.885857 1.087373 -0.537395
v 0.198409 1.087373 -0.537395
v 0.100579 1.087373 -0.537395
v -0.863791 1.087373 -0.537395
v -1.030193 1.088800 -0.538822
v -1.028766 1.087373 -0.429458
v -1.028766 1.087373 0.469138
v -1.030193 1.088800 0.578502
v -0.863791 1.087373 0.577075
v 0.100580 1.087373 0.577075
v 0.198409 1.087373 0.577075
v 0.885857 1.087373 0.577075
v 1.067322 1.088800 0.578502
v 1.065895 1.087373 0.469138
v 0.884237 1.061353 -0.480437
v 0.884237 0.337744 -0.480437
v 0.885264 0.337743 0.458767
v 0.885264 1.061353 0.458767
v -0.907346 1.061353 -0.480461
v -0.907346 0.337744 -0.480461
v -0.906319 0.337743 0.458743
v -0.906319 1.061353 0.458743
v -0.856949 0.978830 -0.453523
v -0.864376 0.346503 -0.514835
vt 0.364104 0.675339
vt 0.354041 0.675339
vt 0.354041 0.998601
vt 0.364104 0.998601
vt 0.218357 0.998601
vt 0.218357 0.675339
vt 0.231913 0.675339
vt 0.231913 0.998601
vt 0.245469 0.675339
vt 0.245469 0.998601
vt 0.204801 0.675339
vt 0.204801 0.998601
vt 0.191245 0.998601
vt 0.191245 0.675339
vt 0.259025 0.675339
vt 0.259025 0.998601
vt 0.496573 0.092493
vt 0.496573 0.415756
vt 0.486510 0.415756
vt 0.486510 0.092493
vt 0.272581 0.675339
vt 0.272581 0.998601
vt 0.319821 0.675339
vt 0.309757 0.675339
vt 0.309757 0.998601
vt 0.319821 0.998601
vt 0.286137 0.675339
vt 0.286137 0.998601
vt 0.299693 0.675339
vt 0.299693 0.998601
vt 0.372709 -0.000358
vt 0.372709 0.386733
vt 0.405303 0.386733
vt 0.405303 -0.000358
vt 0.292294 0.680704
vt 0.292294 0.998279
vt 0.257488 0.998279
vt 0.257488 0.680704
vt 0.364104 0.892627
vt 0.364104 0.865698
vt 0.374168 0.865698
vt 0.374168 0.892627
vt 0.384231 0.892627
vt 0.384231 0.865698
vt 0.394295 0.865698
vt 0.394295 0.892627
vt 0.508469 0.202710
vt 0.508469 0.525972
vt 0.498405 0.525972
vt 0.498405 0.202710
vt 0.404358 0.892627
vt 0.404358 0.865698
vt 0.414422 0.865698
vt 0.414422 0.892627
vt 0.424485 0.865698
vt 0.424485 0.892627
vt 0.327100 0.680704
vt 0.327100 0.998279
vt 0.434549 0.892627
vt 0.434549 0.865698
vt 0.444612 0.865698
vt 0.444612 0.892627
vt 0.018642 0.615232
vt 0.000000 0.615232
vt 0.000000 0.675339
vt 0.018642 0.675339
vt 0.163410 0.000000
vt 0.018642 0.000000
vt 0.018642 0.055287
vt 0.170852 0.055287
vt 0.000000 0.000000
vt 0.000000 0.055287
vt 0.170857 0.363917
vt 0.170674 0.395226
vt 0.182052 0.395226
vt 0.182052 0.363917
vt 0.170675 0.615232
vt 0.182052 0.615232
vt 0.163410 0.675339
vt 0.182052 0.675339
vt 0.000000 0.363917
vt 0.000000 0.395226
vt 0.018642 0.395226
vt 0.018642 0.363917
vt 0.182052 0.055287
vt 0.182052 0.000000
vt 0.116455 0.975915
vt 0.116455 0.675339
vt 0.000121 0.675339
vt 0.000121 0.975915
vt 0.435868 0.613522
vt 0.511417 0.613522
vt 0.511417 0.819103
vt 0.435868 0.819103
vt 0.341018 0.996212
vt 0.341018 0.679906
vt 0.363896 0.679906
vt 0.363896 0.996212
vt 0.200694 0.000000
vt 0.182052 0.060107
vt 0.182052 0.280113
vt 0.182052 0.311422
vt 0.182052 0.620052
vt 0.200694 0.675339
vt 0.345462 0.675339
vt 0.364104 0.620052
vt 0.364104 0.311422
vt 0.364104 0.280113
vt 0.364104 0.060107
vt 0.364104 0.000000
vt 0.345462 0.000000
vt 0.496081 0.601894
vt 0.513562 0.601894
vt 0.513562 0.564862
vt 0.496081 0.564862
vt 0.498162 0.565122
vt 0.480681 0.565122
vt 0.480681 0.602155
vt 0.498162 0.602155
vt 0.480681 0.889735
vt 0.498162 0.889735
vt 0.562500 0.000000
vt 0.545019 0.000000
vt 0.545019 0.060107
vt 0.545019 0.280113
vt 0.545019 0.311422
vt 0.545019 0.620052
vt 0.545019 0.675339
vt 0.562500 0.675339
vt 0.562500 0.620052
vt 0.562500 0.311422
vt 0.562500 0.280113
vt 0.562500 0.060107
vt 0.527538 0.000000
vt 0.527538 0.055287
vt 0.527538 0.363917
vt 0.527538 0.395226
vt 0.527538 0.615232
vt 0.527538 0.675339
vt 0.545019 0.615232
vt 0.545019 0.395226
vt 0.545019 0.363917
vt 0.545019 0.055287
vt 0.496081 0.926507
vt 0.513562 0.926507
vt 0.513562 0.889475
vt 0.496081 0.889475
vt 0.480681 0.926767
vt 0.498162 0.926767
vn 1.000000 0.000000 0.000000
vn 0.000000 -0.707100 -0.707100
vn 0.000000 0.707100 -0.707100
vn 0.577400 0.577400 -0.577400
vn 0.577400 -0.577400 -0.577400
vn 0.577400 -0.577400 0.577400
vn 0.577400 0.577400 0.577400
vn 0.000000 0.707100 0.707100
vn 0.000000 -0.707100 0.707100
vn -0.577400 -0.577400 -0.577400
vn -0.577400 0.577400 -0.577400
vn -0.577400 0.577400 0.577400
vn -0.577400 -0.577400 0.577400
vn -1.000000 0.000000 0.000000
vn -0.000000 -1.000000 -0.000000
vn 0.707100 -0.707100 -0.000000
vn -0.707100 -0.707100 -0.000000
vn 0.000000 1.000000 0.000000
vn -0.000400 0.000000 -1.000000
vn -0.701600 0.712400 -0.012300
vn -0.579400 0.583700 0.568800
vn 0.004600 0.718200 0.695800
vn 0.007700 0.999900 -0.012800
vn -0.009200 0.999700 0.021000
vn -0.008400 0.999900 -0.012800
vn 0.701100 0.712900 -0.012300
vn 0.700400 0.713600 0.012700
vn -0.005000 0.718400 0.695600
vn 0.579200 0.583900 0.568900
vn 0.000100 0.725200 -0.688500
vn 0.000100 0.725100 -0.688700
vn 0.000100 0.999700 0.025700
vn 0.000100 0.998700 0.051900
vn 0.005800 0.722900 -0.690900
vn 0.008400 0.999800 0.020600
vn -0.579200 0.585400 -0.567300
vn -0.701000 0.713100 0.012800
vn -0.000000 0.670800 0.741600
vn -0.000000 0.004000 1.000000
vn -0.000000 -1.000000 0.008000
vn 0.000000 0.999900 -0.014900
vn 0.000000 0.717600 0.696500
vn -0.006400 0.723300 -0.690500
vn 0.578800 0.585700 -0.567400
vn 0.005600 0.000000 1.000000
vn 0.000000 0.000000 0.000000
vn -1.000000 0.000000 0.005500
vn -0.011600 0.000000 -0.999900
vn -0.000000 0.000000 1.000000
vn 1.000000 0.000000 -0.001100
vn -1.000000 -0.000000 0.001100
vn -0.000800 -0.707100 -0.707100
vn -0.000800 0.707100 -0.707100
vn 0.000800 0.707100 0.707100
vn 0.000800 -0.707100 0.707100
vn 0.707100 0.707100 0.000000
vn -0.707100 0.707100 0.000000
vn -0.710600 -0.703600 0.004700
vn -0.580200 -0.577300 -0.574600
vn 0.580400 -0.577200 -0.574500
vn 0.710600 -0.703600 0.004700
vn 0.710600 -0.703600 -0.004700
vn 0.580400 -0.577200 0.574500
vn -0.580200 -0.577300 0.574600
vn -0.710600 -0.703600 -0.004700
usemtl desk_legs
s 1
f 6/1/1 7/2/1 4/3/1 1/4/1
f 7/5/2 4/6/3 3/7/4 8/8/5
f 5/9/6 2/10/7 1/8/8 6/7/9
f 16/11/10 14/12/11 10/13/4 9/14/5
f 12/10/6 11/9/7 13/15/12 15/16/13
f 23/6/10 20/5/11 19/12/4 24/11/5
f 24/17/5 19/18/4 18/19/7 21/20/6
f 21/16/6 18/15/7 17/21/12 22/22/13
f 31/23/1 32/24/1 30/25/1 29/26/1
f 32/27/2 30/28/3 26/22/4 25/21/5
f 28/29/6 27/30/7 29/28/8 31/27/9
f 85/4/14 88/3/14 91/2/14 90/1/14
f 92/8/12 87/7/13 88/6/9 91/5/8
f 90/7/3 85/8/2 86/10/10 89/9/11
f 93/14/12 94/13/13 98/12/6 100/11/7
f 99/16/4 97/15/5 95/9/10 96/10/11
f 108/11/12 103/12/13 104/5/6 107/6/7
f 105/20/11 102/19/10 103/18/13 108/17/12
f 106/22/4 101/21/5 102/15/10 105/16/11
f 113/26/14 114/25/14 116/24/14 115/23/14
f 109/21/12 110/22/13 114/28/9 116/27/8
f 115/27/3 113/28/2 111/30/10 112/29/11
usemtl desk_legs_Table_Texture_copy.png
f 22/31/13 17/32/12 20/33/11 23/34/10
f 8/35/5 3/36/4 2/37/7 5/38/6
f 107/34/7 104/33/6 101/32/5 106/31/4
f 89/38/11 86/37/10 87/36/13 92/35/12
usemtl Desk.001
f 1/39/8 2/40/7 3/41/4 4/42/3
f 5/43/6 6/44/9 7/45/2 8/46/5
f 9/47/5 10/48/4 11/49/7 12/50/6
f 13/51/12 11/52/7 10/53/4 14/54/11
f 12/46/6 15/45/13 16/52/10 9/51/5
f 17/42/12 18/41/7 19/44/4 20/43/11
f 21/54/6 22/53/13 23/55/10 24/56/5
f 27/36/7 28/35/6 25/57/5 26/58/4
f 29/59/8 27/60/7 26/61/4 30/62/3
f 28/56/6 31/55/9 32/60/2 25/59/5
f 33/63/15 36/64/2 35/65/5 34/66/16
f 37/67/17 40/68/17 39/69/15 38/70/15
f 40/68/17 42/71/10 41/72/2 39/69/15
f 43/73/15 46/74/15 45/75/9 44/76/9
f 45/75/9 46/74/15 48/77/15 47/78/9
f 47/78/9 48/77/15 50/79/16 49/80/6
f 38/70/18 43/73/19 51/73/15
f 48/77/15 33/63/15 34/66/16 50/79/16
f 41/72/2 55/81/2 54/82/2 36/64/2 33/63/15 53/83/15 52/84/15 39/69/15
f 56/85/9 38/70/15 43/73/15 44/76/9
f 57/86/13 37/67/17 38/70/15 56/85/9
f 46/74/15 51/73/15 43/73/19 38/70/15 39/69/15 52/84/15 53/83/15 33/63/15 48/77/15
f 88/42/9 87/41/13 86/40/10 85/39/2
f 92/46/12 91/45/8 90/44/3 89/43/11
f 96/50/11 95/49/10 94/48/13 93/47/12
f 98/54/6 94/53/13 95/52/10 97/51/5
f 93/51/12 100/52/7 99/45/4 96/46/11
f 104/43/6 103/44/13 102/41/10 101/42/5
f 108/56/12 107/55/7 106/53/4 105/54/11
f 110/58/13 109/57/12 112/35/11 111/36/10
f 114/62/9 110/61/13 111/60/10 113/59/2
f 109/59/12 116/60/8 115/55/3 112/56/11
f 118/66/20 119/65/21 120/64/22 117/63/23
f 122/70/24 123/69/25 124/68/26 121/67/27
f 123/69/25 125/72/28 126/71/29 124/68/26
f 128/76/30 129/75/31 130/74/32 127/73/33
f 131/78/34 132/77/35 130/74/32 129/75/31
f 133/80/36 134/79/37 132/77/35 131/78/34
f 135/73/38 127/73/39 122/70/40
f 134/79/37 118/66/20 117/63/23 132/77/35
f 123/69/25 136/84/41 137/83/41 117/63/23 120/64/22 138/82/42 139/81/42 125/72/28
f 128/76/30 127/73/33 122/70/24 140/85/43
f 140/85/43 122/70/24 121/67/27 141/86/44
f 132/77/35 117/63/23 137/83/41 136/84/41 123/69/25 122/70/24 127/73/39 135/73/38 130/74/32
f 51/73/45 46/74/46 130/74/47 135/73/45
f 46/74/46 43/73/48 127/73/48 130/74/47
f 38/70/49 51/73/45 135/73/45 122/70/49
usemtl desk_side_view
f 75/87/50 78/88/50 77/89/50 76/90/50
f 79/91/51 80/92/51 81/93/51 82/94/51
f 160/90/51 161/89/51 162/88/51 159/87/51
f 166/94/50 165/93/50 164/92/50 163/91/50
f 80/92/52 79/91/53 163/91/53 164/92/52
f 79/91/53 82/94/54 166/94/54 163/91/53
f 77/89/55 78/88/54 162/88/54 161/89/55
f 78/88/54 75/87/53 159/87/53 162/88/54
f 75/87/53 76/90/52 160/90/52 159/87/53
f 82/94/54 81/93/55 165/93/55 166/94/54
f 81/93/55 80/92/52 164/92/52 165/93/55
f 76/90/52 77/89/55 161/89/55 160/90/52
usemtl desk_side_view_Table_Texture_copy.png
f 14/95/11 16/96/10 15/97/13 13/98/12
f 97/98/5 99/97/4 100/96/7 98/95/6
usemtl desk_top
f 59/99/56 60/86/4 61/100/3 62/101/3 63/102/3 64/103/3 65/80/11 66/104/57 67/105/57 68/1/12 69/106/8 70/107/8 71/108/8 72/109/8 73/110/7 74/111/56
f 158/111/58 157/110/59 156/109/2 155/108/2 154/107/2 153/106/2 152/1/60 151/105/61 150/104/62 149/80/63 148/103/9 147/102/9 146/101/9 145/100/9 144/86/64 143/99/65
usemtl side_of_desk's_top
f 59/112/56 34/113/16 35/114/5 60/115/4
f 65/116/11 42/117/10 40/118/17 66/119/57
f 66/119/57 40/118/17 37/120/17 67/121/57
f 49/122/6 73/123/7 72/124/8 71/125/8 70/126/8 69/127/8 68/128/12 57/129/13 56/130/9 44/131/9 45/132/9 47/133/9
f 42/123/10 65/134/11 64/135/3 63/136/3 62/137/3 61/138/3 60/139/4 35/128/5 36/140/2 54/141/2 55/142/2 41/143/2
f 73/144/7 49/145/6 50/146/16 74/147/56
f 67/121/57 37/120/17 57/148/13 68/149/12
f 74/147/56 50/146/16 34/113/16 59/112/56
f 144/115/64 119/114/21 118/113/20 143/112/65
f 150/119/62 124/118/26 126/117/29 149/116/63
f 151/121/61 121/120/27 124/118/26 150/119/62
f 131/133/34 129/132/31 128/131/30 140/130/43 141/129/44 152/128/60 153/127/2 154/126/2 155/125/2 156/124/2 157/123/59 133/122/36
f 125/143/28 139/142/42 138/141/42 120/140/22 119/128/21 144/139/64 145/138/9 146/137/9 147/136/9 148/135/9 149/134/63 126/123/29
f 158/147/58 134/146/37 133/145/36 157/144/59
f 152/149/60 141/148/44 121/120/27 151/121/61
f 143/112/65 118/113/20 134/146/37 158/147/58
l 84 58
l 38 83
l 168 142
l 122 167
