# This file uses centimeters as units for non-parametric coordinates.

mtllib hatchLock_light.mtl
g default
v -1.021544 2.340908 -0.223746
v -1.279903 2.340908 -0.223746
v -1.409083 2.340908 -0.000000
v -1.279903 2.340908 0.223746
v -1.021544 2.340908 0.223746
v -0.892364 2.340908 -0.000000
v -1.038690 2.485941 -0.194047
v -1.262757 2.485941 -0.194047
v -1.374790 2.485941 -0.000000
v -1.262757 2.485941 0.194047
v -1.038690 2.485941 0.194047
v -0.926657 2.485941 -0.000000
v -1.086041 2.592113 -0.112033
v -1.215406 2.592113 -0.112033
v -1.280088 2.592113 -0.000000
v -1.215406 2.592113 0.112033
v -1.086041 2.592113 0.112033
v -1.021359 2.592113 -0.000000
v -1.150724 2.630974 -0.000000
v -0.948677 1.923211 -0.349955
v -1.352770 1.923211 -0.349955
v -1.554816 1.923211 -0.000000
v -1.352770 1.923211 0.349955
v -0.948677 1.923211 0.349955
v -0.746631 1.923211 -0.000000
v -0.948677 2.031509 -0.349955
v -1.352770 2.031509 -0.349955
v -1.554816 2.031509 -0.000000
v -1.352770 2.031509 0.349955
v -0.948677 2.031509 0.349955
v -0.746631 2.031509 -0.000000
v -1.021729 2.031101 -0.223425
v -1.279718 2.031101 -0.223426
v -1.408713 2.031101 -0.000000
v -1.279718 2.031101 0.223425
v -1.021729 2.031101 0.223425
v -0.892734 2.031101 -0.000000
v -1.328419 2.031373 0.307778
v -1.506115 2.031373 -0.000000
v -1.328419 2.031373 -0.307778
v -0.973028 2.031373 -0.307778
v -0.795332 2.031373 -0.000000
v -0.973028 2.031373 0.307778
v -0.955613 2.059076 -0.337941
v -1.345834 2.059076 -0.337941
v -1.334430 2.058956 -0.318190
v -0.967017 2.058956 -0.318190
v -1.540944 2.059076 -0.000000
v -1.518137 2.058956 -0.000000
v -1.345834 2.059076 0.337941
v -1.334431 2.058956 0.318190
v -0.955613 2.059076 0.337941
v -0.967017 2.058956 0.318190
v -0.760503 2.059076 -0.000000
v -0.783310 2.058956 -0.000000
vt 0.181703 0.196662
vt 0.328794 0.197382
vt 0.318627 0.279906
vt 0.191060 0.279281
vt 0.182672 0.020281
vt 0.329553 0.021000
vt 0.291373 0.340220
vt 0.217722 0.339859
vt 0.139008 0.580676
vt 0.456179 0.197798
vt 0.455909 0.280370
vt 0.345432 0.280009
vt 0.314960 0.483957
vt 0.456756 0.021416
vt 0.583565 0.198215
vt 0.566387 0.280731
vt 0.455712 0.340817
vt 0.391928 0.340609
vt 0.583958 0.021832
vt 0.519496 0.341025
vt 0.318379 0.467813
vt 0.730658 0.198455
vt 0.720761 0.281011
vt 0.593192 0.280803
vt 0.124430 0.572911
vt 0.730840 0.022071
vt 0.693704 0.341414
vt 0.620052 0.341294
vt 0.511631 0.575251
vt 0.858044 0.198455
vt 0.858044 0.281027
vt 0.747566 0.281027
vt 0.493346 0.579987
vt 0.858044 0.022071
vt 0.985430 0.198455
vt 0.968521 0.281027
vt 0.858044 0.341474
vt 0.794259 0.341474
vt 0.985247 0.022071
vt 0.921828 0.341474
vt 0.895604 0.381952
vt 0.895604 0.455604
vt 0.831820 0.418778
vt 0.831820 0.492430
vt 0.831820 0.345126
vt 0.768036 0.455604
vt 0.768036 0.381952
vt 0.511864 0.484981
vt 0.583353 0.811807
vt 0.530269 0.822044
vt 0.533987 0.559575
vt 0.371965 0.952378
vt 0.313846 0.929898
vt 0.512877 0.812752
vt 0.517995 0.568629
vt 0.407655 0.424114
vt 0.316925 0.439448
vt 0.123560 0.903720
vt 0.048543 0.555437
vt 0.096329 0.550048
vt 0.093837 0.809838
vt 0.277280 0.398564
vt 0.182332 0.611734
vt 0.119390 0.565606
vt 0.115445 0.810081
vt 0.230036 0.960528
vt 0.492595 0.797750
vt 0.038604 0.794680
vt 0.146622 0.473730
vt 0.507124 0.805744
vt 0.449236 0.611734
vt 0.314787 0.917959
vt 0.315065 0.908166
vt 0.317412 0.460845
vt 0.449236 0.765831
vt 0.594897 0.589982
vt 0.122952 0.803914
vt 0.484275 0.908210
vt 0.315784 0.534685
vt 0.315784 0.842880
vt 0.316685 0.893693
vt 0.138113 0.796634
vt 0.182332 0.765831
vn 0.498870 0.067207 -0.864067
vn -0.498870 0.067207 -0.864067
vn -0.460834 0.387978 -0.798188
vn 0.460834 0.387978 -0.798188
vn -0.997739 0.067207 -0.000000
vn -0.921669 0.387978 0.000000
vn -0.498870 0.067207 0.864067
vn -0.460834 0.387978 0.798189
vn 0.498869 0.067208 0.864067
vn 0.460834 0.387978 0.798189
vn 0.997739 0.067208 0.000000
vn 0.921669 0.387978 0.000000
vn -0.342716 0.728137 -0.593601
vn 0.342716 0.728137 -0.593601
vn -0.685432 0.728137 -0.000000
vn -0.342716 0.728137 0.593601
vn 0.342716 0.728137 0.593601
vn 0.685432 0.728137 -0.000000
vn -0.000000 1.000000 -0.000000
vn 0.500000 0.000000 -0.866026
vn -0.500000 0.000000 -0.866026
vn -0.498043 0.088385 -0.862637
vn 0.498043 0.088385 -0.862636
vn -1.000000 0.000000 0.000000
vn -0.996086 0.088385 -0.000000
vn -0.500000 0.000000 0.866025
vn -0.498043 0.088385 0.862636
vn 0.500000 0.000000 0.866026
vn 0.498043 0.088386 0.862636
vn 1.000000 0.000000 0.000000
vn 0.996086 0.088385 0.000000
vn -0.002629 0.999986 0.004556
vn 0.002629 0.999986 0.004555
vn 0.002629 0.999986 0.004555
vn -0.002629 0.999986 0.004556
vn 0.005258 0.999986 0.000001
vn 0.005258 0.999986 0.000001
vn 0.002629 0.999986 -0.004550
vn 0.002629 0.999986 -0.004550
vn -0.002629 0.999986 -0.004552
vn -0.002629 0.999986 -0.004552
vn -0.005258 0.999986 -0.000000
vn -0.005258 0.999986 -0.000000
vn 0.500000 -0.001195 -0.866025
vn -0.500000 -0.001195 -0.866025
vn -0.999999 -0.001195 -0.000001
vn -0.500000 -0.001195 0.866025
vn 0.500000 -0.001195 0.866025
vn 0.999999 -0.001194 0.000000
vn 0.002788 0.999996 0.000001
vn 0.002788 0.999996 0.000001
vn 0.001394 0.999996 -0.002414
vn 0.001394 0.999996 -0.002414
vn 0.001394 0.999996 0.002415
vn 0.001394 0.999996 0.002415
vn -0.001394 0.999996 0.002414
vn -0.001394 0.999996 0.002414
vn -0.002788 0.999996 -0.000001
vn -0.002788 0.999996 -0.000001
vn -0.001394 0.999996 -0.002415
vn -0.001394 0.999996 -0.002415
vn 0.000000 0.399516 -0.916726
vn 0.000000 0.399516 -0.916726
vn -0.000000 0.353148 0.935567
vn -0.000000 0.353148 0.935567
vn -0.000000 0.353148 0.935567
vn -0.000000 0.353148 0.935567
vn -0.793908 0.399516 -0.458364
vn -0.793908 0.399516 -0.458364
vn 0.810223 0.353150 0.467785
vn 0.810224 0.353150 0.467785
vn 0.810224 0.353150 0.467785
vn 0.810223 0.353150 0.467785
vn -0.793909 0.399516 0.458362
vn -0.793909 0.399516 0.458362
vn 0.810227 0.353144 -0.467784
vn 0.810227 0.353144 -0.467784
vn 0.810227 0.353144 -0.467784
vn 0.810227 0.353144 -0.467784
vn 0.000000 0.399516 0.916726
vn 0.000000 0.399516 0.916726
vn 0.000000 0.353147 -0.935568
vn 0.000000 0.353147 -0.935568
vn 0.000000 0.353147 -0.935568
vn 0.000000 0.353147 -0.935568
vn 0.793906 0.399521 0.458363
vn 0.793906 0.399521 0.458363
vn -0.810227 0.353144 -0.467784
vn -0.810227 0.353144 -0.467784
vn -0.810227 0.353144 -0.467784
vn -0.810227 0.353144 -0.467784
vn 0.793908 0.399515 -0.458364
vn 0.793908 0.399515 -0.458364
vn -0.810225 0.353150 0.467783
vn -0.810225 0.353150 0.467783
vn -0.810225 0.353150 0.467783
vn -0.810225 0.353150 0.467783
s 1
g pSphere4
usemtl lambert5SG
f 1/1/1 2/2/2 8/3/3 7/4/4
f 2/2/2 3/10/5 9/11/6 8/12/3
f 3/10/5 4/15/7 10/16/8 9/11/6
f 4/15/7 5/22/9 11/23/10 10/24/8
f 5/22/9 6/30/11 12/31/12 11/32/10
f 6/30/11 1/35/1 7/36/4 12/31/12
f 7/4/4 8/3/3 14/7/13 13/8/14
f 8/12/3 9/11/6 15/17/15 14/18/13
f 9/11/6 10/16/8 16/20/16 15/17/15
f 10/24/8 11/23/10 17/27/17 16/28/16
f 11/32/10 12/31/12 18/37/18 17/38/17
f 12/31/12 7/36/4 13/40/14 18/37/18
f 13/41/14 14/42/13 19/43/19
f 14/42/13 15/44/15 19/43/19
f 15/44/15 16/46/16 19/43/19
f 16/46/16 17/47/17 19/43/19
f 17/47/17 18/45/18 19/43/19
f 18/45/18 13/41/14 19/43/19
s 2
f 20/76/20 21/49/21 27/50/22 26/51/23
f 21/78/21 22/52/24 28/53/25 27/50/22
f 22/66/24 23/58/26 29/61/27 28/53/25
f 23/68/26 24/59/28 30/60/29 29/61/27
f 24/69/28 25/62/30 31/57/31 30/60/29
f 25/56/30 20/48/20 26/51/23 31/57/31
s 3
f 44/55/32 45/54/33 46/70/34 47/29/35
f 45/54/33 48/72/36 49/73/37 46/70/34
f 48/72/36 50/65/38 51/77/39 49/73/37
f 50/65/38 52/64/40 53/25/41 51/77/39
f 52/64/40 54/74/42 55/21/43 53/25/41
f 54/74/42 44/55/32 47/29/35 55/21/43
s 1
f 32/5/44 33/6/45 2/2/2 1/1/1
f 33/6/45 34/14/46 3/10/5 2/2/2
f 34/14/46 35/19/47 4/15/7 3/10/5
f 35/19/47 36/26/48 5/22/9 4/15/7
f 36/26/48 37/34/49 6/30/11 5/22/9
f 37/34/49 32/39/44 1/35/1 6/30/11
s 4
f 34/80/50 39/81/51 38/82/52 35/83/53
f 33/75/54 40/67/55 39/81/51 34/80/50
f 32/71/56 41/33/57 40/67/55 33/75/54
f 37/79/58 42/13/59 41/33/57 32/71/56
f 36/63/60 43/9/61 42/13/59 37/79/58
f 35/83/53 38/82/52 43/9/61 36/63/60
s 2
f 26/51/23 27/50/22 45/54/62 44/55/63
s off
f 40/67/64 41/33/65 47/29/66 46/70/67
s 2
f 27/50/22 28/53/25 48/72/68 45/54/69
s off
f 39/81/70 40/67/71 46/70/72 49/73/73
s 2
f 28/53/25 29/61/27 50/65/74 48/72/75
s off
f 38/82/76 39/81/77 49/73/78 51/77/79
s 2
f 29/61/27 30/60/29 52/64/80 50/65/81
s off
f 43/9/82 38/82/83 51/77/84 53/25/85
s 2
f 30/60/29 31/57/31 54/74/86 52/64/87
s off
f 42/13/88 43/9/89 53/25/90 55/21/91
s 2
f 31/57/31 26/51/23 44/55/92 54/74/93
s off
f 41/33/94 42/13/95 55/21/96 47/29/97
