# This file uses centimeters as units for non-parametric coordinates.

mtllib arrow.mtl
g default
v -0.026029 -0.112423 -0.854038
v 0.026029 -0.112423 -0.854038
v -0.211763 0.112424 -0.854038
v 0.211763 0.112424 -0.854038
v -0.211763 0.112424 -0.519895
v 0.211763 0.112424 -0.519895
v -0.026029 -0.112423 -0.519895
v 0.026029 -0.112423 -0.519895
v -0.211763 0.112424 -0.830423
v -0.026029 -0.112423 -0.830423
v 0.026029 -0.112423 -0.830423
v 0.211763 0.112424 -0.830423
v -0.211763 0.112424 -0.759429
v -0.026029 -0.112423 -0.759429
v 0.026029 -0.112423 -0.759429
v 0.211763 0.112424 -0.759429
v -0.037433 -0.116036 -0.766374
v -0.037433 -0.116036 -0.823478
v -0.217464 0.101907 -0.823478
v -0.217464 0.101907 -0.766374
v -0.025229 -0.123517 -0.766374
v 0.025230 -0.123517 -0.766374
v 0.025230 -0.123517 -0.823478
v -0.025229 -0.123517 -0.823478
v 0.037433 -0.116036 -0.823478
v 0.217464 0.101907 -0.823478
v 0.037433 -0.116036 -0.766374
v 0.217464 0.101907 -0.766374
v 0.205261 0.123517 -0.823478
v -0.205261 0.123517 -0.823478
v 0.205261 0.123517 -0.766374
v -0.205261 0.123517 -0.766374
v -0.018970 -0.081937 -0.854038
v 0.018971 -0.081937 -0.854038
v 0.154339 0.081937 -0.854038
v -0.154339 0.081937 -0.854038
v -0.018970 -0.081937 -0.863463
v 0.018971 -0.081937 -0.863463
v 0.154339 0.081937 -0.863463
v -0.154339 0.081937 -0.863463
v -0.026029 -0.112423 0.854038
v 0.026029 -0.112423 0.854038
v -0.211763 0.112424 0.854038
v 0.211763 0.112424 0.854038
v -0.211763 0.112424 0.519895
v 0.211763 0.112424 0.519895
v -0.026029 -0.112423 0.519895
v 0.026029 -0.112423 0.519895
v -0.211763 0.112424 0.830423
v -0.026029 -0.112423 0.830423
v 0.026029 -0.112423 0.830423
v 0.211763 0.112424 0.830423
v -0.211763 0.112424 0.759429
v -0.026029 -0.112423 0.759429
v 0.026029 -0.112423 0.759429
v 0.211763 0.112424 0.759429
v -0.037433 -0.116036 0.766374
v -0.037433 -0.116036 0.823478
v -0.217464 0.101907 0.823478
v -0.217464 0.101907 0.766374
v -0.025229 -0.123517 0.766374
v 0.025230 -0.123517 0.766374
v 0.025230 -0.123517 0.823478
v -0.025229 -0.123517 0.823478
v 0.037433 -0.116036 0.823478
v 0.217464 0.101907 0.823478
v 0.037433 -0.116036 0.766374
v 0.217464 0.101907 0.766374
v 0.205261 0.123517 0.823478
v -0.205261 0.123517 0.823478
v 0.205261 0.123517 0.766374
v -0.205261 0.123517 0.766374
v -0.018970 -0.081937 0.854038
v 0.018971 -0.081937 0.854038
v 0.154339 0.081937 0.854038
v -0.154339 0.081937 0.854038
v -0.018970 -0.081937 0.863463
v 0.018971 -0.081937 0.863463
v 0.154339 0.081937 0.863463
v -0.154339 0.081937 0.863463
vt 0.422435 0.456474
vt 0.298678 0.558703
vt 0.298678 0.325592
vt 0.422435 0.427821
vt 0.680548 0.645436
vt 0.662715 0.645436
vt 0.662715 0.325591
vt 0.680548 0.325591
vt 0.657470 0.640526
vt 0.657470 0.330502
vt 0.609101 0.645436
vt 0.614345 0.640526
vt 0.614345 0.330502
vt 0.609101 0.325591
vt 0.428206 0.645436
vt 0.428206 0.325591
vt 0.704153 0.505171
vt 0.686319 0.505171
vt 0.686319 0.465857
vt 0.704153 0.465857
vt 0.704153 0.645436
vt 0.686319 0.645436
vt 0.686319 0.325591
vt 0.704153 0.325591
vt 0.709398 0.466460
vt 0.709398 0.504567
vt 0.752522 0.504567
vt 0.752522 0.466460
vt 0.757767 0.505171
vt 0.757767 0.465857
vt 0.938661 0.505171
vt 0.938661 0.465857
vt 0.938661 0.645436
vt 0.757767 0.645436
vt 0.757767 0.325591
vt 0.938661 0.325591
vt 0.637979 0.825476
vt 0.632734 0.834089
vt 0.589609 0.834089
vt 0.584365 0.825476
vt 0.632734 0.970048
vt 0.589609 0.970048
vt 0.753370 0.818994
vt 0.744758 0.821722
vt 0.608799 0.657133
vt 0.613104 0.649191
vt 0.400441 0.879090
vt 0.392499 0.873845
vt 0.392499 0.830721
vt 0.400441 0.825476
vt 0.006179 0.734989
vt 0.001874 0.727047
vt 0.137832 0.562457
vt 0.146445 0.565186
vt 0.344720 0.879090
vt 0.336342 0.873845
vt 0.336342 0.830721
vt 0.344720 0.825476
vt 0.386728 0.879090
vt 0.378351 0.873845
vt 0.378351 0.830721
vt 0.386728 0.825476
vt 0.901208 0.649190
vt 0.905514 0.657133
vt 0.769555 0.821722
vt 0.760943 0.818994
vt 0.406211 0.970047
vt 0.411456 0.961435
vt 0.454581 0.961435
vt 0.459825 0.970047
vt 0.411456 0.825476
vt 0.454581 0.825476
vt 0.152368 0.565186
vt 0.160980 0.562457
vt 0.296939 0.727047
vt 0.292633 0.734989
vt 0.330572 0.879090
vt 0.322629 0.873845
vt 0.322629 0.830721
vt 0.330572 0.825476
vt 0.171677 0.181572
vt 0.148654 0.176241
vt 0.148654 0.147588
vt 0.171677 0.142258
vt 0.001874 0.321837
vt 0.024897 0.278471
vt 0.024897 0.045359
vt 0.001874 0.001992
vt 0.124716 0.456474
vt 0.117599 0.456474
vt 0.117599 0.427821
vt 0.124716 0.427821
vt 0.124716 0.558703
vt 0.117599 0.558703
vt 0.117599 0.325592
vt 0.124716 0.325592
vt 0.285790 0.325591
vt 0.292908 0.325591
vt 0.292908 0.558703
vt 0.285790 0.558703
vt 0.156262 0.456474
vt 0.156262 0.427821
vt 0.280020 0.325592
vt 0.280020 0.558703
vt 0.178030 0.321837
vt 0.178030 0.001992
vt 0.195864 0.001992
vt 0.195864 0.321837
vt 0.201109 0.006903
vt 0.201109 0.316927
vt 0.249478 0.001992
vt 0.244234 0.006903
vt 0.244234 0.316927
vt 0.249478 0.321837
vt 0.430373 0.001992
vt 0.430373 0.321837
vt 0.671000 0.181571
vt 0.671000 0.142258
vt 0.688834 0.142258
vt 0.688834 0.181571
vt 0.665756 0.180968
vt 0.665756 0.142861
vt 0.671000 0.001992
vt 0.688834 0.001992
vt 0.688834 0.321837
vt 0.671000 0.321837
vt 0.622631 0.180968
vt 0.622631 0.142861
vt 0.617386 0.181571
vt 0.617386 0.142258
vt 0.436492 0.181571
vt 0.436492 0.142258
vt 0.617386 0.001992
vt 0.436492 0.001992
vt 0.617386 0.321837
vt 0.436492 0.321837
vt 0.524980 0.825476
vt 0.578594 0.825476
vt 0.573349 0.834088
vt 0.530225 0.834088
vt 0.573349 0.970047
vt 0.530225 0.970047
vt 0.449083 0.651919
vt 0.308817 0.821722
vt 0.304511 0.813780
vt 0.440470 0.649190
vt 0.372580 0.825476
vt 0.372580 0.879090
vt 0.364638 0.873845
vt 0.364638 0.830721
vt 0.798396 0.825476
vt 0.938661 0.995280
vt 0.930049 0.998008
vt 0.794090 0.833419
vt 0.316859 0.825476
vt 0.316859 0.879090
vt 0.308481 0.873845
vt 0.308481 0.830721
vt 0.358867 0.825476
vt 0.358867 0.879090
vt 0.350490 0.873846
vt 0.350490 0.830721
vt 0.596921 0.821722
vt 0.456655 0.651919
vt 0.465267 0.649190
vt 0.601226 0.813780
vt 0.519210 0.970047
vt 0.465596 0.970047
vt 0.470840 0.961435
vt 0.513965 0.961435
vt 0.513965 0.825476
vt 0.470840 0.825476
vt 0.643749 0.995280
vt 0.784015 0.825476
vt 0.788320 0.833419
vt 0.652361 0.998008
vt 0.302711 0.825476
vt 0.302711 0.879090
vt 0.294768 0.873845
vt 0.294768 0.830721
vt 0.694953 0.181571
vt 0.694953 0.142258
vt 0.717976 0.147588
vt 0.717976 0.176241
vt 0.864756 0.001992
vt 0.841733 0.045359
vt 0.864756 0.321837
vt 0.841733 0.278470
vt 0.143374 0.456474
vt 0.143374 0.427821
vt 0.150492 0.427821
vt 0.150492 0.456474
vt 0.143374 0.325591
vt 0.150492 0.325591
vt 0.143374 0.558703
vt 0.150492 0.558703
vt 0.137604 0.325591
vt 0.137604 0.558703
vt 0.130487 0.558703
vt 0.130487 0.325591
vn 0.000000 0.000000 -1.000000
vn 0.000000 0.000000 -1.000000
vn 0.000000 0.000000 -1.000000
vn 0.000000 0.000000 -1.000000
vn 0.000000 1.000000 0.000000
vn 0.000000 1.000000 0.000000
vn 0.000000 1.000000 0.000000
vn 0.000000 1.000000 0.000000
vn 0.000000 -1.000000 0.000000
vn 0.000000 -1.000000 0.000000
vn 0.000000 -1.000000 0.000000
vn 0.000000 -1.000000 0.000000
vn 0.770977 -0.636864 0.000000
vn 0.770977 -0.636864 0.000000
vn 0.770977 -0.636864 0.000000
vn 0.770977 -0.636864 0.000000
vn -0.770976 -0.636864 0.000000
vn -0.770976 -0.636864 0.000000
vn -0.770976 -0.636864 0.000000
vn -0.770976 -0.636864 0.000000
vn -0.770976 -0.636864 0.000000
vn -0.770976 -0.636864 0.000000
vn -0.770976 -0.636864 0.000000
vn -0.770976 -0.636864 0.000000
vn 0.000000 -1.000000 0.000000
vn 0.000000 -1.000000 0.000000
vn 0.000000 -1.000000 0.000000
vn 0.000000 -1.000000 0.000000
vn 0.770977 -0.636863 0.000000
vn 0.770977 -0.636863 0.000000
vn 0.770977 -0.636863 0.000000
vn 0.770977 -0.636863 0.000000
vn 0.000000 1.000000 0.000000
vn 0.000000 1.000000 0.000000
vn 0.000000 1.000000 0.000000
vn 0.000000 1.000000 0.000000
vn -0.770976 -0.636864 0.000000
vn -0.770976 -0.636864 0.000000
vn -0.770976 -0.636864 0.000000
vn -0.770976 -0.636864 0.000000
vn 0.000000 -1.000000 0.000000
vn 0.000000 -1.000000 0.000000
vn 0.000000 -1.000000 0.000000
vn 0.000000 -1.000000 0.000000
vn 0.770977 -0.636863 0.000000
vn 0.770977 -0.636863 0.000000
vn 0.770977 -0.636863 0.000000
vn 0.770977 -0.636863 0.000000
vn 0.000000 1.000000 0.000000
vn 0.000000 1.000000 0.000000
vn 0.000000 1.000000 0.000000
vn 0.000000 1.000000 0.000000
vn 0.302000 -0.953308 0.000000
vn 0.302000 -0.953308 0.000000
vn 0.302000 -0.953308 0.000000
vn 0.302000 -0.953308 0.000000
vn -0.409116 -0.337947 -0.847594
vn -0.409116 -0.337947 -0.847594
vn -0.409116 -0.337947 -0.847594
vn -0.409116 -0.337947 -0.847594
vn -0.870632 0.491935 0.000000
vn -0.879141 0.476562 0.000000
vn -0.879141 0.476562 0.000000
vn -0.870632 0.491936 0.000000
vn -0.409110 -0.337943 0.847598
vn -0.409110 -0.337943 0.847598
vn -0.409110 -0.337943 0.847598
vn -0.409110 -0.337943 0.847598
vn 0.000000 -0.530638 0.847599
vn 0.000000 -0.530638 0.847599
vn 0.000000 -0.530638 0.847599
vn 0.000000 -0.530638 0.847599
vn 0.997415 -0.071851 0.000000
vn 0.997415 -0.071851 0.000000
vn 0.997415 -0.071851 0.000000
vn 0.997415 -0.071851 0.000000
vn 0.000000 -0.530644 -0.847595
vn 0.000000 -0.530644 -0.847595
vn 0.000000 -0.530644 -0.847595
vn 0.000000 -0.530644 -0.847595
vn -0.997413 -0.071882 0.000000
vn -0.997413 -0.071882 0.000000
vn -0.997413 -0.071882 0.000000
vn -0.997413 -0.071882 0.000000
vn 0.409117 -0.337948 -0.847594
vn 0.409117 -0.337948 -0.847594
vn 0.409117 -0.337948 -0.847594
vn 0.409117 -0.337948 -0.847594
vn -0.301998 -0.953309 0.000000
vn -0.301998 -0.953308 0.000000
vn -0.301998 -0.953309 0.000000
vn -0.301998 -0.953309 0.000000
vn 0.409111 -0.337943 0.847598
vn 0.409111 -0.337944 0.847598
vn 0.409111 -0.337943 0.847598
vn 0.409111 -0.337943 0.847598
vn 0.870634 0.491932 0.000000
vn 0.879143 0.476559 0.000000
vn 0.879143 0.476559 0.000000
vn 0.870634 0.491932 0.000000
vn 0.000000 0.530645 -0.847594
vn 0.000000 0.530645 -0.847594
vn 0.000000 0.530645 -0.847594
vn 0.000000 0.530645 -0.847594
vn 0.862713 0.505695 0.000000
vn 0.862713 0.505695 0.000000
vn 0.000000 0.530638 0.847598
vn 0.000000 0.530638 0.847598
vn 0.000000 0.530638 0.847598
vn 0.000000 0.530638 0.847598
vn -0.862711 0.505698 0.000000
vn -0.862711 0.505698 0.000000
vn 0.000000 0.000000 -1.000000
vn 0.000000 0.000000 -1.000000
vn 0.000000 0.000000 -1.000000
vn 0.000000 0.000000 -1.000000
vn 0.000000 0.000000 -1.000000
vn 0.000000 0.000000 -1.000000
vn 0.000000 0.000000 -1.000000
vn 0.000000 0.000000 -1.000000
vn 0.000000 0.000000 -1.000000
vn 0.000000 0.000000 -1.000000
vn 0.000000 0.000000 -1.000000
vn 0.000000 0.000000 -1.000000
vn 0.000000 0.000000 -1.000000
vn 0.000000 0.000000 -1.000000
vn 0.000000 0.000000 -1.000000
vn 0.000000 0.000000 -1.000000
vn 0.000000 -1.000000 0.000000
vn 0.000000 -1.000000 0.000000
vn 0.000000 -1.000000 0.000000
vn 0.000000 -1.000000 0.000000
vn 0.770974 -0.636866 0.000000
vn 0.770974 -0.636866 0.000000
vn 0.770974 -0.636866 0.000000
vn 0.770974 -0.636866 0.000000
vn 0.000000 1.000000 0.000000
vn 0.000000 1.000000 0.000000
vn 0.000000 1.000000 0.000000
vn 0.000000 1.000000 0.000000
vn -0.770974 -0.636866 0.000000
vn -0.770974 -0.636866 0.000000
vn -0.770974 -0.636866 0.000000
vn -0.770974 -0.636866 0.000000
vn 0.000000 0.000000 1.000000
vn 0.000000 0.000000 1.000000
vn 0.000000 0.000000 1.000000
vn 0.000000 0.000000 1.000000
vn 0.000000 1.000000 0.000000
vn 0.000000 1.000000 0.000000
vn 0.000000 1.000000 0.000000
vn 0.000000 1.000000 0.000000
vn 0.000000 -1.000000 0.000000
vn 0.000000 -1.000000 0.000000
vn 0.000000 -1.000000 0.000000
vn 0.000000 -1.000000 0.000000
vn 0.770977 -0.636864 0.000000
vn 0.770977 -0.636864 0.000000
vn 0.770977 -0.636864 0.000000
vn 0.770977 -0.636864 0.000000
vn -0.770976 -0.636864 0.000000
vn -0.770976 -0.636864 0.000000
vn -0.770976 -0.636864 0.000000
vn -0.770976 -0.636864 0.000000
vn -0.770976 -0.636864 0.000000
vn -0.770976 -0.636864 0.000000
vn -0.770976 -0.636864 0.000000
vn -0.770976 -0.636864 0.000000
vn 0.000000 -1.000000 0.000000
vn 0.000000 -1.000000 0.000000
vn 0.000000 -1.000000 0.000000
vn 0.000000 -1.000000 0.000000
vn 0.770977 -0.636863 0.000000
vn 0.770977 -0.636863 0.000000
vn 0.770977 -0.636863 0.000000
vn 0.770977 -0.636863 0.000000
vn 0.000000 1.000000 0.000000
vn 0.000000 1.000000 0.000000
vn 0.000000 1.000000 0.000000
vn 0.000000 1.000000 0.000000
vn -0.770976 -0.636864 0.000000
vn -0.770976 -0.636864 0.000000
vn -0.770976 -0.636864 0.000000
vn -0.770976 -0.636864 0.000000
vn 0.000000 -1.000000 0.000000
vn 0.000000 -1.000000 0.000000
vn 0.000000 -1.000000 0.000000
vn 0.000000 -1.000000 0.000000
vn 0.770977 -0.636863 0.000000
vn 0.770977 -0.636863 0.000000
vn 0.770977 -0.636863 0.000000
vn 0.770977 -0.636863 0.000000
vn 0.000000 1.000000 0.000000
vn 0.000000 1.000000 0.000000
vn 0.000000 1.000000 0.000000
vn 0.000000 1.000000 0.000000
vn 0.301998 -0.953309 0.000000
vn 0.301998 -0.953309 0.000000
vn 0.301998 -0.953309 0.000000
vn 0.301998 -0.953309 0.000000
vn -0.409110 -0.337948 0.847597
vn -0.409110 -0.337948 0.847597
vn -0.409110 -0.337948 0.847597
vn -0.409110 -0.337948 0.847597
vn -0.870630 0.491938 0.000000
vn -0.870630 0.491938 0.000000
vn -0.879139 0.476566 0.000000
vn -0.879139 0.476566 0.000000
vn -0.409109 -0.337943 -0.847599
vn -0.409110 -0.337943 -0.847599
vn -0.409109 -0.337943 -0.847599
vn -0.409109 -0.337943 -0.847599
vn 0.000000 -0.530638 -0.847599
vn 0.000000 -0.530638 -0.847599
vn 0.000000 -0.530638 -0.847599
vn 0.000000 -0.530638 -0.847599
vn 0.997416 -0.071849 0.000000
vn 0.997416 -0.071849 0.000000
vn 0.997416 -0.071849 0.000000
vn 0.997416 -0.071849 0.000000
vn 0.000000 -0.530644 0.847595
vn 0.000000 -0.530644 0.847595
vn 0.000000 -0.530644 0.847595
vn 0.000000 -0.530644 0.847595
vn -0.997413 -0.071880 0.000000
vn -0.997413 -0.071880 0.000000
vn -0.997413 -0.071880 0.000000
vn -0.997413 -0.071880 0.000000
vn 0.409112 -0.337948 0.847596
vn 0.409112 -0.337948 0.847596
vn 0.409112 -0.337948 0.847596
vn 0.409112 -0.337948 0.847596
vn -0.301999 -0.953308 0.000000
vn -0.301999 -0.953308 0.000000
vn -0.301999 -0.953308 0.000000
vn -0.301999 -0.953308 0.000000
vn 0.409111 -0.337943 -0.847598
vn 0.409111 -0.337943 -0.847598
vn 0.409111 -0.337943 -0.847598
vn 0.409111 -0.337943 -0.847598
vn 0.870633 0.491933 0.000000
vn 0.870633 0.491933 0.000000
vn 0.879142 0.476560 0.000000
vn 0.879142 0.476560 0.000000
vn 0.000000 0.530645 0.847594
vn 0.000000 0.530645 0.847594
vn 0.000000 0.530645 0.847594
vn 0.000000 0.530645 0.847594
vn 0.862712 0.505695 0.000000
vn 0.862712 0.505695 0.000000
vn 0.000000 0.530639 -0.847598
vn 0.000000 0.530639 -0.847598
vn 0.000000 0.530639 -0.847598
vn 0.000000 0.530639 -0.847598
vn -0.862710 0.505699 0.000000
vn -0.862710 0.505699 0.000000
vn 0.000000 0.000000 1.000000
vn 0.000000 0.000000 1.000000
vn 0.000000 0.000000 1.000000
vn 0.000000 0.000000 1.000000
vn 0.000001 0.000000 1.000000
vn 0.000001 0.000000 1.000000
vn 0.000001 0.000000 1.000000
vn 0.000001 0.000000 1.000000
vn 0.000000 0.000000 1.000000
vn 0.000000 0.000000 1.000000
vn 0.000000 0.000000 1.000000
vn 0.000000 0.000000 1.000000
vn -0.000003 0.000000 1.000000
vn -0.000003 0.000000 1.000000
vn -0.000003 0.000000 1.000000
vn -0.000003 0.000000 1.000000
vn 0.000000 -1.000000 0.000000
vn 0.000000 -1.000000 0.000000
vn 0.000000 -1.000000 0.000000
vn 0.000000 -1.000000 0.000000
vn 0.770977 -0.636863 0.000000
vn 0.770977 -0.636863 0.000000
vn 0.770977 -0.636863 0.000000
vn 0.770977 -0.636863 0.000000
vn 0.000000 1.000000 0.000000
vn 0.000000 1.000000 0.000000
vn 0.000000 1.000000 0.000000
vn 0.000000 1.000000 0.000000
vn -0.770977 -0.636863 0.000000
vn -0.770977 -0.636863 0.000000
vn -0.770977 -0.636863 0.000000
vn -0.770977 -0.636863 0.000000
s off
g pCube12
usemtl initialShadingGroup
f 37/1/1 40/2/2 39/3/3 38/4/4
f 3/5/5 9/6/6 12/7/7 4/8/8
f 10/17/9 1/18/10 2/19/11 11/20/12
f 2/19/13 4/23/14 12/24/15 11/20/16
f 10/17/17 9/21/18 3/22/19 1/18/20
f 17/38/21 20/41/22 19/42/23 18/39/24
f 21/27/25 24/26/26 23/25/27 22/28/28
f 26/71/29 28/72/30 27/69/31 25/68/32
f 30/9/33 32/12/34 31/13/35 29/10/36
f 7/31/37 5/33/38 13/34/39 14/29/40
f 7/31/41 14/29/42 15/30/43 8/32/44
f 16/35/45 6/36/46 8/32/47 15/30/48
f 13/11/49 5/15/50 6/16/51 16/14/52
f 14/37/53 17/38/54 18/39/55 10/40/56
f 10/43/57 18/44/58 19/45/59 9/46/60
s 1
f 9/47/61 19/48/62 20/49/63 13/50/64
s off
f 13/51/65 20/52/66 17/53/67 14/54/68
f 14/29/69 21/27/70 22/28/71 15/30/72
f 15/55/73 22/56/74 23/57/75 11/58/76
f 11/20/77 23/25/78 24/26/79 10/17/80
f 10/59/81 24/60/82 21/61/83 14/62/84
f 12/63/85 26/64/86 25/65/87 11/66/88
f 11/67/89 25/68/90 27/69/91 15/70/92
f 15/73/93 27/74/94 28/75/95 16/76/96
s 2
f 16/77/97 28/78/98 26/79/99 12/80/100
s off
f 9/6/101 30/9/102 29/10/103 12/7/104
s 2
f 12/7/100 29/10/105 31/13/106 16/14/97
s off
f 16/14/107 31/13/108 32/12/109 13/11/110
s 1
f 13/11/64 32/12/111 30/9/112 9/6/61
s off
f 1/81/113 33/82/114 34/83/115 2/84/116
f 2/84/117 34/83/118 35/87/119 4/88/120
f 4/88/121 35/87/122 36/86/123 3/85/124
f 3/85/125 36/86/126 33/82/127 1/81/128
f 33/89/129 37/90/130 38/91/131 34/92/132
f 34/92/133 38/91/134 39/95/135 35/96/136
f 35/97/137 39/98/138 40/99/139 36/100/140
f 36/93/141 40/94/142 37/90/143 33/89/144
f 77/101/145 78/102/146 79/103/147 80/104/148
f 43/105/149 44/106/150 52/107/151 49/108/152
f 50/117/153 51/118/154 42/119/155 41/120/156
f 42/119/157 51/118/158 52/123/159 44/124/160
f 50/117/161 41/120/162 43/125/163 49/126/164
f 57/140/165 58/139/166 59/141/167 60/142/168
f 61/127/169 62/128/170 63/122/171 64/121/172
f 66/171/173 65/170/174 67/169/175 68/172/176
f 70/110/177 69/109/178 71/112/179 72/113/180
f 47/131/181 54/129/182 53/135/183 45/136/184
f 47/131/185 48/132/186 55/130/187 54/129/188
f 56/133/189 55/130/190 48/132/191 46/134/192
f 53/114/193 56/111/194 46/115/195 45/116/196
f 54/137/197 50/138/198 58/139/199 57/140/200
f 50/143/201 49/144/202 59/145/203 58/146/204
s 3
f 49/147/205 53/148/206 60/149/207 59/150/208
s off
f 53/151/209 54/152/210 57/153/211 60/154/212
f 54/129/213 55/130/214 62/128/215 61/127/216
f 55/155/217 51/156/218 63/157/219 62/158/220
f 51/118/221 50/117/222 64/121/223 63/122/224
f 50/159/225 54/160/226 61/161/227 64/162/228
f 52/163/229 51/164/230 65/165/231 66/166/232
f 51/167/233 55/168/234 67/169/235 65/170/236
f 55/173/237 56/174/238 68/175/239 67/176/240
s 4
f 56/177/241 52/178/242 66/179/243 68/180/244
s off
f 49/108/245 52/107/246 69/109/247 70/110/248
s 4
f 52/107/242 56/111/241 71/112/249 69/109/250
s off
f 56/111/251 53/114/252 72/113/253 71/112/254
s 3
f 53/114/206 49/108/205 70/110/255 72/113/256
s off
f 41/181/257 42/182/258 74/183/259 73/184/260
f 42/182/261 44/185/262 75/186/263 74/183/264
f 44/185/265 43/187/266 76/188/267 75/186/268
f 43/187/269 41/181/270 73/184/271 76/188/272
f 73/189/273 74/190/274 78/191/275 77/192/276
f 74/190/277 75/193/278 79/194/279 78/191/280
f 75/197/281 76/198/282 80/199/283 79/200/284
f 76/195/285 73/189/286 77/192/287 80/196/288
