# This file uses centimeters as units for non-parametric coordinates.

mtllib numberWheel.mtl
g default
v 0.000000 -0.252053 0.000000
v 0.000000 0.252053 0.000000
v 0.784020 -0.252053 -0.605947
v 0.818565 -0.252053 -0.558399
v 0.818565 0.252053 -0.558399
v 0.784020 0.252053 -0.605947
v 0.278118 -0.252053 -0.951057
v 0.334014 -0.252053 -0.932895
v 0.334014 0.252053 -0.932895
v 0.278118 0.252053 -0.951057
v -0.334015 -0.252053 -0.932895
v -0.278119 -0.252053 -0.951057
v -0.278119 0.252053 -0.951057
v -0.334015 0.252053 -0.932895
v -0.818565 -0.252053 -0.558399
v -0.784020 -0.252053 -0.605947
v -0.784020 0.252053 -0.605947
v -0.818565 0.252053 -0.558399
v -0.990452 -0.252053 0.029386
v -0.990452 -0.252053 -0.029386
v -0.990452 0.252053 -0.029386
v -0.990452 0.252053 0.029386
v -0.784020 -0.252053 0.605947
v -0.818565 -0.252053 0.558399
v -0.818565 0.252053 0.558399
v -0.784020 0.252053 0.605947
v -0.278118 -0.252053 0.951057
v -0.334014 -0.252053 0.932895
v -0.334014 0.252053 0.932895
v -0.278118 0.252053 0.951057
v 0.334015 -0.252053 0.932895
v 0.278118 -0.252053 0.951057
v 0.278118 0.252053 0.951057
v 0.334015 0.252053 0.932895
v 0.818565 -0.252053 0.558399
v 0.784020 -0.252053 0.605947
v 0.784020 0.252053 0.605947
v 0.818565 0.252053 0.558399
v 0.990452 -0.252053 -0.029386
v 0.990452 -0.252053 0.029386
v 0.990452 0.252053 0.029386
v 0.990452 0.252053 -0.029386
v 0.814494 0.252053 -0.647892
v 0.814494 -0.252053 -0.647892
v 0.364489 -0.252053 -0.974839
v 0.364489 0.252053 -0.974839
v 0.278118 0.252053 -1.002903
v 0.278118 -0.252053 -1.002903
v -0.278119 -0.252053 -1.002903
v -0.278119 0.252053 -1.002903
v -0.364489 0.252053 -0.974839
v -0.364489 -0.252053 -0.974839
v -0.814494 -0.252053 -0.647891
v -0.814494 0.252053 -0.647891
v -0.867874 0.252053 -0.574420
v -0.867874 -0.252053 -0.574420
v -1.039760 -0.252053 -0.045408
v -1.039760 0.252053 -0.045408
v -1.039760 0.252053 0.045408
v -1.039760 -0.252053 0.045408
v -0.867874 -0.252053 0.574420
v -0.867874 0.252053 0.574420
v -0.814494 0.252053 0.647891
v -0.814494 -0.252053 0.647891
v -0.364489 -0.252053 0.974839
v -0.364489 0.252053 0.974839
v -0.278118 0.252053 1.002903
v -0.278118 -0.252053 1.002903
v 0.278118 -0.252053 1.002903
v 0.278118 0.252053 1.002903
v 0.364489 0.252053 0.974839
v 0.364489 -0.252053 0.974839
v 0.814494 -0.252053 0.647891
v 0.814494 0.252053 0.647891
v 0.867874 0.252053 0.574420
v 0.867874 -0.252053 0.574420
v 1.039760 -0.252053 0.045408
v 1.039760 0.252053 0.045408
v 1.039760 0.252053 -0.045408
v 1.039760 -0.252053 -0.045408
v 0.867874 -0.252053 -0.574420
v 0.867874 0.252053 -0.574420
vt 0.227508 0.684735
vt 0.227508 0.529666
vt 0.398613 0.529666
vt 0.398613 0.684735
vt 0.618255 0.684734
vt 0.618254 0.529665
vt 0.780984 0.529664
vt 0.780986 0.684734
vt 0.829402 0.684733
vt 0.829398 0.529663
vt 0.992129 0.529658
vt 0.992133 0.684728
vt 0.223981 0.870165
vt 0.223980 0.715095
vt 0.395085 0.715094
vt 0.395086 0.870163
vt 0.611198 0.870164
vt 0.611199 0.715094
vt 0.773929 0.715095
vt 0.773929 0.870165
vt 0.822345 0.870165
vt 0.822344 0.715095
vt 0.007867 0.529666
vt 0.007867 0.684735
vt 0.238397 0.246588
vt 0.106771 0.053635
vt 0.231470 0.013118
vt 0.095563 0.061779
vt 0.102994 0.042012
vt 0.227694 0.001495
vt 0.245324 0.013118
vt 0.018494 0.167854
vt 0.370023 0.053635
vt 0.014213 0.181030
vt 0.008607 0.160671
vt 0.085676 0.054595
vt 0.249101 0.001495
vt 0.373800 0.042012
vt 0.381231 0.061779
vt 0.014213 0.312147
vt 0.458300 0.167854
vt 0.018494 0.325323
vt 0.001992 0.312147
vt 0.001992 0.181030
vt 0.391119 0.054595
vt 0.468187 0.160671
vt 0.462581 0.181030
vt 0.095563 0.431398
vt 0.462581 0.312147
vt 0.106771 0.439541
vt 0.085676 0.438581
vt 0.008607 0.332506
vt 0.474802 0.181030
vt 0.474802 0.312147
vt 0.458300 0.325322
vt 0.231470 0.480058
vt 0.381231 0.431398
vt 0.245324 0.480058
vt 0.227694 0.491681
vt 0.102994 0.451164
vt 0.468187 0.332506
vt 0.391119 0.438581
vt 0.370023 0.439541
vt 0.373800 0.451164
vt 0.249101 0.491681
vt 0.718034 0.246588
vt 0.860869 0.061779
vt 0.937937 0.167854
vt 0.849661 0.053635
vt 0.870756 0.054595
vt 0.947824 0.160671
vt 0.942218 0.181030
vt 0.724961 0.013118
vt 0.942218 0.312147
vt 0.711107 0.013118
vt 0.728738 0.001495
vt 0.853437 0.042012
vt 0.954439 0.181030
vt 0.954439 0.312147
vt 0.937937 0.325322
vt 0.586408 0.053635
vt 0.860869 0.431398
vt 0.575200 0.061779
vt 0.582631 0.042012
vt 0.707331 0.001495
vt 0.947824 0.332506
vt 0.870756 0.438581
vt 0.849660 0.439541
vt 0.498132 0.167854
vt 0.724961 0.480058
vt 0.493850 0.181030
vt 0.488244 0.160671
vt 0.565313 0.054595
vt 0.853437 0.451164
vt 0.728738 0.491681
vt 0.711107 0.480058
vt 0.493850 0.312147
vt 0.586408 0.439541
vt 0.498132 0.325322
vt 0.481629 0.312147
vt 0.481629 0.181030
vt 0.707331 0.491681
vt 0.582631 0.451164
vt 0.575200 0.431398
vt 0.565313 0.438581
vt 0.488244 0.332506
vt 0.194365 0.529666
vt 0.211560 0.529666
vt 0.211559 0.684735
vt 0.194365 0.684735
vt 0.184991 0.684735
vt 0.184991 0.529666
vt 0.046564 0.684735
vt 0.046564 0.529666
vt 0.414561 0.529666
vt 0.431755 0.529666
vt 0.431757 0.684735
vt 0.414562 0.684735
vt 0.441130 0.529666
vt 0.441131 0.684735
vt 0.579557 0.529665
vt 0.579558 0.684734
vt 0.796151 0.529664
vt 0.814230 0.529663
vt 0.814234 0.684733
vt 0.796155 0.684733
vt 0.190836 0.715095
vt 0.208031 0.715095
vt 0.208032 0.870164
vt 0.190839 0.870165
vt 0.181464 0.870165
vt 0.181462 0.715096
vt 0.043037 0.870167
vt 0.043036 0.715097
vt 0.411034 0.715093
vt 0.428229 0.715094
vt 0.428228 0.870163
vt 0.411034 0.870163
vt 0.437603 0.715094
vt 0.437602 0.870163
vt 0.576030 0.715094
vt 0.576029 0.870164
vt 0.789097 0.715095
vt 0.807176 0.715095
vt 0.807176 0.870165
vt 0.789097 0.870165
vt 0.033661 0.684735
vt 0.033661 0.529666
vt 0.023035 0.684735
vt 0.023035 0.529666
vt 0.585404 0.870164
vt 0.585404 0.715094
vt 0.596030 0.715094
vt 0.596030 0.870164
vt 0.603087 0.684734
vt 0.603087 0.529665
vt 0.033662 0.870167
vt 0.033661 0.715097
vt 0.592460 0.529665
vt 0.592460 0.684734
vt 0.007867 0.715097
vt 0.007868 0.870167
vt 0.023036 0.870167
vt 0.023035 0.715097
vt 0.985075 0.870164
vt 0.985075 0.715094
vn 0.587785 0.000000 -0.809017
vn 0.587785 0.000000 -0.809017
vn 0.587785 0.000000 -0.809017
vn 0.587785 0.000000 -0.809017
vn -0.000000 0.000000 -1.000000
vn -0.000000 0.000000 -1.000000
vn -0.000000 0.000000 -1.000000
vn -0.000000 0.000000 -1.000000
vn -0.587785 0.000000 -0.809017
vn -0.587785 0.000000 -0.809017
vn -0.587785 0.000000 -0.809017
vn -0.587785 0.000000 -0.809017
vn -0.951057 0.000000 -0.309017
vn -0.951057 0.000000 -0.309017
vn -0.951057 0.000000 -0.309017
vn -0.951057 0.000000 -0.309017
vn -0.951056 0.000000 0.309017
vn -0.951056 0.000000 0.309017
vn -0.951056 0.000000 0.309017
vn -0.951056 0.000000 0.309017
vn -0.587785 0.000000 0.809017
vn -0.587785 0.000000 0.809017
vn -0.587785 0.000000 0.809017
vn -0.587785 0.000000 0.809017
vn 0.000000 0.000000 1.000000
vn 0.000000 0.000000 1.000000
vn 0.000000 0.000000 1.000000
vn 0.000000 0.000000 1.000000
vn 0.587785 0.000000 0.809017
vn 0.587785 0.000000 0.809017
vn 0.587785 0.000000 0.809017
vn 0.587785 0.000000 0.809017
vn 0.951057 0.000000 0.309017
vn 0.951057 0.000000 0.309017
vn 0.951057 0.000000 0.309017
vn 0.951057 0.000000 0.309017
vn 0.951057 0.000000 -0.309017
vn 0.951057 0.000000 -0.309017
vn 0.951057 0.000000 -0.309017
vn 0.951057 0.000000 -0.309017
vn 0.000000 -1.000000 0.000000
vn 0.000000 -1.000000 0.000000
vn 0.000000 -1.000000 0.000000
vn 0.000000 1.000000 0.000000
vn 0.000000 1.000000 0.000000
vn 0.000000 1.000000 0.000000
vn 0.000000 -1.000000 0.000000
vn 0.000000 -1.000000 0.000000
vn 0.000000 -1.000000 0.000000
vn 0.000000 1.000000 -0.000000
vn 0.000000 1.000000 -0.000000
vn 0.000000 1.000000 -0.000000
vn 0.000000 -1.000000 -0.000000
vn 0.000000 -1.000000 -0.000000
vn 0.000000 -1.000000 -0.000000
vn 0.000000 1.000000 0.000000
vn 0.000000 1.000000 0.000000
vn 0.000000 1.000000 0.000000
vn 0.000000 -1.000000 0.000000
vn 0.000000 -1.000000 0.000000
vn 0.000000 -1.000000 0.000000
vn 0.000000 1.000000 0.000000
vn 0.000000 1.000000 0.000000
vn 0.000000 1.000000 0.000000
vn 0.000000 -1.000000 0.000000
vn 0.000000 -1.000000 0.000000
vn 0.000000 -1.000000 0.000000
vn 0.000000 1.000000 -0.000000
vn 0.000000 1.000000 -0.000000
vn 0.000000 1.000000 -0.000000
vn 0.000000 -1.000000 -0.000000
vn 0.000000 -1.000000 -0.000000
vn 0.000000 -1.000000 -0.000000
vn 0.000000 1.000000 0.000000
vn 0.000000 1.000000 0.000000
vn 0.000000 1.000000 0.000000
vn 0.000000 -1.000000 0.000000
vn 0.000000 -1.000000 0.000000
vn 0.000000 -1.000000 0.000000
vn 0.000000 1.000000 0.000000
vn 0.000000 1.000000 0.000000
vn 0.000000 -1.000000 0.000000
vn 0.000000 -1.000000 0.000000
vn 0.000000 1.000000 0.000000
vn 0.000000 1.000000 0.000000
vn 0.000000 1.000000 0.000000
vn 0.000000 -1.000000 0.000000
vn 0.000000 -1.000000 0.000000
vn 0.000000 -1.000000 0.000000
vn 0.000000 1.000000 -0.000000
vn 0.000000 1.000000 -0.000000
vn 0.000000 1.000000 -0.000000
vn 0.000000 -1.000000 -0.000000
vn 0.000000 -1.000000 -0.000000
vn 0.000000 -1.000000 -0.000000
vn 0.000000 1.000000 0.000000
vn 0.000000 1.000000 0.000000
vn 0.000000 1.000000 0.000000
vn 0.809017 0.000000 -0.587785
vn 0.809017 0.000000 -0.587785
vn 0.809017 0.000000 -0.587785
vn 0.809017 0.000000 -0.587785
vn 0.309017 0.000000 -0.951057
vn 0.309017 0.000000 -0.951057
vn 0.309017 0.000000 -0.951057
vn 0.309017 0.000000 -0.951057
vn -0.309017 0.000000 -0.951057
vn -0.309017 0.000000 -0.951057
vn -0.309017 0.000000 -0.951057
vn -0.309017 0.000000 -0.951057
vn -0.809017 0.000000 -0.587785
vn -0.809017 0.000000 -0.587785
vn -0.809017 0.000000 -0.587785
vn -0.809017 0.000000 -0.587785
vn -1.000000 0.000000 0.000000
vn -1.000000 0.000000 0.000000
vn -1.000000 0.000000 0.000000
vn -1.000000 0.000000 0.000000
vn -0.809017 0.000000 0.587785
vn -0.809017 0.000000 0.587785
vn -0.809017 0.000000 0.587785
vn -0.809017 0.000000 0.587785
vn -0.309016 0.000000 0.951057
vn -0.309016 0.000000 0.951057
vn -0.309016 0.000000 0.951057
vn -0.309016 0.000000 0.951057
vn 0.309017 0.000000 0.951057
vn 0.309017 0.000000 0.951057
vn 0.309017 0.000000 0.951057
vn 0.309017 0.000000 0.951057
vn 0.809017 0.000000 0.587785
vn 0.809017 0.000000 0.587785
vn 0.809017 0.000000 0.587785
vn 0.809017 0.000000 0.587785
vn 1.000000 0.000000 0.000000
vn 1.000000 0.000000 0.000000
vn 1.000000 0.000000 0.000000
vn 1.000000 0.000000 0.000000
vn 0.000000 -1.000000 0.000000
vn 0.000000 -1.000000 0.000000
vn 0.000000 -1.000000 0.000000
vn 0.000000 1.000000 -0.000001
vn 0.000000 1.000000 -0.000001
vn 0.000000 1.000000 -0.000001
vn 0.000000 -1.000000 0.000000
vn 0.000000 -1.000000 0.000000
vn 0.000000 -1.000000 0.000000
vn 0.000000 1.000000 0.000000
vn 0.000000 1.000000 0.000000
vn 0.000000 1.000000 0.000000
vn 0.000000 -1.000000 0.000000
vn 0.000000 1.000000 0.000000
vn 0.000000 -1.000000 -0.000001
vn 0.000000 -1.000000 -0.000001
vn 0.000000 -1.000000 -0.000001
vn 0.000000 1.000000 0.000000
vn 0.000000 -1.000000 0.000000
vn 0.000000 -1.000000 0.000000
vn 0.000000 -1.000000 0.000000
vn 0.000000 1.000000 0.000000
vn 0.000000 1.000000 0.000000
vn 0.000000 1.000000 0.000000
vn 0.000000 -1.000000 0.000000
vn 0.000000 1.000000 0.000001
vn 0.000000 1.000000 0.000001
vn 0.000000 1.000000 0.000001
vn 0.000000 -1.000000 0.000000
vn 0.000000 -1.000000 0.000000
vn 0.000000 -1.000000 0.000000
vn 0.000000 1.000000 0.000000
vn 0.000000 1.000000 0.000000
vn 0.000000 1.000000 0.000000
vn 0.000000 -1.000000 0.000000
vn 0.000000 -1.000000 0.000000
vn 0.000000 -1.000000 0.000000
vn 0.000000 1.000000 0.000001
vn 0.000000 1.000000 0.000001
vn 0.000000 1.000000 0.000001
vn 0.000000 -1.000000 0.000000
vn 0.000000 -1.000000 0.000000
vn 0.000000 -1.000000 0.000000
vn 0.000000 1.000000 0.000000
vn 0.000000 1.000000 0.000000
vn 0.000000 1.000000 0.000000
vn 0.809018 0.000000 0.587784
vn 0.809018 0.000000 0.587784
vn 0.809018 0.000000 0.587784
vn 0.809018 0.000000 0.587784
vn 0.000000 -1.000000 0.000000
vn 0.000000 -1.000000 0.000000
vn 0.000000 -1.000000 0.000000
vn 0.000000 -1.000000 0.000000
vn -0.809017 0.000000 -0.587785
vn -0.809017 0.000000 -0.587785
vn -0.809017 0.000000 -0.587785
vn -0.809017 0.000000 -0.587785
vn 0.000000 1.000000 0.000000
vn 0.000000 1.000000 0.000000
vn 0.000000 1.000000 0.000000
vn 0.000000 1.000000 0.000000
vn 1.000000 0.000000 0.000000
vn 1.000000 0.000000 0.000000
vn 1.000000 0.000000 0.000000
vn 1.000000 0.000000 0.000000
vn 0.000000 -1.000000 0.000000
vn 0.000000 -1.000000 0.000000
vn 0.000000 -1.000000 0.000000
vn 0.000000 -1.000000 0.000000
vn -1.000000 0.000000 0.000000
vn -1.000000 0.000000 0.000000
vn -1.000000 0.000000 0.000000
vn -1.000000 0.000000 0.000000
vn 0.000000 1.000000 0.000000
vn 0.000000 1.000000 0.000000
vn 0.000000 1.000000 0.000000
vn 0.000000 1.000000 0.000000
vn 0.809017 0.000000 -0.587785
vn 0.809017 0.000000 -0.587785
vn 0.809017 0.000000 -0.587785
vn 0.809017 0.000000 -0.587785
vn 0.000000 -1.000000 0.000000
vn 0.000000 -1.000000 0.000000
vn -0.809018 0.000000 0.587784
vn -0.809018 0.000000 0.587784
vn -0.809018 0.000000 0.587784
vn -0.809018 0.000000 0.587784
vn 0.000000 1.000000 0.000000
vn 0.000000 1.000000 0.000000
vn 0.000000 1.000000 0.000000
vn 0.000000 1.000000 0.000000
vn 0.309015 0.000000 -0.951057
vn 0.309015 0.000000 -0.951057
vn 0.309015 0.000000 -0.951057
vn 0.309015 0.000000 -0.951057
vn 0.000000 -1.000000 -0.000000
vn 0.000000 -1.000000 -0.000000
vn 0.000000 -1.000000 -0.000000
vn 0.000000 -1.000000 -0.000000
vn -0.309017 0.000000 0.951057
vn -0.309017 0.000000 0.951057
vn -0.309017 0.000000 0.951057
vn -0.309017 0.000000 0.951057
vn 0.000000 1.000000 0.000000
vn 0.000000 1.000000 0.000000
vn 0.000000 1.000000 0.000000
vn 0.000000 1.000000 0.000000
vn -0.309017 0.000000 -0.951057
vn -0.309017 0.000000 -0.951057
vn -0.309017 0.000000 -0.951057
vn -0.309017 0.000000 -0.951057
vn 0.000000 -1.000000 -0.000000
vn 0.000000 -1.000000 -0.000000
vn 0.000000 -1.000000 -0.000000
vn 0.000000 -1.000000 -0.000000
vn 0.309017 0.000000 0.951057
vn 0.309017 0.000000 0.951057
vn 0.309017 0.000000 0.951057
vn 0.309017 0.000000 0.951057
vn 0.000000 1.000000 0.000000
vn 0.000000 1.000000 0.000000
vn 0.000000 1.000000 0.000000
vn 0.000000 1.000000 0.000000
vn -0.809018 0.000000 -0.587784
vn -0.809018 0.000000 -0.587784
vn -0.809018 0.000000 -0.587784
vn -0.809018 0.000000 -0.587784
vn 0.000000 -1.000000 -0.000000
vn 0.000000 -1.000000 -0.000000
vn 0.000000 -1.000000 -0.000000
vn 0.000000 -1.000000 -0.000000
vn 0.809017 0.000000 0.587785
vn 0.809017 0.000000 0.587785
vn 0.809017 0.000000 0.587785
vn 0.809017 0.000000 0.587785
vn 0.000000 1.000000 0.000000
vn 0.000000 1.000000 0.000000
vn -1.000000 0.000000 0.000000
vn -1.000000 0.000000 0.000000
vn -1.000000 0.000000 0.000000
vn -1.000000 0.000000 0.000000
vn 0.000000 -1.000000 0.000000
vn 0.000000 -1.000000 0.000000
vn 1.000000 0.000000 0.000000
vn 1.000000 0.000000 0.000000
vn 1.000000 0.000000 0.000000
vn 1.000000 0.000000 0.000000
vn 0.000000 1.000000 0.000000
vn 0.000000 1.000000 0.000000
vn -0.809017 0.000000 0.587785
vn -0.809017 0.000000 0.587785
vn -0.809017 0.000000 0.587785
vn -0.809017 0.000000 0.587785
vn 0.000000 -1.000000 0.000000
vn 0.000000 -1.000000 0.000000
vn 0.809018 0.000000 -0.587784
vn 0.809018 0.000000 -0.587784
vn 0.809018 0.000000 -0.587784
vn 0.809018 0.000000 -0.587784
vn 0.000000 1.000000 -0.000000
vn 0.000000 1.000000 -0.000000
vn 0.000000 1.000000 -0.000000
vn 0.000000 1.000000 -0.000000
vn -0.309017 0.000000 0.951057
vn -0.309017 0.000000 0.951057
vn -0.309017 0.000000 0.951057
vn -0.309017 0.000000 0.951057
vn 0.000000 -1.000000 0.000000
vn 0.000000 -1.000000 0.000000
vn 0.000000 -1.000000 0.000000
vn 0.000000 -1.000000 0.000000
vn 0.309017 0.000000 -0.951057
vn 0.309017 0.000000 -0.951057
vn 0.309017 0.000000 -0.951057
vn 0.309017 0.000000 -0.951057
vn 0.000000 1.000000 -0.000000
vn 0.000000 1.000000 -0.000000
vn 0.000000 1.000000 -0.000000
vn 0.000000 1.000000 -0.000000
vn 0.309017 0.000000 0.951057
vn 0.309017 0.000000 0.951057
vn 0.309017 0.000000 0.951057
vn 0.309017 0.000000 0.951057
vn 0.000000 -1.000000 0.000000
vn 0.000000 -1.000000 0.000000
vn 0.000000 -1.000000 0.000000
vn 0.000000 -1.000000 0.000000
vn -0.309015 0.000000 -0.951057
vn -0.309015 0.000000 -0.951057
vn -0.309015 0.000000 -0.951057
vn -0.309015 0.000000 -0.951057
vn 0.000000 1.000000 -0.000000
vn 0.000000 1.000000 -0.000000
vn 0.000000 1.000000 -0.000000
vn 0.000000 1.000000 -0.000000
s off
g pCylinder1
usemtl initialShadingGroup
f 43/113/1 44/114/2 45/112/3 46/111/4
f 47/1/5 48/2/6 49/3/7 50/4/8
f 51/120/9 52/119/10 53/121/11 54/122/12
f 55/5/13 56/6/14 57/7/15 58/8/16
f 59/9/17 60/10/18 61/11/19 62/12/20
f 63/133/21 64/134/22 65/132/23 66/131/24
f 67/13/25 68/14/26 69/15/27 70/16/28
f 71/140/29 72/139/30 73/141/31 74/142/32
f 75/17/33 76/18/34 77/19/35 78/20/36
f 79/21/37 80/22/38 81/166/39 82/165/40
f 1/25/41 4/26/42 39/27/43
f 2/66/44 6/67/45 9/68/46
f 1/25/47 8/32/48 3/28/49
f 2/66/50 10/72/51 13/74/52
f 1/25/53 12/40/54 7/34/55
s 1
f 2/66/56 14/80/57 17/82/58
s 2
f 1/25/59 16/48/60 11/42/61
s off
f 2/66/62 18/88/63 21/90/64
f 1/25/65 20/56/66 15/50/67
f 2/66/68 22/96/69 25/98/70
f 1/25/71 24/63/72 19/58/73
s 3
f 2/66/74 26/104/75 29/99/76
s 4
f 1/25/77 28/55/78 23/57/79
s 3
f 2/66/74 30/97/80 33/91/81
s 4
f 1/25/77 32/47/82 27/49/83
s off
f 2/66/84 34/89/85 37/83/86
s 6
f 1/25/87 36/39/88 31/41/89
s off
f 2/66/90 38/81/91 41/75/92
f 1/25/93 40/31/94 35/33/95
f 2/66/96 42/73/97 5/69/98
f 4/150/99 3/148/100 6/147/101 5/149/102
f 8/107/103 7/108/104 10/109/105 9/110/106
f 12/115/107 11/116/108 14/117/109 13/118/110
f 16/159/111 15/156/112 18/155/113 17/160/114
f 20/123/115 19/124/116 22/125/117 21/126/118
f 24/164/119 23/158/120 26/157/121 25/163/122
f 28/127/123 27/128/124 30/129/125 29/130/126
f 32/135/127 31/136/128 34/137/129 33/138/130
f 36/152/131 35/153/132 38/154/133 37/151/134
f 40/143/135 39/144/136 42/145/137 41/146/138
f 1/25/139 3/28/140 4/26/141
f 2/66/142 5/69/143 6/67/144
f 1/25/145 7/34/146 8/32/147
f 2/66/148 9/68/149 10/72/150
s 2
f 1/25/59 11/42/61 12/40/151
s 1
f 2/66/56 13/74/152 14/80/57
s off
f 1/25/153 15/50/154 16/48/155
s 1
f 2/66/56 17/82/58 18/88/156
s off
f 1/25/157 19/58/158 20/56/159
f 2/66/160 21/90/161 22/96/162
s 4
f 1/25/77 23/57/79 24/63/163
s off
f 2/66/164 25/98/165 26/104/166
s 4
f 1/25/77 27/49/83 28/55/78
s 3
f 2/66/74 29/99/76 30/97/80
s off
f 1/25/167 31/41/168 32/47/169
f 2/66/170 33/91/171 34/89/172
f 1/25/173 35/33/174 36/39/175
f 2/66/176 37/83/177 38/81/178
f 1/25/179 39/27/180 40/31/181
f 2/66/182 41/75/183 42/73/184
f 6/147/185 3/148/186 44/114/187 43/113/188
f 3/28/189 8/32/190 45/35/191 44/36/192
f 8/107/193 9/110/194 46/111/195 45/112/196
f 9/68/197 6/67/198 43/70/199 46/71/200
f 10/109/201 7/108/202 48/2/203 47/1/204
f 7/34/205 12/40/206 49/43/207 48/44/208
f 12/115/209 13/118/210 50/4/211 49/3/212
f 13/74/213 10/72/214 47/78/215 50/79/216
f 14/117/217 11/116/218 52/119/219 51/120/220
s 2
f 11/42/61 16/48/60 53/51/221 52/52/222
s off
f 16/159/223 17/160/224 54/122/225 53/121/226
f 17/82/227 14/80/228 51/86/229 54/87/230
f 18/155/231 15/156/232 56/6/233 55/5/234
f 15/50/235 20/56/236 57/59/237 56/60/238
f 20/123/239 21/126/240 58/8/241 57/7/242
f 21/90/243 18/88/244 55/94/245 58/95/246
f 22/125/247 19/124/248 60/10/249 59/9/250
f 19/58/251 24/63/252 61/64/253 60/65/254
f 24/164/255 25/163/256 62/162/257 61/161/258
f 25/98/259 22/96/260 59/102/261 62/103/262
f 26/157/263 23/158/264 64/134/265 63/133/266
f 23/57/267 28/55/268 65/61/269 64/62/270
f 28/127/271 29/130/272 66/131/273 65/132/274
s 3
f 29/99/76 26/104/75 63/105/275 66/106/276
s off
f 30/129/277 27/128/278 68/14/279 67/13/280
s 4
f 27/49/83 32/47/82 69/53/281 68/54/282
s off
f 32/135/283 33/138/284 70/16/285 69/15/286
s 3
f 33/91/81 30/97/80 67/100/287 70/101/288
s off
f 34/137/289 31/136/290 72/139/291 71/140/292
s 6
f 31/41/89 36/39/88 73/45/293 72/46/294
s off
f 36/152/295 37/151/296 74/142/297 73/141/298
f 37/83/299 34/89/300 71/92/301 74/93/302
f 38/154/303 35/153/304 76/18/305 75/17/306
f 35/33/307 40/31/308 77/37/309 76/38/310
f 40/143/311 41/146/312 78/20/313 77/19/314
f 41/75/315 38/81/316 75/84/317 78/85/318
f 42/145/319 39/144/320 80/22/321 79/21/322
f 39/27/323 4/26/324 81/29/325 80/30/326
f 4/150/327 5/149/328 82/24/329 81/23/330
f 5/69/331 42/73/332 79/76/333 82/77/334
