# This file uses centimeters as units for non-parametric coordinates.

mtllib base.mtl
g default
v -0.668205 5.715180 -0.146941
v -0.815146 5.715180 -0.207806
v -0.962087 5.715180 -0.146941
v -1.022952 5.715180 0.000000
v -0.962087 5.715180 0.146941
v -0.815146 5.715180 0.207806
v -0.668205 5.715180 0.146941
v -0.607340 5.715180 0.000000
v -0.361567 5.333677 -0.453579
v -0.815146 5.333677 -0.641458
v -1.268725 5.333677 -0.453579
v -1.456604 5.333677 0.000000
v -1.268725 5.333677 0.453579
v -0.815146 5.333677 0.641458
v -0.361567 5.333677 0.453579
v -0.173688 5.333677 -0.000000
v -1.311231 0.000000 0.668760
v 1.311230 0.000000 0.668760
v -1.311231 5.333676 0.668760
v 1.311230 5.333676 0.668760
v -1.311231 5.333676 -0.668760
v 1.311230 5.333676 -0.668760
v -1.311231 0.000000 -0.668760
v 1.311230 0.000000 -0.668760
v 1.628022 0.000000 -0.473067
v 1.628022 0.000000 0.473067
v 1.628022 5.333676 -0.473067
v 1.628022 5.333676 0.473067
v -1.628022 0.000000 -0.473067
v -1.628022 0.000000 0.473067
v -1.628022 5.333676 0.473067
v -1.628022 5.333676 -0.473067
v -1.311231 4.380260 0.668760
v -1.628022 4.380260 0.473067
v -1.628022 4.380260 -0.473067
v -1.311231 4.380260 -0.668760
v 1.311230 4.380260 -0.668760
v 1.628022 4.380260 -0.473067
v 1.628022 4.380260 0.473067
v 1.311230 4.380260 0.668760
v -1.311231 3.876153 0.668760
v -1.628022 3.876153 0.473067
v -1.628022 3.876153 -0.473067
v -1.311231 3.876153 -0.668760
v 1.311230 3.876153 -0.668760
v 1.628022 3.876153 -0.473067
v 1.628022 3.876153 0.473067
v 1.311230 3.876153 0.668760
v -1.311231 3.570260 0.668760
v -1.628022 3.570260 0.473067
v -1.628022 3.570260 -0.473067
v -1.311231 3.570260 -0.668760
v 1.311230 3.570260 -0.668760
v 1.628022 3.570260 -0.473067
v 1.628022 3.570260 0.473067
v 1.311230 3.570260 0.668760
v -1.311231 3.066153 0.668760
v -1.628022 3.066153 0.473067
v -1.628022 3.066153 -0.473067
v -1.311231 3.066153 -0.668760
v 1.311230 3.066153 -0.668760
v 1.628022 3.066153 -0.473067
v 1.628022 3.066153 0.473067
v 1.311230 3.066153 0.668760
v -1.311231 2.760260 0.668760
v -1.628022 2.760260 0.473067
v -1.628022 2.760260 -0.473067
v -1.311231 2.760260 -0.668760
v 1.311230 2.760260 -0.668760
v 1.628022 2.760260 -0.473067
v 1.628022 2.760260 0.473067
v 1.311230 2.760260 0.668760
v -1.311231 2.256153 0.668760
v -1.628022 2.256153 0.473067
v -1.628022 2.256153 -0.473067
v -1.311231 2.256153 -0.668760
v 1.311230 2.256153 -0.668760
v 1.628022 2.256153 -0.473067
v 1.628022 2.256153 0.473067
v 1.311230 2.256153 0.668760
v -1.311231 1.950260 0.668760
v -1.628022 1.950260 0.473067
v -1.628022 1.950260 -0.473067
v -1.311231 1.950260 -0.668760
v 1.311230 1.950260 -0.668760
v 1.628022 1.950260 -0.473067
v 1.628022 1.950260 0.473067
v 1.311230 1.950260 0.668760
v -1.311231 1.446153 0.668760
v -1.628022 1.446153 0.473067
v -1.628022 1.446153 -0.473067
v -1.311231 1.446153 -0.668760
v 1.311230 1.446153 -0.668760
v 1.628022 1.446153 -0.473067
v 1.628022 1.446153 0.473067
v 1.311230 1.446153 0.668760
v 0.234911 1.950260 0.668760
v 0.234911 1.446153 0.668760
v 0.234911 0.000000 0.668760
v 0.234911 0.000000 -0.668760
v 0.234911 1.446153 -0.668760
v 0.234911 1.950260 -0.668760
v 0.234911 2.256153 -0.668760
v 0.234911 2.760260 -0.668760
v 0.234911 3.066153 -0.668760
v 0.234911 3.570260 -0.668760
v 0.234911 3.876153 -0.668760
v 0.234911 4.380260 -0.668760
v 0.234911 5.333676 -0.668760
v 0.234911 5.333676 0.668760
v 0.234911 4.380260 0.668760
v 0.234911 3.876153 0.668760
v 0.234911 3.570260 0.668760
v 0.234911 3.066153 0.668760
v 0.234911 2.760260 0.668760
v 0.234911 2.256153 0.668760
v -0.361567 5.539963 -0.453579
v -0.412423 5.626373 -0.402723
v -0.815146 5.626373 -0.569536
v -0.815146 5.539963 -0.641458
v -1.217869 5.626373 -0.402723
v -1.268725 5.539963 -0.453579
v -1.384682 5.626373 0.000000
v -1.456604 5.539963 0.000000
v -1.217869 5.626373 0.402723
v -1.268725 5.539963 0.453579
v -0.815146 5.626373 0.569536
v -0.815146 5.539963 0.641458
v -0.412423 5.626373 0.402723
v -0.361567 5.539963 0.453579
v -0.245610 5.626373 0.000000
v -0.173688 5.539963 -0.000000
vt 0.778337 0.832992
vt 0.650271 0.832992
vt 0.650271 0.652419
vt 0.778338 0.652419
vt 0.778338 0.167008
vt 0.650271 0.167008
vt 0.650272 0.000000
vt 0.778338 0.000000
vt 0.334241 0.652419
vt 0.462308 0.652419
vt 0.462308 0.832991
vt 0.334241 0.832991
vt 0.462308 0.999999
vt 0.334242 0.999999
vt 0.612577 0.832992
vt 0.500001 0.832992
vt 0.500001 0.652419
vt 0.612577 0.652419
vt 0.112579 0.832991
vt 0.000003 0.832991
vt 0.000003 0.652419
vt 0.112579 0.652419
vt 0.500001 0.857426
vt 0.500002 0.975564
vt 0.612578 0.142573
vt 0.612578 0.024435
vt 0.150273 0.832992
vt 0.150273 1.000000
vt 0.112580 0.975565
vt 0.112579 0.857427
vt 0.962306 0.832992
vt 0.962306 0.652419
vt 1.000000 0.652419
vt 0.999999 0.832992
vt 0.962306 0.167008
vt 0.962306 0.000000
vt 1.000000 0.024435
vt 1.000000 0.142573
vt 0.150273 0.652419
vt 0.962306 0.286056
vt 1.000000 0.167008
vt 1.000000 0.286056
vt 0.112579 0.286055
vt 0.000003 0.286055
vt 0.000003 0.167008
vt 0.112579 0.167008
vt 0.150273 0.167008
vt 0.150273 0.286055
vt 0.334241 0.167008
vt 0.462308 0.167008
vt 0.462308 0.286055
vt 0.334241 0.286055
vt 0.500001 0.286055
vt 0.500001 0.167008
vt 0.612578 0.286055
vt 0.612578 0.167008
vt 0.650271 0.286055
vt 0.778338 0.286055
vt 0.462308 0.349000
vt 0.334241 0.349000
vt 0.500001 0.349000
vt 0.612578 0.349000
vt 0.650271 0.349000
vt 0.778338 0.349000
vt 0.962306 0.387195
vt 0.962306 0.349000
vt 1.000000 0.349000
vt 1.000000 0.387195
vt 0.112580 0.387195
vt 0.000004 0.387198
vt 0.000003 0.349003
vt 0.112579 0.349000
vt 0.150273 0.349000
vt 0.150273 0.387195
vt 0.462308 0.387195
vt 0.334241 0.387195
vt 0.500001 0.387195
vt 0.612578 0.387195
vt 0.650271 0.387195
vt 0.778338 0.387195
vt 0.462308 0.450140
vt 0.334241 0.450140
vt 0.500001 0.450140
vt 0.612578 0.450140
vt 0.650271 0.450140
vt 0.778338 0.450140
vt 0.962306 0.488335
vt 0.962306 0.450140
vt 1.000000 0.450140
vt 1.000000 0.488335
vt 0.112579 0.488335
vt 0.000003 0.488333
vt 0.000003 0.450138
vt 0.112579 0.450140
vt 0.150273 0.450140
vt 0.150273 0.488335
vt 0.462308 0.488335
vt 0.334241 0.488335
vt 0.500001 0.488335
vt 0.612578 0.488335
vt 0.650271 0.488335
vt 0.778338 0.488335
vt 0.462308 0.551279
vt 0.334241 0.551279
vt 0.500001 0.551279
vt 0.612578 0.551279
vt 0.650271 0.551279
vt 0.778338 0.551280
vt 0.962306 0.589475
vt 0.962306 0.551280
vt 1.000000 0.551280
vt 1.000000 0.589475
vt 0.112580 0.589474
vt 0.000004 0.589482
vt 0.000002 0.551286
vt 0.112579 0.551279
vt 0.150273 0.551279
vt 0.150273 0.589474
vt 0.462308 0.589474
vt 0.334241 0.589474
vt 0.500001 0.589474
vt 0.612578 0.589474
vt 0.650271 0.589475
vt 0.778338 0.589475
vt 0.112579 0.325611
vt 0.000003 0.325611
vt 0.000002 0.309447
vt 0.112578 0.309444
vt 0.112581 0.426751
vt 0.000004 0.426754
vt 0.000004 0.410582
vt 0.112580 0.410584
vt 0.112579 0.527890
vt 0.000002 0.527889
vt 0.000000 0.511731
vt 0.112576 0.511724
vt 0.112583 0.629030
vt 0.000006 0.629038
vt 0.000003 0.612863
vt 0.112580 0.612864
vt 0.433229 0.046868
vt 0.433229 0.005218
vt 0.561174 0.005218
vt 0.561173 0.046868
vt 0.433229 0.089678
vt 0.433229 0.048028
vt 0.561173 0.048028
vt 0.561173 0.089678
vt 0.433229 0.132458
vt 0.433229 0.090807
vt 0.561173 0.090808
vt 0.561173 0.132458
vt 0.303610 0.162502
vt 0.303610 0.120852
vt 0.431554 0.120852
vt 0.431554 0.162502
vt 0.303611 0.119883
vt 0.303611 0.078232
vt 0.431554 0.078232
vt 0.431554 0.119883
vt 0.303610 0.077263
vt 0.303610 0.035613
vt 0.431554 0.035613
vt 0.431554 0.077263
vt 0.173991 0.046868
vt 0.173991 0.005218
vt 0.301936 0.005218
vt 0.301936 0.046868
vt 0.173991 0.089678
vt 0.173991 0.048028
vt 0.301935 0.048028
vt 0.301935 0.089678
vt 0.301935 0.090807
vt 0.301935 0.106505
vt 0.191255 0.106505
vt 0.191255 0.090807
vt 0.191255 0.123432
vt 0.191255 0.107734
vt 0.301935 0.107734
vt 0.301935 0.123432
vt 0.191255 0.140359
vt 0.191255 0.124662
vt 0.301936 0.124662
vt 0.301936 0.140359
vt 0.191255 0.157287
vt 0.191255 0.141589
vt 0.301936 0.141589
vt 0.301936 0.157286
vt 0.814435 0.871394
vt 0.834296 0.914353
vt 0.817984 0.958771
vt 0.775136 0.978721
vt 0.730514 0.962372
vt 0.710833 0.919575
vt 0.727054 0.874918
vt 0.770015 0.855059
vt 0.818239 0.875186
vt 0.836248 0.869452
vt 0.851058 0.906916
vt 0.834307 0.919720
vt 0.851100 0.928389
vt 0.835097 0.965360
vt 0.814216 0.962567
vt 0.820023 0.980547
vt 0.782603 0.995468
vt 0.769892 0.978792
vt 0.761625 0.995752
vt 0.724406 0.980336
vt 0.726792 0.958438
vt 0.709516 0.964599
vt 0.694213 0.927334
vt 0.710760 0.914064
vt 0.693922 0.905286
vt 0.709943 0.868324
vt 0.730846 0.871113
vt 0.725114 0.853104
vt 0.762579 0.838297
vt 0.775386 0.855050
vt 0.784067 0.838263
vt 0.821029 0.854284
vt 0.790962 0.916847
vt 0.822450 0.916834
vt 0.785557 0.929898
vt 0.807849 0.952151
vt 0.772506 0.935304
vt 0.772624 0.966864
vt 0.759455 0.929898
vt 0.737012 0.951992
vt 0.754049 0.916847
vt 0.722621 0.916966
vt 0.759455 0.903797
vt 0.737184 0.881540
vt 0.772506 0.898391
vt 0.772495 0.866905
vt 0.785557 0.903797
vt 0.807813 0.881525
vn 0.000000 0.000000 1.000000
vn 0.139107 0.000000 0.990277
vn 0.139107 0.000000 0.990277
vn 0.000000 0.000000 1.000000
vn 0.000000 1.000000 0.000000
vn 0.000000 1.000000 0.000000
vn 0.000000 1.000000 0.000000
vn 0.000000 1.000000 0.000000
vn 0.000000 0.000000 -1.000000
vn 0.139107 0.000000 -0.990277
vn 0.139107 0.000000 -0.990277
vn 0.000000 0.000000 -1.000000
vn 0.000000 -1.000000 0.000000
vn 0.000000 -1.000000 0.000000
vn 0.000000 -1.000000 0.000000
vn 0.000000 -1.000000 0.000000
vn 1.000000 0.000000 0.000000
vn 1.000000 0.000000 0.000000
vn 1.000000 0.000000 0.000000
vn 1.000000 0.000000 0.000000
vn -1.000000 0.000000 0.000000
vn -1.000000 0.000000 0.000000
vn -1.000000 0.000000 0.000000
vn -1.000000 0.000000 0.000000
vn 0.000000 -1.000000 0.000000
vn 0.000000 -1.000000 0.000000
vn 0.525548 0.000000 -0.850764
vn 0.525548 0.000000 -0.850764
vn 0.000000 1.000000 0.000000
vn 0.000000 1.000000 0.000000
vn 0.525548 0.000000 0.850764
vn 0.525548 0.000000 0.850764
vn 0.000000 -1.000000 0.000000
vn 0.000000 -1.000000 0.000000
vn 0.000000 -1.000000 0.000000
vn 0.000000 -1.000000 0.000000
vn -0.104471 0.000000 0.994528
vn -0.104471 0.000000 0.994528
vn -0.525548 0.000000 0.850764
vn -0.525548 0.000000 0.850764
vn 0.000000 1.000000 0.000000
vn 0.000000 1.000000 0.000000
vn 0.000000 1.000000 0.000000
vn 0.000000 1.000000 0.000000
vn -0.104471 0.000000 -0.994528
vn -0.104471 0.000000 -0.994528
vn -0.525548 0.000000 -0.850764
vn -0.525548 0.000000 -0.850764
vn -0.104471 0.000000 0.994528
vn -0.104471 0.000000 0.994528
vn -0.525548 0.000000 0.850764
vn -0.525548 0.000000 0.850764
vn -1.000000 0.000000 0.000000
vn -1.000000 0.000000 0.000000
vn -1.000000 0.000000 0.000000
vn -1.000000 0.000000 0.000000
vn -0.104471 0.000000 -0.994528
vn -0.104471 0.000000 -0.994528
vn -0.525548 0.000000 -0.850764
vn -0.525548 0.000000 -0.850764
vn 0.000000 0.000000 -1.000000
vn 0.139106 0.000000 -0.990277
vn 0.139106 0.000000 -0.990277
vn 0.000000 0.000000 -1.000000
vn 0.525548 0.000000 -0.850764
vn 0.525548 0.000000 -0.850764
vn 1.000000 0.000000 0.000000
vn 1.000000 0.000000 0.000000
vn 1.000000 0.000000 0.000000
vn 1.000000 0.000000 0.000000
vn 0.139106 0.000000 0.990277
vn 0.139106 0.000000 0.990277
vn 0.525548 0.000000 0.850764
vn 0.525548 0.000000 0.850764
vn 0.000000 0.000000 1.000000
vn 0.000000 0.000000 1.000000
vn 0.139107 0.000000 -0.990277
vn 0.000000 0.000000 -1.000000
vn 0.525548 0.000000 -0.850764
vn 1.000000 0.000000 0.000000
vn 1.000000 0.000000 0.000000
vn 0.139107 0.000000 0.990277
vn 0.525548 0.000000 0.850764
vn 0.000000 0.000000 1.000000
vn -0.104471 0.000000 0.994528
vn -0.104471 0.000000 0.994528
vn -0.525548 0.000000 0.850764
vn -0.525548 0.000000 0.850764
vn -1.000000 0.000000 0.000000
vn -1.000000 0.000000 0.000000
vn -1.000000 0.000000 0.000000
vn -1.000000 0.000000 0.000000
vn -0.104471 0.000000 -0.994528
vn -0.104471 0.000000 -0.994528
vn -0.525548 0.000000 -0.850764
vn -0.525548 0.000000 -0.850764
vn 0.139106 0.000000 -0.990277
vn 0.000000 0.000000 -1.000000
vn 0.525548 0.000000 -0.850764
vn 1.000000 0.000000 0.000000
vn 1.000000 0.000000 0.000000
vn 0.139106 0.000000 0.990277
vn 0.525548 0.000000 0.850764
vn 0.000000 0.000000 1.000000
vn 0.139107 0.000000 -0.990277
vn 0.000000 0.000000 -1.000000
vn 0.525548 0.000000 -0.850764
vn 1.000000 0.000000 0.000000
vn 1.000000 0.000000 0.000000
vn 0.139107 0.000000 0.990277
vn 0.525548 0.000000 0.850764
vn 0.000000 0.000000 1.000000
vn -0.104471 0.000000 0.994528
vn -0.104471 0.000000 0.994528
vn -0.525548 0.000000 0.850764
vn -0.525548 0.000000 0.850764
vn -1.000000 0.000000 0.000000
vn -1.000000 0.000000 0.000000
vn -1.000000 0.000000 0.000000
vn -1.000000 0.000000 0.000000
vn -0.104471 0.000000 -0.994528
vn -0.104471 0.000000 -0.994528
vn -0.525548 0.000000 -0.850764
vn -0.525548 0.000000 -0.850764
vn 0.139106 0.000000 -0.990277
vn 0.000000 0.000000 -1.000000
vn 0.525548 0.000000 -0.850764
vn 1.000000 0.000000 0.000000
vn 1.000000 0.000000 0.000000
vn 0.139106 0.000000 0.990277
vn 0.525548 0.000000 0.850764
vn 0.000000 0.000000 1.000000
vn 0.139106 0.000000 -0.990278
vn 0.000000 0.000000 -1.000000
vn 0.525548 0.000000 -0.850764
vn 1.000000 0.000000 0.000000
vn 1.000000 0.000000 0.000000
vn 0.139106 0.000000 0.990277
vn 0.525548 0.000000 0.850764
vn 0.000000 0.000000 1.000000
vn -0.104471 0.000000 0.994528
vn -0.104471 0.000000 0.994528
vn -0.525548 0.000000 0.850764
vn -0.525548 0.000000 0.850764
vn -1.000000 0.000000 0.000000
vn -1.000000 0.000000 0.000000
vn -1.000000 0.000000 0.000000
vn -1.000000 0.000000 0.000000
vn -0.104471 0.000000 -0.994528
vn -0.104471 0.000000 -0.994528
vn -0.525548 0.000000 -0.850764
vn -0.525548 0.000000 -0.850764
vn 0.139107 0.000000 -0.990277
vn 0.000000 0.000000 -1.000000
vn 0.525548 0.000000 -0.850764
vn 1.000000 0.000000 0.000000
vn 1.000000 0.000000 0.000000
vn 0.139107 0.000000 0.990277
vn 0.525548 0.000000 0.850764
vn 0.000000 0.000000 1.000000
vn 0.000000 -1.000000 0.000000
vn 0.000000 -1.000000 0.000000
vn 0.000000 -1.000000 0.000000
vn 0.000000 -1.000000 0.000000
vn 0.000000 1.000000 0.000000
vn 0.000000 1.000000 0.000000
vn 0.000000 1.000000 0.000000
vn 0.000000 1.000000 0.000000
vn 0.000000 -1.000000 0.000000
vn 0.000000 -1.000000 0.000000
vn 0.000000 -1.000000 0.000000
vn 0.000000 -1.000000 0.000000
vn 0.000000 1.000000 0.000000
vn 0.000000 1.000000 0.000000
vn 0.000000 1.000000 0.000000
vn 0.000000 1.000000 0.000000
vn 0.000000 -1.000000 0.000000
vn 0.000000 -1.000000 0.000000
vn 0.000000 -1.000000 0.000000
vn 0.000000 -1.000000 0.000000
vn 0.000000 1.000000 0.000000
vn 0.000000 1.000000 0.000000
vn 0.000000 1.000000 0.000000
vn 0.000000 1.000000 0.000000
vn 0.000000 -1.000000 0.000000
vn 0.000000 -1.000000 0.000000
vn 0.000000 -1.000000 0.000000
vn 0.000000 -1.000000 0.000000
vn 0.000000 1.000000 0.000000
vn 0.000000 1.000000 0.000000
vn 0.000000 1.000000 0.000000
vn 0.000000 1.000000 0.000000
vn 0.000000 -1.000000 0.000000
vn 0.000000 -1.000000 0.000000
vn 0.000000 -1.000000 0.000000
vn 0.000000 -1.000000 0.000000
vn 0.000000 1.000000 0.000000
vn 0.000000 1.000000 0.000000
vn 0.000000 1.000000 0.000000
vn 0.000000 1.000000 0.000000
vn 0.000000 -1.000000 0.000000
vn 0.000000 -1.000000 0.000000
vn 0.000000 -1.000000 0.000000
vn 0.000000 -1.000000 0.000000
vn 0.000000 1.000000 0.000000
vn 0.000000 1.000000 0.000000
vn 0.000000 1.000000 0.000000
vn 0.000000 1.000000 0.000000
vn 0.000000 -1.000000 0.000000
vn 0.000000 -1.000000 0.000000
vn 0.000000 -1.000000 0.000000
vn 0.000000 -1.000000 0.000000
vn 0.000000 1.000000 0.000000
vn 0.000000 1.000000 0.000000
vn 0.000000 1.000000 0.000000
vn 0.000000 1.000000 0.000000
vn 0.000000 -1.000000 0.000000
vn 0.000000 -1.000000 0.000000
vn 0.000000 -1.000000 0.000000
vn 0.000000 -1.000000 0.000000
vn 0.000000 1.000000 0.000000
vn 0.000000 1.000000 0.000000
vn 0.000000 1.000000 0.000000
vn 0.000000 1.000000 0.000000
vn -1.000000 0.000000 0.000000
vn -1.000000 0.000000 0.000000
vn -1.000000 0.000000 0.000000
vn -1.000000 0.000000 0.000000
vn -1.000000 0.000000 0.000000
vn -1.000000 0.000000 0.000000
vn -1.000000 0.000000 0.000000
vn -1.000000 0.000000 0.000000
vn -1.000000 0.000000 0.000000
vn -1.000000 0.000000 0.000000
vn -1.000000 0.000000 0.000000
vn -1.000000 0.000000 0.000000
vn -1.000000 0.000000 0.000000
vn -1.000000 0.000000 0.000000
vn -1.000000 0.000000 0.000000
vn -1.000000 0.000000 0.000000
vn 0.692290 0.203635 -0.692291
vn 0.341991 0.875262 -0.341992
vn 0.483649 0.875262 -0.000000
vn 0.979047 0.203635 -0.000000
vn 0.000000 0.203635 -0.979047
vn 0.000000 0.875262 -0.483649
vn -0.692290 0.203635 -0.692291
vn -0.341991 0.875262 -0.341991
vn -0.979047 0.203635 -0.000000
vn -0.483649 0.875262 0.000000
vn -0.692290 0.203635 0.692291
vn -0.341991 0.875262 0.341991
vn -0.000000 0.203635 0.979047
vn -0.000000 0.875262 0.483649
vn 0.692291 0.203635 0.692291
vn 0.341991 0.875262 0.341992
vn 0.707106 0.000000 -0.707107
vn -0.000000 0.000000 -1.000000
vn -0.707106 0.000000 -0.707107
vn -1.000000 0.000000 0.000000
vn -0.707106 0.000000 0.707107
vn -0.000000 0.000000 1.000000
vn 0.707106 0.000000 0.707107
vn 1.000000 0.000000 -0.000000
vn -0.000000 0.971160 -0.238428
vn 0.168593 0.971160 -0.168595
vn -0.168593 0.971160 -0.168593
vn -0.238427 0.971160 0.000001
vn -0.168593 0.971160 0.168593
vn -0.000000 0.971160 0.238428
vn 0.168593 0.971160 0.168594
vn 0.238427 0.971160 0.000000
s 1
g polySurface2
usemtl initialShadingGroup
f 99/1/1 18/2/2 96/3/3 98/4/4
s 2
f 110/5/5 20/6/6 22/7/7 109/8/8
s 3
f 101/9/9 93/10/10 24/11/11 100/12/12
s 4
f 100/12/13 24/11/14 18/13/15 99/14/16
s 5
f 26/15/17 25/16/18 94/17/19 95/18/20
s off
f 29/19/21 30/20/22 90/21/23 91/22/24
s 4
f 18/13/15 24/11/14 25/23/25 26/24/26
s 3
f 24/11/11 93/10/10 94/17/27 25/16/28
s 2
f 22/7/7 20/6/6 28/25/29 27/26/30
s 1
f 96/3/3 18/2/2 26/15/31 95/18/32
s 4
f 23/27/33 17/28/34 30/29/35 29/30/36
s 1
f 17/31/37 89/32/38 90/33/39 30/34/40
s 2
f 19/35/41 21/36/42 32/37/43 31/38/44
s 3
f 92/39/45 23/27/46 29/19/47 91/22/48
s 1
f 33/40/49 19/35/50 31/41/51 34/42/52
s off
f 35/43/53 34/44/54 31/45/55 32/46/56
s 3
f 21/47/57 36/48/58 35/43/59 32/46/60
f 109/49/61 22/50/62 37/51/63 108/52/64
f 38/53/65 37/51/63 22/50/62 27/54/66
s 5
f 39/55/67 38/53/68 27/54/69 28/56/70
s 1
f 20/6/71 40/57/72 39/55/73 28/56/74
f 111/58/75 40/57/72 20/6/71 110/5/76
s 3
f 108/52/64 37/51/63 45/59/77 107/60/78
f 46/61/79 45/59/77 37/51/63 38/53/65
s 5
f 47/62/80 46/61/81 38/53/68 39/55/67
s 1
f 40/57/72 48/63/82 47/62/83 39/55/73
f 112/64/84 48/63/82 40/57/72 111/58/75
f 49/65/85 41/66/86 42/67/87 50/68/88
s off
f 51/69/89 50/70/90 42/71/91 43/72/92
s 3
f 44/73/93 52/74/94 51/69/95 43/72/96
f 107/60/78 45/59/77 53/75/97 106/76/98
f 54/77/99 53/75/97 45/59/77 46/61/79
s 5
f 55/78/100 54/77/101 46/61/81 47/62/80
s 1
f 48/63/82 56/79/102 55/78/103 47/62/83
f 113/80/104 56/79/102 48/63/82 112/64/84
s 3
f 106/76/98 53/75/97 61/81/105 105/82/106
f 62/83/107 61/81/105 53/75/97 54/77/99
s 5
f 63/84/108 62/83/109 54/77/101 55/78/100
s 1
f 56/79/102 64/85/110 63/84/111 55/78/103
f 114/86/112 64/85/110 56/79/102 113/80/104
f 65/87/113 57/88/114 58/89/115 66/90/116
s off
f 67/91/117 66/92/118 58/93/119 59/94/120
s 3
f 60/95/121 68/96/122 67/91/123 59/94/124
f 105/82/106 61/81/105 69/97/125 104/98/126
f 70/99/127 69/97/125 61/81/105 62/83/107
s 5
f 71/100/128 70/99/129 62/83/109 63/84/108
s 1
f 64/85/110 72/101/130 71/100/131 63/84/111
f 115/102/132 72/101/130 64/85/110 114/86/112
s 3
f 104/98/126 69/97/125 77/103/133 103/104/134
f 78/105/135 77/103/133 69/97/125 70/99/127
s 5
f 79/106/136 78/105/137 70/99/129 71/100/128
s 1
f 72/101/130 80/107/138 79/106/139 71/100/131
f 116/108/140 80/107/138 72/101/130 115/102/132
f 81/109/141 73/110/142 74/111/143 82/112/144
s off
f 83/113/145 82/114/146 74/115/147 75/116/148
s 3
f 76/117/149 84/118/150 83/113/151 75/116/152
f 103/104/134 77/103/133 85/119/153 102/120/154
f 86/121/155 85/119/153 77/103/133 78/105/135
s 5
f 87/122/156 86/121/157 78/105/137 79/106/136
s 1
f 80/107/138 88/123/158 87/122/159 79/106/139
f 116/108/140 97/124/160 88/123/158 80/107/138
s 3
f 102/120/154 85/119/153 93/10/10 101/9/9
f 94/17/27 93/10/10 85/119/153 86/121/155
s 5
f 95/18/20 94/17/19 86/121/157 87/122/156
s 1
f 88/123/158 96/3/3 95/18/32 87/122/159
f 98/4/4 96/3/3 88/123/158 97/124/160
f 17/31/37 99/1/1 98/4/4 89/32/38
s 4
f 23/27/33 100/12/13 99/14/16 17/28/34
s 3
f 92/39/45 101/9/9 100/12/12 23/27/46
f 76/117/149 103/104/134 102/120/154 84/118/150
f 60/95/121 105/82/106 104/98/126 68/96/122
f 44/73/93 107/60/78 106/76/98 52/74/94
f 21/47/57 109/49/61 108/52/64 36/48/58
s 2
f 19/35/41 110/5/5 109/8/8 21/36/42
s 1
f 33/40/49 111/58/75 110/5/76 19/35/50
f 49/65/85 113/80/104 112/64/84 41/66/86
f 65/87/113 115/102/132 114/86/112 57/88/114
f 81/109/141 97/124/160 116/108/140 73/110/142
s off
f 34/44/161 35/43/162 36/125/163 33/126/164
f 43/72/165 42/71/166 41/127/167 44/128/168
f 50/70/169 51/69/170 52/129/171 49/130/172
f 59/94/173 58/93/174 57/131/175 60/132/176
f 66/92/177 67/91/178 68/133/179 65/134/180
f 75/116/181 74/115/182 73/135/183 76/136/184
f 82/114/185 83/113/186 84/137/187 81/138/188
f 91/22/189 90/21/190 89/139/191 92/140/192
f 33/141/193 36/142/194 108/143/195 111/144/196
f 44/145/197 41/146/198 112/147/199 107/148/200
f 49/149/201 52/150/202 106/151/203 113/152/204
f 60/153/205 57/154/206 114/155/207 105/156/208
f 65/157/209 68/158/210 104/159/211 115/160/212
f 76/161/213 73/162/214 116/163/215 103/164/216
f 81/165/217 84/166/218 102/167/219 97/168/220
f 92/169/221 89/170/222 98/171/223 101/172/224
f 98/173/225 97/174/226 102/175/227 101/176/228
f 104/177/229 103/178/230 116/179/231 115/180/232
f 106/181/233 105/182/234 114/183/235 113/184/236
f 108/185/237 107/186/238 112/187/239 111/188/240
s 17
f 117/189/241 118/236/242 131/234/243 132/218/244
f 118/236/242 117/197/241 120/190/245 119/222/246
f 119/222/246 120/200/245 122/191/247 121/224/248
f 121/224/248 122/203/247 124/192/249 123/226/250
f 123/226/250 124/206/249 126/193/251 125/228/252
f 125/228/252 126/209/251 128/194/253 127/230/254
f 127/230/254 128/212/253 130/195/255 129/232/256
f 129/232/256 130/215/255 132/196/244 131/234/243
f 120/190/245 117/197/241 9/198/257 10/199/258
f 122/191/247 120/200/245 10/201/258 11/202/259
f 124/192/249 122/203/247 11/204/259 12/205/260
f 126/193/251 124/206/249 12/207/260 13/208/261
f 128/194/253 126/209/251 13/210/261 14/211/262
f 130/195/255 128/212/253 14/213/262 15/214/263
f 132/196/244 130/215/255 15/216/263 16/217/264
f 117/189/241 132/218/244 16/219/264 9/220/257
f 2/221/265 1/235/266 118/236/242 119/222/246
f 3/223/267 2/221/265 119/222/246 121/224/248
f 4/225/268 3/223/267 121/224/248 123/226/250
f 5/227/269 4/225/268 123/226/250 125/228/252
f 6/229/270 5/227/269 125/228/252 127/230/254
f 7/231/271 6/229/270 127/230/254 129/232/256
f 8/233/272 7/231/271 129/232/256 131/234/243
f 1/235/266 8/233/272 131/234/243 118/236/242
