# This file uses centimeters as units for non-parametric coordinates.

mtllib mdl_houseWall.mtl
g default
v -3.431802 0.062431 -7.294350
v 3.427669 0.064933 -7.271969
v -3.434714 4.671498 -7.294350
v 3.427669 4.669797 -7.271968
vt 0.000424 0.000000
vt 1.000000 0.000543
vt 1.000000 0.999631
vt 0.000000 1.000000
vn -0.003262 -0.000001 0.999995
vn -0.003262 -0.000001 0.999995
vn -0.003262 -0.000001 0.999995
vn -0.003262 -0.000001 0.999995
s off
g pPlane1
usemtl lambert2SG
f 1/1/1 2/2/2 4/3/3 3/4/4
