# Blender v2.74 (sub 0) OBJ File: 'Sprint 3.blend'
# www.blender.org
mtllib matchbox.mtl
o Cube.001_Cube.002
v 0.436687 1.075432 0.261664
v 0.436687 1.048604 0.261664
v 0.436687 1.075432 0.184010
v 0.436687 1.048604 0.184010
v 0.381868 1.075432 0.261664
v 0.381868 1.048604 0.261664
v 0.381868 1.075432 0.184010
v 0.381868 1.048604 0.184010
v 0.526525 1.076356 0.262132
v 0.526525 1.047992 0.262132
v 0.526525 1.076356 0.183542
v 0.526525 1.047992 0.183542
v 0.414594 1.076356 0.262132
v 0.414594 1.047992 0.262132
v 0.414594 1.076356 0.183542
v 0.414594 1.047992 0.183542
v 0.436687 1.072434 0.261664
v 0.436687 1.072434 0.184010
v 0.381868 1.072434 0.184010
v 0.381868 1.072434 0.261664
vt 0.829179 0.908924
vt 0.829179 0.926708
vt 0.502542 0.926708
vt 0.502542 0.908924
vt 0.671371 0.861736
vt 0.917053 0.861736
vt 0.917053 0.879520
vt 0.671371 0.879520
vt 0.917053 0.897903
vt 0.671371 0.897903
vt 0.671371 0.880119
vt 0.917053 0.880119
vt 0.502542 0.326935
vt 0.502542 0.000299
vt 0.748225 0.000299
vt 0.748225 0.326935
vt 0.998055 0.577865
vt 0.998007 0.719202
vt 0.671371 0.719089
vt 0.671419 0.577752
vt 0.502542 0.908325
vt 0.502542 0.577752
vt 0.670772 0.577752
vt 0.670772 0.908325
vt 0.000299 0.831471
vt 0.501943 0.831471
vt 0.501943 0.999701
vt 0.000299 0.999701
vt 0.501943 0.830872
vt 0.000299 0.830872
vt 0.000299 0.662642
vt 0.501943 0.662642
vt 0.000299 0.662044
vt 0.000299 0.331471
vt 0.501943 0.331471
vt 0.501943 0.662044
vt 0.501943 0.000299
vt 0.501943 0.330872
vt 0.000299 0.330872
vt 0.000299 0.000299
vt 0.917053 0.861137
vt 0.671371 0.861137
vt 0.671371 0.719800
vt 0.917053 0.719800
vt 0.748823 0.245982
vt 0.748823 0.000299
vt 0.890160 0.000299
vt 0.890160 0.245982
vt 0.829178 0.331471
vt 0.829178 0.577154
vt 0.502542 0.577154
vt 0.502542 0.331471
vn -1.000000 0.000000 0.000000
vn 0.000000 0.000000 -1.000000
vn 0.000000 0.000000 1.000000
vn 0.000000 -1.000000 0.000000
vn 1.000000 0.000000 0.000000
vn 0.000000 1.000000 0.000000
usemtl Matchbox
s off
f 7/1/1 19/2/1 20/3/1 5/4/1
f 18/5/2 19/6/2 7/7/2 3/8/2
f 20/9/3 17/10/3 1/11/3 5/12/3
f 6/13/4 8/14/4 4/15/4 2/16/4
f 19/17/1 8/18/1 6/19/1 20/20/1
f 10/21/5 12/22/5 11/23/5 9/24/5
f 12/25/2 16/26/2 15/27/2 11/28/2
f 14/29/3 10/30/3 9/31/3 13/32/3
f 9/33/6 11/34/6 15/35/6 13/36/6
f 14/37/4 16/38/4 12/39/4 10/40/4
f 6/41/3 2/42/3 17/43/3 20/44/3
f 4/45/2 8/46/2 19/47/2 18/48/2
f 18/49/6 19/50/6 20/51/6 17/52/6
