# This file uses centimeters as units for non-parametric coordinates.

mtllib labBase.mtl
g default
v -3.436001 -2.164884 -7.276411
v 3.427598 -2.164884 -7.276411
v -3.436001 -1.926112 -7.276411
v 3.427598 -1.926112 -7.276411
v -3.436001 -1.926112 -7.294805
v 3.427598 -1.926112 -7.294805
v -3.436001 -2.164884 -7.294805
v 3.427598 -2.164884 -7.294805
v 3.427598 -1.973866 -7.276411
v -3.436001 -1.973866 -7.276411
v -3.436001 -1.973866 -7.294805
v 3.427598 -1.973866 -7.294805
v 3.427598 -2.021621 -7.276411
v -3.436001 -2.021621 -7.276411
v -3.436001 -2.021621 -7.294805
v 3.427598 -2.021621 -7.294805
v 3.364502 -2.003697 -7.267962
v -3.372905 -2.003697 -7.267962
v 3.364502 -1.991791 -7.267962
v -3.372905 -1.991791 -7.267962
vt 0.000143 0.998008
vt 0.000143 0.001992
vt 0.020933 0.001992
vt 0.020933 0.998008
vt 0.023534 0.011148
vt 0.023534 0.988852
vt 0.027863 0.001992
vt 0.025262 0.011148
vt 0.025262 0.988852
vt 0.027863 0.998008
vt 0.034793 0.001992
vt 0.034793 0.998008
vt 0.041159 0.998008
vt 0.041159 0.001992
vt 0.043828 0.001992
vt 0.043828 0.998008
vt 0.050438 0.998008
vt 0.050438 0.001992
vt 0.053108 0.001992
vt 0.053108 0.998008
vt 0.059718 0.022782
vt 0.059718 0.001992
vt 0.062387 0.001992
vt 0.062387 0.022782
vt 0.062387 0.029712
vt 0.059718 0.029712
vt 0.062387 0.036642
vt 0.059718 0.036642
vt 0.068997 0.001992
vt 0.071667 0.001992
vt 0.071667 0.022782
vt 0.068997 0.022782
vt 0.071667 0.029712
vt 0.068997 0.029712
vt 0.071667 0.036642
vt 0.068997 0.036642
vn 0.000000 0.000000 1.000000
vn 0.000000 0.000000 1.000000
vn 0.000206 -0.011036 0.999939
vn -0.000206 -0.011036 0.999939
vn 0.000000 1.000000 0.000000
vn 0.000000 1.000000 0.000000
vn 0.000000 1.000000 0.000000
vn 0.000000 1.000000 0.000000
vn 0.000000 -1.000000 0.000000
vn 0.000000 -1.000000 0.000000
vn 0.000000 -1.000000 0.000000
vn 0.000000 -1.000000 0.000000
vn 1.000000 0.000000 0.000000
vn 1.000000 0.000000 0.000000
vn 1.000000 0.000000 0.000000
vn 1.000000 0.000000 0.000000
vn -1.000000 0.000000 0.000000
vn -1.000000 0.000000 0.000000
vn -1.000000 0.000000 0.000000
vn -1.000000 0.000000 0.000000
vn -0.000589 0.031521 0.999503
vn 0.000589 0.031521 0.999503
vn 0.000000 0.000000 1.000000
vn 0.000000 0.000000 1.000000
vn -1.000000 0.000000 0.000000
vn -1.000000 0.000000 0.000000
vn -1.000000 0.000000 0.000000
vn -1.000000 0.000000 0.000000
vn 1.000000 0.000000 0.000000
vn 1.000000 0.000000 0.000000
vn 1.000000 0.000000 0.000000
vn 1.000000 0.000000 0.000000
vn -0.000925 -0.324412 0.945915
vn 0.000925 -0.324412 0.945915
vn 0.000925 0.324408 0.945917
vn -0.000925 0.324408 0.945917
s 1
g polySurface1 pCube13
usemtl initialShadingGroup
f 1/1/1 2/2/2 13/3/3 14/4/4
s off
f 3/13/5 4/14/6 6/15/7 5/16/8
f 7/17/9 8/18/10 2/19/11 1/20/12
s 2
f 13/21/13 2/22/14 8/23/15 16/24/16
s 3
f 7/29/17 1/30/18 14/31/19 15/32/20
s 1
f 10/10/21 9/7/22 4/11/23 3/12/24
s 3
f 11/34/25 10/33/26 3/35/27 5/36/28
s 2
f 9/26/29 12/25/30 6/27/31 4/28/32
s 1
f 18/6/33 17/5/34 19/8/35 20/9/36
s 3
f 15/32/20 14/31/19 10/33/26 11/34/25
s 2
f 13/21/13 16/24/16 12/25/30 9/26/29
s 1
f 14/4/4 13/3/3 17/5/34 18/6/33
f 13/3/3 9/7/22 19/8/35 17/5/34
f 9/7/22 10/10/21 20/9/36 19/8/35
f 10/10/21 14/4/4 18/6/33 20/9/36
g default
v -3.436001 -2.164884 7.257267
v 3.427598 -2.164884 7.257267
v -3.436001 -1.926112 7.257267
v 3.427598 -1.926112 7.257267
v -3.436001 -1.926112 7.238873
v 3.427598 -1.926112 7.238873
v -3.436001 -2.164884 7.238873
v 3.427598 -2.164884 7.238873
v -3.436001 -2.021621 7.238873
v -3.436001 -2.021621 7.257267
v 3.427598 -2.021621 7.257267
v 3.427598 -2.021621 7.238873
v -3.436001 -1.973866 7.238873
v -3.436001 -1.973866 7.257267
v 3.427598 -1.973866 7.257267
v 3.427598 -1.973866 7.238873
v 3.364502 -1.991791 7.230425
v -3.372905 -1.991791 7.230425
v 3.364502 -2.003697 7.230425
v -3.372905 -2.003697 7.230425
vt 0.009608 0.998008
vt 0.009608 0.001992
vt 0.012277 0.001992
vt 0.012277 0.998008
vt 0.018888 0.998008
vt 0.018888 0.001992
vt 0.025818 0.001992
vt 0.025818 0.998008
vt 0.028419 0.011148
vt 0.028419 0.988852
vt 0.032747 0.001992
vt 0.030146 0.011148
vt 0.030146 0.988852
vt 0.032747 0.998008
vt 0.053538 0.998008
vt 0.053538 0.001992
vt 0.000143 0.998008
vt 0.000143 0.001992
vt 0.002812 0.001992
vt 0.002812 0.998008
vt 0.059718 0.029712
vt 0.062387 0.029712
vt 0.062387 0.036642
vt 0.059718 0.036642
vt 0.059718 0.022782
vt 0.062387 0.022782
vt 0.062387 0.001992
vt 0.059718 0.001992
vt 0.068997 0.029712
vt 0.071666 0.029712
vt 0.071666 0.036642
vt 0.068997 0.036642
vt 0.068997 0.022782
vt 0.071666 0.022782
vt 0.068997 0.001992
vt 0.071666 0.001992
vn 0.000000 1.000000 0.000000
vn 0.000000 1.000000 0.000000
vn 0.000000 1.000000 0.000000
vn 0.000000 1.000000 0.000000
vn 0.000000 0.000000 -1.000000
vn 0.000000 0.000000 -1.000000
vn 0.000589 0.031521 -0.999503
vn -0.000589 0.031521 -0.999503
vn 0.000000 -1.000000 0.000000
vn 0.000000 -1.000000 0.000000
vn 0.000000 -1.000000 0.000000
vn 0.000000 -1.000000 0.000000
vn 1.000000 0.000000 0.000000
vn 1.000000 0.000000 0.000000
vn 1.000000 0.000000 0.000000
vn 1.000000 0.000000 0.000000
vn -1.000000 0.000000 0.000000
vn -1.000000 0.000000 0.000000
vn -1.000000 0.000000 0.000000
vn -1.000000 0.000000 0.000000
vn -1.000000 0.000000 0.000000
vn -1.000000 0.000000 0.000000
vn -1.000000 0.000000 0.000000
vn -1.000000 0.000000 0.000000
vn 1.000000 0.000000 0.000000
vn 1.000000 0.000000 0.000000
vn 1.000000 0.000000 0.000000
vn 1.000000 0.000000 0.000000
vn 0.000000 0.000000 -1.000000
vn -0.000206 -0.011036 -0.999939
vn 0.000206 -0.011036 -0.999939
vn 0.000000 0.000000 -1.000000
vn -0.000925 0.324408 -0.945917
vn 0.000925 0.324408 -0.945917
vn 0.000925 -0.324412 -0.945915
vn -0.000925 -0.324412 -0.945915
s off
g pCube13 polySurface2
usemtl initialShadingGroup
f 23/37/37 24/38/38 26/39/39 25/40/40
s 1
f 25/41/41 26/42/42 36/43/43 33/44/44
s off
f 27/53/45 28/54/46 22/55/47 21/56/48
s 2
f 35/57/49 36/58/50 26/59/51 24/60/52
s 3
f 33/65/53 34/66/54 23/67/55 25/68/56
f 30/70/57 29/69/58 27/71/59 21/72/60
s 2
f 28/63/61 32/62/62 31/61/63 22/64/64
s 1
f 27/51/65 29/50/66 32/47/67 28/52/68
s 3
f 29/69/58 30/70/57 34/66/54 33/65/53
s 2
f 31/61/63 32/62/62 36/58/50 35/57/49
s 1
f 38/46/69 37/45/70 39/48/71 40/49/72
f 33/44/44 36/43/43 37/45/70 38/46/69
f 36/43/43 32/47/67 39/48/71 37/45/70
f 32/47/67 29/50/66 40/49/72 39/48/71
f 29/50/66 33/44/44 38/46/69 40/49/72
g default
v 3.427598 -2.164884 7.238873
v 3.427598 -2.164884 -7.276411
v 3.427598 -1.926112 7.238873
v 3.427598 -1.926112 -7.276411
v 3.409204 -1.926112 7.238873
v 3.409204 -1.926112 -7.276411
v 3.409204 -2.164884 7.238873
v 3.409204 -2.164884 -7.276411
v 3.409204 -2.021621 7.238873
v 3.427598 -2.021621 7.238873
v 3.427598 -2.021621 -7.276410
v 3.409204 -2.021621 -7.276410
v 3.409204 -1.973866 7.238873
v 3.427598 -1.973866 7.238873
v 3.427598 -1.973866 -7.276410
v 3.409204 -1.973866 -7.276410
v 3.400756 -1.991791 -7.142973
v 3.400756 -1.991791 7.105436
v 3.400756 -2.003697 -7.142973
v 3.400756 -2.003697 7.105436
vt 0.001357 0.001992
vt 0.001357 0.998008
vt 0.000095 0.998008
vt 0.000095 0.001992
vt 0.023998 0.001992
vt 0.023998 0.998008
vt 0.020721 0.998008
vt 0.020721 0.001992
vt 0.019491 0.988852
vt 0.019491 0.011148
vt 0.017444 0.998008
vt 0.018674 0.988852
vt 0.018674 0.011148
vt 0.017444 0.001992
vt 0.007614 0.001992
vt 0.007614 0.998008
vt 0.031456 0.998008
vt 0.031456 0.001992
vt 0.032718 0.001992
vt 0.032718 0.998008
vt 0.040054 0.005269
vt 0.038792 0.005269
vt 0.038792 0.001992
vt 0.040054 0.001992
vt 0.040054 0.008546
vt 0.038792 0.008546
vt 0.038792 0.018376
vt 0.040054 0.018376
vt 0.046128 0.015099
vt 0.047390 0.015099
vt 0.047390 0.018376
vt 0.046128 0.018376
vt 0.046128 0.011823
vt 0.047390 0.011823
vt 0.046128 0.001992
vt 0.047390 0.001992
vn 0.000000 1.000000 0.000000
vn 0.000000 1.000000 0.000000
vn 0.000000 1.000000 0.000000
vn 0.000000 1.000000 0.000000
vn -1.000000 0.000000 0.000000
vn -1.000000 0.000000 0.000000
vn -0.999875 0.015813 -0.000320
vn -0.999875 0.015813 0.000320
vn 0.000000 -1.000000 0.000000
vn 0.000000 -1.000000 0.000000
vn 0.000000 -1.000000 0.000000
vn 0.000000 -1.000000 0.000000
vn 0.000000 -0.000010 -1.000000
vn 0.000000 -0.000010 -1.000000
vn 0.000000 -0.000020 -1.000000
vn 0.000000 -0.000020 -1.000000
vn 0.000000 0.000000 1.000000
vn 0.000000 0.000000 1.000000
vn 0.000000 0.000000 1.000000
vn 0.000000 0.000000 1.000000
vn 0.000000 0.000000 1.000000
vn 0.000000 0.000000 1.000000
vn 0.000000 0.000000 1.000000
vn 0.000000 0.000000 1.000000
vn 0.000000 0.000007 -1.000000
vn 0.000000 0.000005 -1.000000
vn 0.000000 0.000005 -1.000000
vn 0.000000 0.000007 -1.000000
vn -1.000000 0.000000 0.000000
vn -0.999985 -0.005411 0.000109
vn -0.999985 -0.005411 -0.000109
vn -1.000000 0.000000 0.000000
vn -0.944419 0.328745 0.000388
vn -0.944419 0.328745 -0.000388
vn -0.944418 -0.328748 -0.000388
vn -0.944418 -0.328748 0.000388
s off
g pCube13 polySurface3
usemtl initialShadingGroup
f 43/73/73 44/74/74 46/75/75 45/76/76
s 1
f 45/77/77 46/78/78 56/79/79 53/80/80
s off
f 47/89/81 48/90/82 42/91/83 41/92/84
s 2
f 55/93/85 56/94/86 46/95/87 44/96/88
s 3
f 53/101/89 54/102/90 43/103/91 45/104/92
f 50/106/93 49/105/94 47/107/95 41/108/96
s 2
f 48/99/97 52/98/98 51/97/99 42/100/100
s 1
f 47/87/101 49/86/102 52/83/103 48/88/104
s 3
f 49/105/94 50/106/93 54/102/90 53/101/89
s 2
f 51/97/99 52/98/98 56/94/86 55/93/85
s 1
f 58/82/105 57/81/106 59/84/107 60/85/108
f 53/80/80 56/79/79 57/81/106 58/82/105
f 56/79/79 52/83/103 59/84/107 57/81/106
f 52/83/103 49/86/102 60/85/108 59/84/107
f 49/86/102 53/80/80 58/82/105 60/85/108
g default
v -3.416318 -2.164884 -6.801682
v -3.416318 -2.164884 -7.276411
v -3.416318 -1.926112 -6.801682
v -3.416318 -1.926112 -7.276411
v -3.434711 -1.926112 -6.801682
v -3.434711 -1.926112 -7.276411
v -3.434711 -2.164884 -6.801682
v -3.434711 -2.164884 -7.276411
v -3.416318 -1.973866 -6.801682
v -3.434711 -1.973866 -6.801682
v -3.434711 -1.973866 -7.276411
v -3.416318 -1.973866 -7.276411
v -3.416318 -2.021621 -6.801682
v -3.434711 -2.021621 -6.801682
v -3.434711 -2.021621 -7.276411
v -3.416318 -2.021621 -7.276411
v -3.407870 -2.003696 -7.272047
v -3.407870 -2.003696 -6.806046
v -3.407870 -1.991790 -7.272047
v -3.407870 -1.991790 -6.806046
v -3.416318 -2.164884 7.238873
v -3.416318 -2.164884 -5.143322
v -3.416318 -1.926112 7.238873
v -3.416318 -1.926112 -5.143322
v -3.434711 -1.926112 7.238873
v -3.434711 -1.926112 -5.143322
v -3.434711 -2.164884 7.238873
v -3.434711 -2.164884 -5.143322
v -3.416318 -1.973866 7.238873
v -3.434711 -1.973866 7.238873
v -3.434711 -1.973866 -5.143322
v -3.416318 -1.973866 -5.143322
v -3.416318 -2.021621 7.238873
v -3.434711 -2.021621 7.238873
v -3.434711 -2.021621 -5.143322
v -3.416318 -2.021621 -5.143322
v -3.407870 -2.003696 -5.029494
v -3.407870 -2.003696 7.125046
v -3.407870 -1.991790 -5.029494
v -3.407870 -1.991790 7.125046
vt 0.052401 0.040179
vt 0.040877 0.040179
vt 0.040877 0.001992
vt 0.052401 0.001992
vt 0.053842 0.002343
vt 0.053842 0.039828
vt 0.054800 0.002343
vt 0.054800 0.039828
vt 0.056242 0.001992
vt 0.056242 0.040179
vt 0.060083 0.001992
vt 0.060083 0.040179
vt 0.068114 0.001992
vt 0.068114 0.040179
vt 0.066634 0.040179
vt 0.066634 0.001992
vt 0.073993 0.040179
vt 0.073993 0.001992
vt 0.075473 0.001992
vt 0.075473 0.040179
vt 0.082832 0.021199
vt 0.081353 0.021199
vt 0.081353 0.009675
vt 0.082832 0.009675
vt 0.081353 0.005833
vt 0.082832 0.005833
vt 0.081353 0.001992
vt 0.082832 0.001992
vt 0.083512 0.007275
vt 0.083512 0.008233
vt 0.097911 0.001992
vt 0.099390 0.001992
vt 0.099390 0.013516
vt 0.097911 0.013516
vt 0.099390 0.017357
vt 0.097911 0.017357
vt 0.100070 0.014958
vt 0.100070 0.015916
vt 0.099390 0.021199
vt 0.097911 0.021199
vt 0.011741 0.998008
vt 0.000217 0.998008
vt 0.000217 0.001992
vt 0.011741 0.001992
vt 0.013182 0.011148
vt 0.013182 0.988852
vt 0.015582 0.001992
vt 0.014140 0.011148
vt 0.014140 0.988852
vt 0.015582 0.998008
vt 0.019423 0.001992
vt 0.019423 0.998008
vt 0.027638 0.001992
vt 0.027638 0.998008
vt 0.026158 0.998008
vt 0.026158 0.001992
vt 0.033517 0.998008
vt 0.033517 0.001992
vt 0.034997 0.001992
vt 0.034997 0.998008
vt 0.092031 0.021199
vt 0.090552 0.021199
vt 0.090552 0.009675
vt 0.092031 0.009675
vt 0.090552 0.005833
vt 0.092031 0.005833
vt 0.090552 0.001992
vt 0.092031 0.001992
vt 0.107110 0.001992
vt 0.108589 0.001992
vt 0.108589 0.013516
vt 0.107110 0.013516
vt 0.108589 0.017357
vt 0.107110 0.017357
vt 0.108589 0.021199
vt 0.107110 0.021199
vn 0.998966 -0.045455 0.000000
vn 1.000000 0.000000 0.000000
vn 1.000000 0.000000 0.000000
vn 0.998966 -0.045455 0.000000
vn 0.000000 1.000000 0.000000
vn 0.000000 1.000000 0.000000
vn 0.000000 1.000000 0.000000
vn 0.000000 1.000000 0.000000
vn 0.000000 -1.000000 0.000000
vn 0.000000 -1.000000 0.000000
vn 0.000000 -1.000000 0.000000
vn 0.000000 -1.000000 0.000000
vn 0.000000 0.000000 -1.000000
vn 0.000000 0.000000 -1.000000
vn 0.000000 0.000000 -1.000000
vn 0.011252 0.000000 -0.999937
vn 0.000000 0.000000 1.000000
vn 0.000000 0.000000 1.000000
vn 0.011252 0.000000 0.999937
vn 0.000000 0.000000 1.000000
vn 0.000000 0.000000 1.000000
vn 0.022020 0.000000 0.999758
vn 0.000000 0.000000 1.000000
vn 0.000000 0.000000 1.000000
vn 0.022020 0.000000 -0.999758
vn 0.000000 0.000000 -1.000000
vn 0.000000 0.000000 -1.000000
vn 0.000000 0.000000 -1.000000
vn 0.993518 0.113674 0.000000
vn 0.993518 0.113674 0.000000
vn 1.000000 0.000000 0.000000
vn 1.000000 0.000000 0.000000
vn 0.958186 -0.286145 0.000000
vn 0.958186 -0.286145 0.000000
vn 0.958185 0.286150 0.000000
vn 0.958185 0.286150 0.000000
vn 0.458899 0.000000 -0.888489
vn 0.458899 0.000000 -0.888489
vn 0.458899 0.000000 0.888489
vn 0.458899 0.000000 0.888489
vn 0.999980 -0.006314 0.000126
vn 1.000000 0.000000 0.000000
vn 1.000000 0.000000 0.000000
vn 0.999980 -0.006314 -0.000126
vn 0.000000 1.000000 0.000000
vn 0.000000 1.000000 0.000000
vn 0.000000 1.000000 0.000000
vn 0.000000 1.000000 0.000000
vn 0.000000 -1.000000 0.000000
vn 0.000000 -1.000000 0.000000
vn 0.000000 -1.000000 0.000000
vn 0.000000 -1.000000 0.000000
vn 0.000000 0.000000 -1.000000
vn 0.000000 0.000000 -1.000000
vn 0.000000 0.000000 -1.000000
vn 0.000000 0.000000 -1.000000
vn 0.000000 0.000000 1.000000
vn 0.000000 0.000000 1.000000
vn 0.000000 0.000000 1.000000
vn 0.000000 0.000000 1.000000
vn 0.000000 0.000000 1.000000
vn 0.000000 0.000000 1.000000
vn 0.000000 0.000000 1.000000
vn 0.000000 0.000000 1.000000
vn 0.000000 0.000000 -1.000000
vn 0.000000 0.000000 -1.000000
vn 0.000000 0.000000 -1.000000
vn 0.000000 0.000000 -1.000000
vn 0.999831 0.018384 0.000367
vn 0.999831 0.018384 -0.000367
vn 1.000000 0.000000 0.000000
vn 1.000000 0.000000 0.000000
vn 0.944649 -0.328083 0.000464
vn 0.944649 -0.328083 -0.000464
vn 0.944647 0.328089 -0.000464
vn 0.944647 0.328089 0.000464
s 1
g polySurface5
usemtl initialShadingGroup
f 73/109/109 61/110/110 62/111/111 76/112/112
s off
f 63/121/113 64/122/114 66/123/115 65/124/116
f 67/125/117 68/126/118 62/127/119 61/128/120
s 2
f 62/129/121 68/130/122 75/131/123 76/132/124
s 3
f 67/139/125 61/140/126 73/141/127 74/142/128
f 70/144/129 69/143/130 63/147/131 65/148/132
s 2
f 72/134/133 71/133/134 66/135/135 64/136/136
s 1
f 69/118/137 72/117/138 64/119/139 63/120/140
s 3
f 74/142/128 73/141/127 69/143/130 70/144/129
s 2
f 76/132/124 75/131/123 71/133/134 72/134/133
s 1
f 78/114/141 77/113/142 79/115/143 80/116/144
f 73/109/109 76/112/112 77/113/142 78/114/141
s 2
f 76/132/124 72/134/133 79/137/145 77/138/146
s 1
f 72/117/138 69/118/137 80/116/144 79/115/143
s 3
f 69/143/130 73/141/127 78/145/147 80/146/148
s 5
f 93/149/149 81/150/150 82/151/151 96/152/152
s off
f 83/161/153 84/162/154 86/163/155 85/164/156
f 87/165/157 88/166/158 82/167/159 81/168/160
s 6
f 82/169/161 88/170/162 95/171/163 96/172/164
s 7
f 87/177/165 81/178/166 93/179/167 94/180/168
f 90/182/169 89/181/170 83/183/171 85/184/172
s 6
f 92/174/173 91/173/174 86/175/175 84/176/176
s 5
f 89/158/177 92/155/178 84/159/179 83/160/180
s 7
f 94/180/168 93/179/167 89/181/170 90/182/169
s 6
f 96/172/164 95/171/163 91/173/174 92/174/173
s 5
f 98/154/181 97/153/182 99/156/183 100/157/184
f 93/149/149 96/152/152 97/153/182 98/154/181
f 96/152/152 92/155/178 99/156/183 97/153/182
f 92/155/178 89/158/177 100/157/184 99/156/183
f 89/158/177 93/149/149 98/154/181 100/157/184
