# This file uses centimeters as units for non-parametric coordinates.

mtllib mdl_outlet.mtl
g default
v -0.034950 0.072150 0.000000
v 0.034950 0.072150 0.000000
v -0.034950 -0.072150 0.000000
v 0.034950 -0.072150 0.000000
v -0.032628 -0.069828 0.009289
v -0.034950 -0.072150 0.006967
v 0.032628 -0.069828 0.009289
v 0.034950 -0.072150 0.006967
v -0.032628 0.069828 0.009289
v -0.034950 0.072150 0.006967
v 0.032628 0.069828 0.009289
v 0.034950 0.072150 0.006967
vt 0.097940 0.034634
vt 0.061113 0.016990
vt 0.938887 0.016990
vt 0.902059 0.034635
vt 0.097940 0.965366
vt 0.061113 0.983010
vt 0.938887 0.983010
vt 0.902059 0.965366
vt 1.000000 1.000000
vt 0.000000 1.000000
vt 0.000000 -0.000000
vt 1.000000 -0.000000
vn 0.000000 -0.707109 0.707104
vn 0.000000 -0.707109 0.707104
vn 0.000000 -0.707109 0.707104
vn 0.000000 -0.707109 0.707104
vn -0.707115 0.000000 0.707099
vn -0.707115 0.000000 0.707099
vn -0.707115 0.000000 0.707099
vn -0.707115 0.000000 0.707099
vn 0.707105 0.000000 0.707109
vn 0.707105 0.000000 0.707109
vn 0.707105 0.000000 0.707109
vn 0.707105 0.000000 0.707109
vn 0.000000 0.707110 0.707103
vn 0.000000 0.707110 0.707103
vn 0.000000 0.707110 0.707103
vn 0.000000 0.707110 0.707103
vn 0.000000 0.000000 1.000000
vn 0.000000 0.000000 1.000000
vn 0.000000 0.000000 1.000000
vn 0.000000 0.000000 1.000000
vn 0.000000 1.000000 0.000000
vn 0.000000 1.000000 0.000000
vn 0.000000 1.000000 0.000000
vn 0.000000 1.000000 0.000000
vn 0.000000 -1.000000 0.000000
vn 0.000000 -1.000000 0.000000
vn 0.000000 -1.000000 0.000000
vn 0.000000 -1.000000 0.000000
vn 1.000000 0.000000 0.000000
vn 1.000000 0.000000 0.000000
vn 1.000000 0.000000 0.000000
vn 1.000000 0.000000 0.000000
vn -1.000000 0.000000 0.000000
vn -1.000000 0.000000 0.000000
vn -1.000000 0.000000 0.000000
vn -1.000000 0.000000 0.000000
s off
g pCube5
usemtl initialShadingGroup
f 5/1/1 6/2/2 8/3/3 7/4/4
f 6/2/5 5/1/6 9/5/7 10/6/8
f 7/4/9 8/3/10 12/7/11 11/8/12
f 10/6/13 9/5/14 11/8/15 12/7/16
f 5/1/17 7/4/18 11/8/19 9/5/20
f 10/6/21 12/7/22 2/9/23 1/10/24
f 3/11/25 4/12/26 8/3/27 6/2/28
f 8/3/29 4/12/30 2/9/31 12/7/32
f 3/11/33 6/2/34 10/6/35 1/10/36
