# This file uses centimeters as units for non-parametric coordinates.

mtllib laserMachineHandle.mtl
g default
v 0.014723 -0.036039 -0.014723
v -0.000000 -0.036039 -0.020821
v -0.014723 -0.036039 -0.014723
v -0.020821 -0.036039 0.000000
v -0.014723 -0.036039 0.014723
v -0.000000 -0.036039 0.020821
v 0.014723 -0.036039 0.014723
v 0.020821 -0.036039 0.000000
v 0.027204 -0.024245 -0.027204
v -0.000000 -0.024245 -0.038473
v -0.027204 -0.024245 -0.027204
v -0.038473 -0.024245 0.000000
v -0.027204 -0.024245 0.027204
v -0.000000 -0.024245 0.038473
v 0.027204 -0.024245 0.027204
v 0.038473 -0.024245 0.000000
v 0.035544 -0.006593 -0.035544
v -0.000000 -0.006593 -0.050267
v -0.035544 -0.006593 -0.035544
v -0.050267 -0.006593 0.000000
v -0.035544 -0.006593 0.035544
v -0.000000 -0.006593 0.050267
v 0.035544 -0.006593 0.035544
v 0.050267 -0.006593 0.000000
v 0.038473 0.018107 -0.038473
v -0.000000 0.018107 -0.054409
v -0.038473 0.018107 -0.038473
v -0.054409 0.018107 0.000000
v -0.038473 0.018107 0.038473
v -0.000000 0.018107 0.054409
v 0.038473 0.018107 0.038473
v 0.054409 0.018107 0.000000
v 0.035544 0.038928 -0.035544
v -0.000000 0.038928 -0.050267
v -0.035544 0.038928 -0.035544
v -0.050267 0.038928 0.000000
v -0.035544 0.038928 0.035544
v -0.000000 0.038928 0.050267
v 0.035544 0.038928 0.035544
v 0.050267 0.038928 0.000000
v 0.022618 0.055006 -0.022618
v -0.000000 0.055006 -0.031987
v -0.022618 0.055006 -0.022618
v -0.031987 0.055006 0.000000
v -0.022618 0.055006 0.022618
v -0.000000 0.055006 0.031987
v 0.022618 0.055006 0.022618
v 0.031987 0.055006 0.000000
v -0.000000 -0.040181 0.000000
v 0.022618 0.375996 -0.022618
v -0.000000 0.375996 -0.031987
v -0.000000 0.387725 -0.018008
v 0.012734 0.387725 -0.012734
v -0.022618 0.375996 -0.022618
v -0.012734 0.387725 -0.012734
v -0.031987 0.375996 0.000000
v -0.018008 0.387725 -0.000000
v -0.022618 0.375996 0.022618
v -0.012734 0.387725 0.012734
v -0.000000 0.375996 0.031987
v -0.000000 0.387725 0.018008
v 0.022618 0.375996 0.022618
v 0.012734 0.387725 0.012734
v 0.031987 0.375996 0.000000
v 0.018008 0.387725 -0.000000
v -0.000000 0.387725 -0.000000
vt 0.000000 0.125000
vt 0.125000 0.125000
vt 0.125000 0.250000
vt 0.000000 0.250000
vt 0.250000 0.125000
vt 0.250000 0.250000
vt 0.375000 0.125000
vt 0.375000 0.250000
vt 0.500000 0.125000
vt 0.500000 0.250000
vt 0.625000 0.125000
vt 0.625000 0.250000
vt 0.750000 0.125000
vt 0.750000 0.250000
vt 0.875000 0.125000
vt 0.875000 0.250000
vt 1.000000 0.125000
vt 1.000000 0.250000
vt 0.125000 0.375000
vt 0.000000 0.375000
vt 0.250000 0.375000
vt 0.375000 0.375000
vt 0.500000 0.375000
vt 0.625000 0.375000
vt 0.750000 0.375000
vt 0.875000 0.375000
vt 1.000000 0.375000
vt 0.125000 0.500000
vt 0.000000 0.500000
vt 0.250000 0.500000
vt 0.375000 0.500000
vt 0.500000 0.500000
vt 0.625000 0.500000
vt 0.750000 0.500000
vt 0.875000 0.500000
vt 1.000000 0.500000
vt 0.125000 0.625000
vt 0.000000 0.625000
vt 0.250000 0.625000
vt 0.375000 0.625000
vt 0.500000 0.625000
vt 0.625000 0.625000
vt 0.750000 0.625000
vt 0.875000 0.625000
vt 1.000000 0.625000
vt 0.125000 0.750000
vt 0.000000 0.750000
vt 0.250000 0.750000
vt 0.375000 0.750000
vt 0.500000 0.750000
vt 0.625000 0.750000
vt 0.750000 0.750000
vt 0.875000 0.750000
vt 1.000000 0.750000
vt 0.000000 0.750000
vt 0.125000 0.750000
vt 0.125000 0.875000
vt 0.000000 0.875000
vt 0.250000 0.750000
vt 0.250000 0.875000
vt 0.375000 0.750000
vt 0.375000 0.875000
vt 0.500000 0.750000
vt 0.500000 0.875000
vt 0.625000 0.750000
vt 0.625000 0.875000
vt 0.750000 0.750000
vt 0.750000 0.875000
vt 0.875000 0.750000
vt 0.875000 0.875000
vt 1.000000 0.750000
vt 1.000000 0.875000
vt 0.062500 0.000000
vt 0.187500 0.000000
vt 0.312500 0.000000
vt 0.437500 0.000000
vt 0.562500 0.000000
vt 0.687500 0.000000
vt 0.812500 0.000000
vt 0.937500 0.000000
vt 0.062500 1.000000
vt 0.187500 1.000000
vt 0.312500 1.000000
vt 0.437500 1.000000
vt 0.562500 1.000000
vt 0.687500 1.000000
vt 0.812500 1.000000
vt 0.937500 1.000000
vn 0.350883 -0.868195 -0.350882
vn -0.000000 -0.868195 -0.496223
vn -0.000000 -0.654264 -0.756266
vn 0.534760 -0.654265 -0.534761
vn -0.350884 -0.868195 -0.350882
vn -0.534760 -0.654265 -0.534760
vn -0.496224 -0.868195 -0.000000
vn -0.756265 -0.654265 0.000000
vn -0.350884 -0.868195 0.350882
vn -0.534760 -0.654265 0.534761
vn 0.000000 -0.868195 0.496223
vn 0.000000 -0.654265 0.756265
vn 0.350884 -0.868195 0.350881
vn 0.534760 -0.654266 0.534760
vn 0.496224 -0.868194 -0.000001
vn 0.756265 -0.654265 -0.000000
vn -0.000000 -0.317790 -0.948161
vn 0.670451 -0.317790 -0.670451
vn -0.670451 -0.317790 -0.670451
vn -0.948161 -0.317790 0.000000
vn -0.670451 -0.317790 0.670451
vn 0.000000 -0.317790 0.948161
vn 0.670451 -0.317790 0.670451
vn 0.948161 -0.317790 -0.000000
vn -0.000000 -0.000690 -1.000000
vn 0.707107 -0.000690 -0.707106
vn -0.707107 -0.000690 -0.707106
vn -1.000000 -0.000690 0.000000
vn -0.707107 -0.000690 0.707107
vn 0.000000 -0.000690 1.000000
vn 0.707106 -0.000690 0.707107
vn 1.000000 -0.000690 0.000000
vn -0.000000 0.446928 -0.894570
vn 0.632557 0.446928 -0.632556
vn -0.632557 0.446928 -0.632556
vn -0.894570 0.446927 -0.000000
vn -0.632557 0.446928 0.632556
vn 0.000000 0.446927 0.894570
vn 0.632556 0.446927 0.632557
vn 0.894570 0.446928 0.000000
vn -0.000000 0.080392 -0.996763
vn 0.704818 0.080392 -0.704818
vn -0.704818 0.080392 -0.704818
vn -0.996763 0.080392 -0.000000
vn -0.704818 0.080392 0.704818
vn -0.000000 0.080392 0.996763
vn 0.704818 0.080392 0.704818
vn 0.996763 0.080392 0.000000
vn 0.706850 0.026953 -0.706850
vn 0.000000 0.026953 -0.999637
vn 0.000000 0.838756 -0.544507
vn 0.385023 0.838757 -0.385024
vn -0.706850 0.026953 -0.706850
vn -0.385023 0.838757 -0.385024
vn -0.999637 0.026953 -0.000000
vn -0.544505 0.838758 -0.000004
vn -0.706850 0.026953 0.706850
vn -0.385024 0.838758 0.385021
vn 0.000000 0.026953 0.999637
vn 0.000000 0.838756 0.544507
vn 0.706850 0.026953 0.706850
vn 0.385023 0.838757 0.385025
vn 0.999637 0.026953 0.000000
vn 0.544505 0.838758 0.000002
vn 0.000000 -1.000000 0.000000
vn 0.000000 1.000000 0.000000
s 1
g polySurface4 group1
usemtl initialShadingGroup
f 1/1/1 2/2/2 10/3/3 9/4/4
f 2/2/2 3/5/5 11/6/6 10/3/3
f 3/5/5 4/7/7 12/8/8 11/6/6
f 4/7/7 5/9/9 13/10/10 12/8/8
f 5/9/9 6/11/11 14/12/12 13/10/10
f 6/11/11 7/13/13 15/14/14 14/12/12
f 7/13/13 8/15/15 16/16/16 15/14/14
f 8/15/15 1/17/1 9/18/4 16/16/16
f 9/4/4 10/3/3 18/19/17 17/20/18
f 10/3/3 11/6/6 19/21/19 18/19/17
f 11/6/6 12/8/8 20/22/20 19/21/19
f 12/8/8 13/10/10 21/23/21 20/22/20
f 13/10/10 14/12/12 22/24/22 21/23/21
f 14/12/12 15/14/14 23/25/23 22/24/22
f 15/14/14 16/16/16 24/26/24 23/25/23
f 16/16/16 9/18/4 17/27/18 24/26/24
f 17/20/18 18/19/17 26/28/25 25/29/26
f 18/19/17 19/21/19 27/30/27 26/28/25
f 19/21/19 20/22/20 28/31/28 27/30/27
f 20/22/20 21/23/21 29/32/29 28/31/28
f 21/23/21 22/24/22 30/33/30 29/32/29
f 22/24/22 23/25/23 31/34/31 30/33/30
f 23/25/23 24/26/24 32/35/32 31/34/31
f 24/26/24 17/27/18 25/36/26 32/35/32
f 25/29/26 26/28/25 34/37/33 33/38/34
f 26/28/25 27/30/27 35/39/35 34/37/33
f 27/30/27 28/31/28 36/40/36 35/39/35
f 28/31/28 29/32/29 37/41/37 36/40/36
f 29/32/29 30/33/30 38/42/38 37/41/37
f 30/33/30 31/34/31 39/43/39 38/42/38
f 31/34/31 32/35/32 40/44/40 39/43/39
f 32/35/32 25/36/26 33/45/34 40/44/40
f 33/38/34 34/37/33 42/46/41 41/47/42
f 34/37/33 35/39/35 43/48/43 42/46/41
f 35/39/35 36/40/36 44/49/44 43/48/43
f 36/40/36 37/41/37 45/50/45 44/49/44
f 37/41/37 38/42/38 46/51/46 45/50/45
f 38/42/38 39/43/39 47/52/47 46/51/46
f 39/43/39 40/44/40 48/53/48 47/52/47
f 40/44/40 33/45/34 41/54/42 48/53/48
f 50/55/49 51/56/50 52/57/51 53/58/52
f 51/56/50 54/59/53 55/60/54 52/57/51
f 54/59/53 56/61/55 57/62/56 55/60/54
f 56/61/55 58/63/57 59/64/58 57/62/56
f 58/63/57 60/65/59 61/66/60 59/64/58
f 60/65/59 62/67/61 63/68/62 61/66/60
f 62/67/61 64/69/63 65/70/64 63/68/62
f 64/69/63 50/71/49 53/72/52 65/70/64
f 2/2/2 1/1/1 49/73/65
f 3/5/5 2/2/2 49/74/65
f 4/7/7 3/5/5 49/75/65
f 5/9/9 4/7/7 49/76/65
f 6/11/11 5/9/9 49/77/65
f 7/13/13 6/11/11 49/78/65
f 8/15/15 7/13/13 49/79/65
f 1/17/1 8/15/15 49/80/65
f 53/58/52 52/57/51 66/81/66
f 52/57/51 55/60/54 66/82/66
f 55/60/54 57/62/56 66/83/66
f 57/62/56 59/64/58 66/84/66
f 59/64/58 61/66/60 66/85/66
f 61/66/60 63/68/62 66/86/66
f 63/68/62 65/70/64 66/87/66
f 65/70/64 53/72/52 66/88/66
f 41/47/42 42/46/41 51/56/50 50/55/49
f 42/46/41 43/48/43 54/59/53 51/56/50
f 43/48/43 44/49/44 56/61/55 54/59/53
f 44/49/44 45/50/45 58/63/57 56/61/55
f 45/50/45 46/51/46 60/65/59 58/63/57
f 46/51/46 47/52/47 62/67/61 60/65/59
f 47/52/47 48/53/48 64/69/63 62/67/61
f 48/53/48 41/54/42 50/71/49 64/69/63
