# Blender v2.74 (sub 0) OBJ File: 'remotecontrol.blend'
# www.blender.org
mtllib remotecontrol5.mtl
o remote_control.007_Cube.007
v 0.001980 0.042468 -0.006055
v 0.000435 0.042468 -0.005866
v -0.001050 0.042468 -0.005326
v -0.002416 0.042468 -0.004456
v -0.003612 0.042468 -0.003289
v -0.004591 0.042468 -0.001871
v -0.005317 0.042468 -0.000256
v -0.005760 0.042468 0.001494
v -0.005904 0.042468 0.003312
v -0.005744 0.042468 0.005128
v -0.005285 0.042468 0.006872
v -0.004546 0.042468 0.008477
v -0.003554 0.042468 0.009882
v -0.002348 0.042468 0.011032
v -0.000974 0.042468 0.011883
v 0.000515 0.042468 0.012403
v 0.002062 0.042468 0.012571
v 0.003607 0.042468 0.012381
v 0.005092 0.042468 0.011841
v 0.006458 0.042468 0.010971
v 0.007654 0.042468 0.009805
v 0.008634 0.042468 0.008387
v 0.009359 0.042468 0.006772
v 0.009802 0.042468 0.005021
v 0.009947 0.042468 0.003203
v 0.009786 0.042468 0.001388
v 0.009328 0.042468 -0.000356
v 0.008588 0.042468 -0.001962
v 0.007596 0.042468 -0.003366
v 0.006390 0.042468 -0.004516
v 0.005016 0.042468 -0.005367
v 0.003527 0.042468 -0.005887
v 0.000435 0.043323 -0.005866
v 0.001980 0.043323 -0.006055
v -0.001050 0.043323 -0.005326
v -0.002416 0.043323 -0.004456
v -0.003612 0.043323 -0.003289
v -0.004591 0.043323 -0.001871
v -0.005317 0.043323 -0.000256
v -0.005760 0.043323 0.001494
v -0.005904 0.043323 0.003312
v -0.005744 0.043323 0.005128
v -0.005285 0.043323 0.006872
v -0.004546 0.043323 0.008477
v -0.003554 0.043323 0.009882
v -0.002348 0.043323 0.011032
v -0.000974 0.043323 0.011883
v 0.000515 0.043323 0.012403
v 0.002062 0.043323 0.012571
v 0.003607 0.043323 0.012381
v 0.005092 0.043323 0.011841
v 0.006458 0.043323 0.010971
v 0.007654 0.043323 0.009805
v 0.008634 0.043323 0.008387
v 0.009359 0.043323 0.006772
v 0.009802 0.043323 0.005021
v 0.009947 0.043323 0.003203
v 0.009786 0.043323 0.001388
v 0.009328 0.043323 -0.000356
v 0.008588 0.043323 -0.001962
v 0.007596 0.043323 -0.003366
v 0.006390 0.043323 -0.004516
v 0.005016 0.043323 -0.005367
v 0.003527 0.043323 -0.005887
vt 0.860555 0.040991
vt 0.860554 0.044862
vt 0.860555 0.048708
vt 0.860560 0.052382
vt 0.860569 0.055743
vt 0.860580 0.058660
vt 0.860594 0.061023
vt 0.860609 0.062740
vt 0.876933 0.190342
vt 0.876945 0.187969
vt 0.876934 0.185598
vt 0.876902 0.183319
vt 0.808187 0.028005
vt 0.808174 0.030456
vt 0.808163 0.033449
vt 0.808155 0.036870
vt 0.808150 0.040587
vt 0.808149 0.044458
vt 0.808150 0.048334
vt 0.808155 0.052066
vt 0.808163 0.055510
vt 0.808174 0.058535
vt 0.808187 0.061023
vt 0.808202 0.062879
vt 0.913148 0.208692
vt 0.913154 0.206271
vt 0.913140 0.203972
vt 0.913108 0.201883
vt 0.860594 0.028131
vt 0.860580 0.030688
vt 0.860569 0.033765
vt 0.860560 0.037244
vt 0.480795 0.680743
vt 0.461292 0.675679
vt 0.443198 0.667931
vt 0.427209 0.657796
vt 0.413941 0.645666
vt 0.403901 0.632005
vt 0.397477 0.617339
vt 0.394915 0.602231
vt 0.396313 0.587262
vt 0.401618 0.573008
vt 0.410626 0.560014
vt 0.422991 0.548783
vt 0.438238 0.539744
vt 0.455780 0.533246
vt 0.474944 0.529537
vt 0.494993 0.528761
vt 0.515157 0.530948
vt 0.534660 0.536013
vt 0.552753 0.543760
vt 0.568742 0.553895
vt 0.582011 0.566025
vt 0.592050 0.579686
vt 0.598475 0.594352
vt 0.601037 0.609460
vt 0.599639 0.624429
vt 0.594333 0.638684
vt 0.585326 0.651677
vt 0.572960 0.662908
vt 0.557714 0.671947
vt 0.540171 0.678445
vt 0.521007 0.682154
vt 0.500959 0.682930
vt 0.865739 0.044866
vt 0.865741 0.048713
vt 0.813373 0.028005
vt 0.813359 0.030456
vt 0.913125 0.211141
vt 0.905928 0.211141
vt 0.905952 0.208692
vt 0.865746 0.052387
vt 0.865754 0.055747
vt 0.813349 0.033449
vt 0.813341 0.036870
vt 0.905957 0.206271
vt 0.905944 0.203972
vt 0.865765 0.058665
vt 0.865779 0.061028
vt 0.813336 0.040587
vt 0.813334 0.044458
vt 0.860609 0.026192
vt 0.865795 0.026197
vt 0.865779 0.028135
vt 0.876899 0.192625
vt 0.869703 0.192625
vt 0.869737 0.190342
vt 0.865765 0.030692
vt 0.865754 0.033769
vt 0.813336 0.048334
vt 0.813341 0.052066
vt 0.869749 0.187969
vt 0.869738 0.185598
vt 0.865746 0.037248
vt 0.865741 0.040995
vt 0.813349 0.055510
vt 0.813359 0.058535
vt 0.808202 0.026192
vt 0.813388 0.026192
vt 0.813373 0.061023
vt 0.813388 0.062879
vt 0.905912 0.201883
vt 0.865795 0.062745
vt 0.869706 0.183319
vn 0.000000 -1.000000 -0.000000
vn 0.000000 1.000000 0.000000
vn 0.108200 0.000000 -0.994100
vn 0.822800 0.000000 0.568300
vn -0.967100 0.000000 0.254300
vn 0.526700 0.000000 -0.850100
vn 0.537100 0.000000 0.843500
vn -0.996900 0.000000 -0.079100
vn 0.816900 0.000000 -0.576800
vn 0.121700 0.000000 0.992600
vn -0.912200 0.000000 -0.409700
vn 0.967100 0.000000 -0.254300
vn -0.698200 0.000000 -0.715900
vn -0.329600 0.000000 0.944100
vn 0.996900 0.000000 0.079100
vn -0.342000 0.000000 -0.939700
vn -0.690100 0.000000 0.723700
vn 0.912200 0.000000 0.409700
vn -0.908300 0.000000 0.418400
vn 0.329600 0.000000 -0.944100
vn 0.698200 0.000000 0.715900
vn -0.996100 0.000000 0.087900
vn 0.690100 0.000000 -0.723700
vn 0.342000 0.000000 0.939700
vn -0.969400 0.000000 -0.245600
vn 0.908300 0.000000 -0.418400
vn -0.822800 0.000000 -0.568300
vn -0.108200 0.000000 0.994100
vn 0.996100 0.000000 -0.087900
vn -0.537100 0.000000 -0.843500
vn -0.526700 0.000000 0.850100
vn 0.969400 0.000000 0.245600
vn -0.121700 0.000000 -0.992600
vn -0.816900 0.000000 0.576800
usemtl Material.001
s off
f 2/1/1 1/2/1 32/3/1 31/4/1 30/5/1 29/6/1 28/7/1 27/8/1 26/9/1 25/10/1 24/11/1 23/12/1 22/13/1 21/14/1 20/15/1 19/16/1 18/17/1 17/18/1 16/19/1 15/20/1 14/21/1 13/22/1 12/23/1 11/24/1 10/25/1 9/26/1 8/27/1 7/28/1 6/29/1 5/30/1 4/31/1 3/32/1
usemtl buttons
f 33/33/2 35/34/2 36/35/2 37/36/2 38/37/2 39/38/2 40/39/2 41/40/2 42/41/2 43/42/2 44/43/2 45/44/2 46/45/2 47/46/2 48/47/2 49/48/2 50/49/2 51/50/2 52/51/2 53/52/2 54/53/2 55/54/2 56/55/2 57/56/2 58/57/2 59/58/2 60/59/2 61/60/2 62/61/2 63/62/2 64/63/2 34/64/2
f 32/3/3 1/2/3 34/65/3 64/66/3
f 21/14/4 22/13/4 54/67/4 53/68/4
f 10/25/5 11/69/5 43/70/5 42/71/5
f 30/5/6 31/4/6 63/72/6 62/73/6
f 19/16/7 20/15/7 52/74/7 51/75/7
f 8/27/8 9/26/8 41/76/8 40/77/8
f 28/7/9 29/6/9 61/78/9 60/79/9
f 17/18/10 18/17/10 50/80/10 49/81/10
f 6/29/11 7/82/11 39/83/11 38/84/11
f 26/9/12 27/85/12 59/86/12 58/87/12
f 4/31/13 5/30/13 37/88/13 36/89/13
f 15/20/14 16/19/14 48/90/14 47/91/14
f 24/11/15 25/10/15 57/92/15 56/93/15
f 2/1/16 3/32/16 35/94/16 33/95/16
f 13/22/17 14/21/17 46/96/17 45/97/17
f 22/13/18 23/98/18 55/99/18 54/67/18
f 11/24/19 12/23/19 44/100/19 43/101/19
f 31/4/20 32/3/20 64/66/20 63/72/20
f 20/15/21 21/14/21 53/68/21 52/74/21
f 9/26/22 10/25/22 42/71/22 41/76/22
f 29/6/23 30/5/23 62/73/23 61/78/23
f 18/17/24 19/16/24 51/75/24 50/80/24
f 7/28/25 8/27/25 40/77/25 39/102/25
f 27/8/26 28/7/26 60/79/26 59/103/26
f 5/30/27 6/29/27 38/84/27 37/88/27
f 16/19/28 17/18/28 49/81/28 48/90/28
f 25/10/29 26/9/29 58/87/29 57/92/29
f 3/32/30 4/31/30 36/89/30 35/94/30
f 14/21/31 15/20/31 47/91/31 46/96/31
f 23/12/32 24/11/32 56/93/32 55/104/32
f 1/2/33 2/1/33 33/95/33 34/65/33
f 12/23/34 13/22/34 45/97/34 44/100/34
