# This file uses centimeters as units for non-parametric coordinates.

mtllib hatchLock_metal.mtl
g default
v -2.901132 0.755749 0.931480
v -2.901132 0.895673 0.931480
v -2.901132 0.895673 -0.931480
v -2.901132 0.755749 -0.931480
v -2.901132 0.895673 -0.775975
v -2.901132 0.755749 -0.775975
v -2.901132 0.895673 0.775975
v -2.901132 0.755749 0.775975
v -2.901132 0.336773 0.775975
v -2.901132 0.336773 0.931480
v -2.901132 0.336773 -0.931480
v -2.901132 0.336773 -0.775975
v 3.739837 0.895673 0.775975
v 3.739837 0.895673 0.931480
v 3.739837 0.755749 0.931480
v 3.739837 0.336773 0.931480
v 3.739837 0.336773 0.775975
v 3.739837 0.755749 0.775975
v 3.739837 0.755749 -0.775975
v 3.739837 0.336773 -0.775975
v 3.739837 0.336773 -0.931480
v 3.739837 0.755749 -0.931480
v 3.739837 0.895673 -0.931480
v 3.739837 0.895673 -0.775975
v -2.901132 0.997328 0.884378
v 3.739837 0.997328 0.884378
v 3.739837 0.997328 0.826504
v -2.901132 0.997328 0.826504
v -2.901132 0.997328 -0.826504
v 3.739837 0.997328 -0.826504
v 3.739837 0.997328 -0.884378
v -2.901132 0.997328 -0.884378
vt 0.952710 0.167232
vt 0.952710 0.136128
vt 0.979793 0.136128
vt 0.979793 0.167232
vt 0.871616 0.167232
vt 0.871616 0.136128
vt 0.999468 0.145549
vt 0.999468 0.157125
vt 0.952710 0.477654
vt 0.979793 0.477654
vt 0.952710 0.508758
vt 0.979793 0.508758
vt 0.871616 0.508758
vt 0.871616 0.477654
vt 0.999468 0.487760
vt 0.999468 0.499336
vt 0.406097 1.000000
vt 0.406096 0.000000
vt 0.414530 0.000000
vt 0.414530 1.000000
vt 0.370896 1.000000
vt 0.370896 0.000000
vt 0.391284 0.000000
vt 0.391284 1.000000
vt 0.309846 0.000000
vt 0.309846 1.000000
vt 0.429342 1.000000
vt 0.429342 0.000000
vt 0.287187 1.000000
vt 0.287187 0.000000
vt 1.000000 0.535545
vt 1.000000 0.523969
vt 0.226137 1.000000
vt 0.226137 0.000000
vt 0.655479 0.000000
vt 0.655479 1.000000
vt 0.000000 1.000000
vt 0.000000 0.000000
vt 0.670291 1.000000
vt 0.670291 0.000000
vt 0.797634 0.000000
vt 0.858684 0.000000
vt 0.858684 1.000000
vt 0.797634 1.000000
vt 0.774975 1.000000
vt 0.774975 0.000000
vt 0.953242 0.545652
vt 0.953242 0.856073
vt 0.713925 1.000000
vt 0.713925 0.000000
vt 0.953242 0.887177
vt 0.980324 0.887177
vt 0.693537 1.000000
vt 0.693537 0.000000
vt 0.678725 1.000000
vt 0.678724 0.000000
vt 1.000000 0.877756
vt 1.000000 0.866180
vt 0.980324 0.514548
vt 0.953242 0.514548
vt 0.872147 0.514548
vt 0.872147 0.545652
vt 0.872147 0.856073
vt 0.872147 0.887177
vt 0.980324 0.545652
vt 0.980324 0.856073
vn -1.000000 0.000000 0.000000
vn -1.000000 0.000000 0.000000
vn -1.000000 0.000000 0.000000
vn -1.000000 0.000000 0.000000
vn -1.000000 0.000000 0.000000
vn -1.000000 0.000000 0.000000
vn -1.000000 0.000000 0.000000
vn -1.000000 0.000000 0.000000
vn -1.000000 0.000000 0.000000
vn -1.000000 0.000000 0.000000
vn -1.000000 0.000000 0.000000
vn -1.000000 0.000000 0.000000
vn -1.000000 0.000000 0.000000
vn -1.000000 0.000000 0.000000
vn -1.000000 0.000000 0.000000
vn -1.000000 0.000000 0.000000
vn 0.000000 1.000000 0.000000
vn 0.000000 1.000000 0.000000
vn 0.000000 1.000000 0.000000
vn 0.000000 1.000000 0.000000
vn 0.000000 0.000000 1.000000
vn 0.000000 0.000000 1.000000
vn 0.000000 0.191371 0.981518
vn 0.000000 0.191371 0.981518
vn 0.000000 0.000000 1.000000
vn 0.000000 0.000000 1.000000
vn 0.000000 -1.000000 0.000000
vn 0.000000 -1.000000 0.000000
vn 0.000000 -1.000000 0.000000
vn 0.000000 -1.000000 0.000000
vn 0.000000 0.000000 -1.000000
vn 0.000000 0.000000 -1.000000
vn 0.000000 0.000000 -1.000000
vn 0.000000 0.000000 -1.000000
vn 0.000000 -1.000000 0.000000
vn 0.000000 -1.000000 0.000000
vn 0.000000 -1.000000 0.000000
vn 0.000000 -1.000000 0.000000
vn 0.000000 0.000000 1.000000
vn 0.000000 0.000000 1.000000
vn 0.000000 0.000000 1.000000
vn 0.000000 0.000000 1.000000
vn 0.000000 -1.000000 0.000000
vn 0.000000 -1.000000 0.000000
vn 0.000000 -1.000000 0.000000
vn 0.000000 -1.000000 0.000000
vn 0.000000 0.000000 -1.000000
vn 0.000000 0.000000 -1.000000
vn 0.000000 0.000000 -1.000000
vn 0.000000 0.000000 -1.000000
vn 0.000000 0.191371 -0.981518
vn 0.000000 0.191371 -0.981518
vn 0.000000 1.000000 0.000000
vn 0.000000 1.000000 0.000000
vn 0.000000 1.000000 0.000000
vn 0.000000 1.000000 0.000000
vn 0.000000 1.000000 0.000000
vn 0.000000 1.000000 0.000000
vn 0.000000 1.000000 0.000000
vn 0.000000 1.000000 0.000000
vn 1.000000 0.000000 0.000000
vn 1.000000 0.000000 0.000000
vn 1.000000 0.000000 0.000000
vn 1.000000 0.000000 0.000000
vn 1.000000 0.000000 0.000000
vn 1.000000 0.000000 0.000000
vn 1.000000 0.000000 0.000000
vn 1.000000 0.000000 0.000000
vn 1.000000 0.000000 0.000000
vn 1.000000 0.000000 0.000000
vn 1.000000 0.000000 0.000000
vn 1.000000 0.000000 0.000000
vn 1.000000 0.000000 0.000000
vn 1.000000 0.000000 0.000000
vn 1.000000 0.000000 0.000000
vn 1.000000 0.000000 0.000000
vn 1.000000 0.000000 0.000000
vn 1.000000 0.000000 0.000000
vn 1.000000 0.000000 0.000000
vn 1.000000 0.000000 0.000000
vn 0.000000 0.420412 0.907333
vn 0.000000 0.420412 0.907333
vn 1.000000 0.000000 0.000000
vn 1.000000 0.000000 0.000000
vn 0.000000 0.445109 -0.895476
vn 0.000000 0.445109 -0.895476
vn 0.000000 0.445109 -0.895476
vn 0.000000 0.445109 -0.895476
vn -1.000000 0.000000 0.000000
vn -1.000000 0.000000 0.000000
vn 0.000000 0.445110 0.895476
vn 0.000000 0.445110 0.895476
vn 0.000000 0.445110 0.895476
vn 0.000000 0.445110 0.895476
vn 1.000000 0.000001 0.000000
vn 1.000000 0.000001 0.000000
vn 0.000000 0.420412 -0.907333
vn 0.000000 0.420412 -0.907333
vn -1.000000 0.000000 0.000000
vn -1.000000 0.000000 0.000000
s 1
g pCube2
usemtl initialShadingGroup
f 8/1/1 1/2/2 2/3/3 7/4/4
f 4/11/5 6/9/6 5/10/7 3/12/8
f 6/9/6 8/1/1 7/4/4 5/10/7
s off
f 1/2/9 8/1/10 9/5/11 10/6/12
f 6/9/13 4/11/14 11/13/15 12/14/16
f 25/17/17 26/18/18 27/19/19 28/20/20
s 2
f 1/21/21 15/22/22 14/23/23 2/24/24
f 16/25/25 15/22/22 1/21/21 10/26/26
s off
f 9/29/27 17/30/28 16/25/29 10/26/30
f 8/33/31 18/34/32 17/30/33 9/29/34
f 6/37/35 19/38/36 18/34/37 8/33/38
f 20/41/39 19/42/40 6/43/41 12/44/42
f 11/45/43 21/46/44 20/41/45 12/44/46
s 3
f 4/49/47 22/50/48 21/46/49 11/45/50
f 3/53/51 23/54/52 22/50/48 4/49/47
s off
f 29/39/53 30/40/54 31/56/55 32/55/56
f 7/27/57 13/28/58 24/35/59 5/36/60
f 24/65/61 13/66/62 18/48/63 19/47/64
s 4
f 18/48/65 13/66/66 14/52/67 15/51/68
s off
f 18/48/69 15/51/70 16/64/71 17/63/72
s 5
f 24/65/73 19/47/74 22/60/75 23/59/76
s off
f 22/60/77 19/47/78 20/62/79 21/61/80
s 2
f 2/24/24 14/23/23 26/18/81 25/17/82
s 4
f 14/52/67 13/66/66 27/58/83 26/57/84
s off
f 13/28/85 7/27/86 28/20/87 27/19/88
s 1
f 7/4/4 2/3/3 25/7/89 28/8/90
s off
f 5/36/91 24/35/92 30/40/93 29/39/94
s 5
f 24/65/73 23/59/76 31/32/95 30/31/96
s 3
f 23/54/52 3/53/51 32/55/97 31/56/98
s 1
f 3/12/8 5/10/7 29/15/99 32/16/100
