# This file uses centimeters as units for non-parametric coordinates.

mtllib hatchLock_base.mtl
g default
v -3.688169 0.000000 1.678159
v 2.901132 0.000000 1.678159
v -3.688169 0.000000 -1.678159
v 2.901132 0.000000 -1.678159
v -2.901132 1.442457 1.487720
v -2.420377 1.923211 1.257105
v 2.420377 1.923211 1.257105
v 2.901132 1.442457 1.487720
v -2.420377 1.923211 -1.257105
v -2.901132 1.442457 -1.487720
v 2.420377 1.923211 -1.257105
v 2.901132 1.442457 -1.487720
v 2.901132 0.336773 1.633697
v -3.504418 0.336772 1.633697
v -3.504418 0.336773 -1.633697
v 2.901132 0.336772 -1.633697
v -3.887616 0.000000 1.979513
v 2.901132 0.000000 1.979513
v 2.901132 0.336773 1.927066
v -3.692741 0.336772 1.927066
v 2.901132 0.336772 -1.927066
v 2.901132 0.000000 -1.979513
v -3.887616 0.000000 -1.979513
v -3.692741 0.336773 -1.927066
v 2.901132 0.000000 -1.167578
v 2.901132 0.336772 -1.136643
v 2.901132 1.442457 -1.035079
v 2.420377 1.923211 -0.874629
v -2.420377 1.923211 -0.874629
v -2.901132 1.442457 -1.035079
v -3.504418 0.336773 -1.136643
v -3.692741 0.336773 -1.340755
v -3.887616 0.000000 -1.377244
v -3.688169 0.000000 -1.167578
v 2.901132 0.000000 1.167578
v 2.901132 0.336773 1.136643
v 2.901132 1.442457 1.035080
v 2.420377 1.923211 0.874630
v -2.420377 1.923211 0.874630
v -2.901132 1.442457 1.035080
v -3.504418 0.336773 1.136643
v -3.692741 0.336773 1.340755
v -3.887616 0.000000 1.377244
v -3.688169 0.000000 1.167578
v 2.756308 0.000000 -1.167578
v 2.756308 0.000000 1.167578
v 2.756308 0.336772 -1.136643
v 2.756308 0.336773 1.136643
v 2.756308 1.442457 1.035080
v 2.756308 1.442457 -1.035079
vt 0.285479 0.173207
vt 0.332789 0.226666
vt 0.332789 0.764937
vt 0.293796 0.818395
vt 0.196748 0.907573
vt 0.122612 0.181433
vt 0.667211 0.226666
vt 0.714522 0.173208
vt 0.706204 0.818395
vt 0.667211 0.764937
vt 0.877388 0.181431
vt 0.803249 0.907569
vt 0.152889 0.950269
vt 0.039938 0.195617
vt 0.084571 0.192433
vt 0.181056 0.928283
vt 0.356745 0.038367
vt 0.383663 0.226666
vt 0.383663 0.764937
vt 0.347383 0.000000
vt 0.643260 0.038367
vt 0.358003 0.169336
vt 0.616337 0.226666
vt 0.616337 0.764937
vt 0.632405 0.160547
vt 0.362321 0.818395
vt 0.641997 0.169336
vt 0.338102 0.010199
vt 0.344163 0.045657
vt 0.637679 0.818395
vt 0.652624 0.000001
vt 0.723227 0.012815
vt 0.915428 0.192430
vt 0.960062 0.195615
vt 0.847109 0.950264
vt 0.818943 0.928279
vt 0.276788 0.012812
vt 0.717311 0.050262
vt 0.763311 0.012817
vt 0.282701 0.050259
vt 0.756332 0.050264
vt 0.367595 0.160547
vt 0.243679 0.050259
vt 0.236704 0.012811
vt 0.348810 0.941340
vt 0.684942 1.000000
vt 0.906419 0.955949
vt 0.655845 0.045657
vt 0.651189 0.941341
vt 0.661911 0.010200
vt 0.689286 0.956988
vt 1.000000 0.198464
vt 0.093582 0.955952
vt 0.000000 0.198467
vt 0.310715 0.956989
vt 0.291407 0.975020
vt 0.315062 0.999999
vt 0.708594 0.975019
vn -0.707107 0.707107 0.000000
vn -0.707107 0.707107 0.000000
vn -0.707107 0.707107 0.000000
vn -0.707107 0.707107 0.000000
vn 0.000000 0.432507 0.901631
vn 0.000000 0.432507 0.901631
vn 0.000000 0.432507 0.901631
vn 0.000000 0.432507 0.901631
vn 0.707107 0.707107 0.000000
vn 0.707107 0.707107 0.000000
vn 0.707107 0.707107 0.000000
vn 0.707107 0.707107 0.000000
vn 0.000000 0.432507 -0.901631
vn 0.000000 0.432507 -0.901631
vn 0.000000 0.432507 -0.901631
vn 0.000000 0.432507 -0.901631
vn -0.000000 0.153879 0.988090
vn -0.000000 0.153879 0.988090
vn -0.000000 0.153879 0.988090
vn -0.000000 0.153879 0.988090
vn 0.000000 1.000000 0.000000
vn 0.000000 1.000000 0.000000
vn 0.000000 1.000000 0.000000
vn 0.000000 1.000000 0.000000
vn 0.000000 0.153879 -0.988090
vn 0.000000 0.153879 -0.988090
vn 0.000000 0.153879 -0.988090
vn 0.000000 0.153879 -0.988090
vn 1.000000 0.000000 0.000000
vn 1.000000 0.000000 0.000000
vn 1.000000 0.000000 0.000000
vn 1.000000 0.000000 0.000000
vn -0.865537 0.500845 0.000000
vn -0.865537 0.500845 0.000000
vn -0.865537 0.500845 0.000000
vn -0.865537 0.500845 0.000000
vn 0.000000 0.130889 0.991397
vn 0.000000 0.130889 0.991397
vn 0.000000 0.130889 0.991397
vn 0.000000 0.130889 0.991397
vn -0.877833 0.478966 0.000000
vn -0.877834 0.478966 0.000000
vn -0.877833 0.478966 0.000000
vn -0.877833 0.478966 0.000000
vn 0.000000 0.130889 -0.991397
vn 0.000000 0.130889 -0.991397
vn 0.000000 0.130889 -0.991397
vn 0.000000 0.130889 -0.991397
vn 1.000000 0.000000 0.000000
vn 1.000000 0.000000 0.000000
vn 0.000000 -1.000000 0.000000
vn 0.000000 -1.000000 0.000000
vn 0.000000 -1.000000 0.000000
vn 0.000000 -1.000000 0.000000
vn 1.000000 0.000000 0.000000
vn 1.000000 0.000000 0.000000
vn 1.000000 0.000000 0.000000
vn 1.000000 0.000000 0.000000
vn -0.000000 1.000000 0.000000
vn -0.000000 1.000000 0.000000
vn -0.000000 1.000000 0.000000
vn -0.000000 1.000000 0.000000
vn 1.000000 0.000000 0.000000
vn 1.000000 0.000000 0.000000
vn 1.000000 0.000000 0.000000
vn 1.000000 0.000000 0.000000
vn 0.000000 -1.000000 0.000000
vn 0.000000 -1.000000 0.000000
vn 0.000000 -1.000000 0.000000
vn 0.000000 -1.000000 0.000000
vn 0.000000 1.000000 0.000000
vn 0.000000 1.000000 0.000000
vn 0.000000 1.000000 0.000000
vn 0.000000 1.000000 0.000000
vn 0.000000 -1.000000 0.000000
vn 0.000000 -1.000000 0.000000
vn 0.000000 -1.000000 0.000000
vn 0.000000 -1.000000 0.000000
vn 0.000000 1.000000 0.000000
vn 0.000000 1.000000 0.000000
vn 0.000000 1.000000 0.000000
vn 0.000000 1.000000 0.000000
vn 1.000000 0.000000 0.000000
vn 1.000000 0.000000 0.000000
vn 1.000000 0.000000 0.000000
vn 1.000000 0.000000 0.000000
vn 1.000000 0.000000 0.000000
vn 1.000000 0.000000 0.000000
vn 0.707107 0.707107 0.000000
vn 0.707107 0.707107 0.000000
vn 0.707107 0.707107 0.000000
vn 0.707107 0.707107 0.000000
vn 0.000000 1.000000 0.000000
vn 0.000000 1.000000 0.000000
vn 0.000000 1.000000 0.000000
vn 0.000000 1.000000 0.000000
vn -0.707107 0.707107 0.000000
vn -0.707107 0.707107 0.000000
vn -0.707107 0.707107 0.000000
vn -0.707107 0.707107 0.000000
vn -0.877833 0.478966 0.000000
vn -0.877833 0.478966 0.000000
vn -0.877833 0.478966 0.000000
vn -0.877833 0.478966 0.000000
vn -0.000000 1.000000 0.000000
vn -0.000000 1.000000 0.000000
vn -0.000000 1.000000 0.000000
vn -0.000000 1.000000 0.000000
vn -0.865537 0.500845 0.000000
vn -0.865537 0.500845 0.000000
vn -0.865537 0.500845 0.000000
vn -0.865537 0.500845 0.000000
vn 0.000000 -1.000000 0.000000
vn 0.000000 -1.000000 0.000000
vn 0.000000 -1.000000 0.000000
vn 0.000000 -1.000000 0.000000
vn 1.000000 -0.000000 0.000000
vn 1.000000 -0.000000 0.000000
vn 1.000000 -0.000000 0.000000
vn 1.000000 -0.000000 0.000000
vn 1.000000 -0.000000 0.000000
vn 1.000000 -0.000000 0.000000
vn 0.000000 -0.091471 0.995808
vn 0.000000 -0.091471 0.995808
vn 0.000000 -0.091471 0.995808
vn 0.000000 -0.091471 0.995808
vn 0.000000 -0.091471 -0.995808
vn 0.000000 -0.091471 -0.995808
vn 0.000000 -0.091471 -0.995808
vn 0.000000 -0.091471 -0.995808
vn 0.000000 -0.091471 -0.995808
vn 0.000000 -0.091471 -0.995808
vn 0.000000 -0.091471 -0.995808
vn 0.000000 -0.091471 -0.995808
vn 0.000000 -0.091471 0.995808
vn 0.000000 -0.091471 0.995808
vn 0.000000 -0.091471 0.995808
vn 0.000000 -0.091471 0.995808
vn 0.000000 -1.000000 0.000000
vn 0.000000 -1.000000 0.000000
vn 0.000000 -1.000000 0.000000
vn 0.000000 -1.000000 0.000000
s 1
g pCube1
usemtl lambert2SG
f 5/4/1 6/3/2 39/19/3 40/26/4
s off
f 8/1/5 7/2/6 6/3/7 5/4/8
s 2
f 7/2/9 8/1/10 37/22/11 38/18/12
s off
f 11/7/13 12/8/14 10/9/15 9/10/16
f 17/13/17 18/14/18 19/15/19 20/16/20
s 3
f 7/2/21 38/18/22 39/19/23 6/3/24
s off
f 21/33/25 22/34/26 23/35/27 24/36/28
s 4
f 2/37/29 35/28/30 36/29/31 13/40/32
s 5
f 43/56/33 17/13/34 20/16/35 42/55/36
s off
f 14/5/37 13/6/38 8/1/39 5/4/40
s 6
f 41/45/41 14/5/42 5/4/43 40/26/44
s off
f 12/8/45 16/11/46 15/12/47 10/9/48
s 4
f 13/40/32 36/29/31 37/22/49 8/1/50
s off
f 1/53/51 2/54/52 18/14/53 17/13/54
f 2/37/55 13/40/56 19/43/57 18/44/58
f 13/6/59 14/5/60 20/16/61 19/15/62
f 16/38/63 4/32/64 22/39/65 21/41/66
f 4/52/67 3/47/68 23/35/69 22/34/70
f 15/12/71 16/11/72 21/33/73 24/36/74
s 7
f 44/57/75 1/53/76 17/13/77 43/56/78
s 8
f 14/5/79 41/45/80 42/55/81 20/16/82
s 9
f 25/50/83 4/32/84 16/38/85 26/48/86
f 27/27/87 26/48/86 16/38/85 12/8/88
s 2
f 28/23/89 27/27/90 12/8/91 11/7/92
s 3
f 29/24/93 28/23/94 11/7/95 9/10/96
s 1
f 30/30/97 29/24/98 9/10/99 10/9/100
s 6
f 15/12/101 31/49/102 30/30/103 10/9/104
s 8
f 32/51/105 31/49/106 15/12/107 24/36/108
s 5
f 23/35/109 33/58/110 32/51/111 24/36/112
s 7
f 3/47/113 34/46/114 33/58/115 23/35/116
s 10
f 46/20/117 45/31/118 47/21/119 48/17/120
f 49/42/121 48/17/120 47/21/119 50/25/122
s 2
f 38/18/12 37/22/11 27/27/90 28/23/89
s 3
f 39/19/23 38/18/22 28/23/94 29/24/93
s 1
f 40/26/4 39/19/3 29/24/98 30/30/97
s 6
f 31/49/102 41/45/41 40/26/44 30/30/103
s 8
f 42/55/81 41/45/80 31/49/106 32/51/105
s 5
f 33/58/110 43/56/33 42/55/36 32/51/111
s 7
f 34/46/114 44/57/75 43/56/78 33/58/115
s off
f 25/50/123 26/48/124 47/21/125 45/31/126
f 36/29/127 35/28/128 46/20/129 48/17/130
f 37/22/131 36/29/132 48/17/133 49/42/134
f 26/48/135 27/27/136 50/25/137 47/21/138
f 27/27/139 37/22/140 49/42/141 50/25/142
