# Blender v2.74 (sub 0) OBJ File: 'Third pass stuff.blend'
# www.blender.org
mtllib drawer 2.mtl
o Table_Drawer_Table_Plane.000
v 0.873769 0.982061 0.436144
v 0.873769 0.743981 0.436145
v 0.873769 0.982061 1.347160
v 0.873769 0.743981 1.347160
v -0.861624 0.982061 0.436144
v -0.861624 0.743981 0.436145
v -0.861624 0.982061 1.347160
v -0.861624 0.743981 1.347160
v 0.865991 0.982061 0.428366
v 0.867418 0.737630 0.429794
v 0.865991 0.982061 1.339382
v 0.867418 0.737630 1.340809
v -0.869402 0.982061 0.428366
v -0.867974 0.737630 0.429794
v -0.869402 0.982061 1.339382
v -0.867974 0.737630 1.340809
v 0.873769 0.928376 1.347160
v 0.873769 0.928376 0.436144
v -0.861624 0.928376 0.436144
v -0.861624 0.928376 1.347160
vt 0.527661 0.000000
vt 0.527661 0.500000
vt 0.264952 0.500000
vt 0.264952 0.000000
vt 0.107331 -0.001359
vt 0.107331 0.498641
vt 0.073003 0.498641
vt 0.073003 -0.001359
vt 0.102984 0.761951
vt 0.102984 0.502241
vt 0.137312 0.502241
vt 0.137312 0.761951
vt 0.965672 0.500000
vt 0.931344 0.500000
vt 0.931344 0.000000
vt 0.965672 0.000000
vt 0.034328 0.761951
vt 0.000000 0.761951
vt 0.000000 0.502241
vt 0.034328 0.502241
vt 0.527982 0.891308
vt 0.027982 0.891308
vt 0.027982 0.628601
vt 0.527982 0.628601
vt 0.790368 0.500411
vt 0.790368 0.000411
vt 0.860856 0.000000
vt 0.860856 0.500000
vt 0.404096 0.500371
vt 0.404096 0.761097
vt 0.333608 0.760726
vt 0.333608 0.500000
vt 0.860856 0.000411
vt 0.860856 0.500411
vt 0.404096 0.500000
vt 0.474584 0.500371
vt 0.474584 0.761097
vt 0.404096 0.760726
vt 0.264952 0.002241
vt 0.264952 0.502241
vt 0.262709 0.500000
vt 0.262709 0.000000
vt 0.002243 0.502241
vt 0.000000 0.500000
vt 0.002243 0.002241
vt 0.000000 0.000000
vt 0.068656 0.761951
vt 0.068656 0.502241
vt 1.000000 0.500000
vt 1.000000 0.000000
vt 0.141659 -0.001359
vt 0.141659 0.498641
vt 0.200008 0.169542
vt 0.200008 0.001767
vt 0.519602 0.001767
vt 0.519602 0.169542
vn 0.000000 1.000000 0.000000
vn 0.000000 -0.000000 1.000000
vn 1.000000 0.000000 0.000000
vn 0.000000 -1.000000 0.000000
vn 0.000000 -0.005800 -1.000000
vn -1.000000 -0.005800 0.000000
usemtl Desk
s off
f 8/1/1 4/2/1 2/3/1 6/4/1
f 17/5/2 20/6/2 8/7/2 4/8/2
f 18/9/3 17/10/3 4/11/3 2/12/3
f 19/13/2 6/14/2 2/15/2 18/16/2
f 20/17/3 8/18/3 6/19/3 19/20/3
f 14/21/4 10/22/4 12/23/4 16/24/4
f 12/25/5 16/26/5 15/27/5 11/28/5
f 10/29/6 12/30/6 11/31/6 9/32/6
f 9/33/5 10/15/5 14/14/5 13/34/5
f 13/35/6 14/36/6 16/37/6 15/38/6
f 7/39/1 3/40/1 11/41/1 15/42/1
f 3/40/1 1/43/1 9/44/1 11/41/1
f 5/45/1 1/43/1 9/44/1 13/46/1
f 7/39/1 5/45/1 13/46/1 15/42/1
f 7/47/3 20/17/3 19/20/3 5/48/3
f 5/49/2 19/13/2 18/16/2 1/50/2
f 1/47/3 3/48/3 17/10/3 18/9/3
f 3/51/2 7/52/2 20/6/2 17/5/2
f 19/53/1 20/54/1 17/55/1 18/56/1
