# Blender v2.74 (sub 0) OBJ File: 'remotecontrol.blend'
# www.blender.org
mtllib remotecontrol8.mtl
o remote_control.010_Cube.010
v 0.002139 0.042468 0.030173
v 0.000594 0.042468 0.030363
v -0.000891 0.042468 0.030903
v -0.002257 0.042468 0.031773
v -0.003453 0.042468 0.032940
v -0.004432 0.042468 0.034358
v -0.005158 0.042468 0.035973
v -0.005601 0.042468 0.037723
v -0.005745 0.042468 0.039541
v -0.005585 0.042468 0.041357
v -0.005126 0.042468 0.043101
v -0.004387 0.042468 0.044706
v -0.003395 0.042468 0.046110
v -0.002189 0.042468 0.047260
v -0.000815 0.042468 0.048112
v 0.000674 0.042468 0.048631
v 0.002221 0.042468 0.048800
v 0.003766 0.042468 0.048610
v 0.005251 0.042468 0.048070
v 0.006617 0.042468 0.047200
v 0.007813 0.042468 0.046034
v 0.008793 0.042468 0.044615
v 0.009518 0.042468 0.043000
v 0.009961 0.042468 0.041250
v 0.010106 0.042468 0.039432
v 0.009945 0.042468 0.037616
v 0.009487 0.042468 0.035872
v 0.008747 0.042468 0.034267
v 0.007755 0.042468 0.032863
v 0.006549 0.042468 0.031713
v 0.005175 0.042468 0.030861
v 0.003686 0.042468 0.030342
v 0.000594 0.043323 0.030363
v 0.002139 0.043323 0.030173
v -0.000891 0.043323 0.030903
v -0.002257 0.043323 0.031773
v -0.003453 0.043323 0.032940
v -0.004432 0.043323 0.034358
v -0.005158 0.043323 0.035973
v -0.005601 0.043323 0.037723
v -0.005745 0.043323 0.039541
v -0.005585 0.043323 0.041357
v -0.005126 0.043323 0.043101
v -0.004387 0.043323 0.044706
v -0.003395 0.043323 0.046110
v -0.002189 0.043323 0.047260
v -0.000815 0.043323 0.048112
v 0.000674 0.043323 0.048631
v 0.002221 0.043323 0.048800
v 0.003766 0.043323 0.048610
v 0.005251 0.043323 0.048070
v 0.006617 0.043323 0.047200
v 0.007813 0.043323 0.046034
v 0.008793 0.043323 0.044615
v 0.009518 0.043323 0.043000
v 0.009961 0.043323 0.041250
v 0.010106 0.043323 0.039432
v 0.009945 0.043323 0.037616
v 0.009487 0.043323 0.035872
v 0.008747 0.043323 0.034267
v 0.007755 0.043323 0.032863
v 0.006549 0.043323 0.031713
v 0.005175 0.043323 0.030861
v 0.003686 0.043323 0.030342
vt 0.855314 0.040991
vt 0.855312 0.044862
vt 0.855314 0.048708
vt 0.855319 0.052382
vt 0.855328 0.055743
vt 0.855339 0.058660
vt 0.855353 0.061023
vt 0.855368 0.062740
vt 0.876933 0.216952
vt 0.876945 0.214579
vt 0.876934 0.212208
vt 0.876902 0.209930
vt 0.712942 0.091245
vt 0.712923 0.094646
vt 0.712908 0.098800
vt 0.712897 0.103549
vt 0.712890 0.108708
vt 0.712888 0.114081
vt 0.712890 0.119461
vt 0.712897 0.124640
vt 0.712908 0.129421
vt 0.712923 0.133619
vt 0.712942 0.137072
vt 0.712963 0.139649
vt 0.884192 0.212380
vt 0.884187 0.214800
vt 0.884200 0.217099
vt 0.884232 0.219188
vt 0.855353 0.028131
vt 0.855339 0.030688
vt 0.855328 0.033765
vt 0.855319 0.037244
vt 0.486234 0.430910
vt 0.467508 0.425584
vt 0.450053 0.417383
vt 0.434540 0.406622
vt 0.421564 0.393716
vt 0.411623 0.379159
vt 0.405101 0.363512
vt 0.402248 0.347376
vt 0.403174 0.331371
vt 0.407842 0.316111
vt 0.416074 0.302184
vt 0.427553 0.290124
vt 0.441838 0.280395
vt 0.458380 0.273371
vt 0.476543 0.269322
vt 0.495630 0.268404
vt 0.514907 0.270651
vt 0.533633 0.275977
vt 0.551087 0.284178
vt 0.566602 0.294938
vt 0.579578 0.307845
vt 0.589518 0.322401
vt 0.596040 0.338048
vt 0.598893 0.354185
vt 0.597967 0.370190
vt 0.593299 0.385450
vt 0.585067 0.399377
vt 0.573589 0.411436
vt 0.559303 0.421165
vt 0.542761 0.428189
vt 0.524598 0.432238
vt 0.505511 0.433157
vt 0.860498 0.044866
vt 0.860500 0.048713
vt 0.720139 0.091245
vt 0.720121 0.094646
vt 0.884215 0.209930
vt 0.891412 0.209930
vt 0.891388 0.212380
vt 0.860505 0.052387
vt 0.860513 0.055747
vt 0.720106 0.098800
vt 0.720094 0.103549
vt 0.891383 0.214800
vt 0.891397 0.217099
vt 0.860524 0.058665
vt 0.860538 0.061028
vt 0.720088 0.108708
vt 0.720085 0.114081
vt 0.855368 0.026192
vt 0.860554 0.026197
vt 0.860538 0.028135
vt 0.876899 0.219235
vt 0.869703 0.219235
vt 0.869737 0.216952
vt 0.860524 0.030692
vt 0.860513 0.033769
vt 0.720088 0.119461
vt 0.720094 0.124640
vt 0.869749 0.214579
vt 0.869738 0.212208
vt 0.860505 0.037248
vt 0.860500 0.040995
vt 0.720106 0.129421
vt 0.720121 0.133619
vt 0.712963 0.088728
vt 0.720160 0.088728
vt 0.720139 0.137072
vt 0.720160 0.139649
vt 0.891428 0.219188
vt 0.860554 0.062745
vt 0.869706 0.209930
vn 0.000000 -1.000000 0.000000
vn 0.000000 1.000000 -0.000000
vn 0.108200 0.000000 -0.994100
vn 0.822800 0.000000 0.568300
vn -0.967100 0.000000 0.254300
vn 0.526700 0.000000 -0.850100
vn 0.537100 0.000000 0.843500
vn -0.996900 0.000000 -0.079100
vn 0.816900 0.000000 -0.576800
vn 0.121800 0.000000 0.992600
vn -0.912200 0.000000 -0.409700
vn 0.967100 0.000000 -0.254300
vn -0.698200 0.000000 -0.715900
vn -0.329600 0.000000 0.944100
vn 0.996900 0.000000 0.079100
vn -0.342000 0.000000 -0.939700
vn -0.690100 0.000000 0.723700
vn 0.912200 0.000000 0.409700
vn -0.908300 0.000000 0.418400
vn 0.329600 0.000000 -0.944100
vn 0.698200 0.000000 0.715900
vn -0.996100 0.000000 0.087900
vn 0.690100 0.000000 -0.723700
vn 0.342000 0.000000 0.939700
vn -0.969400 0.000000 -0.245600
vn 0.908300 0.000000 -0.418400
vn -0.822800 0.000000 -0.568300
vn -0.108200 0.000000 0.994100
vn 0.996100 0.000000 -0.087900
vn -0.537100 0.000000 -0.843500
vn -0.526700 0.000000 0.850100
vn 0.969400 0.000000 0.245600
vn -0.121700 0.000000 -0.992600
vn -0.816900 0.000000 0.576800
usemtl Material.001
s off
f 2/1/1 1/2/1 32/3/1 31/4/1 30/5/1 29/6/1 28/7/1 27/8/1 26/9/1 25/10/1 24/11/1 23/12/1 22/13/1 21/14/1 20/15/1 19/16/1 18/17/1 17/18/1 16/19/1 15/20/1 14/21/1 13/22/1 12/23/1 11/24/1 10/25/1 9/26/1 8/27/1 7/28/1 6/29/1 5/30/1 4/31/1 3/32/1
usemtl buttons
f 33/33/2 35/34/2 36/35/2 37/36/2 38/37/2 39/38/2 40/39/2 41/40/2 42/41/2 43/42/2 44/43/2 45/44/2 46/45/2 47/46/2 48/47/2 49/48/2 50/49/2 51/50/2 52/51/2 53/52/2 54/53/2 55/54/2 56/55/2 57/56/2 58/57/2 59/58/2 60/59/2 61/60/2 62/61/2 63/62/2 64/63/2 34/64/2
f 32/3/3 1/2/3 34/65/3 64/66/3
f 21/14/4 22/13/4 54/67/4 53/68/4
f 10/25/5 11/69/5 43/70/5 42/71/5
f 30/5/6 31/4/6 63/72/6 62/73/6
f 19/16/7 20/15/7 52/74/7 51/75/7
f 8/27/8 9/26/8 41/76/8 40/77/8
f 28/7/9 29/6/9 61/78/9 60/79/9
f 17/18/10 18/17/10 50/80/10 49/81/10
f 6/29/11 7/82/11 39/83/11 38/84/11
f 26/9/12 27/85/12 59/86/12 58/87/12
f 4/31/13 5/30/13 37/88/13 36/89/13
f 15/20/14 16/19/14 48/90/14 47/91/14
f 24/11/15 25/10/15 57/92/15 56/93/15
f 2/1/16 3/32/16 35/94/16 33/95/16
f 13/22/17 14/21/17 46/96/17 45/97/17
f 22/13/18 23/98/18 55/99/18 54/67/18
f 11/24/19 12/23/19 44/100/19 43/101/19
f 31/4/20 32/3/20 64/66/20 63/72/20
f 20/15/21 21/14/21 53/68/21 52/74/21
f 9/26/22 10/25/22 42/71/22 41/76/22
f 29/6/23 30/5/23 62/73/23 61/78/23
f 18/17/24 19/16/24 51/75/24 50/80/24
f 7/28/25 8/27/25 40/77/25 39/102/25
f 27/8/26 28/7/26 60/79/26 59/103/26
f 5/30/27 6/29/27 38/84/27 37/88/27
f 16/19/28 17/18/28 49/81/28 48/90/28
f 25/10/29 26/9/29 58/87/29 57/92/29
f 3/32/30 4/31/30 36/89/30 35/94/30
f 14/21/31 15/20/31 47/91/31 46/96/31
f 23/12/32 24/11/32 56/93/32 55/104/32
f 1/2/33 2/1/33 33/95/33 34/65/33
f 12/23/34 13/22/34 45/97/34 44/100/34
